G75*
%MOIN*%
%OFA0B0*%
%FSLAX25Y25*%
%IPPOS*%
%LPD*%
%AMOC8*
5,1,8,0,0,1.08239X$1,22.5*
%
%ADD10C,0.00100*%
D10*
X0033486Y0047728D02*
X0122947Y0047728D01*
X0124347Y0047811D02*
X0116930Y0047374D01*
X0109770Y0046100D01*
X0102918Y0044035D01*
X0096422Y0041231D01*
X0090330Y0037738D01*
X0084694Y0033605D01*
X0079560Y0028881D01*
X0074980Y0023617D01*
X0017254Y0057161D01*
X0017254Y0149969D01*
X0072333Y0210670D01*
X0077703Y0208808D01*
X0082961Y0206744D01*
X0088106Y0204482D01*
X0093133Y0202029D01*
X0098038Y0199389D01*
X0102817Y0196568D01*
X0107465Y0193570D01*
X0111980Y0190400D01*
X0116357Y0187065D01*
X0120593Y0183568D01*
X0124682Y0179916D01*
X0128622Y0176112D01*
X0132408Y0172163D01*
X0136037Y0168073D01*
X0139504Y0163848D01*
X0142805Y0159493D01*
X0145937Y0155012D01*
X0148896Y0150411D01*
X0151677Y0145695D01*
X0154277Y0140869D01*
X0156692Y0135939D01*
X0158917Y0130909D01*
X0160950Y0125784D01*
X0162785Y0120570D01*
X0164419Y0115272D01*
X0165848Y0109894D01*
X0167068Y0104443D01*
X0168075Y0098923D01*
X0168865Y0093339D01*
X0017254Y0093339D01*
X0017254Y0093241D02*
X0168875Y0093241D01*
X0168865Y0093339D02*
X0169434Y0087697D01*
X0169779Y0082001D01*
X0169894Y0076257D01*
X0169822Y0071691D01*
X0169604Y0067137D01*
X0169241Y0062600D01*
X0168734Y0058084D01*
X0168084Y0053592D01*
X0167291Y0049128D01*
X0166356Y0044696D01*
X0165280Y0040300D01*
X0163475Y0034032D01*
X0159326Y0037097D01*
X0154926Y0039819D01*
X0150294Y0042177D01*
X0145450Y0044152D01*
X0140414Y0045722D01*
X0135205Y0046869D01*
X0129843Y0047572D01*
X0124347Y0047811D01*
X0126244Y0047728D02*
X0166996Y0047728D01*
X0166975Y0047630D02*
X0128513Y0047630D01*
X0130154Y0047531D02*
X0166955Y0047531D01*
X0166934Y0047433D02*
X0130905Y0047433D01*
X0131656Y0047334D02*
X0166913Y0047334D01*
X0166892Y0047236D02*
X0132408Y0047236D01*
X0133159Y0047137D02*
X0166871Y0047137D01*
X0166851Y0047039D02*
X0133910Y0047039D01*
X0134661Y0046940D02*
X0166830Y0046940D01*
X0166809Y0046842D02*
X0135329Y0046842D01*
X0135776Y0046743D02*
X0166788Y0046743D01*
X0166768Y0046645D02*
X0136224Y0046645D01*
X0136672Y0046546D02*
X0166747Y0046546D01*
X0166726Y0046448D02*
X0137119Y0046448D01*
X0137567Y0046349D02*
X0166705Y0046349D01*
X0166684Y0046251D02*
X0138014Y0046251D01*
X0138462Y0046152D02*
X0166664Y0046152D01*
X0166643Y0046054D02*
X0138909Y0046054D01*
X0139357Y0045955D02*
X0166622Y0045955D01*
X0166601Y0045857D02*
X0139805Y0045857D01*
X0140252Y0045758D02*
X0166580Y0045758D01*
X0166560Y0045660D02*
X0140616Y0045660D01*
X0140932Y0045561D02*
X0166539Y0045561D01*
X0166518Y0045463D02*
X0141247Y0045463D01*
X0141563Y0045364D02*
X0166497Y0045364D01*
X0166477Y0045266D02*
X0141879Y0045266D01*
X0142195Y0045167D02*
X0166456Y0045167D01*
X0166435Y0045068D02*
X0142511Y0045068D01*
X0142827Y0044970D02*
X0166414Y0044970D01*
X0166393Y0044871D02*
X0143142Y0044871D01*
X0143458Y0044773D02*
X0166373Y0044773D01*
X0166351Y0044674D02*
X0143774Y0044674D01*
X0144090Y0044576D02*
X0166327Y0044576D01*
X0166303Y0044477D02*
X0144406Y0044477D01*
X0144722Y0044379D02*
X0166279Y0044379D01*
X0166255Y0044280D02*
X0145037Y0044280D01*
X0145353Y0044182D02*
X0166230Y0044182D01*
X0166206Y0044083D02*
X0145618Y0044083D01*
X0145859Y0043985D02*
X0166182Y0043985D01*
X0166158Y0043886D02*
X0146101Y0043886D01*
X0146343Y0043788D02*
X0166134Y0043788D01*
X0166110Y0043689D02*
X0146584Y0043689D01*
X0146826Y0043591D02*
X0166086Y0043591D01*
X0166062Y0043492D02*
X0147068Y0043492D01*
X0147309Y0043394D02*
X0166037Y0043394D01*
X0166013Y0043295D02*
X0147551Y0043295D01*
X0147793Y0043197D02*
X0165989Y0043197D01*
X0165965Y0043098D02*
X0148034Y0043098D01*
X0148276Y0043000D02*
X0165941Y0043000D01*
X0165917Y0042901D02*
X0148518Y0042901D01*
X0148759Y0042803D02*
X0165893Y0042803D01*
X0165868Y0042704D02*
X0149001Y0042704D01*
X0149243Y0042606D02*
X0165844Y0042606D01*
X0165820Y0042507D02*
X0149484Y0042507D01*
X0149726Y0042409D02*
X0165796Y0042409D01*
X0165772Y0042310D02*
X0149968Y0042310D01*
X0150209Y0042212D02*
X0165748Y0042212D01*
X0165724Y0042113D02*
X0150420Y0042113D01*
X0150613Y0042015D02*
X0165700Y0042015D01*
X0165675Y0041916D02*
X0150807Y0041916D01*
X0151000Y0041818D02*
X0165651Y0041818D01*
X0165627Y0041719D02*
X0151194Y0041719D01*
X0151387Y0041621D02*
X0165603Y0041621D01*
X0165579Y0041522D02*
X0151581Y0041522D01*
X0151774Y0041424D02*
X0165555Y0041424D01*
X0165531Y0041325D02*
X0151968Y0041325D01*
X0152161Y0041227D02*
X0165507Y0041227D01*
X0165482Y0041128D02*
X0152355Y0041128D01*
X0152548Y0041030D02*
X0165458Y0041030D01*
X0165434Y0040931D02*
X0152742Y0040931D01*
X0152935Y0040833D02*
X0165410Y0040833D01*
X0165386Y0040734D02*
X0153129Y0040734D01*
X0153322Y0040635D02*
X0165362Y0040635D01*
X0165338Y0040537D02*
X0153516Y0040537D01*
X0153709Y0040438D02*
X0165313Y0040438D01*
X0165289Y0040340D02*
X0153903Y0040340D01*
X0154096Y0040241D02*
X0165263Y0040241D01*
X0165234Y0040143D02*
X0154290Y0040143D01*
X0154483Y0040044D02*
X0165206Y0040044D01*
X0165178Y0039946D02*
X0154677Y0039946D01*
X0154870Y0039847D02*
X0165149Y0039847D01*
X0165121Y0039749D02*
X0155039Y0039749D01*
X0155198Y0039650D02*
X0165093Y0039650D01*
X0165064Y0039552D02*
X0155358Y0039552D01*
X0155517Y0039453D02*
X0165036Y0039453D01*
X0165007Y0039355D02*
X0155676Y0039355D01*
X0155836Y0039256D02*
X0164979Y0039256D01*
X0164951Y0039158D02*
X0155995Y0039158D01*
X0156154Y0039059D02*
X0164922Y0039059D01*
X0164894Y0038961D02*
X0156313Y0038961D01*
X0156473Y0038862D02*
X0164866Y0038862D01*
X0164837Y0038764D02*
X0156632Y0038764D01*
X0156791Y0038665D02*
X0164809Y0038665D01*
X0164781Y0038567D02*
X0156950Y0038567D01*
X0157110Y0038468D02*
X0164752Y0038468D01*
X0164724Y0038370D02*
X0157269Y0038370D01*
X0157428Y0038271D02*
X0164696Y0038271D01*
X0164667Y0038173D02*
X0157588Y0038173D01*
X0157747Y0038074D02*
X0164639Y0038074D01*
X0164610Y0037976D02*
X0157906Y0037976D01*
X0158065Y0037877D02*
X0164582Y0037877D01*
X0164554Y0037779D02*
X0158225Y0037779D01*
X0158384Y0037680D02*
X0164525Y0037680D01*
X0164497Y0037582D02*
X0158543Y0037582D01*
X0158702Y0037483D02*
X0164469Y0037483D01*
X0164440Y0037385D02*
X0158862Y0037385D01*
X0159021Y0037286D02*
X0164412Y0037286D01*
X0164384Y0037188D02*
X0159180Y0037188D01*
X0159337Y0037089D02*
X0164355Y0037089D01*
X0164327Y0036991D02*
X0159471Y0036991D01*
X0159604Y0036892D02*
X0164299Y0036892D01*
X0164270Y0036794D02*
X0159737Y0036794D01*
X0159871Y0036695D02*
X0164242Y0036695D01*
X0164213Y0036597D02*
X0160004Y0036597D01*
X0160137Y0036498D02*
X0164185Y0036498D01*
X0164157Y0036399D02*
X0160271Y0036399D01*
X0160404Y0036301D02*
X0164128Y0036301D01*
X0164100Y0036202D02*
X0160537Y0036202D01*
X0160671Y0036104D02*
X0164072Y0036104D01*
X0164043Y0036005D02*
X0160804Y0036005D01*
X0160937Y0035907D02*
X0164015Y0035907D01*
X0163987Y0035808D02*
X0161071Y0035808D01*
X0161204Y0035710D02*
X0163958Y0035710D01*
X0163930Y0035611D02*
X0161337Y0035611D01*
X0161471Y0035513D02*
X0163902Y0035513D01*
X0163873Y0035414D02*
X0161604Y0035414D01*
X0161737Y0035316D02*
X0163845Y0035316D01*
X0163816Y0035217D02*
X0161871Y0035217D01*
X0162004Y0035119D02*
X0163788Y0035119D01*
X0163760Y0035020D02*
X0162137Y0035020D01*
X0162271Y0034922D02*
X0163731Y0034922D01*
X0163703Y0034823D02*
X0162404Y0034823D01*
X0162537Y0034725D02*
X0163675Y0034725D01*
X0163646Y0034626D02*
X0162671Y0034626D01*
X0162804Y0034528D02*
X0163618Y0034528D01*
X0163590Y0034429D02*
X0162937Y0034429D01*
X0163071Y0034331D02*
X0163561Y0034331D01*
X0163533Y0034232D02*
X0163204Y0034232D01*
X0163337Y0034134D02*
X0163505Y0034134D01*
X0163476Y0034035D02*
X0163471Y0034035D01*
X0153425Y0031254D02*
X0153283Y0031596D01*
X0153120Y0031897D01*
X0152934Y0032158D01*
X0152726Y0032379D01*
X0152501Y0032554D01*
X0152262Y0032679D01*
X0152010Y0032754D01*
X0151744Y0032779D01*
X0151426Y0032757D01*
X0151113Y0032693D01*
X0150807Y0032586D01*
X0150506Y0032437D01*
X0149924Y0032008D01*
X0149367Y0031409D01*
X0148586Y0030137D01*
X0148272Y0029064D01*
X0148293Y0028921D01*
X0148354Y0028820D01*
X0148457Y0028759D01*
X0148602Y0028739D01*
X0148732Y0028765D01*
X0148844Y0028842D01*
X0148938Y0028971D01*
X0149013Y0029152D01*
X0149223Y0029698D01*
X0149477Y0030199D01*
X0149773Y0030654D01*
X0150114Y0031062D01*
X0150478Y0031399D01*
X0150850Y0031639D01*
X0151228Y0031783D01*
X0151612Y0031831D01*
X0151947Y0031793D01*
X0152236Y0031679D01*
X0152478Y0031488D01*
X0152673Y0031222D01*
X0152824Y0030874D01*
X0152931Y0030442D01*
X0152996Y0029924D01*
X0153017Y0029320D01*
X0152569Y0029358D01*
X0151949Y0029339D01*
X0150938Y0029311D01*
X0149939Y0029439D01*
X0149481Y0029508D01*
X0149198Y0029305D01*
X0149060Y0028981D01*
X0149193Y0028643D01*
X0149884Y0028473D01*
X0151377Y0028354D01*
X0152326Y0028395D01*
X0152989Y0028428D01*
X0153352Y0028387D01*
X0153535Y0028363D01*
X0153765Y0028448D01*
X0153865Y0028634D01*
X0153796Y0029000D01*
X0153687Y0029760D01*
X0153621Y0030519D01*
X0153425Y0031254D01*
X0153416Y0031277D02*
X0152633Y0031277D01*
X0152692Y0031178D02*
X0153445Y0031178D01*
X0153472Y0031080D02*
X0152735Y0031080D01*
X0152777Y0030981D02*
X0153498Y0030981D01*
X0153524Y0030883D02*
X0152820Y0030883D01*
X0152846Y0030784D02*
X0153550Y0030784D01*
X0153576Y0030686D02*
X0152871Y0030686D01*
X0152895Y0030587D02*
X0153603Y0030587D01*
X0153623Y0030489D02*
X0152920Y0030489D01*
X0152938Y0030390D02*
X0153632Y0030390D01*
X0153641Y0030292D02*
X0152950Y0030292D01*
X0152962Y0030193D02*
X0153649Y0030193D01*
X0153658Y0030095D02*
X0152975Y0030095D01*
X0152987Y0029996D02*
X0153666Y0029996D01*
X0153675Y0029898D02*
X0152997Y0029898D01*
X0153000Y0029799D02*
X0153683Y0029799D01*
X0153695Y0029701D02*
X0153004Y0029701D01*
X0153007Y0029602D02*
X0153709Y0029602D01*
X0153724Y0029504D02*
X0153011Y0029504D01*
X0153014Y0029405D02*
X0153738Y0029405D01*
X0153752Y0029307D02*
X0149200Y0029307D01*
X0149157Y0029208D02*
X0153766Y0029208D01*
X0153780Y0029110D02*
X0149115Y0029110D01*
X0149073Y0029011D02*
X0153794Y0029011D01*
X0153812Y0028913D02*
X0149087Y0028913D01*
X0149126Y0028814D02*
X0153831Y0028814D01*
X0153849Y0028716D02*
X0149164Y0028716D01*
X0149299Y0028617D02*
X0153856Y0028617D01*
X0153803Y0028519D02*
X0149698Y0028519D01*
X0150549Y0028420D02*
X0152837Y0028420D01*
X0153056Y0028420D02*
X0153689Y0028420D01*
X0153636Y0027238D02*
X0152587Y0027233D01*
X0150952Y0027224D01*
X0149412Y0027319D01*
X0148927Y0027366D01*
X0148607Y0027308D01*
X0148514Y0027077D01*
X0148614Y0026774D01*
X0148913Y0026405D01*
X0148968Y0026344D01*
X0149412Y0025895D01*
X0150411Y0024860D01*
X0151669Y0023502D01*
X0152426Y0022826D01*
X0152193Y0022799D01*
X0150750Y0022918D01*
X0149133Y0023079D01*
X0148804Y0022922D01*
X0148666Y0022611D01*
X0148805Y0022170D01*
X0149202Y0022011D01*
X0150228Y0021983D01*
X0150909Y0021966D01*
X0151341Y0021938D01*
X0152454Y0021887D01*
X0152873Y0021922D01*
X0153172Y0022026D01*
X0153352Y0022199D01*
X0153411Y0022441D01*
X0153191Y0022991D01*
X0152385Y0023889D01*
X0151387Y0024947D01*
X0150026Y0026391D01*
X0150361Y0026376D01*
X0151144Y0026344D01*
X0152317Y0026272D01*
X0153554Y0026193D01*
X0153933Y0026336D01*
X0154098Y0026656D01*
X0153962Y0027058D01*
X0153636Y0027238D01*
X0153815Y0027139D02*
X0148539Y0027139D01*
X0148526Y0027041D02*
X0153968Y0027041D01*
X0154001Y0026942D02*
X0148558Y0026942D01*
X0148591Y0026844D02*
X0154034Y0026844D01*
X0154068Y0026745D02*
X0148637Y0026745D01*
X0148717Y0026647D02*
X0154093Y0026647D01*
X0154042Y0026548D02*
X0148796Y0026548D01*
X0148876Y0026450D02*
X0153992Y0026450D01*
X0153941Y0026351D02*
X0150961Y0026351D01*
X0150528Y0025859D02*
X0149447Y0025859D01*
X0149542Y0025760D02*
X0150620Y0025760D01*
X0150713Y0025662D02*
X0149637Y0025662D01*
X0149732Y0025563D02*
X0150806Y0025563D01*
X0150899Y0025465D02*
X0149827Y0025465D01*
X0149922Y0025366D02*
X0150992Y0025366D01*
X0151085Y0025268D02*
X0150017Y0025268D01*
X0150112Y0025169D02*
X0151177Y0025169D01*
X0151270Y0025071D02*
X0150207Y0025071D01*
X0150303Y0024972D02*
X0151363Y0024972D01*
X0151456Y0024874D02*
X0150398Y0024874D01*
X0150489Y0024775D02*
X0151549Y0024775D01*
X0151642Y0024677D02*
X0150581Y0024677D01*
X0150672Y0024578D02*
X0151735Y0024578D01*
X0151828Y0024480D02*
X0150763Y0024480D01*
X0150854Y0024381D02*
X0151921Y0024381D01*
X0152014Y0024283D02*
X0150946Y0024283D01*
X0151037Y0024184D02*
X0152107Y0024184D01*
X0152200Y0024086D02*
X0151128Y0024086D01*
X0151219Y0023987D02*
X0152293Y0023987D01*
X0152386Y0023889D02*
X0151310Y0023889D01*
X0151402Y0023790D02*
X0152474Y0023790D01*
X0152563Y0023692D02*
X0151493Y0023692D01*
X0151584Y0023593D02*
X0152651Y0023593D01*
X0152739Y0023495D02*
X0151677Y0023495D01*
X0151787Y0023396D02*
X0152828Y0023396D01*
X0152916Y0023297D02*
X0151898Y0023297D01*
X0152008Y0023199D02*
X0153005Y0023199D01*
X0153093Y0023100D02*
X0152118Y0023100D01*
X0152229Y0023002D02*
X0153181Y0023002D01*
X0153226Y0022903D02*
X0152339Y0022903D01*
X0152244Y0022805D02*
X0153266Y0022805D01*
X0153305Y0022706D02*
X0148708Y0022706D01*
X0148667Y0022608D02*
X0153345Y0022608D01*
X0153384Y0022509D02*
X0148698Y0022509D01*
X0148729Y0022411D02*
X0153404Y0022411D01*
X0153380Y0022312D02*
X0148760Y0022312D01*
X0148791Y0022214D02*
X0153355Y0022214D01*
X0153265Y0022115D02*
X0148942Y0022115D01*
X0149188Y0022017D02*
X0153146Y0022017D01*
X0152828Y0021918D02*
X0151771Y0021918D01*
X0151429Y0021130D02*
X0151152Y0021130D01*
X0151377Y0021150D02*
X0151544Y0021087D01*
X0151619Y0020962D01*
X0151337Y0019826D01*
X0151126Y0018814D01*
X0150988Y0018579D01*
X0150713Y0018474D01*
X0150434Y0018593D01*
X0150297Y0018869D01*
X0150402Y0019272D01*
X0150520Y0019574D01*
X0150622Y0019876D01*
X0150691Y0020129D01*
X0150371Y0019833D01*
X0150063Y0019490D01*
X0149768Y0019097D01*
X0149484Y0018656D01*
X0149240Y0018216D01*
X0149066Y0017830D01*
X0148962Y0017498D01*
X0148927Y0017219D01*
X0148982Y0016942D01*
X0149149Y0016736D01*
X0149784Y0016564D01*
X0150451Y0016610D01*
X0151114Y0016749D01*
X0151774Y0016981D01*
X0152431Y0017307D01*
X0153017Y0017677D01*
X0153519Y0018087D01*
X0153741Y0018474D01*
X0153708Y0018612D01*
X0153677Y0018814D01*
X0153746Y0018917D01*
X0153901Y0018956D01*
X0154112Y0018919D01*
X0154209Y0018900D01*
X0154698Y0018722D01*
X0154790Y0018470D01*
X0154632Y0018018D01*
X0154017Y0017363D01*
X0152989Y0016647D01*
X0151311Y0015845D01*
X0150534Y0015629D01*
X0149848Y0015557D01*
X0149507Y0015581D01*
X0149201Y0015651D01*
X0148928Y0015769D01*
X0148688Y0015934D01*
X0148494Y0016140D01*
X0148355Y0016377D01*
X0148272Y0016647D01*
X0148244Y0016948D01*
X0148272Y0017329D01*
X0148356Y0017729D01*
X0148495Y0018147D01*
X0148691Y0018584D01*
X0149229Y0019475D01*
X0149953Y0020362D01*
X0149165Y0020317D01*
X0148419Y0020426D01*
X0148254Y0020572D01*
X0148198Y0020792D01*
X0148291Y0021022D01*
X0148505Y0021131D01*
X0148826Y0021090D01*
X0149454Y0021017D01*
X0150741Y0021095D01*
X0151377Y0021150D01*
X0151578Y0021032D02*
X0149698Y0021032D01*
X0149327Y0021032D02*
X0148310Y0021032D01*
X0148255Y0020933D02*
X0151612Y0020933D01*
X0151588Y0020835D02*
X0148216Y0020835D01*
X0148212Y0020736D02*
X0151563Y0020736D01*
X0151539Y0020638D02*
X0148237Y0020638D01*
X0148291Y0020539D02*
X0151514Y0020539D01*
X0151490Y0020441D02*
X0148402Y0020441D01*
X0148990Y0020342D02*
X0149610Y0020342D01*
X0149776Y0020145D02*
X0151416Y0020145D01*
X0151392Y0020047D02*
X0150668Y0020047D01*
X0150602Y0020047D02*
X0149696Y0020047D01*
X0149615Y0019948D02*
X0150495Y0019948D01*
X0150388Y0019850D02*
X0149535Y0019850D01*
X0149454Y0019751D02*
X0150297Y0019751D01*
X0150209Y0019653D02*
X0149374Y0019653D01*
X0149294Y0019554D02*
X0150121Y0019554D01*
X0150037Y0019456D02*
X0149217Y0019456D01*
X0149158Y0019357D02*
X0149963Y0019357D01*
X0149889Y0019259D02*
X0149098Y0019259D01*
X0149039Y0019160D02*
X0149815Y0019160D01*
X0149745Y0019062D02*
X0148979Y0019062D01*
X0148920Y0018963D02*
X0149681Y0018963D01*
X0149618Y0018864D02*
X0148860Y0018864D01*
X0148801Y0018766D02*
X0149555Y0018766D01*
X0149491Y0018667D02*
X0148741Y0018667D01*
X0148684Y0018569D02*
X0149436Y0018569D01*
X0149381Y0018470D02*
X0148640Y0018470D01*
X0148596Y0018372D02*
X0149326Y0018372D01*
X0149272Y0018273D02*
X0148552Y0018273D01*
X0148508Y0018175D02*
X0149221Y0018175D01*
X0149177Y0018076D02*
X0148472Y0018076D01*
X0148439Y0017978D02*
X0149132Y0017978D01*
X0149088Y0017879D02*
X0148406Y0017879D01*
X0148373Y0017781D02*
X0149050Y0017781D01*
X0149020Y0017682D02*
X0148346Y0017682D01*
X0148325Y0017584D02*
X0148989Y0017584D01*
X0148960Y0017485D02*
X0148304Y0017485D01*
X0148284Y0017387D02*
X0148948Y0017387D01*
X0148936Y0017288D02*
X0148269Y0017288D01*
X0148261Y0017190D02*
X0148933Y0017190D01*
X0148953Y0017091D02*
X0148254Y0017091D01*
X0148247Y0016993D02*
X0148972Y0016993D01*
X0149021Y0016894D02*
X0148249Y0016894D01*
X0148258Y0016796D02*
X0149101Y0016796D01*
X0149292Y0016697D02*
X0148267Y0016697D01*
X0148287Y0016599D02*
X0149655Y0016599D01*
X0150285Y0016599D02*
X0152888Y0016599D01*
X0153061Y0016697D02*
X0150866Y0016697D01*
X0151246Y0016796D02*
X0153203Y0016796D01*
X0153344Y0016894D02*
X0151526Y0016894D01*
X0151797Y0016993D02*
X0153485Y0016993D01*
X0153627Y0017091D02*
X0151996Y0017091D01*
X0152195Y0017190D02*
X0153768Y0017190D01*
X0153909Y0017288D02*
X0152394Y0017288D01*
X0152558Y0017387D02*
X0154039Y0017387D01*
X0154132Y0017485D02*
X0152714Y0017485D01*
X0152870Y0017584D02*
X0154224Y0017584D01*
X0154317Y0017682D02*
X0153024Y0017682D01*
X0153144Y0017781D02*
X0154409Y0017781D01*
X0154502Y0017879D02*
X0153265Y0017879D01*
X0153386Y0017978D02*
X0154594Y0017978D01*
X0154653Y0018076D02*
X0153507Y0018076D01*
X0153570Y0018175D02*
X0154687Y0018175D01*
X0154722Y0018273D02*
X0153626Y0018273D01*
X0153683Y0018372D02*
X0154756Y0018372D01*
X0154790Y0018470D02*
X0153739Y0018470D01*
X0153719Y0018569D02*
X0154754Y0018569D01*
X0154718Y0018667D02*
X0153700Y0018667D01*
X0153685Y0018766D02*
X0154576Y0018766D01*
X0154306Y0018864D02*
X0153711Y0018864D01*
X0152682Y0016500D02*
X0148317Y0016500D01*
X0148348Y0016402D02*
X0152476Y0016402D01*
X0152270Y0016303D02*
X0148398Y0016303D01*
X0148456Y0016205D02*
X0152064Y0016205D01*
X0151858Y0016106D02*
X0148525Y0016106D01*
X0148618Y0016008D02*
X0151652Y0016008D01*
X0151446Y0015909D02*
X0148724Y0015909D01*
X0148867Y0015811D02*
X0151188Y0015811D01*
X0150834Y0015712D02*
X0149059Y0015712D01*
X0149364Y0015614D02*
X0150389Y0015614D01*
X0150491Y0018569D02*
X0150961Y0018569D01*
X0151040Y0018667D02*
X0150397Y0018667D01*
X0150348Y0018766D02*
X0151098Y0018766D01*
X0151136Y0018864D02*
X0150299Y0018864D01*
X0150321Y0018963D02*
X0151157Y0018963D01*
X0151177Y0019062D02*
X0150347Y0019062D01*
X0150373Y0019160D02*
X0151198Y0019160D01*
X0151218Y0019259D02*
X0150398Y0019259D01*
X0150435Y0019357D02*
X0151239Y0019357D01*
X0151259Y0019456D02*
X0150474Y0019456D01*
X0150513Y0019554D02*
X0151280Y0019554D01*
X0151301Y0019653D02*
X0150547Y0019653D01*
X0150580Y0019751D02*
X0151321Y0019751D01*
X0151343Y0019850D02*
X0150613Y0019850D01*
X0150642Y0019948D02*
X0151367Y0019948D01*
X0151441Y0020244D02*
X0149856Y0020244D01*
X0149937Y0020342D02*
X0151465Y0020342D01*
X0148512Y0021130D02*
X0148503Y0021130D01*
X0148752Y0022805D02*
X0152124Y0022805D01*
X0150928Y0022903D02*
X0148795Y0022903D01*
X0148971Y0023002D02*
X0149908Y0023002D01*
X0150435Y0025957D02*
X0149350Y0025957D01*
X0149253Y0026056D02*
X0150342Y0026056D01*
X0150249Y0026154D02*
X0149155Y0026154D01*
X0149058Y0026253D02*
X0150156Y0026253D01*
X0150063Y0026351D02*
X0148961Y0026351D01*
X0148579Y0027238D02*
X0150727Y0027238D01*
X0149234Y0027336D02*
X0148763Y0027336D01*
X0148804Y0028814D02*
X0148364Y0028814D01*
X0148298Y0028913D02*
X0148896Y0028913D01*
X0148955Y0029011D02*
X0148280Y0029011D01*
X0148285Y0029110D02*
X0148996Y0029110D01*
X0149035Y0029208D02*
X0148314Y0029208D01*
X0148343Y0029307D02*
X0149073Y0029307D01*
X0149110Y0029405D02*
X0148372Y0029405D01*
X0148401Y0029504D02*
X0149148Y0029504D01*
X0149186Y0029602D02*
X0148430Y0029602D01*
X0148459Y0029701D02*
X0149224Y0029701D01*
X0149274Y0029799D02*
X0148487Y0029799D01*
X0148516Y0029898D02*
X0149324Y0029898D01*
X0149374Y0029996D02*
X0148545Y0029996D01*
X0148574Y0030095D02*
X0149424Y0030095D01*
X0149474Y0030193D02*
X0148621Y0030193D01*
X0148681Y0030292D02*
X0149537Y0030292D01*
X0149602Y0030390D02*
X0148742Y0030390D01*
X0148802Y0030489D02*
X0149666Y0030489D01*
X0149730Y0030587D02*
X0148863Y0030587D01*
X0148923Y0030686D02*
X0149800Y0030686D01*
X0149882Y0030784D02*
X0148983Y0030784D01*
X0149044Y0030883D02*
X0149964Y0030883D01*
X0150046Y0030981D02*
X0149104Y0030981D01*
X0149165Y0031080D02*
X0150133Y0031080D01*
X0150240Y0031178D02*
X0149225Y0031178D01*
X0149286Y0031277D02*
X0150346Y0031277D01*
X0150453Y0031375D02*
X0149346Y0031375D01*
X0149427Y0031474D02*
X0150595Y0031474D01*
X0150747Y0031572D02*
X0149519Y0031572D01*
X0149610Y0031671D02*
X0150934Y0031671D01*
X0151191Y0031769D02*
X0149702Y0031769D01*
X0149794Y0031868D02*
X0153136Y0031868D01*
X0153189Y0031769D02*
X0152008Y0031769D01*
X0152247Y0031671D02*
X0153243Y0031671D01*
X0153293Y0031572D02*
X0152372Y0031572D01*
X0152489Y0031474D02*
X0153334Y0031474D01*
X0153375Y0031375D02*
X0152561Y0031375D01*
X0153071Y0031966D02*
X0149885Y0031966D01*
X0150001Y0032065D02*
X0153000Y0032065D01*
X0152929Y0032164D02*
X0150135Y0032164D01*
X0150269Y0032262D02*
X0152836Y0032262D01*
X0152744Y0032361D02*
X0150403Y0032361D01*
X0150551Y0032459D02*
X0152623Y0032459D01*
X0152494Y0032558D02*
X0150749Y0032558D01*
X0151006Y0032656D02*
X0152306Y0032656D01*
X0152003Y0032755D02*
X0151411Y0032755D01*
X0150205Y0029405D02*
X0149338Y0029405D01*
X0149475Y0029504D02*
X0149509Y0029504D01*
X0152614Y0026253D02*
X0153712Y0026253D01*
X0144972Y0023670D02*
X0144881Y0023838D01*
X0144754Y0023986D01*
X0144450Y0024194D01*
X0144123Y0024264D01*
X0143903Y0024244D01*
X0143746Y0024185D01*
X0143652Y0024085D01*
X0143620Y0023947D01*
X0143640Y0023766D01*
X0143700Y0023625D01*
X0143800Y0023524D01*
X0143941Y0023462D01*
X0144181Y0023326D01*
X0144237Y0023073D01*
X0144130Y0022694D01*
X0143804Y0022200D01*
X0143427Y0021786D01*
X0143157Y0021648D01*
X0142991Y0022024D01*
X0142428Y0024281D01*
X0142268Y0024649D01*
X0142094Y0024958D01*
X0141906Y0025209D01*
X0141705Y0025402D01*
X0141476Y0025545D01*
X0141207Y0025647D01*
X0140899Y0025709D01*
X0140551Y0025729D01*
X0140279Y0025707D01*
X0140016Y0025639D01*
X0139760Y0025526D01*
X0139511Y0025368D01*
X0139061Y0024939D01*
X0138693Y0024378D01*
X0138447Y0023778D01*
X0138365Y0023232D01*
X0138546Y0022596D01*
X0139070Y0022158D01*
X0139744Y0021996D01*
X0140535Y0022167D01*
X0140682Y0022260D01*
X0140787Y0022368D01*
X0140850Y0022489D01*
X0140871Y0022624D01*
X0140851Y0022816D01*
X0140789Y0022954D01*
X0140686Y0023036D01*
X0140541Y0023063D01*
X0140183Y0022981D01*
X0139708Y0022876D01*
X0139242Y0023023D01*
X0139080Y0023493D01*
X0139106Y0023755D01*
X0139183Y0023999D01*
X0139313Y0024224D01*
X0139494Y0024431D01*
X0139710Y0024604D01*
X0139943Y0024728D01*
X0140193Y0024802D01*
X0140459Y0024827D01*
X0140853Y0024777D01*
X0141164Y0024627D01*
X0141407Y0024363D01*
X0141595Y0023965D01*
X0142139Y0021497D01*
X0142227Y0021196D01*
X0142383Y0020982D01*
X0142609Y0020853D01*
X0142906Y0020810D01*
X0143109Y0020836D01*
X0143324Y0020914D01*
X0143552Y0021043D01*
X0143792Y0021225D01*
X0144664Y0022265D01*
X0144949Y0022830D01*
X0145044Y0023279D01*
X0145026Y0023484D01*
X0144972Y0023670D01*
X0144960Y0023692D02*
X0143672Y0023692D01*
X0143638Y0023790D02*
X0144907Y0023790D01*
X0144837Y0023889D02*
X0143627Y0023889D01*
X0143629Y0023987D02*
X0144752Y0023987D01*
X0144608Y0024086D02*
X0143652Y0024086D01*
X0143745Y0024184D02*
X0144465Y0024184D01*
X0144994Y0023593D02*
X0143731Y0023593D01*
X0143867Y0023495D02*
X0145023Y0023495D01*
X0145034Y0023396D02*
X0144057Y0023396D01*
X0144187Y0023297D02*
X0145042Y0023297D01*
X0145027Y0023199D02*
X0144209Y0023199D01*
X0144231Y0023100D02*
X0145006Y0023100D01*
X0144985Y0023002D02*
X0144217Y0023002D01*
X0144189Y0022903D02*
X0144965Y0022903D01*
X0144936Y0022805D02*
X0144161Y0022805D01*
X0144133Y0022706D02*
X0144887Y0022706D01*
X0144837Y0022608D02*
X0144073Y0022608D01*
X0144008Y0022509D02*
X0144788Y0022509D01*
X0144738Y0022411D02*
X0143943Y0022411D01*
X0143878Y0022312D02*
X0144688Y0022312D01*
X0144622Y0022214D02*
X0143813Y0022214D01*
X0143727Y0022115D02*
X0144539Y0022115D01*
X0144456Y0022017D02*
X0143637Y0022017D01*
X0143547Y0021918D02*
X0144374Y0021918D01*
X0144291Y0021820D02*
X0143457Y0021820D01*
X0143300Y0021721D02*
X0144208Y0021721D01*
X0144126Y0021623D02*
X0142112Y0021623D01*
X0142090Y0021721D02*
X0143125Y0021721D01*
X0143081Y0021820D02*
X0142068Y0021820D01*
X0142046Y0021918D02*
X0143038Y0021918D01*
X0142994Y0022017D02*
X0142025Y0022017D01*
X0142003Y0022115D02*
X0142968Y0022115D01*
X0142944Y0022214D02*
X0141981Y0022214D01*
X0141960Y0022312D02*
X0142919Y0022312D01*
X0142895Y0022411D02*
X0141938Y0022411D01*
X0141916Y0022509D02*
X0142870Y0022509D01*
X0142846Y0022608D02*
X0141894Y0022608D01*
X0141873Y0022706D02*
X0142821Y0022706D01*
X0142797Y0022805D02*
X0141851Y0022805D01*
X0141829Y0022903D02*
X0142772Y0022903D01*
X0142747Y0023002D02*
X0141808Y0023002D01*
X0141786Y0023100D02*
X0142723Y0023100D01*
X0142698Y0023199D02*
X0141764Y0023199D01*
X0141742Y0023297D02*
X0142674Y0023297D01*
X0142649Y0023396D02*
X0141721Y0023396D01*
X0141699Y0023495D02*
X0142625Y0023495D01*
X0142600Y0023593D02*
X0141677Y0023593D01*
X0141656Y0023692D02*
X0142575Y0023692D01*
X0142551Y0023790D02*
X0141634Y0023790D01*
X0141612Y0023889D02*
X0142526Y0023889D01*
X0142502Y0023987D02*
X0141585Y0023987D01*
X0141538Y0024086D02*
X0142477Y0024086D01*
X0142453Y0024184D02*
X0141492Y0024184D01*
X0141445Y0024283D02*
X0142428Y0024283D01*
X0142385Y0024381D02*
X0141390Y0024381D01*
X0141299Y0024480D02*
X0142342Y0024480D01*
X0142299Y0024578D02*
X0141209Y0024578D01*
X0141060Y0024677D02*
X0142252Y0024677D01*
X0142197Y0024775D02*
X0140856Y0024775D01*
X0140101Y0024775D02*
X0138954Y0024775D01*
X0139018Y0024874D02*
X0142142Y0024874D01*
X0142083Y0024972D02*
X0139096Y0024972D01*
X0139199Y0025071D02*
X0142010Y0025071D01*
X0141936Y0025169D02*
X0139302Y0025169D01*
X0139406Y0025268D02*
X0141845Y0025268D01*
X0141742Y0025366D02*
X0139509Y0025366D01*
X0139663Y0025465D02*
X0141605Y0025465D01*
X0141429Y0025563D02*
X0139844Y0025563D01*
X0140104Y0025662D02*
X0141135Y0025662D01*
X0139846Y0024677D02*
X0138889Y0024677D01*
X0138824Y0024578D02*
X0139677Y0024578D01*
X0139554Y0024480D02*
X0138760Y0024480D01*
X0138695Y0024381D02*
X0139450Y0024381D01*
X0139364Y0024283D02*
X0138654Y0024283D01*
X0138614Y0024184D02*
X0139290Y0024184D01*
X0139233Y0024086D02*
X0138573Y0024086D01*
X0138533Y0023987D02*
X0139180Y0023987D01*
X0139148Y0023889D02*
X0138493Y0023889D01*
X0138452Y0023790D02*
X0139117Y0023790D01*
X0139099Y0023692D02*
X0138434Y0023692D01*
X0138419Y0023593D02*
X0139089Y0023593D01*
X0139080Y0023495D02*
X0138405Y0023495D01*
X0138390Y0023396D02*
X0139113Y0023396D01*
X0139147Y0023297D02*
X0138375Y0023297D01*
X0138374Y0023199D02*
X0139181Y0023199D01*
X0139215Y0023100D02*
X0138403Y0023100D01*
X0138431Y0023002D02*
X0139308Y0023002D01*
X0139620Y0022903D02*
X0138459Y0022903D01*
X0138487Y0022805D02*
X0140852Y0022805D01*
X0140862Y0022706D02*
X0138515Y0022706D01*
X0138543Y0022608D02*
X0140869Y0022608D01*
X0140853Y0022509D02*
X0138650Y0022509D01*
X0138768Y0022411D02*
X0140809Y0022411D01*
X0140733Y0022312D02*
X0138886Y0022312D01*
X0139004Y0022214D02*
X0140609Y0022214D01*
X0140296Y0022115D02*
X0139248Y0022115D01*
X0139656Y0022017D02*
X0139842Y0022017D01*
X0139922Y0021169D02*
X0139648Y0021051D01*
X0139511Y0020774D01*
X0139635Y0020333D01*
X0140060Y0018690D01*
X0140219Y0018016D01*
X0140496Y0017405D01*
X0140658Y0017152D01*
X0140813Y0016970D01*
X0140958Y0016861D01*
X0141095Y0016825D01*
X0141517Y0017041D01*
X0142580Y0018146D01*
X0143496Y0018841D01*
X0143671Y0018764D01*
X0143787Y0018534D01*
X0143872Y0017594D01*
X0143844Y0016675D01*
X0143789Y0016675D01*
X0142002Y0016761D01*
X0140093Y0016908D01*
X0138946Y0017114D01*
X0138374Y0017210D01*
X0138074Y0017061D01*
X0137944Y0016720D01*
X0138122Y0016254D01*
X0138609Y0016065D01*
X0140770Y0015904D01*
X0141622Y0015832D01*
X0143299Y0015648D01*
X0143385Y0015638D01*
X0143720Y0015552D01*
X0144123Y0015465D01*
X0144443Y0015656D01*
X0144536Y0015951D01*
X0144508Y0016357D01*
X0144472Y0017902D01*
X0144394Y0019258D01*
X0144163Y0019661D01*
X0143834Y0019835D01*
X0143612Y0019807D01*
X0143373Y0019726D01*
X0143119Y0019589D01*
X0142849Y0019397D01*
X0141206Y0017705D01*
X0140959Y0018232D01*
X0140789Y0019002D01*
X0140610Y0019858D01*
X0140468Y0020604D01*
X0140277Y0021006D01*
X0139922Y0021169D01*
X0140006Y0021130D02*
X0139833Y0021130D01*
X0139639Y0021032D02*
X0140221Y0021032D01*
X0140312Y0020933D02*
X0139590Y0020933D01*
X0139541Y0020835D02*
X0140358Y0020835D01*
X0140405Y0020736D02*
X0139522Y0020736D01*
X0139549Y0020638D02*
X0140452Y0020638D01*
X0140480Y0020539D02*
X0139577Y0020539D01*
X0139605Y0020441D02*
X0140499Y0020441D01*
X0140518Y0020342D02*
X0139632Y0020342D01*
X0139658Y0020244D02*
X0140537Y0020244D01*
X0140555Y0020145D02*
X0139683Y0020145D01*
X0139709Y0020047D02*
X0140574Y0020047D01*
X0140593Y0019948D02*
X0139734Y0019948D01*
X0139760Y0019850D02*
X0140612Y0019850D01*
X0140633Y0019751D02*
X0139785Y0019751D01*
X0139811Y0019653D02*
X0140653Y0019653D01*
X0140674Y0019554D02*
X0139836Y0019554D01*
X0139862Y0019456D02*
X0140694Y0019456D01*
X0140715Y0019357D02*
X0139887Y0019357D01*
X0139913Y0019259D02*
X0140735Y0019259D01*
X0140756Y0019160D02*
X0139938Y0019160D01*
X0139964Y0019062D02*
X0140776Y0019062D01*
X0140797Y0018963D02*
X0139989Y0018963D01*
X0140015Y0018864D02*
X0140819Y0018864D01*
X0140841Y0018766D02*
X0140040Y0018766D01*
X0140065Y0018667D02*
X0140862Y0018667D01*
X0140884Y0018569D02*
X0140089Y0018569D01*
X0140112Y0018470D02*
X0140906Y0018470D01*
X0140928Y0018372D02*
X0140135Y0018372D01*
X0140158Y0018273D02*
X0140950Y0018273D01*
X0140986Y0018175D02*
X0140182Y0018175D01*
X0140205Y0018076D02*
X0141032Y0018076D01*
X0141078Y0017978D02*
X0140237Y0017978D01*
X0140281Y0017879D02*
X0141124Y0017879D01*
X0141170Y0017781D02*
X0140326Y0017781D01*
X0140370Y0017682D02*
X0142134Y0017682D01*
X0142039Y0017584D02*
X0140415Y0017584D01*
X0140460Y0017485D02*
X0141945Y0017485D01*
X0141850Y0017387D02*
X0140508Y0017387D01*
X0140571Y0017288D02*
X0141755Y0017288D01*
X0141660Y0017190D02*
X0140634Y0017190D01*
X0140710Y0017091D02*
X0141565Y0017091D01*
X0141423Y0016993D02*
X0140794Y0016993D01*
X0140914Y0016894D02*
X0141230Y0016894D01*
X0141550Y0016796D02*
X0137973Y0016796D01*
X0137953Y0016697D02*
X0143324Y0016697D01*
X0143844Y0016697D02*
X0144500Y0016697D01*
X0144502Y0016599D02*
X0137991Y0016599D01*
X0138029Y0016500D02*
X0144505Y0016500D01*
X0144507Y0016402D02*
X0138066Y0016402D01*
X0138104Y0016303D02*
X0144512Y0016303D01*
X0144519Y0016205D02*
X0138250Y0016205D01*
X0138504Y0016106D02*
X0144525Y0016106D01*
X0144532Y0016008D02*
X0139383Y0016008D01*
X0139621Y0016993D02*
X0138048Y0016993D01*
X0138011Y0016894D02*
X0140270Y0016894D01*
X0140705Y0015909D02*
X0144523Y0015909D01*
X0144492Y0015811D02*
X0141818Y0015811D01*
X0142713Y0015712D02*
X0144460Y0015712D01*
X0144372Y0015614D02*
X0143481Y0015614D01*
X0143892Y0015515D02*
X0144207Y0015515D01*
X0144498Y0016796D02*
X0143847Y0016796D01*
X0143850Y0016894D02*
X0144495Y0016894D01*
X0144493Y0016993D02*
X0143853Y0016993D01*
X0143856Y0017091D02*
X0144491Y0017091D01*
X0144489Y0017190D02*
X0143859Y0017190D01*
X0143862Y0017288D02*
X0144486Y0017288D01*
X0144484Y0017387D02*
X0143865Y0017387D01*
X0143868Y0017485D02*
X0144482Y0017485D01*
X0144479Y0017584D02*
X0143871Y0017584D01*
X0143864Y0017682D02*
X0144477Y0017682D01*
X0144475Y0017781D02*
X0143855Y0017781D01*
X0143846Y0017879D02*
X0144473Y0017879D01*
X0144468Y0017978D02*
X0143837Y0017978D01*
X0143828Y0018076D02*
X0144462Y0018076D01*
X0144456Y0018175D02*
X0143820Y0018175D01*
X0143811Y0018273D02*
X0144451Y0018273D01*
X0144445Y0018372D02*
X0143802Y0018372D01*
X0143793Y0018470D02*
X0144439Y0018470D01*
X0144434Y0018569D02*
X0143770Y0018569D01*
X0143720Y0018667D02*
X0144428Y0018667D01*
X0144422Y0018766D02*
X0143667Y0018766D01*
X0143398Y0018766D02*
X0142236Y0018766D01*
X0142141Y0018667D02*
X0143268Y0018667D01*
X0143138Y0018569D02*
X0142045Y0018569D01*
X0141949Y0018470D02*
X0143008Y0018470D01*
X0142878Y0018372D02*
X0141854Y0018372D01*
X0141758Y0018273D02*
X0142748Y0018273D01*
X0142618Y0018175D02*
X0141662Y0018175D01*
X0141567Y0018076D02*
X0142513Y0018076D01*
X0142418Y0017978D02*
X0141471Y0017978D01*
X0141375Y0017879D02*
X0142324Y0017879D01*
X0142229Y0017781D02*
X0141279Y0017781D01*
X0142332Y0018864D02*
X0144416Y0018864D01*
X0144411Y0018963D02*
X0142428Y0018963D01*
X0142523Y0019062D02*
X0144405Y0019062D01*
X0144399Y0019160D02*
X0142619Y0019160D01*
X0142715Y0019259D02*
X0144393Y0019259D01*
X0144337Y0019357D02*
X0142811Y0019357D01*
X0142932Y0019456D02*
X0144280Y0019456D01*
X0144224Y0019554D02*
X0143071Y0019554D01*
X0143238Y0019653D02*
X0144168Y0019653D01*
X0143993Y0019751D02*
X0143448Y0019751D01*
X0143097Y0020835D02*
X0142737Y0020835D01*
X0142469Y0020933D02*
X0143358Y0020933D01*
X0143531Y0021032D02*
X0142347Y0021032D01*
X0142275Y0021130D02*
X0143667Y0021130D01*
X0143795Y0021229D02*
X0142217Y0021229D01*
X0142189Y0021327D02*
X0143878Y0021327D01*
X0143960Y0021426D02*
X0142160Y0021426D01*
X0142133Y0021524D02*
X0144043Y0021524D01*
X0140812Y0022903D02*
X0139834Y0022903D01*
X0140275Y0023002D02*
X0140728Y0023002D01*
X0143179Y0025680D02*
X0143459Y0025573D01*
X0143735Y0025665D01*
X0143872Y0025891D01*
X0144091Y0027163D01*
X0144211Y0027778D01*
X0144339Y0028409D01*
X0144605Y0029898D01*
X0143815Y0029898D01*
X0143780Y0029810D02*
X0143711Y0029086D01*
X0143573Y0028300D01*
X0143504Y0028300D01*
X0142438Y0028359D01*
X0141883Y0028400D01*
X0140804Y0028463D01*
X0139917Y0028534D01*
X0139442Y0028647D01*
X0138946Y0028753D01*
X0138681Y0028595D01*
X0138581Y0028198D01*
X0138779Y0027807D01*
X0139464Y0027589D01*
X0141009Y0027474D01*
X0142217Y0027424D01*
X0143345Y0027365D01*
X0143193Y0026691D01*
X0143038Y0025926D01*
X0143179Y0025680D01*
X0143226Y0025662D02*
X0143725Y0025662D01*
X0143793Y0025760D02*
X0143133Y0025760D01*
X0143077Y0025859D02*
X0143852Y0025859D01*
X0143883Y0025957D02*
X0143044Y0025957D01*
X0143064Y0026056D02*
X0143900Y0026056D01*
X0143917Y0026154D02*
X0143084Y0026154D01*
X0143104Y0026253D02*
X0143934Y0026253D01*
X0143951Y0026351D02*
X0143124Y0026351D01*
X0143144Y0026450D02*
X0143968Y0026450D01*
X0143985Y0026548D02*
X0143164Y0026548D01*
X0143184Y0026647D02*
X0144002Y0026647D01*
X0144019Y0026745D02*
X0143205Y0026745D01*
X0143227Y0026844D02*
X0144036Y0026844D01*
X0144053Y0026942D02*
X0143250Y0026942D01*
X0143272Y0027041D02*
X0144069Y0027041D01*
X0144086Y0027139D02*
X0143294Y0027139D01*
X0143316Y0027238D02*
X0144105Y0027238D01*
X0144124Y0027336D02*
X0143338Y0027336D01*
X0144144Y0027435D02*
X0141962Y0027435D01*
X0141537Y0028420D02*
X0138637Y0028420D01*
X0138661Y0028519D02*
X0140111Y0028519D01*
X0139568Y0028617D02*
X0138717Y0028617D01*
X0138883Y0028716D02*
X0139121Y0028716D01*
X0138612Y0028322D02*
X0143117Y0028322D01*
X0143577Y0028322D02*
X0144321Y0028322D01*
X0144341Y0028420D02*
X0143594Y0028420D01*
X0143611Y0028519D02*
X0144358Y0028519D01*
X0144376Y0028617D02*
X0143628Y0028617D01*
X0143646Y0028716D02*
X0144394Y0028716D01*
X0144411Y0028814D02*
X0143663Y0028814D01*
X0143680Y0028913D02*
X0144429Y0028913D01*
X0144447Y0029011D02*
X0143697Y0029011D01*
X0143713Y0029110D02*
X0144464Y0029110D01*
X0144482Y0029208D02*
X0143722Y0029208D01*
X0143732Y0029307D02*
X0144499Y0029307D01*
X0144517Y0029405D02*
X0143741Y0029405D01*
X0143750Y0029504D02*
X0144535Y0029504D01*
X0144552Y0029602D02*
X0143760Y0029602D01*
X0143769Y0029701D02*
X0144570Y0029701D01*
X0144588Y0029799D02*
X0143778Y0029799D01*
X0143780Y0029810D02*
X0143907Y0030129D01*
X0144192Y0030264D01*
X0144474Y0030153D01*
X0144605Y0029898D01*
X0144554Y0029996D02*
X0143854Y0029996D01*
X0143894Y0030095D02*
X0144504Y0030095D01*
X0144371Y0030193D02*
X0144043Y0030193D01*
X0144301Y0028223D02*
X0138587Y0028223D01*
X0138618Y0028125D02*
X0144281Y0028125D01*
X0144261Y0028026D02*
X0138668Y0028026D01*
X0138718Y0027928D02*
X0144241Y0027928D01*
X0144221Y0027829D02*
X0138768Y0027829D01*
X0139020Y0027730D02*
X0144202Y0027730D01*
X0144182Y0027632D02*
X0139328Y0027632D01*
X0140210Y0027533D02*
X0144163Y0027533D01*
X0134739Y0029698D02*
X0134454Y0029132D01*
X0133581Y0028092D01*
X0133341Y0027911D01*
X0133113Y0027781D01*
X0132898Y0027704D01*
X0132695Y0027678D01*
X0132399Y0027720D01*
X0132173Y0027849D01*
X0132016Y0028063D01*
X0131929Y0028364D01*
X0131385Y0030833D01*
X0131196Y0031230D01*
X0130953Y0031494D01*
X0130642Y0031644D01*
X0130248Y0031694D01*
X0129982Y0031670D01*
X0129732Y0031595D01*
X0129499Y0031471D01*
X0129283Y0031299D01*
X0129102Y0031092D01*
X0128973Y0030866D01*
X0128895Y0030622D01*
X0128869Y0030361D01*
X0129031Y0029890D01*
X0129497Y0029743D01*
X0129973Y0029848D01*
X0130331Y0029931D01*
X0130475Y0029903D01*
X0130578Y0029821D01*
X0130640Y0029683D01*
X0130661Y0029491D01*
X0130639Y0029356D01*
X0130576Y0029235D01*
X0130471Y0029128D01*
X0130324Y0029035D01*
X0129533Y0028863D01*
X0128859Y0029026D01*
X0128336Y0029463D01*
X0128154Y0030100D01*
X0128236Y0030645D01*
X0128483Y0031246D01*
X0128850Y0031806D01*
X0129300Y0032235D01*
X0129549Y0032393D01*
X0129805Y0032506D01*
X0130069Y0032574D01*
X0130340Y0032596D01*
X0130689Y0032576D01*
X0130997Y0032515D01*
X0131265Y0032413D01*
X0131494Y0032270D01*
X0131696Y0032076D01*
X0131883Y0031825D01*
X0132057Y0031516D01*
X0132218Y0031149D01*
X0132781Y0028891D01*
X0132946Y0028516D01*
X0133216Y0028654D01*
X0133594Y0029068D01*
X0133919Y0029561D01*
X0134027Y0029940D01*
X0133970Y0030193D01*
X0134829Y0030193D01*
X0134833Y0030146D02*
X0134815Y0030352D01*
X0134761Y0030538D01*
X0134670Y0030705D01*
X0134543Y0030853D01*
X0134239Y0031061D01*
X0133913Y0031131D01*
X0133692Y0031111D01*
X0133535Y0031052D01*
X0133441Y0030953D01*
X0133409Y0030814D01*
X0133430Y0030633D01*
X0133489Y0030492D01*
X0133589Y0030391D01*
X0133730Y0030330D01*
X0133970Y0030193D01*
X0133992Y0030095D02*
X0134823Y0030095D01*
X0134833Y0030146D02*
X0134739Y0029698D01*
X0134739Y0029701D02*
X0133959Y0029701D01*
X0133987Y0029799D02*
X0134760Y0029799D01*
X0134781Y0029898D02*
X0134015Y0029898D01*
X0134014Y0029996D02*
X0134802Y0029996D01*
X0134821Y0030292D02*
X0133797Y0030292D01*
X0133591Y0030390D02*
X0134804Y0030390D01*
X0134775Y0030489D02*
X0133493Y0030489D01*
X0133449Y0030587D02*
X0134734Y0030587D01*
X0134681Y0030686D02*
X0133424Y0030686D01*
X0133413Y0030784D02*
X0134602Y0030784D01*
X0134500Y0030883D02*
X0133425Y0030883D01*
X0133468Y0030981D02*
X0134356Y0030981D01*
X0134153Y0031080D02*
X0133609Y0031080D01*
X0132309Y0030784D02*
X0131395Y0030784D01*
X0131417Y0030686D02*
X0132333Y0030686D01*
X0132358Y0030587D02*
X0131439Y0030587D01*
X0131460Y0030489D02*
X0132382Y0030489D01*
X0132407Y0030390D02*
X0131482Y0030390D01*
X0131504Y0030292D02*
X0132431Y0030292D01*
X0132456Y0030193D02*
X0131526Y0030193D01*
X0131547Y0030095D02*
X0132481Y0030095D01*
X0132505Y0029996D02*
X0131569Y0029996D01*
X0131591Y0029898D02*
X0132530Y0029898D01*
X0132554Y0029799D02*
X0131612Y0029799D01*
X0131634Y0029701D02*
X0132579Y0029701D01*
X0132603Y0029602D02*
X0131656Y0029602D01*
X0131678Y0029504D02*
X0132628Y0029504D01*
X0132652Y0029405D02*
X0131699Y0029405D01*
X0131721Y0029307D02*
X0132677Y0029307D01*
X0132702Y0029208D02*
X0131743Y0029208D01*
X0131764Y0029110D02*
X0132726Y0029110D01*
X0132751Y0029011D02*
X0131786Y0029011D01*
X0131808Y0028913D02*
X0132775Y0028913D01*
X0132815Y0028814D02*
X0131830Y0028814D01*
X0131851Y0028716D02*
X0132858Y0028716D01*
X0132902Y0028617D02*
X0131873Y0028617D01*
X0131895Y0028519D02*
X0132945Y0028519D01*
X0132952Y0028519D02*
X0133939Y0028519D01*
X0134022Y0028617D02*
X0133145Y0028617D01*
X0133273Y0028716D02*
X0134104Y0028716D01*
X0134187Y0028814D02*
X0133363Y0028814D01*
X0133452Y0028913D02*
X0134270Y0028913D01*
X0134352Y0029011D02*
X0133542Y0029011D01*
X0133621Y0029110D02*
X0134435Y0029110D01*
X0134492Y0029208D02*
X0133686Y0029208D01*
X0133751Y0029307D02*
X0134542Y0029307D01*
X0134591Y0029405D02*
X0133816Y0029405D01*
X0133881Y0029504D02*
X0134641Y0029504D01*
X0134691Y0029602D02*
X0133931Y0029602D01*
X0133856Y0028420D02*
X0131916Y0028420D01*
X0131941Y0028322D02*
X0133774Y0028322D01*
X0133691Y0028223D02*
X0131970Y0028223D01*
X0131998Y0028125D02*
X0133608Y0028125D01*
X0133494Y0028026D02*
X0132043Y0028026D01*
X0132116Y0027928D02*
X0133363Y0027928D01*
X0133198Y0027829D02*
X0132208Y0027829D01*
X0132381Y0027730D02*
X0132973Y0027730D01*
X0132643Y0026942D02*
X0130234Y0026942D01*
X0130335Y0026995D02*
X0129990Y0026815D01*
X0129656Y0026594D01*
X0129359Y0026348D01*
X0129098Y0026075D01*
X0128874Y0025776D01*
X0128693Y0025461D01*
X0128565Y0025138D01*
X0128488Y0024808D01*
X0128462Y0024471D01*
X0128509Y0024066D01*
X0128649Y0023716D01*
X0128882Y0023422D01*
X0129208Y0023184D01*
X0129644Y0022999D01*
X0130204Y0022867D01*
X0130890Y0022788D01*
X0131700Y0022762D01*
X0133089Y0022957D01*
X0133671Y0023189D01*
X0134136Y0023495D01*
X0134315Y0023665D01*
X0134443Y0023833D01*
X0134519Y0023997D01*
X0134544Y0024159D01*
X0134391Y0024471D01*
X0134091Y0024618D01*
X0133567Y0024537D01*
X0133362Y0024366D01*
X0133436Y0024205D01*
X0133519Y0024096D01*
X0132937Y0023880D01*
X0131485Y0023775D01*
X0130540Y0023830D01*
X0129840Y0023994D01*
X0129587Y0024113D01*
X0129407Y0024251D01*
X0129299Y0024406D01*
X0129263Y0024580D01*
X0129302Y0024911D01*
X0129419Y0025222D01*
X0129613Y0025511D01*
X0129883Y0025781D01*
X0130207Y0026007D01*
X0130557Y0026169D01*
X0130933Y0026266D01*
X0131335Y0026298D01*
X0131680Y0026272D01*
X0132014Y0026191D01*
X0132335Y0026056D01*
X0132643Y0025869D01*
X0132923Y0025643D01*
X0133158Y0025400D01*
X0133347Y0025137D01*
X0133491Y0024856D01*
X0133561Y0024755D01*
X0133676Y0024684D01*
X0133834Y0024641D01*
X0134036Y0024627D01*
X0134274Y0024711D01*
X0134366Y0024948D01*
X0134339Y0025223D01*
X0134256Y0025496D01*
X0134117Y0025765D01*
X0133924Y0026033D01*
X0133685Y0026286D01*
X0133412Y0026515D01*
X0133103Y0026718D01*
X0132759Y0026896D01*
X0132396Y0027041D01*
X0132033Y0027146D01*
X0131670Y0027208D01*
X0131306Y0027229D01*
X0130994Y0027203D01*
X0130670Y0027125D01*
X0130335Y0026995D01*
X0130453Y0027041D02*
X0132397Y0027041D01*
X0132055Y0027139D02*
X0130730Y0027139D01*
X0130046Y0026844D02*
X0132859Y0026844D01*
X0133049Y0026745D02*
X0129885Y0026745D01*
X0129736Y0026647D02*
X0133211Y0026647D01*
X0133360Y0026548D02*
X0129601Y0026548D01*
X0129482Y0026450D02*
X0133489Y0026450D01*
X0133607Y0026351D02*
X0129364Y0026351D01*
X0129268Y0026253D02*
X0130881Y0026253D01*
X0130525Y0026154D02*
X0129174Y0026154D01*
X0129083Y0026056D02*
X0130312Y0026056D01*
X0130135Y0025957D02*
X0129009Y0025957D01*
X0128936Y0025859D02*
X0129995Y0025859D01*
X0129863Y0025760D02*
X0128864Y0025760D01*
X0128808Y0025662D02*
X0129764Y0025662D01*
X0129665Y0025563D02*
X0128752Y0025563D01*
X0128696Y0025465D02*
X0129581Y0025465D01*
X0129515Y0025366D02*
X0128656Y0025366D01*
X0128616Y0025268D02*
X0129449Y0025268D01*
X0129399Y0025169D02*
X0128577Y0025169D01*
X0128549Y0025071D02*
X0129362Y0025071D01*
X0129325Y0024972D02*
X0128526Y0024972D01*
X0128503Y0024874D02*
X0129298Y0024874D01*
X0129286Y0024775D02*
X0128485Y0024775D01*
X0128478Y0024677D02*
X0129274Y0024677D01*
X0129263Y0024578D02*
X0128470Y0024578D01*
X0128463Y0024480D02*
X0129284Y0024480D01*
X0129317Y0024381D02*
X0128472Y0024381D01*
X0128484Y0024283D02*
X0129385Y0024283D01*
X0129495Y0024184D02*
X0128495Y0024184D01*
X0128506Y0024086D02*
X0129646Y0024086D01*
X0129870Y0023987D02*
X0128540Y0023987D01*
X0128580Y0023889D02*
X0130290Y0023889D01*
X0131228Y0023790D02*
X0128619Y0023790D01*
X0128668Y0023692D02*
X0134335Y0023692D01*
X0134410Y0023790D02*
X0131691Y0023790D01*
X0132006Y0022805D02*
X0130745Y0022805D01*
X0130051Y0022903D02*
X0132705Y0022903D01*
X0133200Y0023002D02*
X0129637Y0023002D01*
X0129405Y0023100D02*
X0133448Y0023100D01*
X0133686Y0023199D02*
X0129188Y0023199D01*
X0129053Y0023297D02*
X0133836Y0023297D01*
X0133985Y0023396D02*
X0128918Y0023396D01*
X0128824Y0023495D02*
X0134135Y0023495D01*
X0134239Y0023593D02*
X0128746Y0023593D01*
X0129044Y0021909D02*
X0128809Y0021775D01*
X0128719Y0021452D01*
X0128803Y0021175D01*
X0129011Y0020972D01*
X0130440Y0020746D01*
X0132346Y0020435D01*
X0130842Y0019647D01*
X0129726Y0019244D01*
X0129469Y0019089D01*
X0129410Y0018598D01*
X0129493Y0018412D01*
X0129844Y0018195D01*
X0131411Y0017133D01*
X0132066Y0016711D01*
X0131700Y0016734D01*
X0129621Y0016948D01*
X0128691Y0017096D01*
X0128433Y0016938D01*
X0128334Y0016592D01*
X0128360Y0016397D01*
X0128436Y0016247D01*
X0128564Y0016143D01*
X0128744Y0016084D01*
X0130578Y0015929D01*
X0132759Y0015850D01*
X0133056Y0015804D01*
X0133194Y0015781D01*
X0133239Y0015785D01*
X0133483Y0015913D01*
X0133780Y0016184D01*
X0133904Y0016404D01*
X0133885Y0016550D01*
X0133828Y0016663D01*
X0133409Y0016927D01*
X0132320Y0017551D01*
X0131489Y0018065D01*
X0130916Y0018467D01*
X0130601Y0018759D01*
X0132443Y0019670D01*
X0133524Y0020229D01*
X0133846Y0020513D01*
X0133972Y0020943D01*
X0133894Y0021153D01*
X0133661Y0021314D01*
X0132835Y0021452D01*
X0130450Y0021727D01*
X0129044Y0021909D01*
X0128887Y0021820D02*
X0129734Y0021820D01*
X0130497Y0021721D02*
X0128794Y0021721D01*
X0128767Y0021623D02*
X0131351Y0021623D01*
X0132205Y0021524D02*
X0128739Y0021524D01*
X0128727Y0021426D02*
X0132990Y0021426D01*
X0133580Y0021327D02*
X0128757Y0021327D01*
X0128787Y0021229D02*
X0133785Y0021229D01*
X0133903Y0021130D02*
X0128849Y0021130D01*
X0128950Y0021032D02*
X0133939Y0021032D01*
X0133969Y0020933D02*
X0129255Y0020933D01*
X0129880Y0020835D02*
X0133940Y0020835D01*
X0133911Y0020736D02*
X0130503Y0020736D01*
X0131106Y0020638D02*
X0133882Y0020638D01*
X0133853Y0020539D02*
X0131709Y0020539D01*
X0131981Y0020244D02*
X0133540Y0020244D01*
X0133652Y0020342D02*
X0132169Y0020342D01*
X0132312Y0020441D02*
X0133763Y0020441D01*
X0133362Y0020145D02*
X0131793Y0020145D01*
X0131605Y0020047D02*
X0133171Y0020047D01*
X0132980Y0019948D02*
X0131416Y0019948D01*
X0131228Y0019850D02*
X0132790Y0019850D01*
X0132599Y0019751D02*
X0131040Y0019751D01*
X0130852Y0019653D02*
X0132407Y0019653D01*
X0132208Y0019554D02*
X0130584Y0019554D01*
X0130312Y0019456D02*
X0132009Y0019456D01*
X0131810Y0019357D02*
X0130039Y0019357D01*
X0129767Y0019259D02*
X0131610Y0019259D01*
X0131411Y0019160D02*
X0129587Y0019160D01*
X0129466Y0019062D02*
X0131212Y0019062D01*
X0131013Y0018963D02*
X0129454Y0018963D01*
X0129442Y0018864D02*
X0130814Y0018864D01*
X0130615Y0018766D02*
X0129430Y0018766D01*
X0129418Y0018667D02*
X0130700Y0018667D01*
X0130806Y0018569D02*
X0129423Y0018569D01*
X0129467Y0018470D02*
X0130912Y0018470D01*
X0131051Y0018372D02*
X0129558Y0018372D01*
X0129717Y0018273D02*
X0131191Y0018273D01*
X0131332Y0018175D02*
X0129874Y0018175D01*
X0130019Y0018076D02*
X0131472Y0018076D01*
X0131629Y0017978D02*
X0130165Y0017978D01*
X0130310Y0017879D02*
X0131789Y0017879D01*
X0131948Y0017781D02*
X0130455Y0017781D01*
X0130601Y0017682D02*
X0132108Y0017682D01*
X0132267Y0017584D02*
X0130746Y0017584D01*
X0130891Y0017485D02*
X0132435Y0017485D01*
X0132607Y0017387D02*
X0131037Y0017387D01*
X0131182Y0017288D02*
X0132779Y0017288D01*
X0132951Y0017190D02*
X0131327Y0017190D01*
X0131476Y0017091D02*
X0133122Y0017091D01*
X0133294Y0016993D02*
X0131629Y0016993D01*
X0131782Y0016894D02*
X0133461Y0016894D01*
X0133617Y0016796D02*
X0131935Y0016796D01*
X0131103Y0016796D02*
X0128392Y0016796D01*
X0128420Y0016894D02*
X0130147Y0016894D01*
X0129341Y0016993D02*
X0128522Y0016993D01*
X0128683Y0017091D02*
X0128718Y0017091D01*
X0128364Y0016697D02*
X0133773Y0016697D01*
X0133860Y0016599D02*
X0128336Y0016599D01*
X0128346Y0016500D02*
X0133891Y0016500D01*
X0133902Y0016402D02*
X0128359Y0016402D01*
X0128408Y0016303D02*
X0133847Y0016303D01*
X0133792Y0016205D02*
X0128488Y0016205D01*
X0128676Y0016106D02*
X0133695Y0016106D01*
X0133586Y0016008D02*
X0129647Y0016008D01*
X0131126Y0015909D02*
X0133475Y0015909D01*
X0133287Y0015811D02*
X0133012Y0015811D01*
X0138135Y0017091D02*
X0139074Y0017091D01*
X0138494Y0017190D02*
X0138334Y0017190D01*
X0134468Y0023889D02*
X0132960Y0023889D01*
X0133226Y0023987D02*
X0134514Y0023987D01*
X0134533Y0024086D02*
X0133492Y0024086D01*
X0133452Y0024184D02*
X0134532Y0024184D01*
X0134484Y0024283D02*
X0133400Y0024283D01*
X0133380Y0024381D02*
X0134435Y0024381D01*
X0134373Y0024480D02*
X0133499Y0024480D01*
X0133702Y0024677D02*
X0134176Y0024677D01*
X0134172Y0024578D02*
X0133835Y0024578D01*
X0133547Y0024775D02*
X0134299Y0024775D01*
X0134337Y0024874D02*
X0133481Y0024874D01*
X0133431Y0024972D02*
X0134364Y0024972D01*
X0134354Y0025071D02*
X0133381Y0025071D01*
X0133324Y0025169D02*
X0134344Y0025169D01*
X0134325Y0025268D02*
X0133253Y0025268D01*
X0133182Y0025366D02*
X0134295Y0025366D01*
X0134265Y0025465D02*
X0133095Y0025465D01*
X0133000Y0025563D02*
X0134221Y0025563D01*
X0134171Y0025662D02*
X0132900Y0025662D01*
X0132778Y0025760D02*
X0134120Y0025760D01*
X0134050Y0025859D02*
X0132655Y0025859D01*
X0132498Y0025957D02*
X0133978Y0025957D01*
X0133902Y0026056D02*
X0132336Y0026056D01*
X0132101Y0026154D02*
X0133809Y0026154D01*
X0133717Y0026253D02*
X0131758Y0026253D01*
X0130443Y0029110D02*
X0128759Y0029110D01*
X0128641Y0029208D02*
X0130550Y0029208D01*
X0130614Y0029307D02*
X0128523Y0029307D01*
X0128405Y0029405D02*
X0130647Y0029405D01*
X0130659Y0029504D02*
X0128324Y0029504D01*
X0128296Y0029602D02*
X0130649Y0029602D01*
X0130632Y0029701D02*
X0128268Y0029701D01*
X0128240Y0029799D02*
X0129319Y0029799D01*
X0129029Y0029898D02*
X0128212Y0029898D01*
X0128184Y0029996D02*
X0128995Y0029996D01*
X0128961Y0030095D02*
X0128156Y0030095D01*
X0128168Y0030193D02*
X0128927Y0030193D01*
X0128893Y0030292D02*
X0128183Y0030292D01*
X0128198Y0030390D02*
X0128872Y0030390D01*
X0128882Y0030489D02*
X0128213Y0030489D01*
X0128228Y0030587D02*
X0128891Y0030587D01*
X0128915Y0030686D02*
X0128253Y0030686D01*
X0128293Y0030784D02*
X0128947Y0030784D01*
X0128982Y0030883D02*
X0128334Y0030883D01*
X0128374Y0030981D02*
X0129039Y0030981D01*
X0129096Y0031080D02*
X0128415Y0031080D01*
X0128455Y0031178D02*
X0129178Y0031178D01*
X0129264Y0031277D02*
X0128503Y0031277D01*
X0128568Y0031375D02*
X0129379Y0031375D01*
X0129504Y0031474D02*
X0128632Y0031474D01*
X0128697Y0031572D02*
X0129689Y0031572D01*
X0129995Y0031671D02*
X0128762Y0031671D01*
X0128826Y0031769D02*
X0131915Y0031769D01*
X0131970Y0031671D02*
X0130432Y0031671D01*
X0130791Y0031572D02*
X0132026Y0031572D01*
X0132076Y0031474D02*
X0130972Y0031474D01*
X0131062Y0031375D02*
X0132119Y0031375D01*
X0132162Y0031277D02*
X0131153Y0031277D01*
X0131221Y0031178D02*
X0132205Y0031178D01*
X0132235Y0031080D02*
X0131268Y0031080D01*
X0131314Y0030981D02*
X0132259Y0030981D01*
X0132284Y0030883D02*
X0131361Y0030883D01*
X0131851Y0031868D02*
X0128915Y0031868D01*
X0129018Y0031966D02*
X0131778Y0031966D01*
X0131704Y0032065D02*
X0129122Y0032065D01*
X0129225Y0032164D02*
X0131605Y0032164D01*
X0131502Y0032262D02*
X0129342Y0032262D01*
X0129498Y0032361D02*
X0131349Y0032361D01*
X0131143Y0032459D02*
X0129698Y0032459D01*
X0130004Y0032558D02*
X0130781Y0032558D01*
X0130565Y0033346D02*
X0134131Y0033346D01*
X0134219Y0033375D02*
X0134402Y0033807D01*
X0134254Y0034217D01*
X0133913Y0034379D01*
X0133436Y0034341D01*
X0132076Y0034256D01*
X0131367Y0034278D01*
X0130631Y0034344D01*
X0129871Y0034456D01*
X0129085Y0034612D01*
X0128800Y0034667D01*
X0128517Y0034482D01*
X0128398Y0034132D01*
X0128531Y0033724D01*
X0128837Y0033536D01*
X0129263Y0033481D01*
X0130371Y0033361D01*
X0131483Y0033275D01*
X0132598Y0033223D01*
X0133716Y0033206D01*
X0134219Y0033375D01*
X0134248Y0033444D02*
X0129605Y0033444D01*
X0128827Y0033543D02*
X0134290Y0033543D01*
X0134332Y0033641D02*
X0128666Y0033641D01*
X0128526Y0033740D02*
X0134374Y0033740D01*
X0134391Y0033838D02*
X0128494Y0033838D01*
X0128462Y0033937D02*
X0134355Y0033937D01*
X0134319Y0034035D02*
X0128430Y0034035D01*
X0128399Y0034134D02*
X0134284Y0034134D01*
X0134221Y0034232D02*
X0128432Y0034232D01*
X0128466Y0034331D02*
X0130783Y0034331D01*
X0130053Y0034429D02*
X0128499Y0034429D01*
X0128587Y0034528D02*
X0129509Y0034528D01*
X0129009Y0034626D02*
X0128738Y0034626D01*
X0132081Y0033247D02*
X0133837Y0033247D01*
X0134014Y0034331D02*
X0133268Y0034331D01*
X0130482Y0029898D02*
X0130188Y0029898D01*
X0130588Y0029799D02*
X0129752Y0029799D01*
X0129762Y0028913D02*
X0129328Y0028913D01*
X0128919Y0029011D02*
X0130216Y0029011D01*
X0124815Y0027631D02*
X0124761Y0027817D01*
X0124670Y0027985D01*
X0124543Y0028133D01*
X0124239Y0028341D01*
X0123913Y0028411D01*
X0123692Y0028391D01*
X0123535Y0028331D01*
X0123441Y0028232D01*
X0123409Y0028094D01*
X0123430Y0027913D01*
X0123489Y0027772D01*
X0123589Y0027670D01*
X0123730Y0027609D01*
X0123970Y0027473D01*
X0124027Y0027220D01*
X0123919Y0026841D01*
X0123594Y0026347D01*
X0123216Y0025933D01*
X0122946Y0025795D01*
X0122781Y0026170D01*
X0122218Y0028428D01*
X0122057Y0028796D01*
X0121883Y0029105D01*
X0121696Y0029356D01*
X0121494Y0029549D01*
X0121265Y0029692D01*
X0120997Y0029794D01*
X0120689Y0029856D01*
X0120340Y0029876D01*
X0120069Y0029854D01*
X0119805Y0029786D01*
X0119549Y0029673D01*
X0119300Y0029515D01*
X0118850Y0029086D01*
X0118483Y0028525D01*
X0118236Y0027925D01*
X0118154Y0027379D01*
X0118336Y0026743D01*
X0118859Y0026305D01*
X0119533Y0026143D01*
X0120324Y0026314D01*
X0120471Y0026407D01*
X0120576Y0026515D01*
X0120639Y0026636D01*
X0120661Y0026771D01*
X0120640Y0026963D01*
X0120578Y0027100D01*
X0120475Y0027183D01*
X0120331Y0027210D01*
X0119973Y0027128D01*
X0119497Y0027022D01*
X0119031Y0027170D01*
X0118869Y0027640D01*
X0118895Y0027902D01*
X0118973Y0028146D01*
X0119102Y0028371D01*
X0119283Y0028578D01*
X0119499Y0028751D01*
X0119732Y0028875D01*
X0119982Y0028949D01*
X0120248Y0028974D01*
X0120642Y0028924D01*
X0120953Y0028774D01*
X0121196Y0028509D01*
X0121385Y0028112D01*
X0121929Y0025644D01*
X0122016Y0025343D01*
X0122173Y0025129D01*
X0122399Y0025000D01*
X0122695Y0024957D01*
X0122898Y0024983D01*
X0123113Y0025061D01*
X0123341Y0025190D01*
X0123581Y0025372D01*
X0124454Y0026411D01*
X0124739Y0026977D01*
X0124833Y0027426D01*
X0124815Y0027631D01*
X0124815Y0027632D02*
X0123677Y0027632D01*
X0123530Y0027730D02*
X0124786Y0027730D01*
X0124754Y0027829D02*
X0123465Y0027829D01*
X0123428Y0027928D02*
X0124701Y0027928D01*
X0124635Y0028026D02*
X0123417Y0028026D01*
X0123416Y0028125D02*
X0124550Y0028125D01*
X0124411Y0028223D02*
X0123439Y0028223D01*
X0123526Y0028322D02*
X0124268Y0028322D01*
X0123863Y0027533D02*
X0124824Y0027533D01*
X0124833Y0027435D02*
X0123979Y0027435D01*
X0124001Y0027336D02*
X0124815Y0027336D01*
X0124794Y0027238D02*
X0124023Y0027238D01*
X0124004Y0027139D02*
X0124773Y0027139D01*
X0124752Y0027041D02*
X0123976Y0027041D01*
X0123948Y0026942D02*
X0124721Y0026942D01*
X0124671Y0026844D02*
X0123920Y0026844D01*
X0123856Y0026745D02*
X0124622Y0026745D01*
X0124572Y0026647D02*
X0123791Y0026647D01*
X0123726Y0026548D02*
X0124523Y0026548D01*
X0124473Y0026450D02*
X0123661Y0026450D01*
X0123596Y0026351D02*
X0124403Y0026351D01*
X0124320Y0026253D02*
X0123508Y0026253D01*
X0123418Y0026154D02*
X0124238Y0026154D01*
X0124155Y0026056D02*
X0123328Y0026056D01*
X0123238Y0025957D02*
X0124072Y0025957D01*
X0123990Y0025859D02*
X0123071Y0025859D01*
X0122918Y0025859D02*
X0121881Y0025859D01*
X0121860Y0025957D02*
X0122875Y0025957D01*
X0122831Y0026056D02*
X0121838Y0026056D01*
X0121816Y0026154D02*
X0122788Y0026154D01*
X0122760Y0026253D02*
X0121794Y0026253D01*
X0121773Y0026351D02*
X0122736Y0026351D01*
X0122711Y0026450D02*
X0121751Y0026450D01*
X0121729Y0026548D02*
X0122686Y0026548D01*
X0122662Y0026647D02*
X0121708Y0026647D01*
X0121686Y0026745D02*
X0122637Y0026745D01*
X0122613Y0026844D02*
X0121664Y0026844D01*
X0121642Y0026942D02*
X0122588Y0026942D01*
X0122564Y0027041D02*
X0121621Y0027041D01*
X0121599Y0027139D02*
X0122539Y0027139D01*
X0122515Y0027238D02*
X0121577Y0027238D01*
X0121556Y0027336D02*
X0122490Y0027336D01*
X0122465Y0027435D02*
X0121534Y0027435D01*
X0121512Y0027533D02*
X0122441Y0027533D01*
X0122416Y0027632D02*
X0121490Y0027632D01*
X0121469Y0027730D02*
X0122392Y0027730D01*
X0122367Y0027829D02*
X0121447Y0027829D01*
X0121425Y0027928D02*
X0122343Y0027928D01*
X0122318Y0028026D02*
X0121404Y0028026D01*
X0121379Y0028125D02*
X0122293Y0028125D01*
X0122269Y0028223D02*
X0121332Y0028223D01*
X0121285Y0028322D02*
X0122244Y0028322D01*
X0122220Y0028420D02*
X0121239Y0028420D01*
X0121188Y0028519D02*
X0122178Y0028519D01*
X0122135Y0028617D02*
X0121097Y0028617D01*
X0121007Y0028716D02*
X0122092Y0028716D01*
X0122047Y0028814D02*
X0120869Y0028814D01*
X0120665Y0028913D02*
X0121992Y0028913D01*
X0121936Y0029011D02*
X0118801Y0029011D01*
X0118737Y0028913D02*
X0119859Y0028913D01*
X0119618Y0028814D02*
X0118672Y0028814D01*
X0118608Y0028716D02*
X0119455Y0028716D01*
X0119332Y0028617D02*
X0118543Y0028617D01*
X0118480Y0028519D02*
X0119231Y0028519D01*
X0119145Y0028420D02*
X0118440Y0028420D01*
X0118399Y0028322D02*
X0119074Y0028322D01*
X0119017Y0028223D02*
X0118359Y0028223D01*
X0118318Y0028125D02*
X0118966Y0028125D01*
X0118935Y0028026D02*
X0118278Y0028026D01*
X0118237Y0027928D02*
X0118903Y0027928D01*
X0118888Y0027829D02*
X0118222Y0027829D01*
X0118207Y0027730D02*
X0118878Y0027730D01*
X0118872Y0027632D02*
X0118192Y0027632D01*
X0118177Y0027533D02*
X0118906Y0027533D01*
X0118940Y0027435D02*
X0118163Y0027435D01*
X0118166Y0027336D02*
X0118974Y0027336D01*
X0119008Y0027238D02*
X0118195Y0027238D01*
X0118223Y0027139D02*
X0119127Y0027139D01*
X0119439Y0027041D02*
X0118251Y0027041D01*
X0118279Y0026942D02*
X0120642Y0026942D01*
X0120653Y0026844D02*
X0118307Y0026844D01*
X0118335Y0026745D02*
X0120657Y0026745D01*
X0120641Y0026647D02*
X0118451Y0026647D01*
X0118569Y0026548D02*
X0120594Y0026548D01*
X0120513Y0026450D02*
X0118686Y0026450D01*
X0118804Y0026351D02*
X0120383Y0026351D01*
X0120042Y0026253D02*
X0119076Y0026253D01*
X0119485Y0026154D02*
X0119588Y0026154D01*
X0119581Y0027041D02*
X0120605Y0027041D01*
X0120529Y0027139D02*
X0120024Y0027139D01*
X0118875Y0029110D02*
X0121880Y0029110D01*
X0121806Y0029208D02*
X0118979Y0029208D01*
X0119082Y0029307D02*
X0121732Y0029307D01*
X0121644Y0029405D02*
X0119185Y0029405D01*
X0119289Y0029504D02*
X0121542Y0029504D01*
X0121409Y0029602D02*
X0119438Y0029602D01*
X0119612Y0029701D02*
X0121243Y0029701D01*
X0120971Y0029799D02*
X0119857Y0029799D01*
X0119929Y0030587D02*
X0122909Y0030587D01*
X0123089Y0030613D02*
X0123671Y0030844D01*
X0124136Y0031150D01*
X0124315Y0031320D01*
X0124443Y0031488D01*
X0124519Y0031652D01*
X0124544Y0031815D01*
X0124391Y0032126D01*
X0124091Y0032273D01*
X0123567Y0032192D01*
X0123362Y0032021D01*
X0123436Y0031860D01*
X0123519Y0031751D01*
X0122937Y0031535D01*
X0121485Y0031430D01*
X0120540Y0031485D01*
X0119840Y0031649D01*
X0119587Y0031769D01*
X0119407Y0031906D01*
X0119299Y0032061D01*
X0119263Y0032235D01*
X0119302Y0032566D01*
X0119419Y0032877D01*
X0119613Y0033167D01*
X0119883Y0033436D01*
X0120207Y0033663D01*
X0120557Y0033824D01*
X0120933Y0033921D01*
X0121335Y0033954D01*
X0121680Y0033927D01*
X0122014Y0033846D01*
X0122335Y0033711D01*
X0122643Y0033524D01*
X0122923Y0033298D01*
X0123158Y0033055D01*
X0123347Y0032792D01*
X0123491Y0032511D01*
X0123561Y0032410D01*
X0123676Y0032339D01*
X0123834Y0032296D01*
X0124036Y0032282D01*
X0124274Y0032367D01*
X0124366Y0032603D01*
X0124339Y0032878D01*
X0124256Y0033151D01*
X0124117Y0033420D01*
X0123924Y0033688D01*
X0123685Y0033941D01*
X0123412Y0034170D01*
X0123103Y0034373D01*
X0122759Y0034551D01*
X0122396Y0034696D01*
X0122033Y0034801D01*
X0121670Y0034863D01*
X0121306Y0034884D01*
X0120994Y0034858D01*
X0120670Y0034780D01*
X0120335Y0034650D01*
X0119990Y0034470D01*
X0119656Y0034249D01*
X0119359Y0034003D01*
X0119098Y0033730D01*
X0118874Y0033431D01*
X0118693Y0033116D01*
X0118565Y0032793D01*
X0118488Y0032463D01*
X0118462Y0032126D01*
X0118509Y0031721D01*
X0118649Y0031371D01*
X0118882Y0031077D01*
X0119208Y0030839D01*
X0119644Y0030654D01*
X0120204Y0030522D01*
X0120890Y0030443D01*
X0121700Y0030417D01*
X0123089Y0030613D01*
X0123273Y0030686D02*
X0119569Y0030686D01*
X0119337Y0030784D02*
X0123520Y0030784D01*
X0123730Y0030883D02*
X0119148Y0030883D01*
X0119013Y0030981D02*
X0123879Y0030981D01*
X0124029Y0031080D02*
X0118880Y0031080D01*
X0118802Y0031178D02*
X0124166Y0031178D01*
X0124269Y0031277D02*
X0118723Y0031277D01*
X0118647Y0031375D02*
X0124357Y0031375D01*
X0124432Y0031474D02*
X0122090Y0031474D01*
X0123038Y0031572D02*
X0124482Y0031572D01*
X0124522Y0031671D02*
X0123304Y0031671D01*
X0123505Y0031769D02*
X0124537Y0031769D01*
X0124518Y0031868D02*
X0123432Y0031868D01*
X0123387Y0031966D02*
X0124470Y0031966D01*
X0124421Y0032065D02*
X0123415Y0032065D01*
X0123533Y0032164D02*
X0124315Y0032164D01*
X0124257Y0032361D02*
X0123641Y0032361D01*
X0123527Y0032459D02*
X0124310Y0032459D01*
X0124349Y0032558D02*
X0123467Y0032558D01*
X0123416Y0032656D02*
X0124361Y0032656D01*
X0124351Y0032755D02*
X0123366Y0032755D01*
X0123303Y0032853D02*
X0124341Y0032853D01*
X0124316Y0032952D02*
X0123232Y0032952D01*
X0123161Y0033050D02*
X0124286Y0033050D01*
X0124257Y0033149D02*
X0123067Y0033149D01*
X0122973Y0033247D02*
X0124206Y0033247D01*
X0124156Y0033346D02*
X0122865Y0033346D01*
X0122742Y0033444D02*
X0124100Y0033444D01*
X0124029Y0033543D02*
X0122612Y0033543D01*
X0122450Y0033641D02*
X0123957Y0033641D01*
X0123875Y0033740D02*
X0122268Y0033740D01*
X0122033Y0033838D02*
X0123782Y0033838D01*
X0123690Y0033937D02*
X0121552Y0033937D01*
X0121125Y0033937D02*
X0119296Y0033937D01*
X0119201Y0033838D02*
X0120611Y0033838D01*
X0120374Y0033740D02*
X0119107Y0033740D01*
X0119031Y0033641D02*
X0120176Y0033641D01*
X0120036Y0033543D02*
X0118957Y0033543D01*
X0118883Y0033444D02*
X0119895Y0033444D01*
X0119792Y0033346D02*
X0118825Y0033346D01*
X0118768Y0033247D02*
X0119694Y0033247D01*
X0119601Y0033149D02*
X0118712Y0033149D01*
X0118667Y0033050D02*
X0119535Y0033050D01*
X0119469Y0032952D02*
X0118628Y0032952D01*
X0118588Y0032853D02*
X0119410Y0032853D01*
X0119373Y0032755D02*
X0118556Y0032755D01*
X0118533Y0032656D02*
X0119336Y0032656D01*
X0119301Y0032558D02*
X0118510Y0032558D01*
X0118487Y0032459D02*
X0119289Y0032459D01*
X0119278Y0032361D02*
X0118480Y0032361D01*
X0118473Y0032262D02*
X0119266Y0032262D01*
X0119278Y0032164D02*
X0118465Y0032164D01*
X0118469Y0032065D02*
X0119298Y0032065D01*
X0119365Y0031966D02*
X0118480Y0031966D01*
X0118492Y0031868D02*
X0119457Y0031868D01*
X0119586Y0031769D02*
X0118503Y0031769D01*
X0118529Y0031671D02*
X0119794Y0031671D01*
X0120167Y0031572D02*
X0118568Y0031572D01*
X0118608Y0031474D02*
X0120732Y0031474D01*
X0120496Y0030489D02*
X0122210Y0030489D01*
X0124021Y0032262D02*
X0124113Y0032262D01*
X0123573Y0034035D02*
X0119398Y0034035D01*
X0119517Y0034134D02*
X0123455Y0034134D01*
X0123317Y0034232D02*
X0119636Y0034232D01*
X0119780Y0034331D02*
X0123167Y0034331D01*
X0122994Y0034429D02*
X0119929Y0034429D01*
X0120101Y0034528D02*
X0122803Y0034528D01*
X0122571Y0034626D02*
X0120289Y0034626D01*
X0120527Y0034725D02*
X0122297Y0034725D01*
X0121901Y0034823D02*
X0120850Y0034823D01*
X0114128Y0030525D02*
X0113828Y0030664D01*
X0112055Y0030251D01*
X0108890Y0029477D01*
X0108480Y0029349D01*
X0108327Y0029088D01*
X0108491Y0028591D01*
X0108940Y0028259D01*
X0109983Y0027863D01*
X0111443Y0027283D01*
X0112700Y0026711D01*
X0113742Y0026263D01*
X0113959Y0026291D01*
X0114115Y0026374D01*
X0114209Y0026515D01*
X0114241Y0026711D01*
X0114220Y0026908D01*
X0114157Y0027076D01*
X0114052Y0027213D01*
X0113906Y0027319D01*
X0113873Y0027338D01*
X0112818Y0027752D01*
X0111432Y0028245D01*
X0109614Y0028928D01*
X0110933Y0029189D01*
X0111565Y0029336D01*
X0112014Y0029427D01*
X0113806Y0029780D01*
X0114137Y0029948D01*
X0114259Y0030270D01*
X0114128Y0030525D01*
X0114146Y0030489D02*
X0113076Y0030489D01*
X0113499Y0030587D02*
X0113993Y0030587D01*
X0114197Y0030390D02*
X0112653Y0030390D01*
X0112229Y0030292D02*
X0114248Y0030292D01*
X0114230Y0030193D02*
X0111818Y0030193D01*
X0111415Y0030095D02*
X0114193Y0030095D01*
X0114155Y0029996D02*
X0111012Y0029996D01*
X0110610Y0029898D02*
X0114038Y0029898D01*
X0113843Y0029799D02*
X0110207Y0029799D01*
X0109804Y0029701D02*
X0113402Y0029701D01*
X0112902Y0029602D02*
X0109401Y0029602D01*
X0108999Y0029504D02*
X0112402Y0029504D01*
X0111905Y0029405D02*
X0108660Y0029405D01*
X0108456Y0029307D02*
X0111438Y0029307D01*
X0111014Y0029208D02*
X0108398Y0029208D01*
X0108340Y0029110D02*
X0110530Y0029110D01*
X0110442Y0028617D02*
X0108483Y0028617D01*
X0108450Y0028716D02*
X0110180Y0028716D01*
X0109918Y0028814D02*
X0108418Y0028814D01*
X0108385Y0028913D02*
X0109656Y0028913D01*
X0110032Y0029011D02*
X0108352Y0029011D01*
X0108589Y0028519D02*
X0110704Y0028519D01*
X0110966Y0028420D02*
X0108722Y0028420D01*
X0108856Y0028322D02*
X0111228Y0028322D01*
X0111494Y0028223D02*
X0109035Y0028223D01*
X0109295Y0028125D02*
X0111771Y0028125D01*
X0112048Y0028026D02*
X0109554Y0028026D01*
X0109814Y0027928D02*
X0112325Y0027928D01*
X0112602Y0027829D02*
X0110070Y0027829D01*
X0110318Y0027730D02*
X0112873Y0027730D01*
X0113124Y0027632D02*
X0110566Y0027632D01*
X0110814Y0027533D02*
X0113375Y0027533D01*
X0113626Y0027435D02*
X0111062Y0027435D01*
X0111310Y0027336D02*
X0113876Y0027336D01*
X0114018Y0027238D02*
X0111543Y0027238D01*
X0111760Y0027139D02*
X0114108Y0027139D01*
X0114170Y0027041D02*
X0111976Y0027041D01*
X0112192Y0026942D02*
X0114207Y0026942D01*
X0114227Y0026844D02*
X0112409Y0026844D01*
X0112625Y0026745D02*
X0114237Y0026745D01*
X0114230Y0026647D02*
X0112849Y0026647D01*
X0113078Y0026548D02*
X0114214Y0026548D01*
X0114166Y0026450D02*
X0113307Y0026450D01*
X0113536Y0026351D02*
X0114072Y0026351D01*
X0113873Y0025942D02*
X0113480Y0025854D01*
X0113329Y0025653D01*
X0113365Y0025332D01*
X0113402Y0025026D01*
X0113150Y0024045D01*
X0112958Y0023520D01*
X0112788Y0023307D01*
X0112774Y0023307D01*
X0112717Y0023370D01*
X0112596Y0023400D01*
X0112311Y0023312D01*
X0111556Y0023129D01*
X0111826Y0024769D01*
X0111808Y0025071D01*
X0111754Y0025335D01*
X0111663Y0025559D01*
X0111535Y0025746D01*
X0111372Y0025893D01*
X0111172Y0026001D01*
X0110936Y0026071D01*
X0110663Y0026102D01*
X0110380Y0026076D01*
X0110082Y0026001D01*
X0109770Y0025874D01*
X0109442Y0025698D01*
X0108815Y0025244D01*
X0108274Y0024688D01*
X0108056Y0024396D01*
X0107901Y0024129D01*
X0107808Y0023885D01*
X0107777Y0023665D01*
X0107905Y0023237D01*
X0108235Y0023074D01*
X0108674Y0023190D01*
X0108844Y0023459D01*
X0108802Y0023669D01*
X0108771Y0023844D01*
X0108892Y0024122D01*
X0109137Y0024375D01*
X0109384Y0024594D01*
X0109684Y0024815D01*
X0109969Y0024972D01*
X0110241Y0025066D01*
X0110497Y0025098D01*
X0110899Y0024969D01*
X0111020Y0024471D01*
X0110890Y0023634D01*
X0110589Y0022849D01*
X0110457Y0022483D01*
X0110482Y0022335D01*
X0110560Y0022229D01*
X0110689Y0022165D01*
X0110869Y0022144D01*
X0112111Y0022299D01*
X0112774Y0022405D01*
X0112889Y0022360D01*
X0113104Y0022239D01*
X0113290Y0022333D01*
X0113443Y0022565D01*
X0114172Y0024801D01*
X0114250Y0025038D01*
X0114341Y0025446D01*
X0114211Y0025800D01*
X0113873Y0025942D01*
X0114070Y0025859D02*
X0113500Y0025859D01*
X0113410Y0025760D02*
X0114225Y0025760D01*
X0114261Y0025662D02*
X0113336Y0025662D01*
X0113339Y0025563D02*
X0114298Y0025563D01*
X0114334Y0025465D02*
X0113350Y0025465D01*
X0113361Y0025366D02*
X0114323Y0025366D01*
X0114301Y0025268D02*
X0113373Y0025268D01*
X0113385Y0025169D02*
X0114279Y0025169D01*
X0114257Y0025071D02*
X0113397Y0025071D01*
X0113389Y0024972D02*
X0114228Y0024972D01*
X0114196Y0024874D02*
X0113363Y0024874D01*
X0113338Y0024775D02*
X0114163Y0024775D01*
X0114131Y0024677D02*
X0113313Y0024677D01*
X0113287Y0024578D02*
X0114099Y0024578D01*
X0114067Y0024480D02*
X0113262Y0024480D01*
X0113237Y0024381D02*
X0114035Y0024381D01*
X0114003Y0024283D02*
X0113211Y0024283D01*
X0113186Y0024184D02*
X0113971Y0024184D01*
X0113939Y0024086D02*
X0113161Y0024086D01*
X0113129Y0023987D02*
X0113906Y0023987D01*
X0113874Y0023889D02*
X0113093Y0023889D01*
X0113057Y0023790D02*
X0113842Y0023790D01*
X0113810Y0023692D02*
X0113021Y0023692D01*
X0112985Y0023593D02*
X0113778Y0023593D01*
X0113746Y0023495D02*
X0112938Y0023495D01*
X0112859Y0023396D02*
X0113714Y0023396D01*
X0113682Y0023297D02*
X0112250Y0023297D01*
X0112584Y0023396D02*
X0112611Y0023396D01*
X0111844Y0023199D02*
X0113650Y0023199D01*
X0113617Y0023100D02*
X0110686Y0023100D01*
X0110648Y0023002D02*
X0113585Y0023002D01*
X0113553Y0022903D02*
X0110610Y0022903D01*
X0110573Y0022805D02*
X0113521Y0022805D01*
X0113489Y0022706D02*
X0110538Y0022706D01*
X0110502Y0022608D02*
X0113457Y0022608D01*
X0113406Y0022509D02*
X0110466Y0022509D01*
X0110469Y0022411D02*
X0113341Y0022411D01*
X0113248Y0022312D02*
X0112974Y0022312D01*
X0112196Y0022312D02*
X0110499Y0022312D01*
X0110590Y0022214D02*
X0111429Y0022214D01*
X0111567Y0023199D02*
X0110723Y0023199D01*
X0110761Y0023297D02*
X0111584Y0023297D01*
X0111600Y0023396D02*
X0110799Y0023396D01*
X0110836Y0023495D02*
X0111616Y0023495D01*
X0111632Y0023593D02*
X0110874Y0023593D01*
X0110899Y0023692D02*
X0111649Y0023692D01*
X0111665Y0023790D02*
X0110914Y0023790D01*
X0110929Y0023889D02*
X0111681Y0023889D01*
X0111697Y0023987D02*
X0110945Y0023987D01*
X0110960Y0024086D02*
X0111714Y0024086D01*
X0111730Y0024184D02*
X0110975Y0024184D01*
X0110990Y0024283D02*
X0111746Y0024283D01*
X0111762Y0024381D02*
X0111006Y0024381D01*
X0111018Y0024480D02*
X0111779Y0024480D01*
X0111795Y0024578D02*
X0110994Y0024578D01*
X0110970Y0024677D02*
X0111811Y0024677D01*
X0111826Y0024775D02*
X0110946Y0024775D01*
X0110922Y0024874D02*
X0111820Y0024874D01*
X0111814Y0024972D02*
X0110890Y0024972D01*
X0110582Y0025071D02*
X0111808Y0025071D01*
X0111788Y0025169D02*
X0108742Y0025169D01*
X0108646Y0025071D02*
X0110278Y0025071D01*
X0109970Y0024972D02*
X0108550Y0024972D01*
X0108454Y0024874D02*
X0109791Y0024874D01*
X0109630Y0024775D02*
X0108359Y0024775D01*
X0108265Y0024677D02*
X0109496Y0024677D01*
X0109366Y0024578D02*
X0108192Y0024578D01*
X0108118Y0024480D02*
X0109255Y0024480D01*
X0109144Y0024381D02*
X0108047Y0024381D01*
X0107990Y0024283D02*
X0109047Y0024283D01*
X0108952Y0024184D02*
X0107933Y0024184D01*
X0107885Y0024086D02*
X0108876Y0024086D01*
X0108833Y0023987D02*
X0107847Y0023987D01*
X0107809Y0023889D02*
X0108791Y0023889D01*
X0108781Y0023790D02*
X0107794Y0023790D01*
X0107780Y0023692D02*
X0108798Y0023692D01*
X0108818Y0023593D02*
X0107798Y0023593D01*
X0107828Y0023495D02*
X0108837Y0023495D01*
X0108805Y0023396D02*
X0107857Y0023396D01*
X0107887Y0023297D02*
X0108742Y0023297D01*
X0108680Y0023199D02*
X0107982Y0023199D01*
X0108182Y0023100D02*
X0108334Y0023100D01*
X0108638Y0021498D02*
X0108382Y0021342D01*
X0108271Y0020981D01*
X0108303Y0020738D01*
X0108398Y0020564D01*
X0108558Y0020460D01*
X0108781Y0020426D01*
X0109121Y0020598D01*
X0109275Y0020981D01*
X0109053Y0021336D01*
X0108638Y0021498D01*
X0108519Y0021426D02*
X0108823Y0021426D01*
X0109058Y0021327D02*
X0108377Y0021327D01*
X0108347Y0021229D02*
X0109120Y0021229D01*
X0109181Y0021130D02*
X0108317Y0021130D01*
X0108287Y0021032D02*
X0109243Y0021032D01*
X0109256Y0020933D02*
X0108277Y0020933D01*
X0108290Y0020835D02*
X0109216Y0020835D01*
X0109177Y0020736D02*
X0108304Y0020736D01*
X0108358Y0020638D02*
X0109137Y0020638D01*
X0109006Y0020539D02*
X0108437Y0020539D01*
X0108684Y0020441D02*
X0108811Y0020441D01*
X0108733Y0019075D02*
X0108485Y0018930D01*
X0108368Y0018626D01*
X0108395Y0018377D01*
X0108477Y0018188D01*
X0108613Y0018060D01*
X0108802Y0017993D01*
X0109659Y0017877D01*
X0110338Y0017810D01*
X0110347Y0017568D01*
X0110266Y0016391D01*
X0110186Y0015887D01*
X0110226Y0015702D01*
X0110345Y0015570D01*
X0110544Y0015491D01*
X0110822Y0015465D01*
X0111362Y0015668D01*
X0112111Y0016084D01*
X0113413Y0016744D01*
X0114566Y0017238D01*
X0114738Y0017263D01*
X0114861Y0017336D01*
X0114935Y0017459D01*
X0114959Y0017632D01*
X0114816Y0018060D01*
X0114520Y0018259D01*
X0114141Y0018189D01*
X0113750Y0017980D01*
X0112550Y0017277D01*
X0111135Y0016564D01*
X0111181Y0017801D01*
X0112087Y0017722D01*
X0112833Y0017658D01*
X0113150Y0017824D01*
X0113291Y0018242D01*
X0113102Y0018637D01*
X0112700Y0018823D01*
X0111978Y0018809D01*
X0111207Y0018795D01*
X0111244Y0019225D01*
X0111109Y0019504D01*
X0110805Y0019610D01*
X0110526Y0019485D01*
X0110383Y0019225D01*
X0110411Y0018814D01*
X0109800Y0018889D01*
X0109123Y0019011D01*
X0108733Y0019075D01*
X0108711Y0019062D02*
X0108815Y0019062D01*
X0108542Y0018963D02*
X0109389Y0018963D01*
X0109999Y0018864D02*
X0108460Y0018864D01*
X0108422Y0018766D02*
X0112824Y0018766D01*
X0113036Y0018667D02*
X0108384Y0018667D01*
X0108374Y0018569D02*
X0113135Y0018569D01*
X0113182Y0018470D02*
X0108385Y0018470D01*
X0108397Y0018372D02*
X0113229Y0018372D01*
X0113276Y0018273D02*
X0108440Y0018273D01*
X0108491Y0018175D02*
X0113269Y0018175D01*
X0113236Y0018076D02*
X0108595Y0018076D01*
X0108914Y0017978D02*
X0113202Y0017978D01*
X0113169Y0017879D02*
X0109643Y0017879D01*
X0110339Y0017781D02*
X0111180Y0017781D01*
X0111176Y0017682D02*
X0110343Y0017682D01*
X0110347Y0017584D02*
X0111173Y0017584D01*
X0111169Y0017485D02*
X0110342Y0017485D01*
X0110335Y0017387D02*
X0111165Y0017387D01*
X0111162Y0017288D02*
X0110328Y0017288D01*
X0110321Y0017190D02*
X0111158Y0017190D01*
X0111155Y0017091D02*
X0110314Y0017091D01*
X0110307Y0016993D02*
X0111151Y0016993D01*
X0111147Y0016894D02*
X0110301Y0016894D01*
X0110294Y0016796D02*
X0111144Y0016796D01*
X0111140Y0016697D02*
X0110287Y0016697D01*
X0110280Y0016599D02*
X0111136Y0016599D01*
X0111204Y0016599D02*
X0113127Y0016599D01*
X0112933Y0016500D02*
X0110273Y0016500D01*
X0110267Y0016402D02*
X0112738Y0016402D01*
X0112544Y0016303D02*
X0110252Y0016303D01*
X0110236Y0016205D02*
X0112349Y0016205D01*
X0112155Y0016106D02*
X0110221Y0016106D01*
X0110205Y0016008D02*
X0111974Y0016008D01*
X0111796Y0015909D02*
X0110190Y0015909D01*
X0110203Y0015811D02*
X0111619Y0015811D01*
X0111441Y0015712D02*
X0110224Y0015712D01*
X0110306Y0015614D02*
X0111217Y0015614D01*
X0110956Y0015515D02*
X0110485Y0015515D01*
X0111400Y0016697D02*
X0113322Y0016697D01*
X0113535Y0016796D02*
X0111595Y0016796D01*
X0111791Y0016894D02*
X0113765Y0016894D01*
X0113994Y0016993D02*
X0111986Y0016993D01*
X0112182Y0017091D02*
X0114224Y0017091D01*
X0114454Y0017190D02*
X0112377Y0017190D01*
X0112570Y0017288D02*
X0114781Y0017288D01*
X0114891Y0017387D02*
X0112738Y0017387D01*
X0112906Y0017485D02*
X0114939Y0017485D01*
X0114953Y0017584D02*
X0113074Y0017584D01*
X0113242Y0017682D02*
X0114943Y0017682D01*
X0114909Y0017781D02*
X0113410Y0017781D01*
X0113577Y0017879D02*
X0114876Y0017879D01*
X0114843Y0017978D02*
X0113745Y0017978D01*
X0113930Y0018076D02*
X0114792Y0018076D01*
X0114645Y0018175D02*
X0114114Y0018175D01*
X0113068Y0017781D02*
X0111411Y0017781D01*
X0111213Y0018864D02*
X0110408Y0018864D01*
X0110401Y0018963D02*
X0111222Y0018963D01*
X0111230Y0019062D02*
X0110394Y0019062D01*
X0110388Y0019160D02*
X0111239Y0019160D01*
X0111228Y0019259D02*
X0110401Y0019259D01*
X0110455Y0019357D02*
X0111180Y0019357D01*
X0111132Y0019456D02*
X0110510Y0019456D01*
X0110681Y0019554D02*
X0110964Y0019554D01*
X0112553Y0017682D02*
X0112879Y0017682D01*
X0118334Y0016592D02*
X0118360Y0016397D01*
X0118436Y0016247D01*
X0118564Y0016143D01*
X0118744Y0016084D01*
X0120578Y0015929D01*
X0122759Y0015850D01*
X0123056Y0015804D01*
X0123194Y0015781D01*
X0123239Y0015785D01*
X0123483Y0015913D01*
X0123780Y0016184D01*
X0123904Y0016404D01*
X0123885Y0016550D01*
X0123828Y0016663D01*
X0123409Y0016927D01*
X0122320Y0017551D01*
X0121489Y0018065D01*
X0120916Y0018467D01*
X0120601Y0018759D01*
X0122443Y0019670D01*
X0123524Y0020229D01*
X0123846Y0020513D01*
X0123972Y0020943D01*
X0123894Y0021153D01*
X0123661Y0021314D01*
X0122835Y0021452D01*
X0120450Y0021727D01*
X0119044Y0021909D01*
X0118809Y0021775D01*
X0118719Y0021452D01*
X0118803Y0021175D01*
X0119011Y0020972D01*
X0120440Y0020746D01*
X0122346Y0020435D01*
X0120842Y0019647D01*
X0119726Y0019244D01*
X0119469Y0019089D01*
X0119410Y0018598D01*
X0119493Y0018412D01*
X0119844Y0018195D01*
X0121411Y0017133D01*
X0122066Y0016711D01*
X0121700Y0016734D01*
X0119621Y0016948D01*
X0118691Y0017096D01*
X0118433Y0016938D01*
X0118334Y0016592D01*
X0118336Y0016599D02*
X0123860Y0016599D01*
X0123891Y0016500D02*
X0118346Y0016500D01*
X0118359Y0016402D02*
X0123902Y0016402D01*
X0123847Y0016303D02*
X0118408Y0016303D01*
X0118488Y0016205D02*
X0123792Y0016205D01*
X0123695Y0016106D02*
X0118676Y0016106D01*
X0118364Y0016697D02*
X0123773Y0016697D01*
X0123617Y0016796D02*
X0121935Y0016796D01*
X0121782Y0016894D02*
X0123461Y0016894D01*
X0123294Y0016993D02*
X0121629Y0016993D01*
X0121476Y0017091D02*
X0123122Y0017091D01*
X0122951Y0017190D02*
X0121327Y0017190D01*
X0121182Y0017288D02*
X0122779Y0017288D01*
X0122607Y0017387D02*
X0121037Y0017387D01*
X0120891Y0017485D02*
X0122435Y0017485D01*
X0122267Y0017584D02*
X0120746Y0017584D01*
X0120601Y0017682D02*
X0122108Y0017682D01*
X0121948Y0017781D02*
X0120455Y0017781D01*
X0120310Y0017879D02*
X0121789Y0017879D01*
X0121629Y0017978D02*
X0120165Y0017978D01*
X0120019Y0018076D02*
X0121472Y0018076D01*
X0121332Y0018175D02*
X0119874Y0018175D01*
X0119717Y0018273D02*
X0121191Y0018273D01*
X0121051Y0018372D02*
X0119558Y0018372D01*
X0119467Y0018470D02*
X0120912Y0018470D01*
X0120806Y0018569D02*
X0119423Y0018569D01*
X0119418Y0018667D02*
X0120700Y0018667D01*
X0120615Y0018766D02*
X0119430Y0018766D01*
X0119442Y0018864D02*
X0120814Y0018864D01*
X0121013Y0018963D02*
X0119454Y0018963D01*
X0119466Y0019062D02*
X0121212Y0019062D01*
X0121411Y0019160D02*
X0119587Y0019160D01*
X0119767Y0019259D02*
X0121610Y0019259D01*
X0121810Y0019357D02*
X0120039Y0019357D01*
X0120312Y0019456D02*
X0122009Y0019456D01*
X0122208Y0019554D02*
X0120584Y0019554D01*
X0120852Y0019653D02*
X0122407Y0019653D01*
X0122599Y0019751D02*
X0121040Y0019751D01*
X0121228Y0019850D02*
X0122790Y0019850D01*
X0122980Y0019948D02*
X0121416Y0019948D01*
X0121605Y0020047D02*
X0123171Y0020047D01*
X0123362Y0020145D02*
X0121793Y0020145D01*
X0121981Y0020244D02*
X0123540Y0020244D01*
X0123652Y0020342D02*
X0122169Y0020342D01*
X0122312Y0020441D02*
X0123763Y0020441D01*
X0123853Y0020539D02*
X0121709Y0020539D01*
X0121106Y0020638D02*
X0123882Y0020638D01*
X0123911Y0020736D02*
X0120503Y0020736D01*
X0119880Y0020835D02*
X0123940Y0020835D01*
X0123969Y0020933D02*
X0119255Y0020933D01*
X0118950Y0021032D02*
X0123939Y0021032D01*
X0123903Y0021130D02*
X0118849Y0021130D01*
X0118787Y0021229D02*
X0123785Y0021229D01*
X0123580Y0021327D02*
X0118757Y0021327D01*
X0118727Y0021426D02*
X0122990Y0021426D01*
X0122205Y0021524D02*
X0118739Y0021524D01*
X0118767Y0021623D02*
X0121351Y0021623D01*
X0120497Y0021721D02*
X0118794Y0021721D01*
X0118887Y0021820D02*
X0119734Y0021820D01*
X0120158Y0023100D02*
X0124223Y0023100D01*
X0124219Y0023092D02*
X0124402Y0023523D01*
X0124254Y0023933D01*
X0123913Y0024096D01*
X0123436Y0024058D01*
X0122076Y0023972D01*
X0121367Y0023994D01*
X0120631Y0024061D01*
X0119871Y0024172D01*
X0119085Y0024328D01*
X0118800Y0024383D01*
X0118517Y0024199D01*
X0118398Y0023848D01*
X0118531Y0023441D01*
X0118837Y0023253D01*
X0119263Y0023198D01*
X0120371Y0023077D01*
X0121483Y0022991D01*
X0122598Y0022940D01*
X0123716Y0022923D01*
X0124219Y0023092D01*
X0124265Y0023199D02*
X0119256Y0023199D01*
X0118764Y0023297D02*
X0124306Y0023297D01*
X0124348Y0023396D02*
X0118604Y0023396D01*
X0118513Y0023495D02*
X0124390Y0023495D01*
X0124377Y0023593D02*
X0118481Y0023593D01*
X0118449Y0023692D02*
X0124341Y0023692D01*
X0124305Y0023790D02*
X0118417Y0023790D01*
X0118412Y0023889D02*
X0124270Y0023889D01*
X0124140Y0023987D02*
X0122314Y0023987D01*
X0121601Y0023987D02*
X0118445Y0023987D01*
X0118479Y0024086D02*
X0120464Y0024086D01*
X0119812Y0024184D02*
X0118512Y0024184D01*
X0118646Y0024283D02*
X0119315Y0024283D01*
X0118810Y0024381D02*
X0118797Y0024381D01*
X0121345Y0023002D02*
X0123952Y0023002D01*
X0123934Y0024086D02*
X0123785Y0024086D01*
X0123131Y0025071D02*
X0122275Y0025071D01*
X0122143Y0025169D02*
X0123304Y0025169D01*
X0123444Y0025268D02*
X0122071Y0025268D01*
X0122009Y0025366D02*
X0123574Y0025366D01*
X0123659Y0025465D02*
X0121981Y0025465D01*
X0121952Y0025563D02*
X0123742Y0025563D01*
X0123825Y0025662D02*
X0121925Y0025662D01*
X0121903Y0025760D02*
X0123907Y0025760D01*
X0122813Y0024972D02*
X0122591Y0024972D01*
X0121103Y0016796D02*
X0118392Y0016796D01*
X0118420Y0016894D02*
X0120147Y0016894D01*
X0119341Y0016993D02*
X0118522Y0016993D01*
X0118683Y0017091D02*
X0118718Y0017091D01*
X0119647Y0016008D02*
X0123586Y0016008D01*
X0123475Y0015909D02*
X0121126Y0015909D01*
X0123012Y0015811D02*
X0123287Y0015811D01*
X0111767Y0025268D02*
X0108847Y0025268D01*
X0108983Y0025366D02*
X0111741Y0025366D01*
X0111701Y0025465D02*
X0109119Y0025465D01*
X0109256Y0025563D02*
X0111660Y0025563D01*
X0111593Y0025662D02*
X0109392Y0025662D01*
X0109557Y0025760D02*
X0111519Y0025760D01*
X0111410Y0025859D02*
X0109741Y0025859D01*
X0109975Y0025957D02*
X0111253Y0025957D01*
X0110987Y0026056D02*
X0110299Y0026056D01*
X0105123Y0026908D02*
X0104960Y0026538D01*
X0104537Y0026378D01*
X0102980Y0026483D01*
X0102448Y0026524D01*
X0102213Y0026339D01*
X0101952Y0026250D01*
X0101581Y0026419D01*
X0101472Y0026488D01*
X0100304Y0026524D01*
X0098492Y0026607D01*
X0098078Y0026763D01*
X0097857Y0026965D01*
X0097784Y0027202D01*
X0097784Y0027238D01*
X0105033Y0027238D01*
X0104980Y0027325D02*
X0105087Y0027151D01*
X0105123Y0026908D01*
X0105118Y0026942D02*
X0097882Y0026942D01*
X0097834Y0027041D02*
X0105103Y0027041D01*
X0105089Y0027139D02*
X0097803Y0027139D01*
X0097784Y0027238D02*
X0097912Y0027576D01*
X0098237Y0027696D01*
X0099085Y0027623D01*
X0100936Y0027454D01*
X0100276Y0028906D01*
X0099782Y0029937D01*
X0099511Y0030697D01*
X0099656Y0030908D01*
X0099970Y0030991D01*
X0100223Y0030898D01*
X0100469Y0030612D01*
X0101041Y0029460D01*
X0101893Y0027435D01*
X0102026Y0027435D01*
X0103112Y0029118D01*
X0103941Y0030404D01*
X0104229Y0030844D01*
X0104446Y0031009D01*
X0104774Y0031064D01*
X0105061Y0030942D01*
X0105204Y0030670D01*
X0105081Y0030287D01*
X0104549Y0029621D01*
X0104105Y0029089D01*
X0103822Y0028705D01*
X0102965Y0027423D01*
X0103758Y0027440D01*
X0104549Y0027463D01*
X0104800Y0027429D01*
X0104980Y0027325D01*
X0104959Y0027336D02*
X0097821Y0027336D01*
X0097859Y0027435D02*
X0102973Y0027435D01*
X0103039Y0027533D02*
X0102089Y0027533D01*
X0102153Y0027632D02*
X0103105Y0027632D01*
X0103171Y0027730D02*
X0102216Y0027730D01*
X0102280Y0027829D02*
X0103237Y0027829D01*
X0103303Y0027928D02*
X0102344Y0027928D01*
X0102407Y0028026D02*
X0103368Y0028026D01*
X0103434Y0028125D02*
X0102471Y0028125D01*
X0102534Y0028223D02*
X0103500Y0028223D01*
X0103566Y0028322D02*
X0102598Y0028322D01*
X0102662Y0028420D02*
X0103632Y0028420D01*
X0103698Y0028519D02*
X0102725Y0028519D01*
X0102789Y0028617D02*
X0103763Y0028617D01*
X0103830Y0028716D02*
X0102853Y0028716D01*
X0102916Y0028814D02*
X0103903Y0028814D01*
X0103975Y0028913D02*
X0102980Y0028913D01*
X0103043Y0029011D02*
X0104048Y0029011D01*
X0104122Y0029110D02*
X0103107Y0029110D01*
X0103170Y0029208D02*
X0104204Y0029208D01*
X0104287Y0029307D02*
X0103234Y0029307D01*
X0103297Y0029405D02*
X0104369Y0029405D01*
X0104451Y0029504D02*
X0103361Y0029504D01*
X0103424Y0029602D02*
X0104534Y0029602D01*
X0104613Y0029701D02*
X0103488Y0029701D01*
X0103551Y0029799D02*
X0104692Y0029799D01*
X0104770Y0029898D02*
X0103615Y0029898D01*
X0103678Y0029996D02*
X0104849Y0029996D01*
X0104927Y0030095D02*
X0103742Y0030095D01*
X0103805Y0030193D02*
X0105006Y0030193D01*
X0105082Y0030292D02*
X0103868Y0030292D01*
X0103932Y0030390D02*
X0105114Y0030390D01*
X0105146Y0030489D02*
X0103996Y0030489D01*
X0104061Y0030587D02*
X0105178Y0030587D01*
X0105196Y0030686D02*
X0104125Y0030686D01*
X0104190Y0030784D02*
X0105144Y0030784D01*
X0105092Y0030883D02*
X0104280Y0030883D01*
X0104410Y0030981D02*
X0104969Y0030981D01*
X0104755Y0027435D02*
X0103534Y0027435D01*
X0103473Y0026450D02*
X0104727Y0026450D01*
X0104965Y0026548D02*
X0099765Y0026548D01*
X0099965Y0025685D02*
X0099671Y0025378D01*
X0099235Y0023815D01*
X0098985Y0021938D01*
X0099028Y0021367D01*
X0099161Y0021000D01*
X0099267Y0020883D01*
X0099407Y0020800D01*
X0099583Y0020750D01*
X0099794Y0020734D01*
X0100389Y0020763D01*
X0100967Y0020852D01*
X0101530Y0021000D01*
X0102076Y0021207D01*
X0102592Y0021466D01*
X0103064Y0021768D01*
X0103491Y0022114D01*
X0103874Y0022504D01*
X0104190Y0022907D01*
X0104415Y0023293D01*
X0104551Y0023663D01*
X0104596Y0024017D01*
X0104576Y0024236D01*
X0104515Y0024392D01*
X0104415Y0024486D01*
X0104276Y0024517D01*
X0103869Y0024288D01*
X0103519Y0023670D01*
X0103274Y0023213D01*
X0102974Y0022813D01*
X0102619Y0022470D01*
X0102209Y0022185D01*
X0101751Y0021961D01*
X0101254Y0021801D01*
X0100717Y0021704D01*
X0100139Y0021672D01*
X0099787Y0021785D01*
X0099690Y0022341D01*
X0100010Y0023662D01*
X0100496Y0024938D01*
X0100651Y0025360D01*
X0100546Y0025653D01*
X0100271Y0025764D01*
X0099965Y0025685D01*
X0099942Y0025662D02*
X0100524Y0025662D01*
X0100579Y0025563D02*
X0099848Y0025563D01*
X0099754Y0025465D02*
X0100614Y0025465D01*
X0100649Y0025366D02*
X0099668Y0025366D01*
X0099640Y0025268D02*
X0100617Y0025268D01*
X0100581Y0025169D02*
X0099613Y0025169D01*
X0099585Y0025071D02*
X0100545Y0025071D01*
X0100509Y0024972D02*
X0099558Y0024972D01*
X0099530Y0024874D02*
X0100472Y0024874D01*
X0100434Y0024775D02*
X0099503Y0024775D01*
X0099475Y0024677D02*
X0100397Y0024677D01*
X0100359Y0024578D02*
X0099448Y0024578D01*
X0099420Y0024480D02*
X0100322Y0024480D01*
X0100284Y0024381D02*
X0099393Y0024381D01*
X0099365Y0024283D02*
X0100247Y0024283D01*
X0100209Y0024184D02*
X0099338Y0024184D01*
X0099310Y0024086D02*
X0100172Y0024086D01*
X0100134Y0023987D02*
X0099283Y0023987D01*
X0099255Y0023889D02*
X0100096Y0023889D01*
X0100059Y0023790D02*
X0099231Y0023790D01*
X0099218Y0023692D02*
X0100021Y0023692D01*
X0099993Y0023593D02*
X0099205Y0023593D01*
X0099192Y0023495D02*
X0099970Y0023495D01*
X0099946Y0023396D02*
X0099179Y0023396D01*
X0099166Y0023297D02*
X0099922Y0023297D01*
X0099898Y0023199D02*
X0099153Y0023199D01*
X0099139Y0023100D02*
X0099874Y0023100D01*
X0099850Y0023002D02*
X0099126Y0023002D01*
X0099113Y0022903D02*
X0099826Y0022903D01*
X0099802Y0022805D02*
X0099100Y0022805D01*
X0099087Y0022706D02*
X0099778Y0022706D01*
X0099755Y0022608D02*
X0099074Y0022608D01*
X0099061Y0022509D02*
X0099731Y0022509D01*
X0099707Y0022411D02*
X0099048Y0022411D01*
X0099035Y0022312D02*
X0099695Y0022312D01*
X0099712Y0022214D02*
X0099021Y0022214D01*
X0099008Y0022115D02*
X0099729Y0022115D01*
X0099746Y0022017D02*
X0098995Y0022017D01*
X0098986Y0021918D02*
X0099763Y0021918D01*
X0099780Y0021820D02*
X0098994Y0021820D01*
X0099001Y0021721D02*
X0099985Y0021721D01*
X0100811Y0021721D02*
X0102991Y0021721D01*
X0103128Y0021820D02*
X0101313Y0021820D01*
X0101619Y0021918D02*
X0103249Y0021918D01*
X0103371Y0022017D02*
X0101865Y0022017D01*
X0102067Y0022115D02*
X0103492Y0022115D01*
X0103589Y0022214D02*
X0102251Y0022214D01*
X0102392Y0022312D02*
X0103686Y0022312D01*
X0103783Y0022411D02*
X0102534Y0022411D01*
X0102659Y0022509D02*
X0103878Y0022509D01*
X0103955Y0022608D02*
X0102761Y0022608D01*
X0102864Y0022706D02*
X0104033Y0022706D01*
X0104110Y0022805D02*
X0102966Y0022805D01*
X0103042Y0022903D02*
X0104187Y0022903D01*
X0104245Y0023002D02*
X0103116Y0023002D01*
X0103190Y0023100D02*
X0104303Y0023100D01*
X0104360Y0023199D02*
X0103264Y0023199D01*
X0103319Y0023297D02*
X0104417Y0023297D01*
X0104453Y0023396D02*
X0103372Y0023396D01*
X0103425Y0023495D02*
X0104489Y0023495D01*
X0104525Y0023593D02*
X0103478Y0023593D01*
X0103531Y0023692D02*
X0104554Y0023692D01*
X0104567Y0023790D02*
X0103587Y0023790D01*
X0103643Y0023889D02*
X0104580Y0023889D01*
X0104592Y0023987D02*
X0103699Y0023987D01*
X0103754Y0024086D02*
X0104590Y0024086D01*
X0104581Y0024184D02*
X0103810Y0024184D01*
X0103866Y0024283D02*
X0104558Y0024283D01*
X0104520Y0024381D02*
X0104034Y0024381D01*
X0104209Y0024480D02*
X0104422Y0024480D01*
X0105008Y0026647D02*
X0098386Y0026647D01*
X0098125Y0026745D02*
X0105051Y0026745D01*
X0105095Y0026844D02*
X0097989Y0026844D01*
X0097896Y0027533D02*
X0100064Y0027533D01*
X0100765Y0027829D02*
X0101727Y0027829D01*
X0101686Y0027928D02*
X0100721Y0027928D01*
X0100676Y0028026D02*
X0101644Y0028026D01*
X0101603Y0028125D02*
X0100631Y0028125D01*
X0100586Y0028223D02*
X0101561Y0028223D01*
X0101520Y0028322D02*
X0100542Y0028322D01*
X0100497Y0028420D02*
X0101478Y0028420D01*
X0101437Y0028519D02*
X0100452Y0028519D01*
X0100407Y0028617D02*
X0101395Y0028617D01*
X0101354Y0028716D02*
X0100363Y0028716D01*
X0100318Y0028814D02*
X0101312Y0028814D01*
X0101271Y0028913D02*
X0100273Y0028913D01*
X0100226Y0029011D02*
X0101229Y0029011D01*
X0101188Y0029110D02*
X0100178Y0029110D01*
X0100131Y0029208D02*
X0101147Y0029208D01*
X0101105Y0029307D02*
X0100084Y0029307D01*
X0100037Y0029405D02*
X0101064Y0029405D01*
X0101019Y0029504D02*
X0099989Y0029504D01*
X0099942Y0029602D02*
X0100970Y0029602D01*
X0100921Y0029701D02*
X0099895Y0029701D01*
X0099848Y0029799D02*
X0100872Y0029799D01*
X0100823Y0029898D02*
X0099801Y0029898D01*
X0099761Y0029996D02*
X0100774Y0029996D01*
X0100725Y0030095D02*
X0099726Y0030095D01*
X0099691Y0030193D02*
X0100676Y0030193D01*
X0100628Y0030292D02*
X0099656Y0030292D01*
X0099620Y0030390D02*
X0100579Y0030390D01*
X0100530Y0030489D02*
X0099585Y0030489D01*
X0099550Y0030587D02*
X0100481Y0030587D01*
X0100405Y0030686D02*
X0099515Y0030686D01*
X0099571Y0030784D02*
X0100321Y0030784D01*
X0100236Y0030883D02*
X0099638Y0030883D01*
X0099935Y0030981D02*
X0099995Y0030981D01*
X0100810Y0027730D02*
X0101769Y0027730D01*
X0101810Y0027632D02*
X0100855Y0027632D01*
X0100900Y0027533D02*
X0101851Y0027533D01*
X0101532Y0026450D02*
X0102354Y0026450D01*
X0102229Y0026351D02*
X0101730Y0026351D01*
X0101946Y0026253D02*
X0101961Y0026253D01*
X0100280Y0025760D02*
X0100258Y0025760D01*
X0098979Y0027632D02*
X0098063Y0027632D01*
X0099009Y0021623D02*
X0102837Y0021623D01*
X0102683Y0021524D02*
X0099016Y0021524D01*
X0099024Y0021426D02*
X0102511Y0021426D01*
X0102315Y0021327D02*
X0099043Y0021327D01*
X0099078Y0021229D02*
X0102118Y0021229D01*
X0101872Y0021130D02*
X0099114Y0021130D01*
X0099150Y0021032D02*
X0101612Y0021032D01*
X0101274Y0020933D02*
X0099221Y0020933D01*
X0099348Y0020835D02*
X0100853Y0020835D01*
X0100684Y0020288D02*
X0100413Y0020266D01*
X0100149Y0020198D01*
X0099893Y0020085D01*
X0099644Y0019927D01*
X0099194Y0019498D01*
X0098827Y0018937D01*
X0098580Y0018337D01*
X0098498Y0017791D01*
X0098680Y0017155D01*
X0099204Y0016717D01*
X0099878Y0016555D01*
X0100669Y0016726D01*
X0100815Y0016819D01*
X0100920Y0016927D01*
X0100983Y0017048D01*
X0101005Y0017183D01*
X0100984Y0017375D01*
X0100922Y0017513D01*
X0100819Y0017595D01*
X0100675Y0017622D01*
X0100317Y0017540D01*
X0099841Y0017435D01*
X0099376Y0017582D01*
X0099213Y0018052D01*
X0099239Y0018314D01*
X0099317Y0018558D01*
X0099446Y0018783D01*
X0099627Y0018991D01*
X0099843Y0019163D01*
X0100076Y0019287D01*
X0100326Y0019361D01*
X0100592Y0019386D01*
X0100986Y0019336D01*
X0101297Y0019186D01*
X0101541Y0018922D01*
X0101729Y0018524D01*
X0102273Y0016056D01*
X0102360Y0015755D01*
X0102517Y0015541D01*
X0102743Y0015412D01*
X0103039Y0015369D01*
X0103242Y0015395D01*
X0103457Y0015473D01*
X0103685Y0015602D01*
X0103925Y0015784D01*
X0104798Y0016824D01*
X0105083Y0017389D01*
X0105178Y0017838D01*
X0105159Y0018043D01*
X0105105Y0018230D01*
X0105014Y0018397D01*
X0104887Y0018545D01*
X0104583Y0018753D01*
X0104257Y0018823D01*
X0104036Y0018803D01*
X0103879Y0018744D01*
X0103785Y0018644D01*
X0103754Y0018506D01*
X0103774Y0018325D01*
X0103833Y0018184D01*
X0103933Y0018083D01*
X0104074Y0018021D01*
X0104315Y0017885D01*
X0104371Y0017632D01*
X0104263Y0017253D01*
X0103938Y0016759D01*
X0103560Y0016345D01*
X0103291Y0016207D01*
X0103125Y0016583D01*
X0102562Y0018841D01*
X0102402Y0019208D01*
X0102228Y0019517D01*
X0102040Y0019768D01*
X0101838Y0019961D01*
X0101609Y0020104D01*
X0101341Y0020206D01*
X0101033Y0020268D01*
X0100684Y0020288D01*
X0100327Y0020244D02*
X0101154Y0020244D01*
X0101502Y0020145D02*
X0100029Y0020145D01*
X0099833Y0020047D02*
X0101702Y0020047D01*
X0101852Y0019948D02*
X0099677Y0019948D01*
X0099563Y0019850D02*
X0101955Y0019850D01*
X0102052Y0019751D02*
X0099460Y0019751D01*
X0099357Y0019653D02*
X0102126Y0019653D01*
X0102200Y0019554D02*
X0099253Y0019554D01*
X0099167Y0019456D02*
X0102262Y0019456D01*
X0102318Y0019357D02*
X0100820Y0019357D01*
X0101146Y0019259D02*
X0102373Y0019259D01*
X0102422Y0019160D02*
X0101321Y0019160D01*
X0101412Y0019062D02*
X0102465Y0019062D01*
X0102508Y0018963D02*
X0101502Y0018963D01*
X0101568Y0018864D02*
X0102551Y0018864D01*
X0102580Y0018766D02*
X0101614Y0018766D01*
X0101661Y0018667D02*
X0102605Y0018667D01*
X0102630Y0018569D02*
X0101708Y0018569D01*
X0101741Y0018470D02*
X0102654Y0018470D01*
X0102679Y0018372D02*
X0101762Y0018372D01*
X0101784Y0018273D02*
X0102703Y0018273D01*
X0102728Y0018175D02*
X0101806Y0018175D01*
X0101827Y0018076D02*
X0102752Y0018076D01*
X0102777Y0017978D02*
X0101849Y0017978D01*
X0101871Y0017879D02*
X0102801Y0017879D01*
X0102826Y0017781D02*
X0101893Y0017781D01*
X0101914Y0017682D02*
X0102851Y0017682D01*
X0102875Y0017584D02*
X0101936Y0017584D01*
X0101958Y0017485D02*
X0102900Y0017485D01*
X0102924Y0017387D02*
X0101979Y0017387D01*
X0102001Y0017288D02*
X0102949Y0017288D01*
X0102973Y0017190D02*
X0102023Y0017190D01*
X0102045Y0017091D02*
X0102998Y0017091D01*
X0103023Y0016993D02*
X0102066Y0016993D01*
X0102088Y0016894D02*
X0103047Y0016894D01*
X0103072Y0016796D02*
X0102110Y0016796D01*
X0102131Y0016697D02*
X0103096Y0016697D01*
X0103121Y0016599D02*
X0102153Y0016599D01*
X0102175Y0016500D02*
X0103161Y0016500D01*
X0103205Y0016402D02*
X0102197Y0016402D01*
X0102218Y0016303D02*
X0103248Y0016303D01*
X0103478Y0016303D02*
X0104361Y0016303D01*
X0104278Y0016205D02*
X0102240Y0016205D01*
X0102262Y0016106D02*
X0104196Y0016106D01*
X0104113Y0016008D02*
X0102287Y0016008D01*
X0102315Y0015909D02*
X0104030Y0015909D01*
X0103948Y0015811D02*
X0102344Y0015811D01*
X0102392Y0015712D02*
X0103830Y0015712D01*
X0103700Y0015614D02*
X0102464Y0015614D01*
X0102562Y0015515D02*
X0103532Y0015515D01*
X0103301Y0015417D02*
X0102735Y0015417D01*
X0103612Y0016402D02*
X0104444Y0016402D01*
X0104526Y0016500D02*
X0103701Y0016500D01*
X0103791Y0016599D02*
X0104609Y0016599D01*
X0104692Y0016697D02*
X0103881Y0016697D01*
X0103962Y0016796D02*
X0104774Y0016796D01*
X0104833Y0016894D02*
X0104027Y0016894D01*
X0104091Y0016993D02*
X0104883Y0016993D01*
X0104932Y0017091D02*
X0104156Y0017091D01*
X0104221Y0017190D02*
X0104982Y0017190D01*
X0105032Y0017288D02*
X0104273Y0017288D01*
X0104301Y0017387D02*
X0105081Y0017387D01*
X0105103Y0017485D02*
X0104329Y0017485D01*
X0104357Y0017584D02*
X0105124Y0017584D01*
X0105145Y0017682D02*
X0104360Y0017682D01*
X0104338Y0017781D02*
X0105165Y0017781D01*
X0105174Y0017879D02*
X0104316Y0017879D01*
X0104151Y0017978D02*
X0105165Y0017978D01*
X0105150Y0018076D02*
X0103948Y0018076D01*
X0103842Y0018175D02*
X0105121Y0018175D01*
X0105081Y0018273D02*
X0103796Y0018273D01*
X0103768Y0018372D02*
X0105028Y0018372D01*
X0104951Y0018470D02*
X0103757Y0018470D01*
X0103768Y0018569D02*
X0104852Y0018569D01*
X0104708Y0018667D02*
X0103807Y0018667D01*
X0103938Y0018766D02*
X0104524Y0018766D01*
X0100979Y0017387D02*
X0098614Y0017387D01*
X0098586Y0017485D02*
X0099681Y0017485D01*
X0099375Y0017584D02*
X0098558Y0017584D01*
X0098530Y0017682D02*
X0099341Y0017682D01*
X0099307Y0017781D02*
X0098501Y0017781D01*
X0098512Y0017879D02*
X0099273Y0017879D01*
X0099239Y0017978D02*
X0098526Y0017978D01*
X0098541Y0018076D02*
X0099215Y0018076D01*
X0099225Y0018175D02*
X0098556Y0018175D01*
X0098571Y0018273D02*
X0099235Y0018273D01*
X0099257Y0018372D02*
X0098595Y0018372D01*
X0098635Y0018470D02*
X0099289Y0018470D01*
X0099323Y0018569D02*
X0098676Y0018569D01*
X0098716Y0018667D02*
X0099380Y0018667D01*
X0099436Y0018766D02*
X0098756Y0018766D01*
X0098797Y0018864D02*
X0099517Y0018864D01*
X0099603Y0018963D02*
X0098844Y0018963D01*
X0098908Y0019062D02*
X0099716Y0019062D01*
X0099840Y0019160D02*
X0098973Y0019160D01*
X0099037Y0019259D02*
X0100023Y0019259D01*
X0100311Y0019357D02*
X0099102Y0019357D01*
X0099765Y0020736D02*
X0099842Y0020736D01*
X0100508Y0017584D02*
X0100833Y0017584D01*
X0100935Y0017485D02*
X0100071Y0017485D01*
X0100080Y0016599D02*
X0099695Y0016599D01*
X0099287Y0016697D02*
X0100534Y0016697D01*
X0100778Y0016796D02*
X0099110Y0016796D01*
X0098992Y0016894D02*
X0100889Y0016894D01*
X0100955Y0016993D02*
X0098874Y0016993D01*
X0098756Y0017091D02*
X0100990Y0017091D01*
X0101004Y0017190D02*
X0098670Y0017190D01*
X0098642Y0017288D02*
X0100994Y0017288D01*
X0087565Y0035710D02*
X0054169Y0035710D01*
X0054338Y0035611D02*
X0087430Y0035611D01*
X0087296Y0035513D02*
X0054508Y0035513D01*
X0054677Y0035414D02*
X0087162Y0035414D01*
X0087027Y0035316D02*
X0054847Y0035316D01*
X0055016Y0035217D02*
X0086893Y0035217D01*
X0086759Y0035119D02*
X0055186Y0035119D01*
X0055355Y0035020D02*
X0086624Y0035020D01*
X0086490Y0034922D02*
X0055525Y0034922D01*
X0055695Y0034823D02*
X0086356Y0034823D01*
X0086221Y0034725D02*
X0055864Y0034725D01*
X0056034Y0034626D02*
X0086087Y0034626D01*
X0085953Y0034528D02*
X0056203Y0034528D01*
X0056373Y0034429D02*
X0085818Y0034429D01*
X0085684Y0034331D02*
X0056542Y0034331D01*
X0056712Y0034232D02*
X0085550Y0034232D01*
X0085415Y0034134D02*
X0056881Y0034134D01*
X0057051Y0034035D02*
X0085281Y0034035D01*
X0085146Y0033937D02*
X0057220Y0033937D01*
X0057390Y0033838D02*
X0085012Y0033838D01*
X0084878Y0033740D02*
X0057559Y0033740D01*
X0057729Y0033641D02*
X0084743Y0033641D01*
X0084626Y0033543D02*
X0057898Y0033543D01*
X0058068Y0033444D02*
X0084519Y0033444D01*
X0084412Y0033346D02*
X0058237Y0033346D01*
X0058407Y0033247D02*
X0084305Y0033247D01*
X0084198Y0033149D02*
X0058576Y0033149D01*
X0058746Y0033050D02*
X0084091Y0033050D01*
X0083984Y0032952D02*
X0058916Y0032952D01*
X0059085Y0032853D02*
X0083877Y0032853D01*
X0083770Y0032755D02*
X0059255Y0032755D01*
X0059424Y0032656D02*
X0083663Y0032656D01*
X0083556Y0032558D02*
X0059594Y0032558D01*
X0059763Y0032459D02*
X0083449Y0032459D01*
X0083342Y0032361D02*
X0059933Y0032361D01*
X0060102Y0032262D02*
X0083234Y0032262D01*
X0083127Y0032164D02*
X0060272Y0032164D01*
X0060441Y0032065D02*
X0083020Y0032065D01*
X0082913Y0031966D02*
X0060611Y0031966D01*
X0060780Y0031868D02*
X0082806Y0031868D01*
X0082699Y0031769D02*
X0060950Y0031769D01*
X0061119Y0031671D02*
X0082592Y0031671D01*
X0082485Y0031572D02*
X0061289Y0031572D01*
X0061458Y0031474D02*
X0082378Y0031474D01*
X0082271Y0031375D02*
X0061628Y0031375D01*
X0061798Y0031277D02*
X0082164Y0031277D01*
X0082057Y0031178D02*
X0061967Y0031178D01*
X0062137Y0031080D02*
X0081950Y0031080D01*
X0081843Y0030981D02*
X0062306Y0030981D01*
X0062476Y0030883D02*
X0081736Y0030883D01*
X0081629Y0030784D02*
X0062645Y0030784D01*
X0062815Y0030686D02*
X0081522Y0030686D01*
X0081415Y0030587D02*
X0062984Y0030587D01*
X0063154Y0030489D02*
X0081307Y0030489D01*
X0081200Y0030390D02*
X0063323Y0030390D01*
X0063493Y0030292D02*
X0081093Y0030292D01*
X0080986Y0030193D02*
X0063662Y0030193D01*
X0063832Y0030095D02*
X0080879Y0030095D01*
X0080772Y0029996D02*
X0064001Y0029996D01*
X0064171Y0029898D02*
X0080665Y0029898D01*
X0080558Y0029799D02*
X0064340Y0029799D01*
X0064510Y0029701D02*
X0080451Y0029701D01*
X0080344Y0029602D02*
X0064679Y0029602D01*
X0064849Y0029504D02*
X0080237Y0029504D01*
X0080130Y0029405D02*
X0065019Y0029405D01*
X0065188Y0029307D02*
X0080023Y0029307D01*
X0079916Y0029208D02*
X0065358Y0029208D01*
X0065527Y0029110D02*
X0079809Y0029110D01*
X0079702Y0029011D02*
X0065697Y0029011D01*
X0065866Y0028913D02*
X0079595Y0028913D01*
X0079502Y0028814D02*
X0066036Y0028814D01*
X0066205Y0028716D02*
X0079416Y0028716D01*
X0079331Y0028617D02*
X0066375Y0028617D01*
X0066544Y0028519D02*
X0079245Y0028519D01*
X0079159Y0028420D02*
X0066714Y0028420D01*
X0066883Y0028322D02*
X0079073Y0028322D01*
X0078988Y0028223D02*
X0067053Y0028223D01*
X0067222Y0028125D02*
X0078902Y0028125D01*
X0078816Y0028026D02*
X0067392Y0028026D01*
X0067561Y0027928D02*
X0078730Y0027928D01*
X0078645Y0027829D02*
X0067731Y0027829D01*
X0067901Y0027730D02*
X0078559Y0027730D01*
X0078473Y0027632D02*
X0068070Y0027632D01*
X0068240Y0027533D02*
X0078388Y0027533D01*
X0078302Y0027435D02*
X0068409Y0027435D01*
X0068579Y0027336D02*
X0078216Y0027336D01*
X0078130Y0027238D02*
X0068748Y0027238D01*
X0068918Y0027139D02*
X0078045Y0027139D01*
X0077959Y0027041D02*
X0069087Y0027041D01*
X0069257Y0026942D02*
X0077873Y0026942D01*
X0077788Y0026844D02*
X0069426Y0026844D01*
X0069596Y0026745D02*
X0077702Y0026745D01*
X0077616Y0026647D02*
X0069765Y0026647D01*
X0069935Y0026548D02*
X0077530Y0026548D01*
X0077445Y0026450D02*
X0070104Y0026450D01*
X0070274Y0026351D02*
X0077359Y0026351D01*
X0077273Y0026253D02*
X0070443Y0026253D01*
X0070613Y0026154D02*
X0077187Y0026154D01*
X0077102Y0026056D02*
X0070782Y0026056D01*
X0070952Y0025957D02*
X0077016Y0025957D01*
X0076930Y0025859D02*
X0071122Y0025859D01*
X0071291Y0025760D02*
X0076845Y0025760D01*
X0076759Y0025662D02*
X0071461Y0025662D01*
X0071630Y0025563D02*
X0076673Y0025563D01*
X0076587Y0025465D02*
X0071800Y0025465D01*
X0071969Y0025366D02*
X0076502Y0025366D01*
X0076416Y0025268D02*
X0072139Y0025268D01*
X0072308Y0025169D02*
X0076330Y0025169D01*
X0076245Y0025071D02*
X0072478Y0025071D01*
X0072647Y0024972D02*
X0076159Y0024972D01*
X0076073Y0024874D02*
X0072817Y0024874D01*
X0072986Y0024775D02*
X0075987Y0024775D01*
X0075902Y0024677D02*
X0073156Y0024677D01*
X0073325Y0024578D02*
X0075816Y0024578D01*
X0075730Y0024480D02*
X0073495Y0024480D01*
X0073664Y0024381D02*
X0075645Y0024381D01*
X0075559Y0024283D02*
X0073834Y0024283D01*
X0074004Y0024184D02*
X0075473Y0024184D01*
X0075387Y0024086D02*
X0074173Y0024086D01*
X0074343Y0023987D02*
X0075302Y0023987D01*
X0075216Y0023889D02*
X0074512Y0023889D01*
X0074682Y0023790D02*
X0075130Y0023790D01*
X0075044Y0023692D02*
X0074851Y0023692D01*
X0087699Y0035808D02*
X0053999Y0035808D01*
X0053830Y0035907D02*
X0087833Y0035907D01*
X0087968Y0036005D02*
X0053660Y0036005D01*
X0053491Y0036104D02*
X0088102Y0036104D01*
X0088236Y0036202D02*
X0053321Y0036202D01*
X0053152Y0036301D02*
X0088371Y0036301D01*
X0088505Y0036399D02*
X0052982Y0036399D01*
X0052813Y0036498D02*
X0088640Y0036498D01*
X0088774Y0036597D02*
X0052643Y0036597D01*
X0052473Y0036695D02*
X0088908Y0036695D01*
X0089043Y0036794D02*
X0052304Y0036794D01*
X0052134Y0036892D02*
X0089177Y0036892D01*
X0089311Y0036991D02*
X0051965Y0036991D01*
X0051795Y0037089D02*
X0089446Y0037089D01*
X0089580Y0037188D02*
X0051626Y0037188D01*
X0051456Y0037286D02*
X0089714Y0037286D01*
X0089849Y0037385D02*
X0051287Y0037385D01*
X0051117Y0037483D02*
X0089983Y0037483D01*
X0090117Y0037582D02*
X0050948Y0037582D01*
X0050778Y0037680D02*
X0090252Y0037680D01*
X0090402Y0037779D02*
X0050609Y0037779D01*
X0050439Y0037877D02*
X0090573Y0037877D01*
X0090745Y0037976D02*
X0050270Y0037976D01*
X0050100Y0038074D02*
X0090917Y0038074D01*
X0091089Y0038173D02*
X0049931Y0038173D01*
X0049761Y0038271D02*
X0091260Y0038271D01*
X0091432Y0038370D02*
X0049592Y0038370D01*
X0049422Y0038468D02*
X0091604Y0038468D01*
X0091776Y0038567D02*
X0049252Y0038567D01*
X0049083Y0038665D02*
X0091947Y0038665D01*
X0092119Y0038764D02*
X0048913Y0038764D01*
X0048744Y0038862D02*
X0092291Y0038862D01*
X0092463Y0038961D02*
X0048574Y0038961D01*
X0048405Y0039059D02*
X0092634Y0039059D01*
X0092806Y0039158D02*
X0048235Y0039158D01*
X0048066Y0039256D02*
X0092978Y0039256D01*
X0093150Y0039355D02*
X0047896Y0039355D01*
X0047727Y0039453D02*
X0093321Y0039453D01*
X0093493Y0039552D02*
X0047557Y0039552D01*
X0047388Y0039650D02*
X0093665Y0039650D01*
X0093837Y0039749D02*
X0047218Y0039749D01*
X0047049Y0039847D02*
X0094008Y0039847D01*
X0094180Y0039946D02*
X0046879Y0039946D01*
X0046710Y0040044D02*
X0094352Y0040044D01*
X0094524Y0040143D02*
X0046540Y0040143D01*
X0046370Y0040241D02*
X0094695Y0040241D01*
X0094867Y0040340D02*
X0046201Y0040340D01*
X0046031Y0040438D02*
X0095039Y0040438D01*
X0095211Y0040537D02*
X0045862Y0040537D01*
X0045692Y0040635D02*
X0095382Y0040635D01*
X0095554Y0040734D02*
X0045523Y0040734D01*
X0045353Y0040833D02*
X0095726Y0040833D01*
X0095898Y0040931D02*
X0045184Y0040931D01*
X0045014Y0041030D02*
X0096070Y0041030D01*
X0096241Y0041128D02*
X0044845Y0041128D01*
X0044675Y0041227D02*
X0096413Y0041227D01*
X0096638Y0041325D02*
X0044506Y0041325D01*
X0044336Y0041424D02*
X0096867Y0041424D01*
X0097095Y0041522D02*
X0044167Y0041522D01*
X0043997Y0041621D02*
X0097323Y0041621D01*
X0097552Y0041719D02*
X0043828Y0041719D01*
X0043658Y0041818D02*
X0097780Y0041818D01*
X0098008Y0041916D02*
X0043489Y0041916D01*
X0043319Y0042015D02*
X0098236Y0042015D01*
X0098465Y0042113D02*
X0043149Y0042113D01*
X0042980Y0042212D02*
X0098693Y0042212D01*
X0098921Y0042310D02*
X0042810Y0042310D01*
X0042641Y0042409D02*
X0099149Y0042409D01*
X0099378Y0042507D02*
X0042471Y0042507D01*
X0042302Y0042606D02*
X0099606Y0042606D01*
X0099834Y0042704D02*
X0042132Y0042704D01*
X0041963Y0042803D02*
X0100063Y0042803D01*
X0100291Y0042901D02*
X0041793Y0042901D01*
X0041624Y0043000D02*
X0100519Y0043000D01*
X0100747Y0043098D02*
X0041454Y0043098D01*
X0041285Y0043197D02*
X0100976Y0043197D01*
X0101204Y0043295D02*
X0041115Y0043295D01*
X0040946Y0043394D02*
X0101432Y0043394D01*
X0101660Y0043492D02*
X0040776Y0043492D01*
X0040607Y0043591D02*
X0101889Y0043591D01*
X0102117Y0043689D02*
X0040437Y0043689D01*
X0040267Y0043788D02*
X0102345Y0043788D01*
X0102574Y0043886D02*
X0040098Y0043886D01*
X0039928Y0043985D02*
X0102802Y0043985D01*
X0103079Y0044083D02*
X0039759Y0044083D01*
X0039589Y0044182D02*
X0103406Y0044182D01*
X0103732Y0044280D02*
X0039420Y0044280D01*
X0039250Y0044379D02*
X0104059Y0044379D01*
X0104386Y0044477D02*
X0039081Y0044477D01*
X0038911Y0044576D02*
X0104713Y0044576D01*
X0105040Y0044674D02*
X0038742Y0044674D01*
X0038572Y0044773D02*
X0105367Y0044773D01*
X0105694Y0044871D02*
X0038403Y0044871D01*
X0038233Y0044970D02*
X0106021Y0044970D01*
X0106348Y0045068D02*
X0038064Y0045068D01*
X0037894Y0045167D02*
X0106675Y0045167D01*
X0107002Y0045266D02*
X0037725Y0045266D01*
X0037555Y0045364D02*
X0107329Y0045364D01*
X0107656Y0045463D02*
X0037386Y0045463D01*
X0037216Y0045561D02*
X0107983Y0045561D01*
X0108310Y0045660D02*
X0037046Y0045660D01*
X0036877Y0045758D02*
X0108637Y0045758D01*
X0108964Y0045857D02*
X0036707Y0045857D01*
X0036538Y0045955D02*
X0109291Y0045955D01*
X0109618Y0046054D02*
X0036368Y0046054D01*
X0036199Y0046152D02*
X0110065Y0046152D01*
X0110619Y0046251D02*
X0036029Y0046251D01*
X0035860Y0046349D02*
X0111172Y0046349D01*
X0111725Y0046448D02*
X0035690Y0046448D01*
X0035521Y0046546D02*
X0112278Y0046546D01*
X0112832Y0046645D02*
X0035351Y0046645D01*
X0035182Y0046743D02*
X0113385Y0046743D01*
X0113938Y0046842D02*
X0035012Y0046842D01*
X0034843Y0046940D02*
X0114491Y0046940D01*
X0115045Y0047039D02*
X0034673Y0047039D01*
X0034504Y0047137D02*
X0115598Y0047137D01*
X0116151Y0047236D02*
X0034334Y0047236D01*
X0034165Y0047334D02*
X0116704Y0047334D01*
X0117922Y0047433D02*
X0033995Y0047433D01*
X0033825Y0047531D02*
X0119597Y0047531D01*
X0121272Y0047630D02*
X0033656Y0047630D01*
X0033317Y0047827D02*
X0167017Y0047827D01*
X0167038Y0047925D02*
X0033147Y0047925D01*
X0032978Y0048024D02*
X0167058Y0048024D01*
X0167079Y0048122D02*
X0032808Y0048122D01*
X0032639Y0048221D02*
X0167100Y0048221D01*
X0167121Y0048319D02*
X0032469Y0048319D01*
X0032300Y0048418D02*
X0167142Y0048418D01*
X0167162Y0048516D02*
X0032130Y0048516D01*
X0031961Y0048615D02*
X0167183Y0048615D01*
X0167204Y0048713D02*
X0031791Y0048713D01*
X0031622Y0048812D02*
X0167225Y0048812D01*
X0167246Y0048910D02*
X0031452Y0048910D01*
X0031283Y0049009D02*
X0167266Y0049009D01*
X0167287Y0049107D02*
X0031113Y0049107D01*
X0030943Y0049206D02*
X0167305Y0049206D01*
X0167323Y0049304D02*
X0030774Y0049304D01*
X0030604Y0049403D02*
X0167340Y0049403D01*
X0167358Y0049502D02*
X0030435Y0049502D01*
X0030265Y0049600D02*
X0167375Y0049600D01*
X0167393Y0049699D02*
X0030096Y0049699D01*
X0029926Y0049797D02*
X0167410Y0049797D01*
X0167428Y0049896D02*
X0029757Y0049896D01*
X0029587Y0049994D02*
X0167445Y0049994D01*
X0167463Y0050093D02*
X0029418Y0050093D01*
X0029248Y0050191D02*
X0167480Y0050191D01*
X0167498Y0050290D02*
X0029079Y0050290D01*
X0028909Y0050388D02*
X0167515Y0050388D01*
X0167533Y0050487D02*
X0028740Y0050487D01*
X0028570Y0050585D02*
X0167550Y0050585D01*
X0167568Y0050684D02*
X0028401Y0050684D01*
X0028231Y0050782D02*
X0167585Y0050782D01*
X0167603Y0050881D02*
X0028062Y0050881D01*
X0027892Y0050979D02*
X0167620Y0050979D01*
X0167638Y0051078D02*
X0027722Y0051078D01*
X0027553Y0051176D02*
X0167655Y0051176D01*
X0167673Y0051275D02*
X0027383Y0051275D01*
X0027214Y0051373D02*
X0167690Y0051373D01*
X0167708Y0051472D02*
X0027044Y0051472D01*
X0026875Y0051570D02*
X0167725Y0051570D01*
X0167743Y0051669D02*
X0026705Y0051669D01*
X0026536Y0051767D02*
X0167760Y0051767D01*
X0167778Y0051866D02*
X0026366Y0051866D01*
X0026197Y0051964D02*
X0167795Y0051964D01*
X0167813Y0052063D02*
X0026027Y0052063D01*
X0025858Y0052161D02*
X0167830Y0052161D01*
X0167848Y0052260D02*
X0025688Y0052260D01*
X0025519Y0052358D02*
X0167865Y0052358D01*
X0167883Y0052457D02*
X0025349Y0052457D01*
X0025180Y0052555D02*
X0167900Y0052555D01*
X0167918Y0052654D02*
X0025010Y0052654D01*
X0024840Y0052752D02*
X0167935Y0052752D01*
X0167953Y0052851D02*
X0024671Y0052851D01*
X0024501Y0052949D02*
X0167970Y0052949D01*
X0167988Y0053048D02*
X0024332Y0053048D01*
X0024162Y0053146D02*
X0168005Y0053146D01*
X0168023Y0053245D02*
X0023993Y0053245D01*
X0023823Y0053343D02*
X0168040Y0053343D01*
X0168058Y0053442D02*
X0023654Y0053442D01*
X0023484Y0053540D02*
X0168075Y0053540D01*
X0168091Y0053639D02*
X0023315Y0053639D01*
X0023145Y0053737D02*
X0168105Y0053737D01*
X0168120Y0053836D02*
X0022976Y0053836D01*
X0022806Y0053935D02*
X0168134Y0053935D01*
X0168148Y0054033D02*
X0022637Y0054033D01*
X0022467Y0054132D02*
X0168162Y0054132D01*
X0168177Y0054230D02*
X0022298Y0054230D01*
X0022128Y0054329D02*
X0168191Y0054329D01*
X0168205Y0054427D02*
X0021959Y0054427D01*
X0021789Y0054526D02*
X0168219Y0054526D01*
X0168234Y0054624D02*
X0021619Y0054624D01*
X0021450Y0054723D02*
X0168248Y0054723D01*
X0168262Y0054821D02*
X0021280Y0054821D01*
X0021111Y0054920D02*
X0168276Y0054920D01*
X0168291Y0055018D02*
X0020941Y0055018D01*
X0020772Y0055117D02*
X0168305Y0055117D01*
X0168319Y0055215D02*
X0020602Y0055215D01*
X0020433Y0055314D02*
X0168333Y0055314D01*
X0168348Y0055412D02*
X0020263Y0055412D01*
X0020094Y0055511D02*
X0168362Y0055511D01*
X0168376Y0055609D02*
X0019924Y0055609D01*
X0019755Y0055708D02*
X0168390Y0055708D01*
X0168405Y0055806D02*
X0019585Y0055806D01*
X0019416Y0055905D02*
X0168419Y0055905D01*
X0168433Y0056003D02*
X0019246Y0056003D01*
X0019077Y0056102D02*
X0168447Y0056102D01*
X0168462Y0056200D02*
X0018907Y0056200D01*
X0018737Y0056299D02*
X0168476Y0056299D01*
X0168490Y0056397D02*
X0018568Y0056397D01*
X0018398Y0056496D02*
X0168504Y0056496D01*
X0168519Y0056594D02*
X0018229Y0056594D01*
X0018059Y0056693D02*
X0168533Y0056693D01*
X0168547Y0056791D02*
X0017890Y0056791D01*
X0017720Y0056890D02*
X0168561Y0056890D01*
X0168576Y0056988D02*
X0017551Y0056988D01*
X0017381Y0057087D02*
X0168590Y0057087D01*
X0168604Y0057185D02*
X0017254Y0057185D01*
X0017254Y0057284D02*
X0168619Y0057284D01*
X0168633Y0057382D02*
X0017254Y0057382D01*
X0017254Y0057481D02*
X0168647Y0057481D01*
X0168661Y0057579D02*
X0017254Y0057579D01*
X0017254Y0057678D02*
X0168676Y0057678D01*
X0168690Y0057776D02*
X0017254Y0057776D01*
X0017254Y0057875D02*
X0168704Y0057875D01*
X0168718Y0057973D02*
X0017254Y0057973D01*
X0017254Y0058072D02*
X0168733Y0058072D01*
X0168744Y0058170D02*
X0017254Y0058170D01*
X0017254Y0058269D02*
X0168755Y0058269D01*
X0168766Y0058368D02*
X0017254Y0058368D01*
X0017254Y0058466D02*
X0168777Y0058466D01*
X0168788Y0058565D02*
X0017254Y0058565D01*
X0017254Y0058663D02*
X0168799Y0058663D01*
X0168810Y0058762D02*
X0017254Y0058762D01*
X0017254Y0058860D02*
X0168821Y0058860D01*
X0168832Y0058959D02*
X0017254Y0058959D01*
X0017254Y0059057D02*
X0168843Y0059057D01*
X0168854Y0059156D02*
X0017254Y0059156D01*
X0017254Y0059254D02*
X0168866Y0059254D01*
X0168877Y0059353D02*
X0017254Y0059353D01*
X0017254Y0059451D02*
X0168888Y0059451D01*
X0168899Y0059550D02*
X0017254Y0059550D01*
X0017254Y0059648D02*
X0168910Y0059648D01*
X0168921Y0059747D02*
X0017254Y0059747D01*
X0017254Y0059845D02*
X0168932Y0059845D01*
X0168943Y0059944D02*
X0017254Y0059944D01*
X0017254Y0060042D02*
X0168954Y0060042D01*
X0168965Y0060141D02*
X0017254Y0060141D01*
X0017254Y0060239D02*
X0168976Y0060239D01*
X0168987Y0060338D02*
X0017254Y0060338D01*
X0017254Y0060436D02*
X0168998Y0060436D01*
X0169009Y0060535D02*
X0017254Y0060535D01*
X0017254Y0060633D02*
X0169020Y0060633D01*
X0169031Y0060732D02*
X0017254Y0060732D01*
X0017254Y0060830D02*
X0169042Y0060830D01*
X0169053Y0060929D02*
X0017254Y0060929D01*
X0017254Y0061027D02*
X0169064Y0061027D01*
X0169076Y0061126D02*
X0017254Y0061126D01*
X0017254Y0061224D02*
X0169087Y0061224D01*
X0169098Y0061323D02*
X0017254Y0061323D01*
X0017254Y0061421D02*
X0169109Y0061421D01*
X0169120Y0061520D02*
X0017254Y0061520D01*
X0017254Y0061618D02*
X0169131Y0061618D01*
X0169142Y0061717D02*
X0017254Y0061717D01*
X0017254Y0061815D02*
X0169153Y0061815D01*
X0169164Y0061914D02*
X0017254Y0061914D01*
X0017254Y0062012D02*
X0169175Y0062012D01*
X0169186Y0062111D02*
X0017254Y0062111D01*
X0017254Y0062209D02*
X0169197Y0062209D01*
X0169208Y0062308D02*
X0017254Y0062308D01*
X0017254Y0062406D02*
X0169219Y0062406D01*
X0169230Y0062505D02*
X0017254Y0062505D01*
X0017254Y0062604D02*
X0169241Y0062604D01*
X0169249Y0062702D02*
X0017254Y0062702D01*
X0017254Y0062801D02*
X0169257Y0062801D01*
X0169265Y0062899D02*
X0017254Y0062899D01*
X0017254Y0062998D02*
X0169273Y0062998D01*
X0169281Y0063096D02*
X0017254Y0063096D01*
X0017254Y0063195D02*
X0169288Y0063195D01*
X0169296Y0063293D02*
X0017254Y0063293D01*
X0017254Y0063392D02*
X0169304Y0063392D01*
X0169312Y0063490D02*
X0017254Y0063490D01*
X0017254Y0063589D02*
X0169320Y0063589D01*
X0169328Y0063687D02*
X0017254Y0063687D01*
X0017254Y0063786D02*
X0169336Y0063786D01*
X0169344Y0063884D02*
X0017254Y0063884D01*
X0017254Y0063983D02*
X0169351Y0063983D01*
X0169359Y0064081D02*
X0017254Y0064081D01*
X0017254Y0064180D02*
X0169367Y0064180D01*
X0169375Y0064278D02*
X0017254Y0064278D01*
X0017254Y0064377D02*
X0169383Y0064377D01*
X0169391Y0064475D02*
X0017254Y0064475D01*
X0017254Y0064574D02*
X0169399Y0064574D01*
X0169407Y0064672D02*
X0017254Y0064672D01*
X0017254Y0064771D02*
X0169414Y0064771D01*
X0169422Y0064869D02*
X0017254Y0064869D01*
X0017254Y0064968D02*
X0169430Y0064968D01*
X0169438Y0065066D02*
X0017254Y0065066D01*
X0017254Y0065165D02*
X0169446Y0065165D01*
X0169454Y0065263D02*
X0017254Y0065263D01*
X0017254Y0065362D02*
X0169462Y0065362D01*
X0169470Y0065460D02*
X0017254Y0065460D01*
X0017254Y0065559D02*
X0169477Y0065559D01*
X0169485Y0065657D02*
X0017254Y0065657D01*
X0017254Y0065756D02*
X0169493Y0065756D01*
X0169501Y0065854D02*
X0017254Y0065854D01*
X0017254Y0065953D02*
X0169509Y0065953D01*
X0169517Y0066051D02*
X0017254Y0066051D01*
X0017254Y0066150D02*
X0169525Y0066150D01*
X0169533Y0066248D02*
X0017254Y0066248D01*
X0017254Y0066347D02*
X0169540Y0066347D01*
X0169548Y0066445D02*
X0017254Y0066445D01*
X0017254Y0066544D02*
X0169556Y0066544D01*
X0169564Y0066642D02*
X0017254Y0066642D01*
X0017254Y0066741D02*
X0169572Y0066741D01*
X0169580Y0066839D02*
X0017254Y0066839D01*
X0017254Y0066938D02*
X0169588Y0066938D01*
X0169595Y0067037D02*
X0017254Y0067037D01*
X0017254Y0067135D02*
X0169603Y0067135D01*
X0169608Y0067234D02*
X0017254Y0067234D01*
X0017254Y0067332D02*
X0169613Y0067332D01*
X0169618Y0067431D02*
X0017254Y0067431D01*
X0017254Y0067529D02*
X0169622Y0067529D01*
X0169627Y0067628D02*
X0017254Y0067628D01*
X0017254Y0067726D02*
X0169632Y0067726D01*
X0169636Y0067825D02*
X0017254Y0067825D01*
X0017254Y0067923D02*
X0169641Y0067923D01*
X0169646Y0068022D02*
X0017254Y0068022D01*
X0017254Y0068120D02*
X0169651Y0068120D01*
X0169655Y0068219D02*
X0017254Y0068219D01*
X0017254Y0068317D02*
X0169660Y0068317D01*
X0169665Y0068416D02*
X0017254Y0068416D01*
X0017254Y0068514D02*
X0169670Y0068514D01*
X0169674Y0068613D02*
X0017254Y0068613D01*
X0017254Y0068711D02*
X0169679Y0068711D01*
X0169684Y0068810D02*
X0017254Y0068810D01*
X0017254Y0068908D02*
X0169688Y0068908D01*
X0169693Y0069007D02*
X0017254Y0069007D01*
X0017254Y0069105D02*
X0169698Y0069105D01*
X0169703Y0069204D02*
X0017254Y0069204D01*
X0017254Y0069302D02*
X0169707Y0069302D01*
X0169712Y0069401D02*
X0017254Y0069401D01*
X0017254Y0069499D02*
X0169717Y0069499D01*
X0169721Y0069598D02*
X0017254Y0069598D01*
X0017254Y0069696D02*
X0169726Y0069696D01*
X0169731Y0069795D02*
X0017254Y0069795D01*
X0017254Y0069893D02*
X0169736Y0069893D01*
X0169740Y0069992D02*
X0017254Y0069992D01*
X0017254Y0070090D02*
X0169745Y0070090D01*
X0169750Y0070189D02*
X0017254Y0070189D01*
X0017254Y0070287D02*
X0169754Y0070287D01*
X0169759Y0070386D02*
X0017254Y0070386D01*
X0017254Y0070484D02*
X0169764Y0070484D01*
X0169769Y0070583D02*
X0017254Y0070583D01*
X0017254Y0070681D02*
X0169773Y0070681D01*
X0169778Y0070780D02*
X0017254Y0070780D01*
X0017254Y0070878D02*
X0169783Y0070878D01*
X0169787Y0070977D02*
X0017254Y0070977D01*
X0017254Y0071075D02*
X0169792Y0071075D01*
X0169797Y0071174D02*
X0017254Y0071174D01*
X0017254Y0071273D02*
X0169802Y0071273D01*
X0169806Y0071371D02*
X0017254Y0071371D01*
X0017254Y0071470D02*
X0169811Y0071470D01*
X0169816Y0071568D02*
X0017254Y0071568D01*
X0017254Y0071667D02*
X0169820Y0071667D01*
X0169823Y0071765D02*
X0017254Y0071765D01*
X0017254Y0071864D02*
X0169824Y0071864D01*
X0169826Y0071962D02*
X0017254Y0071962D01*
X0017254Y0072061D02*
X0169828Y0072061D01*
X0169829Y0072159D02*
X0017254Y0072159D01*
X0017254Y0072258D02*
X0169831Y0072258D01*
X0169832Y0072356D02*
X0017254Y0072356D01*
X0017254Y0072455D02*
X0169834Y0072455D01*
X0169835Y0072553D02*
X0017254Y0072553D01*
X0017254Y0072652D02*
X0169837Y0072652D01*
X0169839Y0072750D02*
X0017254Y0072750D01*
X0017254Y0072849D02*
X0169840Y0072849D01*
X0169842Y0072947D02*
X0017254Y0072947D01*
X0017254Y0073046D02*
X0169843Y0073046D01*
X0169845Y0073144D02*
X0017254Y0073144D01*
X0017254Y0073243D02*
X0169846Y0073243D01*
X0169848Y0073341D02*
X0017254Y0073341D01*
X0017254Y0073440D02*
X0169850Y0073440D01*
X0169851Y0073538D02*
X0017254Y0073538D01*
X0017254Y0073637D02*
X0169853Y0073637D01*
X0169854Y0073735D02*
X0017254Y0073735D01*
X0017254Y0073834D02*
X0169856Y0073834D01*
X0169857Y0073932D02*
X0017254Y0073932D01*
X0017254Y0074031D02*
X0169859Y0074031D01*
X0169861Y0074129D02*
X0017254Y0074129D01*
X0017254Y0074228D02*
X0169862Y0074228D01*
X0169864Y0074326D02*
X0017254Y0074326D01*
X0017254Y0074425D02*
X0169865Y0074425D01*
X0169867Y0074523D02*
X0017254Y0074523D01*
X0017254Y0074622D02*
X0169868Y0074622D01*
X0169870Y0074720D02*
X0017254Y0074720D01*
X0017254Y0074819D02*
X0169872Y0074819D01*
X0169873Y0074917D02*
X0017254Y0074917D01*
X0017254Y0075016D02*
X0169875Y0075016D01*
X0169876Y0075114D02*
X0017254Y0075114D01*
X0017254Y0075213D02*
X0169878Y0075213D01*
X0169879Y0075311D02*
X0017254Y0075311D01*
X0017254Y0075410D02*
X0169881Y0075410D01*
X0169883Y0075508D02*
X0017254Y0075508D01*
X0017254Y0075607D02*
X0169884Y0075607D01*
X0169886Y0075706D02*
X0017254Y0075706D01*
X0017254Y0075804D02*
X0169887Y0075804D01*
X0169889Y0075903D02*
X0017254Y0075903D01*
X0017254Y0076001D02*
X0169890Y0076001D01*
X0169892Y0076100D02*
X0017254Y0076100D01*
X0017254Y0076198D02*
X0169894Y0076198D01*
X0169894Y0076297D02*
X0017254Y0076297D01*
X0017254Y0076395D02*
X0169892Y0076395D01*
X0169890Y0076494D02*
X0017254Y0076494D01*
X0017254Y0076592D02*
X0169888Y0076592D01*
X0169886Y0076691D02*
X0017254Y0076691D01*
X0017254Y0076789D02*
X0169884Y0076789D01*
X0169882Y0076888D02*
X0017254Y0076888D01*
X0017254Y0076986D02*
X0169880Y0076986D01*
X0169878Y0077085D02*
X0017254Y0077085D01*
X0017254Y0077183D02*
X0169876Y0077183D01*
X0169874Y0077282D02*
X0017254Y0077282D01*
X0017254Y0077380D02*
X0169872Y0077380D01*
X0169870Y0077479D02*
X0017254Y0077479D01*
X0017254Y0077577D02*
X0169868Y0077577D01*
X0169866Y0077676D02*
X0017254Y0077676D01*
X0017254Y0077774D02*
X0169864Y0077774D01*
X0169862Y0077873D02*
X0017254Y0077873D01*
X0017254Y0077971D02*
X0169860Y0077971D01*
X0169858Y0078070D02*
X0017254Y0078070D01*
X0017254Y0078168D02*
X0169856Y0078168D01*
X0169854Y0078267D02*
X0017254Y0078267D01*
X0017254Y0078365D02*
X0169852Y0078365D01*
X0169850Y0078464D02*
X0017254Y0078464D01*
X0017254Y0078562D02*
X0169848Y0078562D01*
X0169846Y0078661D02*
X0017254Y0078661D01*
X0017254Y0078759D02*
X0169844Y0078759D01*
X0169842Y0078858D02*
X0017254Y0078858D01*
X0017254Y0078956D02*
X0169840Y0078956D01*
X0169838Y0079055D02*
X0017254Y0079055D01*
X0017254Y0079153D02*
X0169836Y0079153D01*
X0169834Y0079252D02*
X0017254Y0079252D01*
X0017254Y0079350D02*
X0169832Y0079350D01*
X0169830Y0079449D02*
X0017254Y0079449D01*
X0017254Y0079547D02*
X0169828Y0079547D01*
X0169826Y0079646D02*
X0017254Y0079646D01*
X0017254Y0079744D02*
X0169824Y0079744D01*
X0169822Y0079843D02*
X0017254Y0079843D01*
X0017254Y0079941D02*
X0169820Y0079941D01*
X0169818Y0080040D02*
X0017254Y0080040D01*
X0017254Y0080139D02*
X0169816Y0080139D01*
X0169814Y0080237D02*
X0017254Y0080237D01*
X0017254Y0080336D02*
X0169812Y0080336D01*
X0169810Y0080434D02*
X0017254Y0080434D01*
X0017254Y0080533D02*
X0169808Y0080533D01*
X0169806Y0080631D02*
X0017254Y0080631D01*
X0017254Y0080730D02*
X0169804Y0080730D01*
X0169802Y0080828D02*
X0017254Y0080828D01*
X0017254Y0080927D02*
X0169800Y0080927D01*
X0169798Y0081025D02*
X0017254Y0081025D01*
X0017254Y0081124D02*
X0169796Y0081124D01*
X0169794Y0081222D02*
X0017254Y0081222D01*
X0017254Y0081321D02*
X0169792Y0081321D01*
X0169790Y0081419D02*
X0017254Y0081419D01*
X0017254Y0081518D02*
X0169788Y0081518D01*
X0169786Y0081616D02*
X0017254Y0081616D01*
X0017254Y0081715D02*
X0169784Y0081715D01*
X0169783Y0081813D02*
X0017254Y0081813D01*
X0017254Y0081912D02*
X0169781Y0081912D01*
X0169778Y0082010D02*
X0017254Y0082010D01*
X0017254Y0082109D02*
X0169772Y0082109D01*
X0169766Y0082207D02*
X0017254Y0082207D01*
X0017254Y0082306D02*
X0169760Y0082306D01*
X0169754Y0082404D02*
X0017254Y0082404D01*
X0017254Y0082503D02*
X0169748Y0082503D01*
X0169742Y0082601D02*
X0017254Y0082601D01*
X0017254Y0082700D02*
X0169736Y0082700D01*
X0169730Y0082798D02*
X0017254Y0082798D01*
X0017254Y0082897D02*
X0169725Y0082897D01*
X0169719Y0082995D02*
X0017254Y0082995D01*
X0017254Y0083094D02*
X0169713Y0083094D01*
X0169707Y0083192D02*
X0017254Y0083192D01*
X0017254Y0083291D02*
X0169701Y0083291D01*
X0169695Y0083389D02*
X0017254Y0083389D01*
X0017254Y0083488D02*
X0169689Y0083488D01*
X0169683Y0083586D02*
X0017254Y0083586D01*
X0017254Y0083685D02*
X0169677Y0083685D01*
X0169671Y0083783D02*
X0017254Y0083783D01*
X0017254Y0083882D02*
X0169665Y0083882D01*
X0169659Y0083980D02*
X0017254Y0083980D01*
X0017254Y0084079D02*
X0169653Y0084079D01*
X0169647Y0084177D02*
X0017254Y0084177D01*
X0017254Y0084276D02*
X0169641Y0084276D01*
X0169635Y0084375D02*
X0017254Y0084375D01*
X0017254Y0084473D02*
X0169629Y0084473D01*
X0169623Y0084572D02*
X0017254Y0084572D01*
X0017254Y0084670D02*
X0169617Y0084670D01*
X0169611Y0084769D02*
X0017254Y0084769D01*
X0017254Y0084867D02*
X0169605Y0084867D01*
X0169599Y0084966D02*
X0017254Y0084966D01*
X0017254Y0085064D02*
X0169593Y0085064D01*
X0169588Y0085163D02*
X0017254Y0085163D01*
X0017254Y0085261D02*
X0169582Y0085261D01*
X0169576Y0085360D02*
X0017254Y0085360D01*
X0017254Y0085458D02*
X0169570Y0085458D01*
X0169564Y0085557D02*
X0017254Y0085557D01*
X0017254Y0085655D02*
X0169558Y0085655D01*
X0169552Y0085754D02*
X0017254Y0085754D01*
X0017254Y0085852D02*
X0169546Y0085852D01*
X0169540Y0085951D02*
X0017254Y0085951D01*
X0017254Y0086049D02*
X0169534Y0086049D01*
X0169528Y0086148D02*
X0017254Y0086148D01*
X0017254Y0086246D02*
X0169522Y0086246D01*
X0169516Y0086345D02*
X0017254Y0086345D01*
X0017254Y0086443D02*
X0169510Y0086443D01*
X0169504Y0086542D02*
X0017254Y0086542D01*
X0017254Y0086640D02*
X0169498Y0086640D01*
X0169492Y0086739D02*
X0017254Y0086739D01*
X0017254Y0086837D02*
X0169486Y0086837D01*
X0169480Y0086936D02*
X0017254Y0086936D01*
X0017254Y0087034D02*
X0169474Y0087034D01*
X0169468Y0087133D02*
X0017254Y0087133D01*
X0017254Y0087231D02*
X0169462Y0087231D01*
X0169456Y0087330D02*
X0017254Y0087330D01*
X0017254Y0087428D02*
X0169450Y0087428D01*
X0169445Y0087527D02*
X0017254Y0087527D01*
X0017254Y0087625D02*
X0169439Y0087625D01*
X0169432Y0087724D02*
X0017254Y0087724D01*
X0017254Y0087822D02*
X0169422Y0087822D01*
X0169412Y0087921D02*
X0017254Y0087921D01*
X0017254Y0088019D02*
X0169402Y0088019D01*
X0169392Y0088118D02*
X0017254Y0088118D01*
X0017254Y0088216D02*
X0169382Y0088216D01*
X0169372Y0088315D02*
X0017254Y0088315D01*
X0017254Y0088413D02*
X0169362Y0088413D01*
X0169352Y0088512D02*
X0017254Y0088512D01*
X0017254Y0088610D02*
X0169342Y0088610D01*
X0169332Y0088709D02*
X0017254Y0088709D01*
X0017254Y0088808D02*
X0169322Y0088808D01*
X0169312Y0088906D02*
X0017254Y0088906D01*
X0017254Y0089005D02*
X0169302Y0089005D01*
X0169292Y0089103D02*
X0017254Y0089103D01*
X0017254Y0089202D02*
X0169282Y0089202D01*
X0169272Y0089300D02*
X0017254Y0089300D01*
X0017254Y0089399D02*
X0169263Y0089399D01*
X0169253Y0089497D02*
X0017254Y0089497D01*
X0017254Y0089596D02*
X0169243Y0089596D01*
X0169233Y0089694D02*
X0017254Y0089694D01*
X0017254Y0089793D02*
X0169223Y0089793D01*
X0169213Y0089891D02*
X0017254Y0089891D01*
X0017254Y0089990D02*
X0169203Y0089990D01*
X0169193Y0090088D02*
X0017254Y0090088D01*
X0017254Y0090187D02*
X0169183Y0090187D01*
X0169173Y0090285D02*
X0017254Y0090285D01*
X0017254Y0090384D02*
X0169163Y0090384D01*
X0169153Y0090482D02*
X0017254Y0090482D01*
X0017254Y0090581D02*
X0169143Y0090581D01*
X0169133Y0090679D02*
X0017254Y0090679D01*
X0017254Y0090778D02*
X0169123Y0090778D01*
X0169113Y0090876D02*
X0017254Y0090876D01*
X0017254Y0090975D02*
X0169104Y0090975D01*
X0169094Y0091073D02*
X0017254Y0091073D01*
X0017254Y0091172D02*
X0169084Y0091172D01*
X0169074Y0091270D02*
X0017254Y0091270D01*
X0017254Y0091369D02*
X0169064Y0091369D01*
X0169054Y0091467D02*
X0017254Y0091467D01*
X0017254Y0091566D02*
X0169044Y0091566D01*
X0169034Y0091664D02*
X0017254Y0091664D01*
X0017254Y0091763D02*
X0169024Y0091763D01*
X0169014Y0091861D02*
X0017254Y0091861D01*
X0017254Y0091960D02*
X0169004Y0091960D01*
X0168994Y0092058D02*
X0017254Y0092058D01*
X0017254Y0092157D02*
X0168984Y0092157D01*
X0168974Y0092255D02*
X0017254Y0092255D01*
X0017254Y0092354D02*
X0168964Y0092354D01*
X0168954Y0092452D02*
X0017254Y0092452D01*
X0017254Y0092551D02*
X0168945Y0092551D01*
X0168935Y0092649D02*
X0017254Y0092649D01*
X0017254Y0092748D02*
X0168925Y0092748D01*
X0168915Y0092846D02*
X0017254Y0092846D01*
X0017254Y0092945D02*
X0168905Y0092945D01*
X0168895Y0093044D02*
X0017254Y0093044D01*
X0017254Y0093142D02*
X0168885Y0093142D01*
X0168851Y0093438D02*
X0017254Y0093438D01*
X0017254Y0093536D02*
X0168837Y0093536D01*
X0168823Y0093635D02*
X0017254Y0093635D01*
X0017254Y0093733D02*
X0168809Y0093733D01*
X0168795Y0093832D02*
X0017254Y0093832D01*
X0017254Y0093930D02*
X0168781Y0093930D01*
X0168767Y0094029D02*
X0017254Y0094029D01*
X0017254Y0094127D02*
X0168753Y0094127D01*
X0168740Y0094226D02*
X0017254Y0094226D01*
X0017254Y0094324D02*
X0168726Y0094324D01*
X0168712Y0094423D02*
X0017254Y0094423D01*
X0017254Y0094521D02*
X0168698Y0094521D01*
X0168684Y0094620D02*
X0017254Y0094620D01*
X0017254Y0094718D02*
X0168670Y0094718D01*
X0168656Y0094817D02*
X0017254Y0094817D01*
X0017254Y0094915D02*
X0168642Y0094915D01*
X0168628Y0095014D02*
X0017254Y0095014D01*
X0017254Y0095112D02*
X0168614Y0095112D01*
X0168600Y0095211D02*
X0017254Y0095211D01*
X0017254Y0095309D02*
X0168586Y0095309D01*
X0168572Y0095408D02*
X0017254Y0095408D01*
X0017254Y0095506D02*
X0168558Y0095506D01*
X0168544Y0095605D02*
X0017254Y0095605D01*
X0017254Y0095703D02*
X0168530Y0095703D01*
X0168516Y0095802D02*
X0017254Y0095802D01*
X0017254Y0095900D02*
X0168503Y0095900D01*
X0168489Y0095999D02*
X0017254Y0095999D01*
X0017254Y0096097D02*
X0168475Y0096097D01*
X0168461Y0096196D02*
X0017254Y0096196D01*
X0017254Y0096294D02*
X0168447Y0096294D01*
X0168433Y0096393D02*
X0017254Y0096393D01*
X0017254Y0096491D02*
X0168419Y0096491D01*
X0168405Y0096590D02*
X0017254Y0096590D01*
X0017254Y0096688D02*
X0168391Y0096688D01*
X0168377Y0096787D02*
X0017254Y0096787D01*
X0017254Y0096885D02*
X0168363Y0096885D01*
X0168349Y0096984D02*
X0017254Y0096984D01*
X0017254Y0097082D02*
X0168335Y0097082D01*
X0168321Y0097181D02*
X0017254Y0097181D01*
X0017254Y0097279D02*
X0168307Y0097279D01*
X0168293Y0097378D02*
X0017254Y0097378D01*
X0017254Y0097477D02*
X0168280Y0097477D01*
X0168266Y0097575D02*
X0017254Y0097575D01*
X0017254Y0097674D02*
X0168252Y0097674D01*
X0168238Y0097772D02*
X0017254Y0097772D01*
X0017254Y0097871D02*
X0168224Y0097871D01*
X0168210Y0097969D02*
X0017254Y0097969D01*
X0017254Y0098068D02*
X0168196Y0098068D01*
X0168182Y0098166D02*
X0017254Y0098166D01*
X0017254Y0098265D02*
X0168168Y0098265D01*
X0168154Y0098363D02*
X0017254Y0098363D01*
X0017254Y0098462D02*
X0168140Y0098462D01*
X0168126Y0098560D02*
X0017254Y0098560D01*
X0017254Y0098659D02*
X0168112Y0098659D01*
X0168098Y0098757D02*
X0017254Y0098757D01*
X0017254Y0098856D02*
X0168084Y0098856D01*
X0168069Y0098954D02*
X0017254Y0098954D01*
X0017254Y0099053D02*
X0168051Y0099053D01*
X0168033Y0099151D02*
X0017254Y0099151D01*
X0017254Y0099250D02*
X0168015Y0099250D01*
X0167997Y0099348D02*
X0017254Y0099348D01*
X0017254Y0099447D02*
X0167979Y0099447D01*
X0167961Y0099545D02*
X0017254Y0099545D01*
X0017254Y0099644D02*
X0167943Y0099644D01*
X0167925Y0099742D02*
X0017254Y0099742D01*
X0017254Y0099841D02*
X0167907Y0099841D01*
X0167889Y0099939D02*
X0017254Y0099939D01*
X0017254Y0100038D02*
X0167871Y0100038D01*
X0167853Y0100136D02*
X0017254Y0100136D01*
X0017254Y0100235D02*
X0167836Y0100235D01*
X0167818Y0100333D02*
X0017254Y0100333D01*
X0017254Y0100432D02*
X0167800Y0100432D01*
X0167782Y0100530D02*
X0017254Y0100530D01*
X0017254Y0100629D02*
X0167764Y0100629D01*
X0167746Y0100727D02*
X0017254Y0100727D01*
X0017254Y0100826D02*
X0167728Y0100826D01*
X0167710Y0100924D02*
X0017254Y0100924D01*
X0017254Y0101023D02*
X0167692Y0101023D01*
X0167674Y0101121D02*
X0017254Y0101121D01*
X0017254Y0101220D02*
X0167656Y0101220D01*
X0167638Y0101318D02*
X0017254Y0101318D01*
X0017254Y0101417D02*
X0167620Y0101417D01*
X0167602Y0101515D02*
X0017254Y0101515D01*
X0017254Y0101614D02*
X0167584Y0101614D01*
X0167566Y0101712D02*
X0017254Y0101712D01*
X0017254Y0101811D02*
X0167548Y0101811D01*
X0167530Y0101910D02*
X0017254Y0101910D01*
X0017254Y0102008D02*
X0167512Y0102008D01*
X0167494Y0102107D02*
X0017254Y0102107D01*
X0017254Y0102205D02*
X0167476Y0102205D01*
X0167458Y0102304D02*
X0017254Y0102304D01*
X0017254Y0102402D02*
X0167440Y0102402D01*
X0167422Y0102501D02*
X0017254Y0102501D01*
X0017254Y0102599D02*
X0167404Y0102599D01*
X0167386Y0102698D02*
X0017254Y0102698D01*
X0017254Y0102796D02*
X0167368Y0102796D01*
X0167350Y0102895D02*
X0017254Y0102895D01*
X0017254Y0102993D02*
X0167332Y0102993D01*
X0167314Y0103092D02*
X0017254Y0103092D01*
X0017254Y0103190D02*
X0167296Y0103190D01*
X0167278Y0103289D02*
X0017254Y0103289D01*
X0017254Y0103387D02*
X0167260Y0103387D01*
X0167242Y0103486D02*
X0017254Y0103486D01*
X0017254Y0103584D02*
X0167224Y0103584D01*
X0167206Y0103683D02*
X0017254Y0103683D01*
X0017254Y0103781D02*
X0167188Y0103781D01*
X0167171Y0103880D02*
X0017254Y0103880D01*
X0017254Y0103978D02*
X0167153Y0103978D01*
X0167135Y0104077D02*
X0017254Y0104077D01*
X0017254Y0104175D02*
X0167117Y0104175D01*
X0167099Y0104274D02*
X0017254Y0104274D01*
X0017254Y0104372D02*
X0167081Y0104372D01*
X0167062Y0104471D02*
X0017254Y0104471D01*
X0017254Y0104569D02*
X0167040Y0104569D01*
X0167017Y0104668D02*
X0017254Y0104668D01*
X0017254Y0104766D02*
X0166995Y0104766D01*
X0166973Y0104865D02*
X0017254Y0104865D01*
X0017254Y0104963D02*
X0166951Y0104963D01*
X0166929Y0105062D02*
X0017254Y0105062D01*
X0017254Y0105160D02*
X0166907Y0105160D01*
X0166885Y0105259D02*
X0017254Y0105259D01*
X0017254Y0105357D02*
X0166863Y0105357D01*
X0166841Y0105456D02*
X0017254Y0105456D01*
X0017254Y0105554D02*
X0166819Y0105554D01*
X0166797Y0105653D02*
X0017254Y0105653D01*
X0017254Y0105751D02*
X0166775Y0105751D01*
X0166753Y0105850D02*
X0017254Y0105850D01*
X0017254Y0105948D02*
X0166731Y0105948D01*
X0166709Y0106047D02*
X0017254Y0106047D01*
X0017254Y0106146D02*
X0166687Y0106146D01*
X0166665Y0106244D02*
X0017254Y0106244D01*
X0017254Y0106343D02*
X0166643Y0106343D01*
X0166621Y0106441D02*
X0017254Y0106441D01*
X0017254Y0106540D02*
X0166599Y0106540D01*
X0166576Y0106638D02*
X0017254Y0106638D01*
X0017254Y0106737D02*
X0166554Y0106737D01*
X0166532Y0106835D02*
X0017254Y0106835D01*
X0017254Y0106934D02*
X0166510Y0106934D01*
X0166488Y0107032D02*
X0017254Y0107032D01*
X0017254Y0107131D02*
X0166466Y0107131D01*
X0166444Y0107229D02*
X0017254Y0107229D01*
X0017254Y0107328D02*
X0166422Y0107328D01*
X0166400Y0107426D02*
X0017254Y0107426D01*
X0017254Y0107525D02*
X0166378Y0107525D01*
X0166356Y0107623D02*
X0017254Y0107623D01*
X0017254Y0107722D02*
X0166334Y0107722D01*
X0166312Y0107820D02*
X0017254Y0107820D01*
X0017254Y0107919D02*
X0166290Y0107919D01*
X0166268Y0108017D02*
X0017254Y0108017D01*
X0017254Y0108116D02*
X0166246Y0108116D01*
X0166224Y0108214D02*
X0017254Y0108214D01*
X0017254Y0108313D02*
X0166202Y0108313D01*
X0166180Y0108411D02*
X0017254Y0108411D01*
X0017254Y0108510D02*
X0166158Y0108510D01*
X0166136Y0108608D02*
X0017254Y0108608D01*
X0017254Y0108707D02*
X0166113Y0108707D01*
X0166091Y0108805D02*
X0017254Y0108805D01*
X0017254Y0108904D02*
X0166069Y0108904D01*
X0166047Y0109002D02*
X0017254Y0109002D01*
X0017254Y0109101D02*
X0166025Y0109101D01*
X0166003Y0109199D02*
X0017254Y0109199D01*
X0017254Y0109298D02*
X0165981Y0109298D01*
X0165959Y0109396D02*
X0017254Y0109396D01*
X0017254Y0109495D02*
X0165937Y0109495D01*
X0165915Y0109593D02*
X0017254Y0109593D01*
X0017254Y0109692D02*
X0165893Y0109692D01*
X0165871Y0109790D02*
X0017254Y0109790D01*
X0017254Y0109889D02*
X0165849Y0109889D01*
X0165823Y0109987D02*
X0017254Y0109987D01*
X0017254Y0110086D02*
X0165797Y0110086D01*
X0165771Y0110184D02*
X0017254Y0110184D01*
X0017254Y0110283D02*
X0165744Y0110283D01*
X0165718Y0110381D02*
X0017254Y0110381D01*
X0017254Y0110480D02*
X0165692Y0110480D01*
X0165666Y0110579D02*
X0017254Y0110579D01*
X0017254Y0110677D02*
X0165640Y0110677D01*
X0165614Y0110776D02*
X0017254Y0110776D01*
X0017254Y0110874D02*
X0165587Y0110874D01*
X0165561Y0110973D02*
X0017254Y0110973D01*
X0017254Y0111071D02*
X0165535Y0111071D01*
X0165509Y0111170D02*
X0017254Y0111170D01*
X0017254Y0111268D02*
X0165483Y0111268D01*
X0165457Y0111367D02*
X0017254Y0111367D01*
X0017254Y0111465D02*
X0165430Y0111465D01*
X0165404Y0111564D02*
X0017254Y0111564D01*
X0017254Y0111662D02*
X0165378Y0111662D01*
X0165352Y0111761D02*
X0017254Y0111761D01*
X0017254Y0111859D02*
X0165326Y0111859D01*
X0165299Y0111958D02*
X0017254Y0111958D01*
X0017254Y0112056D02*
X0165273Y0112056D01*
X0165247Y0112155D02*
X0017254Y0112155D01*
X0017254Y0112253D02*
X0165221Y0112253D01*
X0165195Y0112352D02*
X0017254Y0112352D01*
X0017254Y0112450D02*
X0165169Y0112450D01*
X0165142Y0112549D02*
X0017254Y0112549D01*
X0017254Y0112647D02*
X0165116Y0112647D01*
X0165090Y0112746D02*
X0017254Y0112746D01*
X0017254Y0112844D02*
X0165064Y0112844D01*
X0165038Y0112943D02*
X0017254Y0112943D01*
X0017254Y0113041D02*
X0165012Y0113041D01*
X0164985Y0113140D02*
X0017254Y0113140D01*
X0017254Y0113238D02*
X0164959Y0113238D01*
X0164933Y0113337D02*
X0017254Y0113337D01*
X0017254Y0113435D02*
X0164907Y0113435D01*
X0164881Y0113534D02*
X0017254Y0113534D01*
X0017254Y0113632D02*
X0164855Y0113632D01*
X0164828Y0113731D02*
X0017254Y0113731D01*
X0017254Y0113829D02*
X0164802Y0113829D01*
X0164776Y0113928D02*
X0017254Y0113928D01*
X0017254Y0114026D02*
X0164750Y0114026D01*
X0164724Y0114125D02*
X0017254Y0114125D01*
X0017254Y0114223D02*
X0164697Y0114223D01*
X0164671Y0114322D02*
X0017254Y0114322D01*
X0017254Y0114420D02*
X0164645Y0114420D01*
X0164619Y0114519D02*
X0017254Y0114519D01*
X0017254Y0114617D02*
X0164593Y0114617D01*
X0164567Y0114716D02*
X0017254Y0114716D01*
X0017254Y0114815D02*
X0164540Y0114815D01*
X0164514Y0114913D02*
X0017254Y0114913D01*
X0017254Y0115012D02*
X0164488Y0115012D01*
X0164462Y0115110D02*
X0017254Y0115110D01*
X0017254Y0115209D02*
X0164436Y0115209D01*
X0164408Y0115307D02*
X0017254Y0115307D01*
X0017254Y0115406D02*
X0164378Y0115406D01*
X0164347Y0115504D02*
X0017254Y0115504D01*
X0017254Y0115603D02*
X0164317Y0115603D01*
X0164287Y0115701D02*
X0017254Y0115701D01*
X0017254Y0115800D02*
X0164256Y0115800D01*
X0164226Y0115898D02*
X0017254Y0115898D01*
X0017254Y0115997D02*
X0164195Y0115997D01*
X0164165Y0116095D02*
X0017254Y0116095D01*
X0017254Y0116194D02*
X0164135Y0116194D01*
X0164104Y0116292D02*
X0017254Y0116292D01*
X0017254Y0116391D02*
X0164074Y0116391D01*
X0164043Y0116489D02*
X0017254Y0116489D01*
X0017254Y0116588D02*
X0164013Y0116588D01*
X0163983Y0116686D02*
X0017254Y0116686D01*
X0017254Y0116785D02*
X0163952Y0116785D01*
X0163922Y0116883D02*
X0017254Y0116883D01*
X0017254Y0116982D02*
X0163892Y0116982D01*
X0163861Y0117080D02*
X0017254Y0117080D01*
X0017254Y0117179D02*
X0163831Y0117179D01*
X0163800Y0117277D02*
X0017254Y0117277D01*
X0017254Y0117376D02*
X0163770Y0117376D01*
X0163740Y0117474D02*
X0017254Y0117474D01*
X0017254Y0117573D02*
X0163709Y0117573D01*
X0163679Y0117671D02*
X0017254Y0117671D01*
X0017254Y0117770D02*
X0163648Y0117770D01*
X0163618Y0117868D02*
X0017254Y0117868D01*
X0017254Y0117967D02*
X0163588Y0117967D01*
X0163557Y0118065D02*
X0017254Y0118065D01*
X0017254Y0118164D02*
X0163527Y0118164D01*
X0163496Y0118262D02*
X0017254Y0118262D01*
X0017254Y0118361D02*
X0163466Y0118361D01*
X0163436Y0118459D02*
X0017254Y0118459D01*
X0017254Y0118558D02*
X0163405Y0118558D01*
X0163375Y0118656D02*
X0017254Y0118656D01*
X0017254Y0118755D02*
X0163345Y0118755D01*
X0163314Y0118853D02*
X0017254Y0118853D01*
X0017254Y0118952D02*
X0163284Y0118952D01*
X0163253Y0119050D02*
X0017254Y0119050D01*
X0017254Y0119149D02*
X0163223Y0119149D01*
X0163193Y0119248D02*
X0017254Y0119248D01*
X0017254Y0119346D02*
X0163162Y0119346D01*
X0163132Y0119445D02*
X0017254Y0119445D01*
X0017254Y0119543D02*
X0163101Y0119543D01*
X0163071Y0119642D02*
X0017254Y0119642D01*
X0017254Y0119740D02*
X0163041Y0119740D01*
X0163010Y0119839D02*
X0017254Y0119839D01*
X0017254Y0119937D02*
X0162980Y0119937D01*
X0162950Y0120036D02*
X0017254Y0120036D01*
X0017254Y0120134D02*
X0162919Y0120134D01*
X0162889Y0120233D02*
X0017254Y0120233D01*
X0017254Y0120331D02*
X0162858Y0120331D01*
X0162828Y0120430D02*
X0017254Y0120430D01*
X0017254Y0120528D02*
X0162798Y0120528D01*
X0162765Y0120627D02*
X0017254Y0120627D01*
X0017254Y0120725D02*
X0162730Y0120725D01*
X0162695Y0120824D02*
X0017254Y0120824D01*
X0017254Y0120922D02*
X0162661Y0120922D01*
X0162626Y0121021D02*
X0017254Y0121021D01*
X0017254Y0121119D02*
X0162591Y0121119D01*
X0162557Y0121218D02*
X0017254Y0121218D01*
X0017254Y0121316D02*
X0162522Y0121316D01*
X0162487Y0121415D02*
X0017254Y0121415D01*
X0017254Y0121513D02*
X0162453Y0121513D01*
X0162418Y0121612D02*
X0017254Y0121612D01*
X0017254Y0121710D02*
X0162383Y0121710D01*
X0162349Y0121809D02*
X0017254Y0121809D01*
X0017254Y0121907D02*
X0162314Y0121907D01*
X0162279Y0122006D02*
X0017254Y0122006D01*
X0017254Y0122104D02*
X0162245Y0122104D01*
X0162210Y0122203D02*
X0017254Y0122203D01*
X0017254Y0122301D02*
X0162175Y0122301D01*
X0162141Y0122400D02*
X0017254Y0122400D01*
X0017254Y0122498D02*
X0162106Y0122498D01*
X0162071Y0122597D02*
X0017254Y0122597D01*
X0017254Y0122695D02*
X0162037Y0122695D01*
X0162002Y0122794D02*
X0017254Y0122794D01*
X0017254Y0122892D02*
X0161967Y0122892D01*
X0161933Y0122991D02*
X0017254Y0122991D01*
X0017254Y0123089D02*
X0161898Y0123089D01*
X0161863Y0123188D02*
X0017254Y0123188D01*
X0017254Y0123286D02*
X0161829Y0123286D01*
X0161794Y0123385D02*
X0017254Y0123385D01*
X0017254Y0123484D02*
X0161759Y0123484D01*
X0161725Y0123582D02*
X0017254Y0123582D01*
X0017254Y0123681D02*
X0161690Y0123681D01*
X0161655Y0123779D02*
X0017254Y0123779D01*
X0017254Y0123878D02*
X0161621Y0123878D01*
X0161586Y0123976D02*
X0017254Y0123976D01*
X0017254Y0124075D02*
X0161551Y0124075D01*
X0161517Y0124173D02*
X0017254Y0124173D01*
X0017254Y0124272D02*
X0161482Y0124272D01*
X0161447Y0124370D02*
X0017254Y0124370D01*
X0017254Y0124469D02*
X0161413Y0124469D01*
X0161378Y0124567D02*
X0017254Y0124567D01*
X0017254Y0124666D02*
X0161343Y0124666D01*
X0161309Y0124764D02*
X0017254Y0124764D01*
X0017254Y0124863D02*
X0161274Y0124863D01*
X0161239Y0124961D02*
X0017254Y0124961D01*
X0017254Y0125060D02*
X0161204Y0125060D01*
X0161170Y0125158D02*
X0017254Y0125158D01*
X0017254Y0125257D02*
X0161135Y0125257D01*
X0161100Y0125355D02*
X0017254Y0125355D01*
X0017254Y0125454D02*
X0161066Y0125454D01*
X0161031Y0125552D02*
X0017254Y0125552D01*
X0017254Y0125651D02*
X0160996Y0125651D01*
X0160962Y0125749D02*
X0017254Y0125749D01*
X0017254Y0125848D02*
X0160924Y0125848D01*
X0160885Y0125946D02*
X0017254Y0125946D01*
X0017254Y0126045D02*
X0160846Y0126045D01*
X0160807Y0126143D02*
X0017254Y0126143D01*
X0017254Y0126242D02*
X0160768Y0126242D01*
X0160729Y0126340D02*
X0017254Y0126340D01*
X0017254Y0126439D02*
X0160690Y0126439D01*
X0160651Y0126537D02*
X0017254Y0126537D01*
X0017254Y0126636D02*
X0160612Y0126636D01*
X0160573Y0126734D02*
X0017254Y0126734D01*
X0017254Y0126833D02*
X0160534Y0126833D01*
X0160495Y0126931D02*
X0017254Y0126931D01*
X0017254Y0127030D02*
X0160455Y0127030D01*
X0160416Y0127128D02*
X0017254Y0127128D01*
X0017254Y0127227D02*
X0160377Y0127227D01*
X0160338Y0127325D02*
X0017254Y0127325D01*
X0017254Y0127424D02*
X0160299Y0127424D01*
X0160260Y0127522D02*
X0017254Y0127522D01*
X0017254Y0127621D02*
X0160221Y0127621D01*
X0160182Y0127719D02*
X0017254Y0127719D01*
X0017254Y0127818D02*
X0160143Y0127818D01*
X0160104Y0127917D02*
X0017254Y0127917D01*
X0017254Y0128015D02*
X0160065Y0128015D01*
X0160026Y0128114D02*
X0017254Y0128114D01*
X0017254Y0128212D02*
X0159987Y0128212D01*
X0159948Y0128311D02*
X0017254Y0128311D01*
X0017254Y0128409D02*
X0159909Y0128409D01*
X0159869Y0128508D02*
X0017254Y0128508D01*
X0017254Y0128606D02*
X0159830Y0128606D01*
X0159791Y0128705D02*
X0017254Y0128705D01*
X0017254Y0128803D02*
X0159752Y0128803D01*
X0159713Y0128902D02*
X0017254Y0128902D01*
X0017254Y0129000D02*
X0159674Y0129000D01*
X0159635Y0129099D02*
X0017254Y0129099D01*
X0017254Y0129197D02*
X0159596Y0129197D01*
X0159557Y0129296D02*
X0017254Y0129296D01*
X0017254Y0129394D02*
X0159518Y0129394D01*
X0159479Y0129493D02*
X0017254Y0129493D01*
X0017254Y0129591D02*
X0159440Y0129591D01*
X0159401Y0129690D02*
X0017254Y0129690D01*
X0017254Y0129788D02*
X0159362Y0129788D01*
X0159323Y0129887D02*
X0017254Y0129887D01*
X0017254Y0129985D02*
X0159284Y0129985D01*
X0159244Y0130084D02*
X0017254Y0130084D01*
X0017254Y0130182D02*
X0159205Y0130182D01*
X0159166Y0130281D02*
X0017254Y0130281D01*
X0017254Y0130379D02*
X0159127Y0130379D01*
X0159088Y0130478D02*
X0017254Y0130478D01*
X0017254Y0130576D02*
X0159049Y0130576D01*
X0159010Y0130675D02*
X0017254Y0130675D01*
X0017254Y0130773D02*
X0158971Y0130773D01*
X0158932Y0130872D02*
X0017254Y0130872D01*
X0017254Y0130970D02*
X0158890Y0130970D01*
X0158846Y0131069D02*
X0017254Y0131069D01*
X0017254Y0131167D02*
X0158803Y0131167D01*
X0158759Y0131266D02*
X0017254Y0131266D01*
X0017254Y0131364D02*
X0158716Y0131364D01*
X0158672Y0131463D02*
X0017254Y0131463D01*
X0017254Y0131561D02*
X0158629Y0131561D01*
X0158585Y0131660D02*
X0017254Y0131660D01*
X0017254Y0131758D02*
X0158541Y0131758D01*
X0158498Y0131857D02*
X0017254Y0131857D01*
X0017254Y0131955D02*
X0158454Y0131955D01*
X0158411Y0132054D02*
X0017254Y0132054D01*
X0017254Y0132152D02*
X0158367Y0132152D01*
X0158323Y0132251D02*
X0017254Y0132251D01*
X0017254Y0132350D02*
X0158280Y0132350D01*
X0158236Y0132448D02*
X0017254Y0132448D01*
X0017254Y0132547D02*
X0158193Y0132547D01*
X0158149Y0132645D02*
X0017254Y0132645D01*
X0017254Y0132744D02*
X0158105Y0132744D01*
X0158062Y0132842D02*
X0017254Y0132842D01*
X0017254Y0132941D02*
X0158018Y0132941D01*
X0157975Y0133039D02*
X0017254Y0133039D01*
X0017254Y0133138D02*
X0157931Y0133138D01*
X0157888Y0133236D02*
X0017254Y0133236D01*
X0017254Y0133335D02*
X0157844Y0133335D01*
X0157800Y0133433D02*
X0017254Y0133433D01*
X0017254Y0133532D02*
X0157757Y0133532D01*
X0157713Y0133630D02*
X0017254Y0133630D01*
X0017254Y0133729D02*
X0157670Y0133729D01*
X0157626Y0133827D02*
X0017254Y0133827D01*
X0017254Y0133926D02*
X0157582Y0133926D01*
X0157539Y0134024D02*
X0017254Y0134024D01*
X0017254Y0134123D02*
X0157495Y0134123D01*
X0157452Y0134221D02*
X0017254Y0134221D01*
X0017254Y0134320D02*
X0157408Y0134320D01*
X0157365Y0134418D02*
X0017254Y0134418D01*
X0017254Y0134517D02*
X0157321Y0134517D01*
X0157277Y0134615D02*
X0017254Y0134615D01*
X0017254Y0134714D02*
X0157234Y0134714D01*
X0157190Y0134812D02*
X0017254Y0134812D01*
X0017254Y0134911D02*
X0157147Y0134911D01*
X0157103Y0135009D02*
X0017254Y0135009D01*
X0017254Y0135108D02*
X0157059Y0135108D01*
X0157016Y0135206D02*
X0017254Y0135206D01*
X0017254Y0135305D02*
X0156972Y0135305D01*
X0156929Y0135403D02*
X0017254Y0135403D01*
X0017254Y0135502D02*
X0156885Y0135502D01*
X0156842Y0135600D02*
X0017254Y0135600D01*
X0017254Y0135699D02*
X0156798Y0135699D01*
X0156754Y0135797D02*
X0017254Y0135797D01*
X0017254Y0135896D02*
X0156711Y0135896D01*
X0156665Y0135994D02*
X0017254Y0135994D01*
X0017254Y0136093D02*
X0156616Y0136093D01*
X0156568Y0136191D02*
X0017254Y0136191D01*
X0017254Y0136290D02*
X0156520Y0136290D01*
X0156472Y0136388D02*
X0017254Y0136388D01*
X0017254Y0136487D02*
X0156423Y0136487D01*
X0156375Y0136586D02*
X0017254Y0136586D01*
X0017254Y0136684D02*
X0156327Y0136684D01*
X0156279Y0136783D02*
X0017254Y0136783D01*
X0017254Y0136881D02*
X0156230Y0136881D01*
X0156182Y0136980D02*
X0017254Y0136980D01*
X0017254Y0137078D02*
X0156134Y0137078D01*
X0156086Y0137177D02*
X0017254Y0137177D01*
X0017254Y0137275D02*
X0156037Y0137275D01*
X0155989Y0137374D02*
X0017254Y0137374D01*
X0017254Y0137472D02*
X0155941Y0137472D01*
X0155893Y0137571D02*
X0017254Y0137571D01*
X0017254Y0137669D02*
X0155844Y0137669D01*
X0155796Y0137768D02*
X0017254Y0137768D01*
X0017254Y0137866D02*
X0155748Y0137866D01*
X0155700Y0137965D02*
X0017254Y0137965D01*
X0017254Y0138063D02*
X0155651Y0138063D01*
X0155603Y0138162D02*
X0017254Y0138162D01*
X0017254Y0138260D02*
X0155555Y0138260D01*
X0155507Y0138359D02*
X0017254Y0138359D01*
X0017254Y0138457D02*
X0155458Y0138457D01*
X0155410Y0138556D02*
X0017254Y0138556D01*
X0017254Y0138654D02*
X0155362Y0138654D01*
X0155314Y0138753D02*
X0017254Y0138753D01*
X0017254Y0138851D02*
X0155265Y0138851D01*
X0155217Y0138950D02*
X0017254Y0138950D01*
X0017254Y0139048D02*
X0155169Y0139048D01*
X0155121Y0139147D02*
X0017254Y0139147D01*
X0017254Y0139245D02*
X0155072Y0139245D01*
X0155024Y0139344D02*
X0017254Y0139344D01*
X0017254Y0139442D02*
X0154976Y0139442D01*
X0154928Y0139541D02*
X0017254Y0139541D01*
X0017254Y0139639D02*
X0154880Y0139639D01*
X0154831Y0139738D02*
X0017254Y0139738D01*
X0017254Y0139836D02*
X0154783Y0139836D01*
X0154735Y0139935D02*
X0017254Y0139935D01*
X0017254Y0140033D02*
X0154687Y0140033D01*
X0154638Y0140132D02*
X0017254Y0140132D01*
X0017254Y0140230D02*
X0154590Y0140230D01*
X0154542Y0140329D02*
X0017254Y0140329D01*
X0017254Y0140427D02*
X0154494Y0140427D01*
X0154445Y0140526D02*
X0017254Y0140526D01*
X0017254Y0140624D02*
X0154397Y0140624D01*
X0154349Y0140723D02*
X0017254Y0140723D01*
X0017254Y0140821D02*
X0154301Y0140821D01*
X0154250Y0140920D02*
X0017254Y0140920D01*
X0017254Y0141019D02*
X0154197Y0141019D01*
X0154144Y0141117D02*
X0017254Y0141117D01*
X0017254Y0141216D02*
X0154091Y0141216D01*
X0154038Y0141314D02*
X0017254Y0141314D01*
X0017254Y0141413D02*
X0153984Y0141413D01*
X0153931Y0141511D02*
X0017254Y0141511D01*
X0017254Y0141610D02*
X0153878Y0141610D01*
X0153825Y0141708D02*
X0017254Y0141708D01*
X0017254Y0141807D02*
X0153772Y0141807D01*
X0153719Y0141905D02*
X0017254Y0141905D01*
X0017254Y0142004D02*
X0153666Y0142004D01*
X0153613Y0142102D02*
X0017254Y0142102D01*
X0017254Y0142201D02*
X0153560Y0142201D01*
X0153507Y0142299D02*
X0017254Y0142299D01*
X0017254Y0142398D02*
X0153454Y0142398D01*
X0153401Y0142496D02*
X0017254Y0142496D01*
X0017254Y0142595D02*
X0153348Y0142595D01*
X0153294Y0142693D02*
X0017254Y0142693D01*
X0017254Y0142792D02*
X0153241Y0142792D01*
X0153188Y0142890D02*
X0017254Y0142890D01*
X0017254Y0142989D02*
X0153135Y0142989D01*
X0153082Y0143087D02*
X0017254Y0143087D01*
X0017254Y0143186D02*
X0153029Y0143186D01*
X0152976Y0143284D02*
X0017254Y0143284D01*
X0017254Y0143383D02*
X0152923Y0143383D01*
X0152870Y0143481D02*
X0017254Y0143481D01*
X0017254Y0143580D02*
X0152817Y0143580D01*
X0152764Y0143678D02*
X0017254Y0143678D01*
X0017254Y0143777D02*
X0152711Y0143777D01*
X0152658Y0143875D02*
X0017254Y0143875D01*
X0017254Y0143974D02*
X0152604Y0143974D01*
X0152551Y0144072D02*
X0017254Y0144072D01*
X0017254Y0144171D02*
X0152498Y0144171D01*
X0152445Y0144269D02*
X0017254Y0144269D01*
X0017254Y0144368D02*
X0152392Y0144368D01*
X0152339Y0144466D02*
X0017254Y0144466D01*
X0017254Y0144565D02*
X0152286Y0144565D01*
X0152233Y0144663D02*
X0017254Y0144663D01*
X0017254Y0144762D02*
X0152180Y0144762D01*
X0152127Y0144860D02*
X0017254Y0144860D01*
X0017254Y0144959D02*
X0152074Y0144959D01*
X0152021Y0145057D02*
X0017254Y0145057D01*
X0017254Y0145156D02*
X0151968Y0145156D01*
X0151914Y0145255D02*
X0017254Y0145255D01*
X0017254Y0145353D02*
X0151861Y0145353D01*
X0151808Y0145452D02*
X0017254Y0145452D01*
X0017254Y0145550D02*
X0151755Y0145550D01*
X0151702Y0145649D02*
X0017254Y0145649D01*
X0017254Y0145747D02*
X0151646Y0145747D01*
X0151588Y0145846D02*
X0017254Y0145846D01*
X0017254Y0145944D02*
X0151530Y0145944D01*
X0151472Y0146043D02*
X0017254Y0146043D01*
X0017254Y0146141D02*
X0151414Y0146141D01*
X0151356Y0146240D02*
X0017254Y0146240D01*
X0017254Y0146338D02*
X0151298Y0146338D01*
X0151240Y0146437D02*
X0017254Y0146437D01*
X0017254Y0146535D02*
X0151182Y0146535D01*
X0151123Y0146634D02*
X0017254Y0146634D01*
X0017254Y0146732D02*
X0151065Y0146732D01*
X0151007Y0146831D02*
X0017254Y0146831D01*
X0017254Y0146929D02*
X0150949Y0146929D01*
X0150891Y0147028D02*
X0017254Y0147028D01*
X0017254Y0147126D02*
X0150833Y0147126D01*
X0150775Y0147225D02*
X0017254Y0147225D01*
X0017254Y0147323D02*
X0150717Y0147323D01*
X0150659Y0147422D02*
X0017254Y0147422D01*
X0017254Y0147520D02*
X0150601Y0147520D01*
X0150542Y0147619D02*
X0017254Y0147619D01*
X0017254Y0147717D02*
X0150484Y0147717D01*
X0150426Y0147816D02*
X0017254Y0147816D01*
X0017254Y0147914D02*
X0150368Y0147914D01*
X0150310Y0148013D02*
X0017254Y0148013D01*
X0017254Y0148111D02*
X0150252Y0148111D01*
X0150194Y0148210D02*
X0017254Y0148210D01*
X0017254Y0148308D02*
X0150136Y0148308D01*
X0150078Y0148407D02*
X0017254Y0148407D01*
X0017254Y0148505D02*
X0150020Y0148505D01*
X0149961Y0148604D02*
X0017254Y0148604D01*
X0017254Y0148702D02*
X0149903Y0148702D01*
X0149845Y0148801D02*
X0017254Y0148801D01*
X0017254Y0148899D02*
X0149787Y0148899D01*
X0149729Y0148998D02*
X0017254Y0148998D01*
X0017254Y0149096D02*
X0149671Y0149096D01*
X0149613Y0149195D02*
X0017254Y0149195D01*
X0017254Y0149293D02*
X0149555Y0149293D01*
X0149497Y0149392D02*
X0017254Y0149392D01*
X0017254Y0149490D02*
X0149439Y0149490D01*
X0149380Y0149589D02*
X0017254Y0149589D01*
X0017254Y0149688D02*
X0149322Y0149688D01*
X0149264Y0149786D02*
X0017254Y0149786D01*
X0017254Y0149885D02*
X0149206Y0149885D01*
X0149148Y0149983D02*
X0017267Y0149983D01*
X0017356Y0150082D02*
X0149090Y0150082D01*
X0149032Y0150180D02*
X0017446Y0150180D01*
X0017535Y0150279D02*
X0148974Y0150279D01*
X0148916Y0150377D02*
X0017624Y0150377D01*
X0017714Y0150476D02*
X0148854Y0150476D01*
X0148791Y0150574D02*
X0017803Y0150574D01*
X0017893Y0150673D02*
X0148727Y0150673D01*
X0148664Y0150771D02*
X0017982Y0150771D01*
X0018071Y0150870D02*
X0148601Y0150870D01*
X0148537Y0150968D02*
X0018161Y0150968D01*
X0018250Y0151067D02*
X0148474Y0151067D01*
X0148411Y0151165D02*
X0018339Y0151165D01*
X0018429Y0151264D02*
X0148347Y0151264D01*
X0148284Y0151362D02*
X0018518Y0151362D01*
X0018608Y0151461D02*
X0148221Y0151461D01*
X0148157Y0151559D02*
X0018697Y0151559D01*
X0018786Y0151658D02*
X0148094Y0151658D01*
X0148031Y0151756D02*
X0018876Y0151756D01*
X0018965Y0151855D02*
X0147967Y0151855D01*
X0147904Y0151953D02*
X0019055Y0151953D01*
X0019144Y0152052D02*
X0147841Y0152052D01*
X0147777Y0152150D02*
X0019233Y0152150D01*
X0019323Y0152249D02*
X0147714Y0152249D01*
X0147650Y0152347D02*
X0019412Y0152347D01*
X0019501Y0152446D02*
X0147587Y0152446D01*
X0147524Y0152544D02*
X0019591Y0152544D01*
X0019680Y0152643D02*
X0147460Y0152643D01*
X0147397Y0152741D02*
X0019770Y0152741D01*
X0019859Y0152840D02*
X0147334Y0152840D01*
X0147270Y0152938D02*
X0019948Y0152938D01*
X0020038Y0153037D02*
X0147207Y0153037D01*
X0147144Y0153135D02*
X0020127Y0153135D01*
X0020217Y0153234D02*
X0147080Y0153234D01*
X0147017Y0153332D02*
X0020306Y0153332D01*
X0020395Y0153431D02*
X0146954Y0153431D01*
X0146890Y0153529D02*
X0020485Y0153529D01*
X0020574Y0153628D02*
X0146827Y0153628D01*
X0146764Y0153726D02*
X0020664Y0153726D01*
X0020753Y0153825D02*
X0146700Y0153825D01*
X0146637Y0153923D02*
X0020842Y0153923D01*
X0020932Y0154022D02*
X0146574Y0154022D01*
X0146510Y0154121D02*
X0021021Y0154121D01*
X0021110Y0154219D02*
X0146447Y0154219D01*
X0146383Y0154318D02*
X0021200Y0154318D01*
X0021289Y0154416D02*
X0146320Y0154416D01*
X0146257Y0154515D02*
X0021379Y0154515D01*
X0021468Y0154613D02*
X0146193Y0154613D01*
X0146130Y0154712D02*
X0021557Y0154712D01*
X0021647Y0154810D02*
X0146067Y0154810D01*
X0146003Y0154909D02*
X0021736Y0154909D01*
X0021826Y0155007D02*
X0145940Y0155007D01*
X0145871Y0155106D02*
X0021915Y0155106D01*
X0022004Y0155204D02*
X0145803Y0155204D01*
X0145734Y0155303D02*
X0022094Y0155303D01*
X0022183Y0155401D02*
X0145665Y0155401D01*
X0145596Y0155500D02*
X0022273Y0155500D01*
X0022362Y0155598D02*
X0145527Y0155598D01*
X0145458Y0155697D02*
X0022451Y0155697D01*
X0022541Y0155795D02*
X0145389Y0155795D01*
X0145321Y0155894D02*
X0022630Y0155894D01*
X0022719Y0155992D02*
X0145252Y0155992D01*
X0145183Y0156091D02*
X0022809Y0156091D01*
X0022898Y0156189D02*
X0145114Y0156189D01*
X0145045Y0156288D02*
X0022988Y0156288D01*
X0023077Y0156386D02*
X0144976Y0156386D01*
X0144907Y0156485D02*
X0023166Y0156485D01*
X0023256Y0156583D02*
X0144839Y0156583D01*
X0144770Y0156682D02*
X0023345Y0156682D01*
X0023435Y0156780D02*
X0144701Y0156780D01*
X0144632Y0156879D02*
X0023524Y0156879D01*
X0023613Y0156977D02*
X0144563Y0156977D01*
X0144494Y0157076D02*
X0023703Y0157076D01*
X0023792Y0157174D02*
X0144425Y0157174D01*
X0144357Y0157273D02*
X0023881Y0157273D01*
X0023971Y0157371D02*
X0144288Y0157371D01*
X0144219Y0157470D02*
X0024060Y0157470D01*
X0024150Y0157568D02*
X0144150Y0157568D01*
X0144081Y0157667D02*
X0024239Y0157667D01*
X0024328Y0157765D02*
X0144012Y0157765D01*
X0143943Y0157864D02*
X0024418Y0157864D01*
X0024507Y0157962D02*
X0143875Y0157962D01*
X0143806Y0158061D02*
X0024597Y0158061D01*
X0024686Y0158159D02*
X0143737Y0158159D01*
X0143668Y0158258D02*
X0024775Y0158258D01*
X0024865Y0158357D02*
X0143599Y0158357D01*
X0143530Y0158455D02*
X0024954Y0158455D01*
X0025044Y0158554D02*
X0143461Y0158554D01*
X0143393Y0158652D02*
X0025133Y0158652D01*
X0025222Y0158751D02*
X0143324Y0158751D01*
X0143255Y0158849D02*
X0025312Y0158849D01*
X0025401Y0158948D02*
X0143186Y0158948D01*
X0143117Y0159046D02*
X0025490Y0159046D01*
X0025580Y0159145D02*
X0143048Y0159145D01*
X0142979Y0159243D02*
X0025669Y0159243D01*
X0025759Y0159342D02*
X0142911Y0159342D01*
X0142842Y0159440D02*
X0025848Y0159440D01*
X0025937Y0159539D02*
X0142770Y0159539D01*
X0142695Y0159637D02*
X0026027Y0159637D01*
X0026116Y0159736D02*
X0142621Y0159736D01*
X0142546Y0159834D02*
X0026206Y0159834D01*
X0026295Y0159933D02*
X0142471Y0159933D01*
X0142397Y0160031D02*
X0026384Y0160031D01*
X0026474Y0160130D02*
X0142322Y0160130D01*
X0142247Y0160228D02*
X0026563Y0160228D01*
X0026652Y0160327D02*
X0142173Y0160327D01*
X0142098Y0160425D02*
X0026742Y0160425D01*
X0026831Y0160524D02*
X0142023Y0160524D01*
X0141949Y0160622D02*
X0026921Y0160622D01*
X0027010Y0160721D02*
X0141874Y0160721D01*
X0141799Y0160819D02*
X0027099Y0160819D01*
X0027189Y0160918D02*
X0141725Y0160918D01*
X0141650Y0161016D02*
X0027278Y0161016D01*
X0027368Y0161115D02*
X0141575Y0161115D01*
X0141501Y0161213D02*
X0027457Y0161213D01*
X0027546Y0161312D02*
X0141426Y0161312D01*
X0141351Y0161410D02*
X0027636Y0161410D01*
X0027725Y0161509D02*
X0141277Y0161509D01*
X0141202Y0161607D02*
X0027815Y0161607D01*
X0027904Y0161706D02*
X0141127Y0161706D01*
X0141053Y0161804D02*
X0027993Y0161804D01*
X0028083Y0161903D02*
X0140978Y0161903D01*
X0140903Y0162001D02*
X0028172Y0162001D01*
X0028261Y0162100D02*
X0140829Y0162100D01*
X0140754Y0162198D02*
X0028351Y0162198D01*
X0028440Y0162297D02*
X0140679Y0162297D01*
X0140605Y0162395D02*
X0028530Y0162395D01*
X0028619Y0162494D02*
X0140530Y0162494D01*
X0140455Y0162592D02*
X0028708Y0162592D01*
X0028798Y0162691D02*
X0140381Y0162691D01*
X0140306Y0162790D02*
X0028887Y0162790D01*
X0028977Y0162888D02*
X0140231Y0162888D01*
X0140157Y0162987D02*
X0029066Y0162987D01*
X0029155Y0163085D02*
X0140082Y0163085D01*
X0140007Y0163184D02*
X0029245Y0163184D01*
X0029334Y0163282D02*
X0139933Y0163282D01*
X0139858Y0163381D02*
X0029423Y0163381D01*
X0029513Y0163479D02*
X0139783Y0163479D01*
X0139709Y0163578D02*
X0029602Y0163578D01*
X0029692Y0163676D02*
X0139634Y0163676D01*
X0139559Y0163775D02*
X0029781Y0163775D01*
X0029870Y0163873D02*
X0139483Y0163873D01*
X0139402Y0163972D02*
X0029960Y0163972D01*
X0030049Y0164070D02*
X0139321Y0164070D01*
X0139240Y0164169D02*
X0030139Y0164169D01*
X0030228Y0164267D02*
X0139160Y0164267D01*
X0139079Y0164366D02*
X0030317Y0164366D01*
X0030407Y0164464D02*
X0138998Y0164464D01*
X0138917Y0164563D02*
X0030496Y0164563D01*
X0030586Y0164661D02*
X0138836Y0164661D01*
X0138755Y0164760D02*
X0030675Y0164760D01*
X0030764Y0164858D02*
X0138675Y0164858D01*
X0138594Y0164957D02*
X0030854Y0164957D01*
X0030943Y0165055D02*
X0138513Y0165055D01*
X0138432Y0165154D02*
X0031032Y0165154D01*
X0031122Y0165252D02*
X0138351Y0165252D01*
X0138270Y0165351D02*
X0031211Y0165351D01*
X0031301Y0165449D02*
X0138190Y0165449D01*
X0138109Y0165548D02*
X0031390Y0165548D01*
X0031479Y0165646D02*
X0138028Y0165646D01*
X0137947Y0165745D02*
X0031569Y0165745D01*
X0031658Y0165843D02*
X0137866Y0165843D01*
X0137785Y0165942D02*
X0031748Y0165942D01*
X0031837Y0166040D02*
X0137705Y0166040D01*
X0137624Y0166139D02*
X0031926Y0166139D01*
X0032016Y0166237D02*
X0137543Y0166237D01*
X0137462Y0166336D02*
X0032105Y0166336D01*
X0032194Y0166434D02*
X0137381Y0166434D01*
X0137300Y0166533D02*
X0032284Y0166533D01*
X0032373Y0166631D02*
X0137220Y0166631D01*
X0137139Y0166730D02*
X0032463Y0166730D01*
X0032552Y0166828D02*
X0137058Y0166828D01*
X0136977Y0166927D02*
X0032641Y0166927D01*
X0032731Y0167026D02*
X0136896Y0167026D01*
X0136815Y0167124D02*
X0032820Y0167124D01*
X0032910Y0167223D02*
X0136735Y0167223D01*
X0136654Y0167321D02*
X0032999Y0167321D01*
X0033088Y0167420D02*
X0136573Y0167420D01*
X0136492Y0167518D02*
X0033178Y0167518D01*
X0033267Y0167617D02*
X0136411Y0167617D01*
X0136330Y0167715D02*
X0033357Y0167715D01*
X0033446Y0167814D02*
X0136250Y0167814D01*
X0136169Y0167912D02*
X0033535Y0167912D01*
X0033625Y0168011D02*
X0136088Y0168011D01*
X0136005Y0168109D02*
X0033714Y0168109D01*
X0033803Y0168208D02*
X0135917Y0168208D01*
X0135830Y0168306D02*
X0033893Y0168306D01*
X0033982Y0168405D02*
X0135743Y0168405D01*
X0135655Y0168503D02*
X0034072Y0168503D01*
X0034161Y0168602D02*
X0135568Y0168602D01*
X0135480Y0168700D02*
X0034250Y0168700D01*
X0034340Y0168799D02*
X0135393Y0168799D01*
X0135306Y0168897D02*
X0034429Y0168897D01*
X0034519Y0168996D02*
X0135218Y0168996D01*
X0135131Y0169094D02*
X0034608Y0169094D01*
X0034697Y0169193D02*
X0135043Y0169193D01*
X0134956Y0169291D02*
X0034787Y0169291D01*
X0034876Y0169390D02*
X0134869Y0169390D01*
X0134781Y0169488D02*
X0034966Y0169488D01*
X0035055Y0169587D02*
X0134694Y0169587D01*
X0134606Y0169685D02*
X0035144Y0169685D01*
X0035234Y0169784D02*
X0134519Y0169784D01*
X0134432Y0169882D02*
X0035323Y0169882D01*
X0035412Y0169981D02*
X0134344Y0169981D01*
X0134257Y0170079D02*
X0035502Y0170079D01*
X0035591Y0170178D02*
X0134169Y0170178D01*
X0134082Y0170276D02*
X0035681Y0170276D01*
X0035770Y0170375D02*
X0133995Y0170375D01*
X0133907Y0170473D02*
X0035859Y0170473D01*
X0035949Y0170572D02*
X0133820Y0170572D01*
X0133732Y0170670D02*
X0036038Y0170670D01*
X0036128Y0170769D02*
X0133645Y0170769D01*
X0133558Y0170867D02*
X0036217Y0170867D01*
X0036306Y0170966D02*
X0133470Y0170966D01*
X0133383Y0171064D02*
X0036396Y0171064D01*
X0036485Y0171163D02*
X0133295Y0171163D01*
X0133208Y0171261D02*
X0036574Y0171261D01*
X0036664Y0171360D02*
X0133121Y0171360D01*
X0133033Y0171459D02*
X0036753Y0171459D01*
X0036843Y0171557D02*
X0132946Y0171557D01*
X0132858Y0171656D02*
X0036932Y0171656D01*
X0037021Y0171754D02*
X0132771Y0171754D01*
X0132684Y0171853D02*
X0037111Y0171853D01*
X0037200Y0171951D02*
X0132596Y0171951D01*
X0132509Y0172050D02*
X0037290Y0172050D01*
X0037379Y0172148D02*
X0132421Y0172148D01*
X0132328Y0172247D02*
X0037468Y0172247D01*
X0037558Y0172345D02*
X0132234Y0172345D01*
X0132139Y0172444D02*
X0037647Y0172444D01*
X0037737Y0172542D02*
X0132045Y0172542D01*
X0131950Y0172641D02*
X0037826Y0172641D01*
X0037915Y0172739D02*
X0131856Y0172739D01*
X0131761Y0172838D02*
X0038005Y0172838D01*
X0038094Y0172936D02*
X0131667Y0172936D01*
X0131573Y0173035D02*
X0038183Y0173035D01*
X0038273Y0173133D02*
X0131478Y0173133D01*
X0131384Y0173232D02*
X0038362Y0173232D01*
X0038452Y0173330D02*
X0131289Y0173330D01*
X0131195Y0173429D02*
X0038541Y0173429D01*
X0038630Y0173527D02*
X0131100Y0173527D01*
X0131006Y0173626D02*
X0038720Y0173626D01*
X0038809Y0173724D02*
X0130911Y0173724D01*
X0130817Y0173823D02*
X0038899Y0173823D01*
X0038988Y0173921D02*
X0130723Y0173921D01*
X0130628Y0174020D02*
X0039077Y0174020D01*
X0039167Y0174118D02*
X0130534Y0174118D01*
X0130439Y0174217D02*
X0039256Y0174217D01*
X0039345Y0174315D02*
X0130345Y0174315D01*
X0130250Y0174414D02*
X0039435Y0174414D01*
X0039524Y0174512D02*
X0130156Y0174512D01*
X0130061Y0174611D02*
X0039614Y0174611D01*
X0039703Y0174709D02*
X0129967Y0174709D01*
X0129873Y0174808D02*
X0039792Y0174808D01*
X0039882Y0174906D02*
X0129778Y0174906D01*
X0129684Y0175005D02*
X0039971Y0175005D01*
X0040061Y0175103D02*
X0129589Y0175103D01*
X0129495Y0175202D02*
X0040150Y0175202D01*
X0040239Y0175300D02*
X0129400Y0175300D01*
X0129306Y0175399D02*
X0040329Y0175399D01*
X0040418Y0175497D02*
X0129211Y0175497D01*
X0129117Y0175596D02*
X0040508Y0175596D01*
X0040597Y0175695D02*
X0129023Y0175695D01*
X0128928Y0175793D02*
X0040686Y0175793D01*
X0040776Y0175892D02*
X0128834Y0175892D01*
X0128739Y0175990D02*
X0040865Y0175990D01*
X0040954Y0176089D02*
X0128645Y0176089D01*
X0128545Y0176187D02*
X0041044Y0176187D01*
X0041133Y0176286D02*
X0128442Y0176286D01*
X0128340Y0176384D02*
X0041223Y0176384D01*
X0041312Y0176483D02*
X0128238Y0176483D01*
X0128136Y0176581D02*
X0041401Y0176581D01*
X0041491Y0176680D02*
X0128034Y0176680D01*
X0127932Y0176778D02*
X0041580Y0176778D01*
X0041670Y0176877D02*
X0127830Y0176877D01*
X0127728Y0176975D02*
X0041759Y0176975D01*
X0041848Y0177074D02*
X0127626Y0177074D01*
X0127524Y0177172D02*
X0041938Y0177172D01*
X0042027Y0177271D02*
X0127422Y0177271D01*
X0127320Y0177369D02*
X0042116Y0177369D01*
X0042206Y0177468D02*
X0127218Y0177468D01*
X0127116Y0177566D02*
X0042295Y0177566D01*
X0042385Y0177665D02*
X0127014Y0177665D01*
X0126912Y0177763D02*
X0042474Y0177763D01*
X0042563Y0177862D02*
X0126810Y0177862D01*
X0126708Y0177960D02*
X0042653Y0177960D01*
X0042742Y0178059D02*
X0126606Y0178059D01*
X0126504Y0178157D02*
X0042832Y0178157D01*
X0042921Y0178256D02*
X0126402Y0178256D01*
X0126300Y0178354D02*
X0043010Y0178354D01*
X0043100Y0178453D02*
X0126198Y0178453D01*
X0126096Y0178551D02*
X0043189Y0178551D01*
X0043279Y0178650D02*
X0125994Y0178650D01*
X0125891Y0178748D02*
X0043368Y0178748D01*
X0043457Y0178847D02*
X0125789Y0178847D01*
X0125687Y0178945D02*
X0043547Y0178945D01*
X0043636Y0179044D02*
X0125585Y0179044D01*
X0125483Y0179142D02*
X0043725Y0179142D01*
X0043815Y0179241D02*
X0125381Y0179241D01*
X0125279Y0179339D02*
X0043904Y0179339D01*
X0043994Y0179438D02*
X0125177Y0179438D01*
X0125075Y0179536D02*
X0044083Y0179536D01*
X0044172Y0179635D02*
X0124973Y0179635D01*
X0124871Y0179733D02*
X0044262Y0179733D01*
X0044351Y0179832D02*
X0124769Y0179832D01*
X0124666Y0179930D02*
X0044441Y0179930D01*
X0044530Y0180029D02*
X0124555Y0180029D01*
X0124445Y0180128D02*
X0044619Y0180128D01*
X0044709Y0180226D02*
X0124335Y0180226D01*
X0124225Y0180325D02*
X0044798Y0180325D01*
X0044887Y0180423D02*
X0124114Y0180423D01*
X0124004Y0180522D02*
X0044977Y0180522D01*
X0045066Y0180620D02*
X0123894Y0180620D01*
X0123783Y0180719D02*
X0045156Y0180719D01*
X0045245Y0180817D02*
X0123673Y0180817D01*
X0123563Y0180916D02*
X0045334Y0180916D01*
X0045424Y0181014D02*
X0123452Y0181014D01*
X0123342Y0181113D02*
X0045513Y0181113D01*
X0045603Y0181211D02*
X0123232Y0181211D01*
X0123121Y0181310D02*
X0045692Y0181310D01*
X0045781Y0181408D02*
X0123011Y0181408D01*
X0122901Y0181507D02*
X0045871Y0181507D01*
X0045960Y0181605D02*
X0122791Y0181605D01*
X0122680Y0181704D02*
X0046050Y0181704D01*
X0046139Y0181802D02*
X0122570Y0181802D01*
X0122460Y0181901D02*
X0046228Y0181901D01*
X0046318Y0181999D02*
X0122349Y0181999D01*
X0122239Y0182098D02*
X0046407Y0182098D01*
X0046496Y0182196D02*
X0122129Y0182196D01*
X0122018Y0182295D02*
X0046586Y0182295D01*
X0046675Y0182393D02*
X0121908Y0182393D01*
X0121798Y0182492D02*
X0046765Y0182492D01*
X0046854Y0182590D02*
X0121687Y0182590D01*
X0121577Y0182689D02*
X0046943Y0182689D01*
X0047033Y0182787D02*
X0121467Y0182787D01*
X0121357Y0182886D02*
X0047122Y0182886D01*
X0047212Y0182984D02*
X0121246Y0182984D01*
X0121136Y0183083D02*
X0047301Y0183083D01*
X0047390Y0183181D02*
X0121026Y0183181D01*
X0120915Y0183280D02*
X0047480Y0183280D01*
X0047569Y0183378D02*
X0120805Y0183378D01*
X0120695Y0183477D02*
X0047659Y0183477D01*
X0047748Y0183575D02*
X0120584Y0183575D01*
X0120464Y0183674D02*
X0047837Y0183674D01*
X0047927Y0183772D02*
X0120345Y0183772D01*
X0120226Y0183871D02*
X0048016Y0183871D01*
X0048105Y0183969D02*
X0120106Y0183969D01*
X0119987Y0184068D02*
X0048195Y0184068D01*
X0048284Y0184166D02*
X0119868Y0184166D01*
X0119749Y0184265D02*
X0048374Y0184265D01*
X0048463Y0184363D02*
X0119629Y0184363D01*
X0119510Y0184462D02*
X0048552Y0184462D01*
X0048642Y0184561D02*
X0119391Y0184561D01*
X0119271Y0184659D02*
X0048731Y0184659D01*
X0048821Y0184758D02*
X0119152Y0184758D01*
X0119033Y0184856D02*
X0048910Y0184856D01*
X0048999Y0184955D02*
X0118913Y0184955D01*
X0118794Y0185053D02*
X0049089Y0185053D01*
X0049178Y0185152D02*
X0118675Y0185152D01*
X0118555Y0185250D02*
X0049267Y0185250D01*
X0049357Y0185349D02*
X0118436Y0185349D01*
X0118317Y0185447D02*
X0049446Y0185447D01*
X0049536Y0185546D02*
X0118198Y0185546D01*
X0118078Y0185644D02*
X0049625Y0185644D01*
X0049714Y0185743D02*
X0117959Y0185743D01*
X0117840Y0185841D02*
X0049804Y0185841D01*
X0049893Y0185940D02*
X0117720Y0185940D01*
X0117601Y0186038D02*
X0049983Y0186038D01*
X0050072Y0186137D02*
X0117482Y0186137D01*
X0117362Y0186235D02*
X0050161Y0186235D01*
X0050251Y0186334D02*
X0117243Y0186334D01*
X0117124Y0186432D02*
X0050340Y0186432D01*
X0050430Y0186531D02*
X0117004Y0186531D01*
X0116885Y0186629D02*
X0050519Y0186629D01*
X0050608Y0186728D02*
X0116766Y0186728D01*
X0116647Y0186826D02*
X0050698Y0186826D01*
X0050787Y0186925D02*
X0116527Y0186925D01*
X0116408Y0187023D02*
X0050876Y0187023D01*
X0050966Y0187122D02*
X0116283Y0187122D01*
X0116154Y0187220D02*
X0051055Y0187220D01*
X0051145Y0187319D02*
X0116024Y0187319D01*
X0115895Y0187417D02*
X0051234Y0187417D01*
X0051323Y0187516D02*
X0115766Y0187516D01*
X0115636Y0187614D02*
X0051413Y0187614D01*
X0051502Y0187713D02*
X0115507Y0187713D01*
X0115378Y0187811D02*
X0051592Y0187811D01*
X0051681Y0187910D02*
X0115249Y0187910D01*
X0115119Y0188008D02*
X0051770Y0188008D01*
X0051860Y0188107D02*
X0114990Y0188107D01*
X0114861Y0188205D02*
X0051949Y0188205D01*
X0052038Y0188304D02*
X0114732Y0188304D01*
X0114602Y0188402D02*
X0052128Y0188402D01*
X0052217Y0188501D02*
X0114473Y0188501D01*
X0114344Y0188599D02*
X0052307Y0188599D01*
X0052396Y0188698D02*
X0114214Y0188698D01*
X0114085Y0188797D02*
X0052485Y0188797D01*
X0052575Y0188895D02*
X0113956Y0188895D01*
X0113827Y0188994D02*
X0052664Y0188994D01*
X0052754Y0189092D02*
X0113697Y0189092D01*
X0113568Y0189191D02*
X0052843Y0189191D01*
X0052932Y0189289D02*
X0113439Y0189289D01*
X0113309Y0189388D02*
X0053022Y0189388D01*
X0053111Y0189486D02*
X0113180Y0189486D01*
X0113051Y0189585D02*
X0053201Y0189585D01*
X0053290Y0189683D02*
X0112922Y0189683D01*
X0112792Y0189782D02*
X0053379Y0189782D01*
X0053469Y0189880D02*
X0112663Y0189880D01*
X0112534Y0189979D02*
X0053558Y0189979D01*
X0053647Y0190077D02*
X0112405Y0190077D01*
X0112275Y0190176D02*
X0053737Y0190176D01*
X0053826Y0190274D02*
X0112146Y0190274D01*
X0112017Y0190373D02*
X0053916Y0190373D01*
X0054005Y0190471D02*
X0111879Y0190471D01*
X0111739Y0190570D02*
X0054094Y0190570D01*
X0054184Y0190668D02*
X0111599Y0190668D01*
X0111458Y0190767D02*
X0054273Y0190767D01*
X0054363Y0190865D02*
X0111318Y0190865D01*
X0111178Y0190964D02*
X0054452Y0190964D01*
X0054541Y0191062D02*
X0111037Y0191062D01*
X0110897Y0191161D02*
X0054631Y0191161D01*
X0054720Y0191259D02*
X0110757Y0191259D01*
X0110616Y0191358D02*
X0054809Y0191358D01*
X0054899Y0191456D02*
X0110476Y0191456D01*
X0110336Y0191555D02*
X0054988Y0191555D01*
X0055078Y0191653D02*
X0110195Y0191653D01*
X0110055Y0191752D02*
X0055167Y0191752D01*
X0055256Y0191850D02*
X0109915Y0191850D01*
X0109774Y0191949D02*
X0055346Y0191949D01*
X0055435Y0192047D02*
X0109634Y0192047D01*
X0109494Y0192146D02*
X0055525Y0192146D01*
X0055614Y0192244D02*
X0109353Y0192244D01*
X0109213Y0192343D02*
X0055703Y0192343D01*
X0055793Y0192441D02*
X0109073Y0192441D01*
X0108932Y0192540D02*
X0055882Y0192540D01*
X0055972Y0192638D02*
X0108792Y0192638D01*
X0108652Y0192737D02*
X0056061Y0192737D01*
X0056150Y0192835D02*
X0108511Y0192835D01*
X0108371Y0192934D02*
X0056240Y0192934D01*
X0056329Y0193032D02*
X0108231Y0193032D01*
X0108090Y0193131D02*
X0056418Y0193131D01*
X0056508Y0193230D02*
X0107950Y0193230D01*
X0107810Y0193328D02*
X0056597Y0193328D01*
X0056687Y0193427D02*
X0107669Y0193427D01*
X0107529Y0193525D02*
X0056776Y0193525D01*
X0056865Y0193624D02*
X0107382Y0193624D01*
X0107229Y0193722D02*
X0056955Y0193722D01*
X0057044Y0193821D02*
X0107076Y0193821D01*
X0106924Y0193919D02*
X0057134Y0193919D01*
X0057223Y0194018D02*
X0106771Y0194018D01*
X0106618Y0194116D02*
X0057312Y0194116D01*
X0057402Y0194215D02*
X0106465Y0194215D01*
X0106313Y0194313D02*
X0057491Y0194313D01*
X0057580Y0194412D02*
X0106160Y0194412D01*
X0106007Y0194510D02*
X0057670Y0194510D01*
X0057759Y0194609D02*
X0105854Y0194609D01*
X0105702Y0194707D02*
X0057849Y0194707D01*
X0057938Y0194806D02*
X0105549Y0194806D01*
X0105396Y0194904D02*
X0058027Y0194904D01*
X0058117Y0195003D02*
X0105243Y0195003D01*
X0105091Y0195101D02*
X0058206Y0195101D01*
X0058296Y0195200D02*
X0104938Y0195200D01*
X0104785Y0195298D02*
X0058385Y0195298D01*
X0058474Y0195397D02*
X0104632Y0195397D01*
X0104479Y0195495D02*
X0058564Y0195495D01*
X0058653Y0195594D02*
X0104327Y0195594D01*
X0104174Y0195692D02*
X0058743Y0195692D01*
X0058832Y0195791D02*
X0104021Y0195791D01*
X0103868Y0195889D02*
X0058921Y0195889D01*
X0059011Y0195988D02*
X0103716Y0195988D01*
X0103563Y0196086D02*
X0059100Y0196086D01*
X0059189Y0196185D02*
X0103410Y0196185D01*
X0103257Y0196283D02*
X0059279Y0196283D01*
X0059368Y0196382D02*
X0103105Y0196382D01*
X0102952Y0196480D02*
X0059458Y0196480D01*
X0059547Y0196579D02*
X0102798Y0196579D01*
X0102631Y0196677D02*
X0059636Y0196677D01*
X0059726Y0196776D02*
X0102464Y0196776D01*
X0102297Y0196874D02*
X0059815Y0196874D01*
X0059905Y0196973D02*
X0102130Y0196973D01*
X0101963Y0197071D02*
X0059994Y0197071D01*
X0060083Y0197170D02*
X0101796Y0197170D01*
X0101630Y0197268D02*
X0060173Y0197268D01*
X0060262Y0197367D02*
X0101463Y0197367D01*
X0101296Y0197466D02*
X0060352Y0197466D01*
X0060441Y0197564D02*
X0101129Y0197564D01*
X0100962Y0197663D02*
X0060530Y0197663D01*
X0060620Y0197761D02*
X0100795Y0197761D01*
X0100628Y0197860D02*
X0060709Y0197860D01*
X0060798Y0197958D02*
X0100462Y0197958D01*
X0100295Y0198057D02*
X0060888Y0198057D01*
X0060977Y0198155D02*
X0100128Y0198155D01*
X0099961Y0198254D02*
X0061067Y0198254D01*
X0061156Y0198352D02*
X0099794Y0198352D01*
X0099627Y0198451D02*
X0061245Y0198451D01*
X0061335Y0198549D02*
X0099460Y0198549D01*
X0099293Y0198648D02*
X0061424Y0198648D01*
X0061514Y0198746D02*
X0099127Y0198746D01*
X0098960Y0198845D02*
X0061603Y0198845D01*
X0061692Y0198943D02*
X0098793Y0198943D01*
X0098626Y0199042D02*
X0061782Y0199042D01*
X0061871Y0199140D02*
X0098459Y0199140D01*
X0098292Y0199239D02*
X0061960Y0199239D01*
X0062050Y0199337D02*
X0098125Y0199337D01*
X0097951Y0199436D02*
X0062139Y0199436D01*
X0062229Y0199534D02*
X0097768Y0199534D01*
X0097585Y0199633D02*
X0062318Y0199633D01*
X0062407Y0199731D02*
X0097402Y0199731D01*
X0097219Y0199830D02*
X0062497Y0199830D01*
X0062586Y0199928D02*
X0097036Y0199928D01*
X0096853Y0200027D02*
X0062676Y0200027D01*
X0062765Y0200125D02*
X0096670Y0200125D01*
X0096487Y0200224D02*
X0062854Y0200224D01*
X0062944Y0200322D02*
X0096304Y0200322D01*
X0096121Y0200421D02*
X0063033Y0200421D01*
X0063123Y0200519D02*
X0095938Y0200519D01*
X0095755Y0200618D02*
X0063212Y0200618D01*
X0063301Y0200716D02*
X0095572Y0200716D01*
X0095389Y0200815D02*
X0063391Y0200815D01*
X0063480Y0200913D02*
X0095206Y0200913D01*
X0095023Y0201012D02*
X0063569Y0201012D01*
X0063659Y0201110D02*
X0094840Y0201110D01*
X0094657Y0201209D02*
X0063748Y0201209D01*
X0063838Y0201307D02*
X0094474Y0201307D01*
X0094291Y0201406D02*
X0063927Y0201406D01*
X0064016Y0201504D02*
X0094108Y0201504D01*
X0093925Y0201603D02*
X0064106Y0201603D01*
X0064195Y0201701D02*
X0093742Y0201701D01*
X0093559Y0201800D02*
X0064285Y0201800D01*
X0064374Y0201899D02*
X0093376Y0201899D01*
X0093193Y0201997D02*
X0064463Y0201997D01*
X0064553Y0202096D02*
X0092997Y0202096D01*
X0092795Y0202194D02*
X0064642Y0202194D01*
X0064731Y0202293D02*
X0092593Y0202293D01*
X0092391Y0202391D02*
X0064821Y0202391D01*
X0064910Y0202490D02*
X0092190Y0202490D01*
X0091988Y0202588D02*
X0065000Y0202588D01*
X0065089Y0202687D02*
X0091786Y0202687D01*
X0091584Y0202785D02*
X0065178Y0202785D01*
X0065268Y0202884D02*
X0091382Y0202884D01*
X0091180Y0202982D02*
X0065357Y0202982D01*
X0065447Y0203081D02*
X0090978Y0203081D01*
X0090777Y0203179D02*
X0065536Y0203179D01*
X0065625Y0203278D02*
X0090575Y0203278D01*
X0090373Y0203376D02*
X0065715Y0203376D01*
X0065804Y0203475D02*
X0090171Y0203475D01*
X0089969Y0203573D02*
X0065894Y0203573D01*
X0065983Y0203672D02*
X0089767Y0203672D01*
X0089565Y0203770D02*
X0066072Y0203770D01*
X0066162Y0203869D02*
X0089364Y0203869D01*
X0089162Y0203967D02*
X0066251Y0203967D01*
X0066340Y0204066D02*
X0088960Y0204066D01*
X0088758Y0204164D02*
X0066430Y0204164D01*
X0066519Y0204263D02*
X0088556Y0204263D01*
X0088354Y0204361D02*
X0066609Y0204361D01*
X0066698Y0204460D02*
X0088152Y0204460D01*
X0087933Y0204558D02*
X0066787Y0204558D01*
X0066877Y0204657D02*
X0087709Y0204657D01*
X0087485Y0204755D02*
X0066966Y0204755D01*
X0067056Y0204854D02*
X0087261Y0204854D01*
X0087037Y0204952D02*
X0067145Y0204952D01*
X0067234Y0205051D02*
X0086813Y0205051D01*
X0086589Y0205149D02*
X0067324Y0205149D01*
X0067413Y0205248D02*
X0086364Y0205248D01*
X0086140Y0205346D02*
X0067502Y0205346D01*
X0067592Y0205445D02*
X0085916Y0205445D01*
X0085692Y0205543D02*
X0067681Y0205543D01*
X0067771Y0205642D02*
X0085468Y0205642D01*
X0085244Y0205740D02*
X0067860Y0205740D01*
X0067949Y0205839D02*
X0085020Y0205839D01*
X0084796Y0205937D02*
X0068039Y0205937D01*
X0068128Y0206036D02*
X0084572Y0206036D01*
X0084347Y0206134D02*
X0068218Y0206134D01*
X0068307Y0206233D02*
X0084123Y0206233D01*
X0083899Y0206332D02*
X0068396Y0206332D01*
X0068486Y0206430D02*
X0083675Y0206430D01*
X0083451Y0206529D02*
X0068575Y0206529D01*
X0068665Y0206627D02*
X0083227Y0206627D01*
X0083003Y0206726D02*
X0068754Y0206726D01*
X0068843Y0206824D02*
X0082757Y0206824D01*
X0082506Y0206923D02*
X0068933Y0206923D01*
X0069022Y0207021D02*
X0082255Y0207021D01*
X0082004Y0207120D02*
X0069111Y0207120D01*
X0069201Y0207218D02*
X0081753Y0207218D01*
X0081502Y0207317D02*
X0069290Y0207317D01*
X0069380Y0207415D02*
X0081251Y0207415D01*
X0081000Y0207514D02*
X0069469Y0207514D01*
X0069558Y0207612D02*
X0080749Y0207612D01*
X0080498Y0207711D02*
X0069648Y0207711D01*
X0069737Y0207809D02*
X0080248Y0207809D01*
X0079997Y0207908D02*
X0069827Y0207908D01*
X0069916Y0208006D02*
X0079746Y0208006D01*
X0079495Y0208105D02*
X0070005Y0208105D01*
X0070095Y0208203D02*
X0079244Y0208203D01*
X0078993Y0208302D02*
X0070184Y0208302D01*
X0070274Y0208400D02*
X0078742Y0208400D01*
X0078491Y0208499D02*
X0070363Y0208499D01*
X0070452Y0208597D02*
X0078240Y0208597D01*
X0077989Y0208696D02*
X0070542Y0208696D01*
X0070631Y0208794D02*
X0077738Y0208794D01*
X0077459Y0208893D02*
X0070720Y0208893D01*
X0070810Y0208991D02*
X0077175Y0208991D01*
X0076891Y0209090D02*
X0070899Y0209090D01*
X0070989Y0209188D02*
X0076607Y0209188D01*
X0076323Y0209287D02*
X0071078Y0209287D01*
X0071167Y0209385D02*
X0076039Y0209385D01*
X0075755Y0209484D02*
X0071257Y0209484D01*
X0071346Y0209582D02*
X0075471Y0209582D01*
X0075187Y0209681D02*
X0071436Y0209681D01*
X0071525Y0209779D02*
X0074903Y0209779D01*
X0074619Y0209878D02*
X0071614Y0209878D01*
X0071704Y0209976D02*
X0074335Y0209976D01*
X0074051Y0210075D02*
X0071793Y0210075D01*
X0071882Y0210173D02*
X0073766Y0210173D01*
X0073482Y0210272D02*
X0071972Y0210272D01*
X0072061Y0210370D02*
X0073198Y0210370D01*
X0072914Y0210469D02*
X0072151Y0210469D01*
X0072240Y0210568D02*
X0072630Y0210568D01*
X0072346Y0210666D02*
X0072329Y0210666D01*
M02*
