G75*
%MOIN*%
%OFA0B0*%
%FSLAX25Y25*%
%IPPOS*%
%LPD*%
%AMOC8*
5,1,8,0,0,1.08239X$1,22.5*
%
%ADD10C,0.00100*%
%ADD11C,0.05937*%
%ADD12R,0.06102X0.05118*%
%ADD13C,0.01600*%
D10*
X0001050Y0049169D02*
X0001050Y0155333D01*
X0065570Y0226439D01*
X0071769Y0224681D01*
X0077861Y0222676D01*
X0083838Y0220429D01*
X0089695Y0217946D01*
X0095427Y0215234D01*
X0101028Y0212297D01*
X0106491Y0209142D01*
X0111811Y0205774D01*
X0116982Y0202199D01*
X0121999Y0198423D01*
X0126855Y0194452D01*
X0131545Y0190291D01*
X0136063Y0185947D01*
X0140402Y0181425D01*
X0144558Y0176731D01*
X0148525Y0171872D01*
X0152296Y0166852D01*
X0155866Y0161677D01*
X0159229Y0156353D01*
X0162379Y0150887D01*
X0165310Y0145283D01*
X0168017Y0139548D01*
X0170494Y0133688D01*
X0172735Y0127708D01*
X0174734Y0121615D01*
X0176485Y0115413D01*
X0177983Y0109109D01*
X0179222Y0102708D01*
X0180195Y0096217D01*
X0180898Y0089641D01*
X0181324Y0082986D01*
X0181467Y0076258D01*
X0181385Y0071161D01*
X0181140Y0066106D01*
X0180735Y0061094D01*
X0180173Y0056128D01*
X0179456Y0051211D01*
X0178586Y0046344D01*
X0177567Y0041532D01*
X0176400Y0036776D01*
X0175087Y0032078D01*
X0173633Y0027442D01*
X0172039Y0022869D01*
X0170307Y0018363D01*
X0168441Y0013925D01*
X0166442Y0009559D01*
X0164313Y0005266D01*
X0162057Y0001050D01*
X0083850Y0001050D01*
X0001050Y0049169D01*
D11*
X0008759Y0078744D03*
X0008759Y0088744D03*
X0008759Y0098744D03*
X0008759Y0108744D03*
X0008759Y0118744D03*
X0008759Y0128744D03*
X0058204Y0207625D03*
X0064934Y0215022D03*
X0049668Y0030327D03*
X0058319Y0025312D03*
X0101259Y0008744D03*
X0111259Y0008744D03*
X0121259Y0008744D03*
X0131259Y0008744D03*
X0141259Y0008744D03*
X0151259Y0008744D03*
D12*
X0106928Y0069886D03*
X0106928Y0087602D03*
X0105589Y0099886D03*
X0105589Y0117602D03*
X0106928Y0129886D03*
X0106928Y0147602D03*
X0076928Y0117602D03*
X0075589Y0129886D03*
X0075589Y0147602D03*
X0045589Y0117602D03*
X0045589Y0099886D03*
X0075589Y0087602D03*
X0076928Y0099886D03*
X0075589Y0069886D03*
X0136928Y0099886D03*
X0136928Y0117602D03*
D13*
X0106448Y0099744D02*
X0105589Y0099886D01*
X0106448Y0099744D02*
X0104259Y0099744D01*
X0075589Y0128413D01*
X0075259Y0128744D01*
X0013259Y0128744D01*
X0042117Y0099886D01*
X0045589Y0099886D01*
X0053259Y0110744D02*
X0053259Y0033918D01*
X0049668Y0030327D01*
X0058319Y0025312D02*
X0058319Y0070332D01*
X0075589Y0087602D01*
X0075589Y0071075D02*
X0104259Y0099744D01*
X0105589Y0117602D02*
X0100400Y0117602D01*
X0093259Y0124744D01*
X0093259Y0186697D01*
X0064934Y0215022D01*
X0058204Y0207625D02*
X0075589Y0190240D01*
X0075589Y0147602D01*
X0075589Y0129886D02*
X0075589Y0128413D01*
X0053259Y0110744D02*
X0046400Y0117602D01*
X0045589Y0117602D01*
X0013259Y0128744D02*
X0008759Y0128744D01*
X0075589Y0071075D02*
X0075589Y0069886D01*
M02*
