G75*
%MOIN*%
%OFA0B0*%
%FSLAX25Y25*%
%IPPOS*%
%LPD*%
%AMOC8*
5,1,8,0,0,1.08239X$1,22.5*
%
%ADD10C,0.05937*%
%ADD11R,0.06102X0.05118*%
%ADD12C,0.01600*%
D10*
X0049668Y0030327D03*
X0058319Y0025312D03*
X0101259Y0008744D03*
X0111259Y0008744D03*
X0121259Y0008744D03*
X0131259Y0008744D03*
X0141259Y0008744D03*
X0151259Y0008744D03*
X0008759Y0078744D03*
X0008759Y0088744D03*
X0008759Y0098744D03*
X0008759Y0108744D03*
X0008759Y0118744D03*
X0008759Y0128744D03*
X0058204Y0207625D03*
X0064934Y0215022D03*
D11*
X0075928Y0148602D03*
X0075928Y0130886D03*
X0099589Y0110602D03*
X0099589Y0092886D03*
X0130928Y0092886D03*
X0130928Y0110602D03*
X0044589Y0130886D03*
X0044589Y0148602D03*
D12*
X0035117Y0148602D01*
X0031259Y0144744D01*
X0031259Y0128744D01*
X0070759Y0089244D01*
X0092117Y0110602D01*
X0099589Y0110602D01*
X0116259Y0109555D02*
X0099589Y0092886D01*
X0116259Y0109555D02*
X0116259Y0140744D01*
X0064934Y0192069D01*
X0064934Y0215022D01*
X0058204Y0207625D02*
X0058204Y0144500D01*
X0044589Y0130886D01*
X0031259Y0128744D02*
X0008759Y0128744D01*
X0008759Y0118744D02*
X0031259Y0118744D01*
X0141259Y0008744D01*
X0151259Y0008744D02*
X0070759Y0089244D01*
X0031259Y0088744D02*
X0111259Y0008744D01*
X0101259Y0008744D02*
X0031259Y0078744D01*
X0008759Y0078744D01*
X0008759Y0088744D02*
X0031259Y0088744D01*
X0031259Y0098744D02*
X0121259Y0008744D01*
X0131259Y0008744D02*
X0031259Y0108744D01*
X0008759Y0108744D01*
X0008759Y0098744D02*
X0031259Y0098744D01*
M02*
