G75*
%MOIN*%
%OFA0B0*%
%FSLAX25Y25*%
%IPPOS*%
%LPD*%
%AMOC8*
5,1,8,0,0,1.08239X$1,22.5*
%
%ADD10C,0.00100*%
%ADD11R,0.03937X0.05906*%
%ADD12OC8,0.06800*%
%ADD13C,0.05000*%
%ADD14C,0.05937*%
%ADD15R,0.05937X0.05937*%
%ADD16R,0.07600X0.07600*%
%ADD17C,0.07600*%
%ADD18C,0.00000*%
%ADD19R,0.06102X0.05118*%
%ADD20C,0.05543*%
%ADD21C,0.07000*%
%ADD22C,0.01600*%
%ADD23C,0.03962*%
D10*
X0082167Y0056018D02*
X0121300Y0019024D01*
X0170845Y0033799D01*
X0222167Y0033799D01*
X0232169Y0023800D01*
X0232169Y0013800D01*
X0242169Y0003800D01*
X0402170Y0003800D01*
X0412169Y0013800D01*
X0412169Y0023800D01*
X0422167Y0033799D01*
X0492169Y0033799D01*
X0509649Y0051237D01*
X0512741Y0048502D01*
X0513231Y0048029D01*
X0513695Y0047641D01*
X0514141Y0047339D01*
X0514578Y0047130D01*
X0515015Y0047017D01*
X0515459Y0047004D01*
X0515921Y0047095D01*
X0516409Y0047294D01*
X0529083Y0053702D01*
X0529533Y0053976D01*
X0529881Y0054294D01*
X0530135Y0054660D01*
X0530303Y0055078D01*
X0530394Y0055554D01*
X0530416Y0056091D01*
X0530378Y0056695D01*
X0530289Y0057370D01*
X0529495Y0066221D01*
X0532183Y0068210D01*
X0534790Y0070298D01*
X0537314Y0072482D01*
X0539755Y0074756D01*
X0548328Y0072332D01*
X0548975Y0072119D01*
X0549561Y0071970D01*
X0550093Y0071892D01*
X0550577Y0071893D01*
X0551019Y0071981D01*
X0551426Y0072163D01*
X0551803Y0072446D01*
X0552156Y0072837D01*
X0560796Y0084106D01*
X0561083Y0084549D01*
X0561258Y0084986D01*
X0561327Y0085426D01*
X0561297Y0085876D01*
X0561172Y0086344D01*
X0560960Y0086837D01*
X0560665Y0087365D01*
X0560292Y0087933D01*
X0555727Y0095578D01*
X0556521Y0097042D01*
X0557287Y0098522D01*
X0558027Y0100017D01*
X0558738Y0101528D01*
X0559422Y0103055D01*
X0560077Y0104596D01*
X0560703Y0106152D01*
X0561300Y0107722D01*
X0570060Y0109254D01*
X0570735Y0109343D01*
X0571328Y0109464D01*
X0571841Y0109625D01*
X0572277Y0109837D01*
X0572637Y0110108D01*
X0572924Y0110448D01*
X0573142Y0110867D01*
X0573291Y0111374D01*
X0576183Y0125276D01*
X0576248Y0125800D01*
X0576215Y0126270D01*
X0576087Y0126696D01*
X0575864Y0127088D01*
X0575549Y0127456D01*
X0575143Y0127808D01*
X0574648Y0128154D01*
X0574065Y0128504D01*
X0566626Y0133420D01*
X0566706Y0135074D01*
X0566761Y0136735D01*
X0566785Y0138403D01*
X0566773Y0140079D01*
X0566721Y0141760D01*
X0566633Y0143430D01*
X0566514Y0145092D01*
X0566369Y0146746D01*
X0573615Y0151939D01*
X0574183Y0152311D01*
X0574666Y0152675D01*
X0575058Y0153043D01*
X0575359Y0153422D01*
X0575567Y0153823D01*
X0575679Y0154254D01*
X0575693Y0154725D01*
X0575607Y0155246D01*
X0572184Y0169028D01*
X0572015Y0169528D01*
X0571782Y0169938D01*
X0571481Y0170267D01*
X0571110Y0170523D01*
X0570666Y0170718D01*
X0570147Y0170859D01*
X0569549Y0170957D01*
X0568871Y0171020D01*
X0560065Y0172215D01*
X0559407Y0173762D01*
X0558721Y0175294D01*
X0558007Y0176809D01*
X0557266Y0178309D01*
X0556497Y0179792D01*
X0555701Y0181258D01*
X0554878Y0182708D01*
X0554028Y0184141D01*
X0558295Y0191953D01*
X0558646Y0192536D01*
X0558920Y0193075D01*
X0559114Y0193577D01*
X0559220Y0194049D01*
X0559233Y0194500D01*
X0559146Y0194936D01*
X0558954Y0195366D01*
X0558650Y0195797D01*
X0549585Y0206726D01*
X0549217Y0207104D01*
X0548829Y0207372D01*
X0548415Y0207538D01*
X0547970Y0207608D01*
X0547486Y0207591D01*
X0546958Y0207493D01*
X0546378Y0207322D01*
X0545741Y0207085D01*
X0537270Y0204333D01*
X0536024Y0205428D01*
X0534758Y0206499D01*
X0533472Y0207546D01*
X0532167Y0208571D01*
X0532167Y0307878D01*
X0567559Y0345860D01*
X0544338Y0417804D01*
X0470934Y0435896D01*
X0431707Y0393800D01*
X0406260Y0393800D01*
X0385307Y0427102D01*
X0374319Y0408352D01*
X0383378Y0393800D01*
X0372506Y0393800D01*
X0332235Y0463276D01*
X0332121Y0463500D01*
X0332077Y0463552D01*
X0332034Y0463500D01*
X0331920Y0463276D01*
X0291646Y0393800D01*
X0280777Y0393800D01*
X0289837Y0408352D01*
X0278845Y0427102D01*
X0257894Y0393800D01*
X0232167Y0393800D01*
X0212167Y0413800D01*
X0152169Y0413800D01*
X0132167Y0393800D01*
X0132167Y0373800D01*
X0112167Y0373800D01*
X0092167Y0353800D01*
X0092167Y0309702D01*
X0094905Y0307752D01*
X0097564Y0305702D01*
X0100143Y0303556D01*
X0102641Y0301318D01*
X0111312Y0303952D01*
X0111965Y0304180D01*
X0112558Y0304343D01*
X0113098Y0304433D01*
X0113590Y0304441D01*
X0114042Y0304361D01*
X0114459Y0304184D01*
X0114848Y0303904D01*
X0115215Y0303513D01*
X0124223Y0292221D01*
X0124524Y0291776D01*
X0124711Y0291334D01*
X0124791Y0290888D01*
X0124769Y0290430D01*
X0124652Y0289952D01*
X0124445Y0289445D01*
X0124154Y0288903D01*
X0123787Y0288317D01*
X0119295Y0280453D01*
X0120131Y0278980D01*
X0120939Y0277489D01*
X0121720Y0275982D01*
X0122474Y0274459D01*
X0123199Y0272920D01*
X0123896Y0271364D01*
X0124564Y0269793D01*
X0125203Y0268207D01*
X0134139Y0266820D01*
X0134828Y0266743D01*
X0135433Y0266632D01*
X0135958Y0266478D01*
X0136406Y0266272D01*
X0136778Y0266003D01*
X0137077Y0265663D01*
X0137306Y0265242D01*
X0137467Y0264729D01*
X0140681Y0250646D01*
X0140758Y0250115D01*
X0140735Y0249636D01*
X0140613Y0249200D01*
X0140395Y0248796D01*
X0140081Y0248416D01*
X0139675Y0248050D01*
X0139178Y0247688D01*
X0138591Y0247321D01*
X0131120Y0242176D01*
X0131234Y0240491D01*
X0131323Y0238800D01*
X0131380Y0237100D01*
X0131400Y0235391D01*
X0131380Y0233684D01*
X0131323Y0231988D01*
X0131235Y0230300D01*
X0131121Y0228620D01*
X0138592Y0223476D01*
X0139179Y0223108D01*
X0139676Y0222746D01*
X0140083Y0222379D01*
X0140396Y0221999D01*
X0140615Y0221596D01*
X0140737Y0221160D01*
X0140761Y0220681D01*
X0140684Y0220150D01*
X0137473Y0206065D01*
X0137311Y0205554D01*
X0137082Y0205132D01*
X0136783Y0204792D01*
X0136411Y0204524D01*
X0135964Y0204318D01*
X0135439Y0204164D01*
X0134834Y0204053D01*
X0134146Y0203975D01*
X0125206Y0202586D01*
X0124568Y0201000D01*
X0123900Y0199429D01*
X0123204Y0197873D01*
X0122478Y0196334D01*
X0121726Y0194811D01*
X0120945Y0193305D01*
X0120137Y0191815D01*
X0119302Y0190342D01*
X0123795Y0182475D01*
X0124163Y0181889D01*
X0124453Y0181347D01*
X0124660Y0180841D01*
X0124778Y0180363D01*
X0124800Y0179905D01*
X0124721Y0179459D01*
X0124534Y0179017D01*
X0124234Y0178572D01*
X0112167Y0163478D01*
X0112167Y0113636D01*
X0094641Y0108408D01*
X0082167Y0056018D01*
X0459673Y0327974D02*
X0443502Y0378917D01*
X0479535Y0418391D01*
X0531738Y0406924D01*
X0547906Y0355982D01*
X0511876Y0316507D01*
X0459673Y0327974D01*
X0213650Y0388902D02*
X0213306Y0387793D01*
X0212762Y0386790D01*
X0212041Y0385916D01*
X0211167Y0385195D01*
X0210163Y0384650D01*
X0209055Y0384306D01*
X0207865Y0384186D01*
X0156685Y0384186D01*
X0155495Y0384306D01*
X0154386Y0384650D01*
X0153383Y0385195D01*
X0152509Y0385916D01*
X0151788Y0386790D01*
X0151244Y0387793D01*
X0150900Y0388902D01*
X0150780Y0390092D01*
X0150780Y0392061D01*
X0150900Y0393251D01*
X0151244Y0394360D01*
X0151788Y0395363D01*
X0152509Y0396237D01*
X0153383Y0396958D01*
X0154386Y0397503D01*
X0155495Y0397847D01*
X0156685Y0397967D01*
X0207865Y0397967D01*
X0209055Y0397847D01*
X0210163Y0397503D01*
X0211167Y0396958D01*
X0212041Y0396237D01*
X0212762Y0395363D01*
X0213306Y0394360D01*
X0213650Y0393251D01*
X0213770Y0392061D01*
X0213770Y0390092D01*
X0213650Y0388902D01*
D11*
X0245909Y0383446D03*
X0258507Y0383446D03*
X0258507Y0364154D03*
X0245909Y0364154D03*
X0285909Y0364154D03*
X0298507Y0364154D03*
X0298507Y0383446D03*
X0285909Y0383446D03*
X0325909Y0383446D03*
X0338507Y0383446D03*
X0338507Y0364154D03*
X0325909Y0364154D03*
X0365909Y0364154D03*
X0378507Y0364154D03*
X0378507Y0383446D03*
X0365909Y0383446D03*
X0405909Y0383446D03*
X0418507Y0383446D03*
X0418507Y0364154D03*
X0405909Y0364154D03*
D12*
X0451594Y0103954D03*
X0461594Y0103954D03*
X0471594Y0103954D03*
X0481594Y0103954D03*
X0481594Y0073954D03*
X0471594Y0073954D03*
X0461594Y0073954D03*
X0451594Y0073954D03*
X0149208Y0083800D03*
X0139208Y0083800D03*
X0129208Y0083800D03*
X0119208Y0083800D03*
X0119208Y0053800D03*
X0129208Y0053800D03*
X0139208Y0053800D03*
X0149208Y0053800D03*
D13*
X0237208Y0056300D02*
X0237208Y0061300D01*
X0247208Y0061300D02*
X0247208Y0056300D01*
X0257208Y0056300D02*
X0257208Y0061300D01*
X0267208Y0061300D02*
X0267208Y0056300D01*
X0277208Y0056300D02*
X0277208Y0061300D01*
X0287208Y0061300D02*
X0287208Y0056300D01*
X0297208Y0056300D02*
X0297208Y0061300D01*
X0307208Y0061300D02*
X0307208Y0056300D01*
X0317208Y0056300D02*
X0317208Y0061300D01*
X0327208Y0061300D02*
X0327208Y0056300D01*
X0337208Y0056300D02*
X0337208Y0061300D01*
X0347208Y0061300D02*
X0347208Y0056300D01*
X0357208Y0056300D02*
X0357208Y0061300D01*
X0367208Y0061300D02*
X0367208Y0056300D01*
X0377208Y0056300D02*
X0377208Y0061300D01*
X0387208Y0061300D02*
X0387208Y0056300D01*
X0397208Y0056300D02*
X0397208Y0061300D01*
X0407208Y0061300D02*
X0407208Y0056300D01*
X0417208Y0056300D02*
X0417208Y0061300D01*
X0427208Y0061300D02*
X0427208Y0056300D01*
X0427208Y0116300D02*
X0427208Y0121300D01*
X0417208Y0121300D02*
X0417208Y0116300D01*
X0407208Y0116300D02*
X0407208Y0121300D01*
X0397208Y0121300D02*
X0397208Y0116300D01*
X0387208Y0116300D02*
X0387208Y0121300D01*
X0377208Y0121300D02*
X0377208Y0116300D01*
X0367208Y0116300D02*
X0367208Y0121300D01*
X0357208Y0121300D02*
X0357208Y0116300D01*
X0347208Y0116300D02*
X0347208Y0121300D01*
X0337208Y0121300D02*
X0337208Y0116300D01*
X0327208Y0116300D02*
X0327208Y0121300D01*
X0317208Y0121300D02*
X0317208Y0116300D01*
X0307208Y0116300D02*
X0307208Y0121300D01*
X0297208Y0121300D02*
X0297208Y0116300D01*
X0287208Y0116300D02*
X0287208Y0121300D01*
X0277208Y0121300D02*
X0277208Y0116300D01*
X0267208Y0116300D02*
X0267208Y0121300D01*
X0257208Y0121300D02*
X0257208Y0116300D01*
X0247208Y0116300D02*
X0247208Y0121300D01*
X0237208Y0121300D02*
X0237208Y0116300D01*
D14*
X0207808Y0169800D03*
X0207808Y0179800D03*
X0207808Y0189800D03*
X0207808Y0199800D03*
X0207799Y0209800D03*
X0207808Y0219800D03*
X0207808Y0229800D03*
X0207808Y0239800D03*
X0173708Y0243800D03*
X0173708Y0233800D03*
X0173708Y0223800D03*
X0173708Y0213800D03*
X0173708Y0203800D03*
X0173708Y0253800D03*
X0124263Y0332681D03*
X0117533Y0340078D03*
X0132799Y0155383D03*
X0124148Y0150368D03*
X0454508Y0194800D03*
X0454508Y0204800D03*
X0454508Y0214800D03*
X0491708Y0213800D03*
X0491708Y0203800D03*
X0491708Y0223800D03*
X0491708Y0233800D03*
X0491708Y0243800D03*
X0491708Y0253800D03*
X0541153Y0332681D03*
X0547884Y0340078D03*
X0532617Y0155383D03*
X0541269Y0150368D03*
D15*
X0454508Y0224800D03*
X0207808Y0249800D03*
D16*
X0435208Y0147300D03*
D17*
X0435208Y0132300D03*
D18*
X0444050Y0040894D02*
X0444052Y0040978D01*
X0444058Y0041061D01*
X0444068Y0041144D01*
X0444082Y0041227D01*
X0444099Y0041309D01*
X0444121Y0041390D01*
X0444146Y0041469D01*
X0444175Y0041548D01*
X0444208Y0041625D01*
X0444244Y0041700D01*
X0444284Y0041774D01*
X0444327Y0041846D01*
X0444374Y0041915D01*
X0444424Y0041982D01*
X0444477Y0042047D01*
X0444533Y0042109D01*
X0444591Y0042169D01*
X0444653Y0042226D01*
X0444717Y0042279D01*
X0444784Y0042330D01*
X0444853Y0042377D01*
X0444924Y0042422D01*
X0444997Y0042462D01*
X0445072Y0042499D01*
X0445149Y0042533D01*
X0445227Y0042563D01*
X0445306Y0042589D01*
X0445387Y0042612D01*
X0445469Y0042630D01*
X0445551Y0042645D01*
X0445634Y0042656D01*
X0445717Y0042663D01*
X0445801Y0042666D01*
X0445885Y0042665D01*
X0445968Y0042660D01*
X0446052Y0042651D01*
X0446134Y0042638D01*
X0446216Y0042622D01*
X0446297Y0042601D01*
X0446378Y0042577D01*
X0446456Y0042549D01*
X0446534Y0042517D01*
X0446610Y0042481D01*
X0446684Y0042442D01*
X0446756Y0042400D01*
X0446826Y0042354D01*
X0446894Y0042305D01*
X0446959Y0042253D01*
X0447022Y0042198D01*
X0447082Y0042140D01*
X0447140Y0042079D01*
X0447194Y0042015D01*
X0447246Y0041949D01*
X0447294Y0041881D01*
X0447339Y0041810D01*
X0447380Y0041737D01*
X0447419Y0041663D01*
X0447453Y0041587D01*
X0447484Y0041509D01*
X0447511Y0041430D01*
X0447535Y0041349D01*
X0447554Y0041268D01*
X0447570Y0041186D01*
X0447582Y0041103D01*
X0447590Y0041019D01*
X0447594Y0040936D01*
X0447594Y0040852D01*
X0447590Y0040769D01*
X0447582Y0040685D01*
X0447570Y0040602D01*
X0447554Y0040520D01*
X0447535Y0040439D01*
X0447511Y0040358D01*
X0447484Y0040279D01*
X0447453Y0040201D01*
X0447419Y0040125D01*
X0447380Y0040051D01*
X0447339Y0039978D01*
X0447294Y0039907D01*
X0447246Y0039839D01*
X0447194Y0039773D01*
X0447140Y0039709D01*
X0447082Y0039648D01*
X0447022Y0039590D01*
X0446959Y0039535D01*
X0446894Y0039483D01*
X0446826Y0039434D01*
X0446756Y0039388D01*
X0446684Y0039346D01*
X0446610Y0039307D01*
X0446534Y0039271D01*
X0446456Y0039239D01*
X0446378Y0039211D01*
X0446297Y0039187D01*
X0446216Y0039166D01*
X0446134Y0039150D01*
X0446052Y0039137D01*
X0445968Y0039128D01*
X0445885Y0039123D01*
X0445801Y0039122D01*
X0445717Y0039125D01*
X0445634Y0039132D01*
X0445551Y0039143D01*
X0445469Y0039158D01*
X0445387Y0039176D01*
X0445306Y0039199D01*
X0445227Y0039225D01*
X0445149Y0039255D01*
X0445072Y0039289D01*
X0444997Y0039326D01*
X0444924Y0039366D01*
X0444853Y0039411D01*
X0444784Y0039458D01*
X0444717Y0039509D01*
X0444653Y0039562D01*
X0444591Y0039619D01*
X0444533Y0039679D01*
X0444477Y0039741D01*
X0444424Y0039806D01*
X0444374Y0039873D01*
X0444327Y0039942D01*
X0444284Y0040014D01*
X0444244Y0040088D01*
X0444208Y0040163D01*
X0444175Y0040240D01*
X0444146Y0040319D01*
X0444121Y0040398D01*
X0444099Y0040479D01*
X0444082Y0040561D01*
X0444068Y0040644D01*
X0444058Y0040727D01*
X0444052Y0040810D01*
X0444050Y0040894D01*
X0470822Y0040894D02*
X0470824Y0040978D01*
X0470830Y0041061D01*
X0470840Y0041144D01*
X0470854Y0041227D01*
X0470871Y0041309D01*
X0470893Y0041390D01*
X0470918Y0041469D01*
X0470947Y0041548D01*
X0470980Y0041625D01*
X0471016Y0041700D01*
X0471056Y0041774D01*
X0471099Y0041846D01*
X0471146Y0041915D01*
X0471196Y0041982D01*
X0471249Y0042047D01*
X0471305Y0042109D01*
X0471363Y0042169D01*
X0471425Y0042226D01*
X0471489Y0042279D01*
X0471556Y0042330D01*
X0471625Y0042377D01*
X0471696Y0042422D01*
X0471769Y0042462D01*
X0471844Y0042499D01*
X0471921Y0042533D01*
X0471999Y0042563D01*
X0472078Y0042589D01*
X0472159Y0042612D01*
X0472241Y0042630D01*
X0472323Y0042645D01*
X0472406Y0042656D01*
X0472489Y0042663D01*
X0472573Y0042666D01*
X0472657Y0042665D01*
X0472740Y0042660D01*
X0472824Y0042651D01*
X0472906Y0042638D01*
X0472988Y0042622D01*
X0473069Y0042601D01*
X0473150Y0042577D01*
X0473228Y0042549D01*
X0473306Y0042517D01*
X0473382Y0042481D01*
X0473456Y0042442D01*
X0473528Y0042400D01*
X0473598Y0042354D01*
X0473666Y0042305D01*
X0473731Y0042253D01*
X0473794Y0042198D01*
X0473854Y0042140D01*
X0473912Y0042079D01*
X0473966Y0042015D01*
X0474018Y0041949D01*
X0474066Y0041881D01*
X0474111Y0041810D01*
X0474152Y0041737D01*
X0474191Y0041663D01*
X0474225Y0041587D01*
X0474256Y0041509D01*
X0474283Y0041430D01*
X0474307Y0041349D01*
X0474326Y0041268D01*
X0474342Y0041186D01*
X0474354Y0041103D01*
X0474362Y0041019D01*
X0474366Y0040936D01*
X0474366Y0040852D01*
X0474362Y0040769D01*
X0474354Y0040685D01*
X0474342Y0040602D01*
X0474326Y0040520D01*
X0474307Y0040439D01*
X0474283Y0040358D01*
X0474256Y0040279D01*
X0474225Y0040201D01*
X0474191Y0040125D01*
X0474152Y0040051D01*
X0474111Y0039978D01*
X0474066Y0039907D01*
X0474018Y0039839D01*
X0473966Y0039773D01*
X0473912Y0039709D01*
X0473854Y0039648D01*
X0473794Y0039590D01*
X0473731Y0039535D01*
X0473666Y0039483D01*
X0473598Y0039434D01*
X0473528Y0039388D01*
X0473456Y0039346D01*
X0473382Y0039307D01*
X0473306Y0039271D01*
X0473228Y0039239D01*
X0473150Y0039211D01*
X0473069Y0039187D01*
X0472988Y0039166D01*
X0472906Y0039150D01*
X0472824Y0039137D01*
X0472740Y0039128D01*
X0472657Y0039123D01*
X0472573Y0039122D01*
X0472489Y0039125D01*
X0472406Y0039132D01*
X0472323Y0039143D01*
X0472241Y0039158D01*
X0472159Y0039176D01*
X0472078Y0039199D01*
X0471999Y0039225D01*
X0471921Y0039255D01*
X0471844Y0039289D01*
X0471769Y0039326D01*
X0471696Y0039366D01*
X0471625Y0039411D01*
X0471556Y0039458D01*
X0471489Y0039509D01*
X0471425Y0039562D01*
X0471363Y0039619D01*
X0471305Y0039679D01*
X0471249Y0039741D01*
X0471196Y0039806D01*
X0471146Y0039873D01*
X0471099Y0039942D01*
X0471056Y0040014D01*
X0471016Y0040088D01*
X0470980Y0040163D01*
X0470947Y0040240D01*
X0470918Y0040319D01*
X0470893Y0040398D01*
X0470871Y0040479D01*
X0470854Y0040561D01*
X0470840Y0040644D01*
X0470830Y0040727D01*
X0470824Y0040810D01*
X0470822Y0040894D01*
X0209822Y0040894D02*
X0209824Y0040978D01*
X0209830Y0041061D01*
X0209840Y0041144D01*
X0209854Y0041227D01*
X0209871Y0041309D01*
X0209893Y0041390D01*
X0209918Y0041469D01*
X0209947Y0041548D01*
X0209980Y0041625D01*
X0210016Y0041700D01*
X0210056Y0041774D01*
X0210099Y0041846D01*
X0210146Y0041915D01*
X0210196Y0041982D01*
X0210249Y0042047D01*
X0210305Y0042109D01*
X0210363Y0042169D01*
X0210425Y0042226D01*
X0210489Y0042279D01*
X0210556Y0042330D01*
X0210625Y0042377D01*
X0210696Y0042422D01*
X0210769Y0042462D01*
X0210844Y0042499D01*
X0210921Y0042533D01*
X0210999Y0042563D01*
X0211078Y0042589D01*
X0211159Y0042612D01*
X0211241Y0042630D01*
X0211323Y0042645D01*
X0211406Y0042656D01*
X0211489Y0042663D01*
X0211573Y0042666D01*
X0211657Y0042665D01*
X0211740Y0042660D01*
X0211824Y0042651D01*
X0211906Y0042638D01*
X0211988Y0042622D01*
X0212069Y0042601D01*
X0212150Y0042577D01*
X0212228Y0042549D01*
X0212306Y0042517D01*
X0212382Y0042481D01*
X0212456Y0042442D01*
X0212528Y0042400D01*
X0212598Y0042354D01*
X0212666Y0042305D01*
X0212731Y0042253D01*
X0212794Y0042198D01*
X0212854Y0042140D01*
X0212912Y0042079D01*
X0212966Y0042015D01*
X0213018Y0041949D01*
X0213066Y0041881D01*
X0213111Y0041810D01*
X0213152Y0041737D01*
X0213191Y0041663D01*
X0213225Y0041587D01*
X0213256Y0041509D01*
X0213283Y0041430D01*
X0213307Y0041349D01*
X0213326Y0041268D01*
X0213342Y0041186D01*
X0213354Y0041103D01*
X0213362Y0041019D01*
X0213366Y0040936D01*
X0213366Y0040852D01*
X0213362Y0040769D01*
X0213354Y0040685D01*
X0213342Y0040602D01*
X0213326Y0040520D01*
X0213307Y0040439D01*
X0213283Y0040358D01*
X0213256Y0040279D01*
X0213225Y0040201D01*
X0213191Y0040125D01*
X0213152Y0040051D01*
X0213111Y0039978D01*
X0213066Y0039907D01*
X0213018Y0039839D01*
X0212966Y0039773D01*
X0212912Y0039709D01*
X0212854Y0039648D01*
X0212794Y0039590D01*
X0212731Y0039535D01*
X0212666Y0039483D01*
X0212598Y0039434D01*
X0212528Y0039388D01*
X0212456Y0039346D01*
X0212382Y0039307D01*
X0212306Y0039271D01*
X0212228Y0039239D01*
X0212150Y0039211D01*
X0212069Y0039187D01*
X0211988Y0039166D01*
X0211906Y0039150D01*
X0211824Y0039137D01*
X0211740Y0039128D01*
X0211657Y0039123D01*
X0211573Y0039122D01*
X0211489Y0039125D01*
X0211406Y0039132D01*
X0211323Y0039143D01*
X0211241Y0039158D01*
X0211159Y0039176D01*
X0211078Y0039199D01*
X0210999Y0039225D01*
X0210921Y0039255D01*
X0210844Y0039289D01*
X0210769Y0039326D01*
X0210696Y0039366D01*
X0210625Y0039411D01*
X0210556Y0039458D01*
X0210489Y0039509D01*
X0210425Y0039562D01*
X0210363Y0039619D01*
X0210305Y0039679D01*
X0210249Y0039741D01*
X0210196Y0039806D01*
X0210146Y0039873D01*
X0210099Y0039942D01*
X0210056Y0040014D01*
X0210016Y0040088D01*
X0209980Y0040163D01*
X0209947Y0040240D01*
X0209918Y0040319D01*
X0209893Y0040398D01*
X0209871Y0040479D01*
X0209854Y0040561D01*
X0209840Y0040644D01*
X0209830Y0040727D01*
X0209824Y0040810D01*
X0209822Y0040894D01*
X0183050Y0040894D02*
X0183052Y0040978D01*
X0183058Y0041061D01*
X0183068Y0041144D01*
X0183082Y0041227D01*
X0183099Y0041309D01*
X0183121Y0041390D01*
X0183146Y0041469D01*
X0183175Y0041548D01*
X0183208Y0041625D01*
X0183244Y0041700D01*
X0183284Y0041774D01*
X0183327Y0041846D01*
X0183374Y0041915D01*
X0183424Y0041982D01*
X0183477Y0042047D01*
X0183533Y0042109D01*
X0183591Y0042169D01*
X0183653Y0042226D01*
X0183717Y0042279D01*
X0183784Y0042330D01*
X0183853Y0042377D01*
X0183924Y0042422D01*
X0183997Y0042462D01*
X0184072Y0042499D01*
X0184149Y0042533D01*
X0184227Y0042563D01*
X0184306Y0042589D01*
X0184387Y0042612D01*
X0184469Y0042630D01*
X0184551Y0042645D01*
X0184634Y0042656D01*
X0184717Y0042663D01*
X0184801Y0042666D01*
X0184885Y0042665D01*
X0184968Y0042660D01*
X0185052Y0042651D01*
X0185134Y0042638D01*
X0185216Y0042622D01*
X0185297Y0042601D01*
X0185378Y0042577D01*
X0185456Y0042549D01*
X0185534Y0042517D01*
X0185610Y0042481D01*
X0185684Y0042442D01*
X0185756Y0042400D01*
X0185826Y0042354D01*
X0185894Y0042305D01*
X0185959Y0042253D01*
X0186022Y0042198D01*
X0186082Y0042140D01*
X0186140Y0042079D01*
X0186194Y0042015D01*
X0186246Y0041949D01*
X0186294Y0041881D01*
X0186339Y0041810D01*
X0186380Y0041737D01*
X0186419Y0041663D01*
X0186453Y0041587D01*
X0186484Y0041509D01*
X0186511Y0041430D01*
X0186535Y0041349D01*
X0186554Y0041268D01*
X0186570Y0041186D01*
X0186582Y0041103D01*
X0186590Y0041019D01*
X0186594Y0040936D01*
X0186594Y0040852D01*
X0186590Y0040769D01*
X0186582Y0040685D01*
X0186570Y0040602D01*
X0186554Y0040520D01*
X0186535Y0040439D01*
X0186511Y0040358D01*
X0186484Y0040279D01*
X0186453Y0040201D01*
X0186419Y0040125D01*
X0186380Y0040051D01*
X0186339Y0039978D01*
X0186294Y0039907D01*
X0186246Y0039839D01*
X0186194Y0039773D01*
X0186140Y0039709D01*
X0186082Y0039648D01*
X0186022Y0039590D01*
X0185959Y0039535D01*
X0185894Y0039483D01*
X0185826Y0039434D01*
X0185756Y0039388D01*
X0185684Y0039346D01*
X0185610Y0039307D01*
X0185534Y0039271D01*
X0185456Y0039239D01*
X0185378Y0039211D01*
X0185297Y0039187D01*
X0185216Y0039166D01*
X0185134Y0039150D01*
X0185052Y0039137D01*
X0184968Y0039128D01*
X0184885Y0039123D01*
X0184801Y0039122D01*
X0184717Y0039125D01*
X0184634Y0039132D01*
X0184551Y0039143D01*
X0184469Y0039158D01*
X0184387Y0039176D01*
X0184306Y0039199D01*
X0184227Y0039225D01*
X0184149Y0039255D01*
X0184072Y0039289D01*
X0183997Y0039326D01*
X0183924Y0039366D01*
X0183853Y0039411D01*
X0183784Y0039458D01*
X0183717Y0039509D01*
X0183653Y0039562D01*
X0183591Y0039619D01*
X0183533Y0039679D01*
X0183477Y0039741D01*
X0183424Y0039806D01*
X0183374Y0039873D01*
X0183327Y0039942D01*
X0183284Y0040014D01*
X0183244Y0040088D01*
X0183208Y0040163D01*
X0183175Y0040240D01*
X0183146Y0040319D01*
X0183121Y0040398D01*
X0183099Y0040479D01*
X0183082Y0040561D01*
X0183068Y0040644D01*
X0183058Y0040727D01*
X0183052Y0040810D01*
X0183050Y0040894D01*
D19*
X0174444Y0059548D03*
X0174444Y0077265D03*
X0205783Y0077265D03*
X0205783Y0059548D03*
D20*
X0186653Y0140501D03*
X0179763Y0146800D03*
D21*
X0258429Y0011792D03*
X0268429Y0011792D03*
X0278429Y0011792D03*
X0288429Y0011792D03*
X0298429Y0011792D03*
X0308429Y0011792D03*
X0318429Y0011792D03*
X0328429Y0011792D03*
X0338429Y0011792D03*
X0348429Y0011792D03*
X0358429Y0011792D03*
X0368429Y0011792D03*
X0378429Y0011792D03*
X0388429Y0011792D03*
D22*
X0388216Y0011792D01*
X0381208Y0018800D01*
X0265437Y0018800D01*
X0258429Y0011792D01*
X0240208Y0022800D02*
X0220208Y0042800D01*
X0220208Y0058800D01*
X0210208Y0068800D01*
X0186208Y0068800D01*
X0182208Y0072800D01*
X0182208Y0079800D01*
X0194208Y0091800D01*
X0201208Y0084800D02*
X0228208Y0084800D01*
X0237208Y0103800D02*
X0237208Y0058800D01*
X0230708Y0040300D02*
X0243208Y0027800D01*
X0406208Y0027800D01*
X0407208Y0022800D02*
X0240208Y0022800D01*
X0174444Y0059548D02*
X0154956Y0059548D01*
X0149208Y0053800D01*
X0139208Y0053800D02*
X0162673Y0077265D01*
X0174444Y0077265D01*
X0188208Y0076800D02*
X0193208Y0076800D01*
X0201208Y0084800D01*
X0237208Y0103800D02*
X0194208Y0146800D01*
X0179763Y0146800D01*
X0196208Y0156800D02*
X0212208Y0140800D01*
X0224208Y0132800D02*
X0224208Y0131800D01*
X0237208Y0118800D01*
X0247208Y0118800D02*
X0247208Y0133800D01*
X0226208Y0154800D01*
X0205208Y0154800D01*
X0193208Y0166800D01*
X0193208Y0263736D01*
X0124263Y0332681D01*
X0127208Y0339800D02*
X0117811Y0339800D01*
X0117533Y0340078D01*
X0127208Y0339800D02*
X0199208Y0267800D01*
X0199208Y0167800D01*
X0206208Y0160800D01*
X0228208Y0160800D01*
X0257208Y0131800D01*
X0257208Y0118800D01*
X0267208Y0118800D02*
X0267208Y0130800D01*
X0228208Y0169800D01*
X0207808Y0169800D01*
X0187208Y0171800D02*
X0187208Y0220300D01*
X0173708Y0233800D01*
X0165208Y0235300D02*
X0173708Y0243800D01*
X0165208Y0235300D02*
X0165208Y0170800D01*
X0122208Y0127800D01*
X0122208Y0108800D01*
X0108208Y0094800D01*
X0108208Y0065800D01*
X0119208Y0054800D01*
X0119208Y0053800D01*
X0129208Y0053800D02*
X0201208Y0125800D01*
X0187208Y0171800D02*
X0149208Y0133800D01*
X0149208Y0083800D01*
X0139208Y0083800D02*
X0139208Y0130800D01*
X0181208Y0172800D01*
X0181208Y0216300D01*
X0173708Y0223800D01*
X0173708Y0203800D02*
X0174208Y0203300D01*
X0174208Y0172800D01*
X0129208Y0127800D01*
X0129208Y0083800D01*
X0217208Y0189800D02*
X0277208Y0129800D01*
X0277208Y0118800D01*
X0287208Y0118800D02*
X0287208Y0128800D01*
X0216208Y0199800D01*
X0207808Y0199800D01*
X0207808Y0189800D02*
X0217208Y0189800D01*
X0207799Y0209800D02*
X0227208Y0209800D01*
X0297208Y0139800D01*
X0297208Y0118800D01*
X0307208Y0118800D02*
X0307208Y0138800D01*
X0226208Y0219800D01*
X0207808Y0219800D01*
X0207808Y0229800D02*
X0225208Y0229800D01*
X0322208Y0132800D01*
X0322208Y0110800D01*
X0328208Y0104800D01*
X0351208Y0104800D01*
X0357208Y0110800D01*
X0357208Y0118800D01*
X0367208Y0118800D02*
X0367208Y0106800D01*
X0372208Y0101800D01*
X0372208Y0051800D01*
X0380208Y0043800D01*
X0437208Y0043800D01*
X0440208Y0046800D01*
X0492208Y0046800D01*
X0522208Y0076800D01*
X0517208Y0085800D02*
X0482208Y0050800D01*
X0437208Y0050800D01*
X0434208Y0047800D01*
X0381208Y0047800D01*
X0377208Y0051800D01*
X0377208Y0058800D01*
X0387208Y0058800D02*
X0387208Y0053800D01*
X0389208Y0051800D01*
X0432208Y0051800D01*
X0435208Y0054800D01*
X0481208Y0054800D01*
X0513208Y0086800D01*
X0513208Y0144800D01*
X0523792Y0155383D01*
X0532617Y0155383D01*
X0526777Y0150368D02*
X0517208Y0140800D01*
X0517208Y0085800D01*
X0509208Y0087800D02*
X0509208Y0216300D01*
X0491708Y0233800D01*
X0491708Y0223800D02*
X0505208Y0210300D01*
X0505208Y0088800D01*
X0480208Y0063800D01*
X0444208Y0063800D01*
X0439208Y0068800D01*
X0423208Y0068800D01*
X0417208Y0062800D01*
X0417208Y0058800D01*
X0407208Y0058800D02*
X0407208Y0064800D01*
X0416362Y0073954D01*
X0451594Y0073954D01*
X0455208Y0080800D02*
X0412208Y0080800D01*
X0397208Y0065800D01*
X0397208Y0058800D01*
X0368208Y0069800D02*
X0368208Y0098800D01*
X0362208Y0104800D01*
X0362208Y0143800D01*
X0458208Y0239800D01*
X0458208Y0248800D01*
X0457208Y0249800D01*
X0452208Y0243800D02*
X0343208Y0134800D01*
X0334208Y0134800D01*
X0327208Y0127800D01*
X0327208Y0118800D01*
X0317208Y0118800D02*
X0317208Y0104800D01*
X0347208Y0074800D01*
X0347208Y0058800D01*
X0427208Y0058800D02*
X0480208Y0058800D01*
X0509208Y0087800D01*
X0499208Y0091568D02*
X0481594Y0073954D01*
X0471594Y0073954D02*
X0471594Y0103954D01*
X0455208Y0080800D02*
X0461594Y0074414D01*
X0461594Y0073954D01*
X0499208Y0091568D02*
X0499208Y0111800D01*
X0499208Y0209800D01*
X0495208Y0213800D01*
X0491708Y0213800D01*
X0477208Y0199800D02*
X0477208Y0262800D01*
X0539208Y0324800D01*
X0543208Y0324800D01*
X0548208Y0329800D01*
X0548208Y0339753D01*
X0547884Y0340078D01*
X0541153Y0332681D02*
X0472208Y0263736D01*
X0472208Y0201800D01*
X0417208Y0146800D01*
X0417208Y0118800D01*
X0407208Y0118800D02*
X0407208Y0147500D01*
X0454508Y0194800D01*
X0454508Y0204800D02*
X0397208Y0147500D01*
X0397208Y0118800D01*
X0387208Y0118800D02*
X0387208Y0147500D01*
X0454508Y0214800D01*
X0454508Y0224800D02*
X0377208Y0147500D01*
X0377208Y0118800D01*
X0427208Y0118800D02*
X0427208Y0149800D01*
X0477208Y0199800D01*
X0435208Y0235800D02*
X0263808Y0235800D01*
X0246508Y0218500D01*
X0202208Y0363800D02*
X0202563Y0364154D01*
X0245909Y0364154D01*
X0245909Y0370099D01*
X0245208Y0370800D01*
X0245208Y0376800D02*
X0245909Y0378501D01*
X0245909Y0383446D01*
X0258507Y0383446D02*
X0258507Y0378501D01*
X0259208Y0376800D01*
X0258507Y0364154D02*
X0262563Y0364154D01*
X0281854Y0383446D01*
X0285909Y0383446D01*
X0298507Y0383446D02*
X0298507Y0378501D01*
X0299208Y0376800D01*
X0298507Y0364154D02*
X0302563Y0364154D01*
X0321854Y0383446D01*
X0325909Y0383446D01*
X0338507Y0383446D02*
X0338507Y0378501D01*
X0339208Y0376800D01*
X0338507Y0364154D02*
X0342563Y0364154D01*
X0361854Y0383446D01*
X0365909Y0383446D01*
X0378507Y0383446D02*
X0378507Y0378501D01*
X0379208Y0376800D01*
X0378507Y0364154D02*
X0382563Y0364154D01*
X0401854Y0383446D01*
X0405909Y0383446D01*
X0418507Y0383446D02*
X0418507Y0378501D01*
X0419208Y0376800D01*
X0419208Y0370800D02*
X0418507Y0370099D01*
X0418507Y0364154D01*
X0418208Y0363855D01*
X0405909Y0364154D02*
X0405909Y0370099D01*
X0405208Y0370800D01*
X0365909Y0371099D02*
X0365909Y0364154D01*
X0365909Y0371099D02*
X0365208Y0371800D01*
X0325909Y0371099D02*
X0325909Y0364154D01*
X0325909Y0371099D02*
X0325208Y0371800D01*
X0285909Y0371099D02*
X0285909Y0364154D01*
X0285909Y0371099D02*
X0285208Y0371800D01*
X0526777Y0150368D02*
X0541269Y0150368D01*
D23*
X0499208Y0111800D03*
X0522208Y0076800D03*
X0406208Y0027800D03*
X0407208Y0022800D03*
X0368208Y0069800D03*
X0230708Y0040300D03*
X0188208Y0076800D03*
X0194208Y0091800D03*
X0228208Y0084800D03*
X0201208Y0125800D03*
X0212208Y0140800D03*
X0224208Y0132800D03*
X0196208Y0156800D03*
X0246508Y0218500D03*
X0435208Y0235800D03*
X0452208Y0243800D03*
X0457208Y0249800D03*
X0419208Y0370800D03*
X0419208Y0376800D03*
X0405208Y0370800D03*
X0379208Y0376800D03*
X0365208Y0371800D03*
X0339208Y0376800D03*
X0325208Y0371800D03*
X0299208Y0376800D03*
X0285208Y0371800D03*
X0259208Y0376800D03*
X0245208Y0376800D03*
X0245208Y0370800D03*
X0202208Y0363800D03*
M02*
