G75*
%MOIN*%
%OFA0B0*%
%FSLAX25Y25*%
%IPPOS*%
%LPD*%
%AMOC8*
5,1,8,0,0,1.08239X$1,22.5*
%
%ADD10R,0.08674X0.06706*%
%ADD11R,0.06706X0.08674*%
%ADD12OC8,0.07600*%
%ADD13C,0.05800*%
%ADD14C,0.06737*%
%ADD15R,0.06737X0.06737*%
%ADD16R,0.07898X0.07099*%
%ADD17R,0.05400X0.07100*%
%ADD18R,0.08400X0.08400*%
%ADD19C,0.08400*%
%ADD20R,0.22847X0.09068*%
%ADD21R,0.05524X0.10643*%
%ADD22C,0.04343*%
%ADD23R,0.05600X0.09600*%
%ADD24R,0.14973X0.09461*%
%ADD25R,0.03950X0.06312*%
%ADD26C,0.06600*%
%ADD27R,0.03937X0.06299*%
%ADD28C,0.06343*%
%ADD29C,0.07800*%
%ADD30C,0.04762*%
D10*
X0210208Y0096894D03*
X0210208Y0108706D03*
X0252208Y0367894D03*
X0252208Y0379706D03*
X0292208Y0379706D03*
X0292208Y0367894D03*
X0332208Y0367894D03*
X0332208Y0379706D03*
X0372208Y0379706D03*
X0372208Y0367894D03*
X0412208Y0367894D03*
X0412208Y0379706D03*
D11*
X0333114Y0132800D03*
X0321303Y0132800D03*
X0200114Y0084800D03*
X0188303Y0084800D03*
X0140114Y0068800D03*
X0128303Y0068800D03*
X0326303Y0046800D03*
X0338114Y0046800D03*
D12*
X0119208Y0053800D03*
X0129208Y0053800D03*
X0139208Y0053800D03*
X0149208Y0053800D03*
X0149208Y0083800D03*
X0139208Y0083800D03*
X0129208Y0083800D03*
X0119208Y0083800D03*
X0451594Y0073954D03*
X0461594Y0073954D03*
X0471594Y0073954D03*
X0481594Y0073954D03*
X0481594Y0103954D03*
X0471594Y0103954D03*
X0461594Y0103954D03*
X0451594Y0103954D03*
D13*
X0427208Y0116300D02*
X0427208Y0121300D01*
X0417208Y0121300D02*
X0417208Y0116300D01*
X0407208Y0116300D02*
X0407208Y0121300D01*
X0397208Y0121300D02*
X0397208Y0116300D01*
X0387208Y0116300D02*
X0387208Y0121300D01*
X0377208Y0121300D02*
X0377208Y0116300D01*
X0367208Y0116300D02*
X0367208Y0121300D01*
X0357208Y0121300D02*
X0357208Y0116300D01*
X0347208Y0116300D02*
X0347208Y0121300D01*
X0337208Y0121300D02*
X0337208Y0116300D01*
X0327208Y0116300D02*
X0327208Y0121300D01*
X0317208Y0121300D02*
X0317208Y0116300D01*
X0307208Y0116300D02*
X0307208Y0121300D01*
X0297208Y0121300D02*
X0297208Y0116300D01*
X0287208Y0116300D02*
X0287208Y0121300D01*
X0277208Y0121300D02*
X0277208Y0116300D01*
X0267208Y0116300D02*
X0267208Y0121300D01*
X0257208Y0121300D02*
X0257208Y0116300D01*
X0247208Y0116300D02*
X0247208Y0121300D01*
X0237208Y0121300D02*
X0237208Y0116300D01*
X0237208Y0061300D02*
X0237208Y0056300D01*
X0247208Y0056300D02*
X0247208Y0061300D01*
X0257208Y0061300D02*
X0257208Y0056300D01*
X0267208Y0056300D02*
X0267208Y0061300D01*
X0277208Y0061300D02*
X0277208Y0056300D01*
X0287208Y0056300D02*
X0287208Y0061300D01*
X0297208Y0061300D02*
X0297208Y0056300D01*
X0307208Y0056300D02*
X0307208Y0061300D01*
X0317208Y0061300D02*
X0317208Y0056300D01*
X0327208Y0056300D02*
X0327208Y0061300D01*
X0337208Y0061300D02*
X0337208Y0056300D01*
X0347208Y0056300D02*
X0347208Y0061300D01*
X0357208Y0061300D02*
X0357208Y0056300D01*
X0367208Y0056300D02*
X0367208Y0061300D01*
X0377208Y0061300D02*
X0377208Y0056300D01*
X0387208Y0056300D02*
X0387208Y0061300D01*
X0397208Y0061300D02*
X0397208Y0056300D01*
X0407208Y0056300D02*
X0407208Y0061300D01*
X0417208Y0061300D02*
X0417208Y0056300D01*
X0427208Y0056300D02*
X0427208Y0061300D01*
D14*
X0541269Y0150368D03*
X0532617Y0155383D03*
X0491708Y0203800D03*
X0491708Y0213800D03*
X0491708Y0223800D03*
X0491708Y0233800D03*
X0491708Y0243800D03*
X0491708Y0253800D03*
X0454508Y0214800D03*
X0454508Y0204800D03*
X0454508Y0194800D03*
X0541153Y0332681D03*
X0547884Y0340078D03*
X0207808Y0239800D03*
X0207808Y0229800D03*
X0207808Y0219800D03*
X0207799Y0209800D03*
X0207808Y0199800D03*
X0207808Y0189800D03*
X0207808Y0179800D03*
X0207808Y0169800D03*
X0173708Y0203800D03*
X0173708Y0213800D03*
X0173708Y0223800D03*
X0173708Y0233800D03*
X0173708Y0243800D03*
X0173708Y0253800D03*
X0124263Y0332681D03*
X0117533Y0340078D03*
X0132799Y0155383D03*
X0124148Y0150368D03*
D15*
X0207808Y0249800D03*
X0454508Y0224800D03*
D16*
X0515638Y0180064D03*
X0515638Y0168867D03*
X0524767Y0096052D03*
X0509208Y0095595D03*
X0509208Y0084398D03*
X0524767Y0084855D03*
X0427208Y0083202D03*
X0417208Y0083202D03*
X0407208Y0083398D03*
X0397208Y0083398D03*
X0387208Y0083398D03*
X0377208Y0083398D03*
X0377208Y0072202D03*
X0387208Y0072202D03*
X0397208Y0072202D03*
X0407208Y0072202D03*
X0417208Y0094398D03*
X0427208Y0094398D03*
X0257208Y0094398D03*
X0247208Y0094398D03*
X0247208Y0083202D03*
X0257208Y0083202D03*
X0237208Y0083398D03*
X0237208Y0072202D03*
D17*
X0218208Y0132800D03*
X0212208Y0132800D03*
X0206208Y0132800D03*
D18*
X0435208Y0147300D03*
D19*
X0435208Y0132300D03*
D20*
X0350866Y0081981D03*
X0313464Y0081981D03*
D21*
X0208051Y0051721D03*
X0198208Y0051721D03*
X0188366Y0051721D03*
X0449366Y0051721D03*
X0459208Y0051721D03*
X0469051Y0051721D03*
D22*
X0472594Y0040894D03*
X0445822Y0040894D03*
X0211594Y0040894D03*
X0184822Y0040894D03*
D23*
X0506746Y0111364D03*
X0515846Y0111364D03*
X0524946Y0111364D03*
D24*
X0515846Y0135765D03*
D25*
X0200118Y0097725D03*
X0188315Y0097725D03*
D26*
X0193116Y0113510D02*
X0195316Y0113510D01*
X0195316Y0104940D01*
X0193116Y0104940D01*
X0193116Y0113510D01*
X0193116Y0111539D02*
X0195316Y0111539D01*
D27*
X0194216Y0097729D03*
D28*
X0186653Y0140501D03*
X0179763Y0146800D03*
D29*
X0258429Y0011792D03*
X0268429Y0011792D03*
X0278429Y0011792D03*
X0288429Y0011792D03*
X0298429Y0011792D03*
X0308429Y0011792D03*
X0318429Y0011792D03*
X0328429Y0011792D03*
X0338429Y0011792D03*
X0348429Y0011792D03*
X0358429Y0011792D03*
X0368429Y0011792D03*
X0378429Y0011792D03*
X0388429Y0011792D03*
D30*
X0407208Y0022800D03*
X0406208Y0027800D03*
X0368208Y0069800D03*
X0499208Y0111800D03*
X0522208Y0076800D03*
X0435208Y0235800D03*
X0452208Y0243800D03*
X0457208Y0249800D03*
X0419208Y0370800D03*
X0419208Y0376800D03*
X0405208Y0370800D03*
X0379208Y0376800D03*
X0365208Y0371800D03*
X0339208Y0376800D03*
X0325208Y0371800D03*
X0299208Y0376800D03*
X0285208Y0371800D03*
X0259208Y0376800D03*
X0245208Y0376800D03*
X0245208Y0370800D03*
X0202208Y0363800D03*
X0246508Y0218500D03*
X0196208Y0156800D03*
X0212208Y0140800D03*
X0224208Y0132800D03*
X0201208Y0125800D03*
X0194208Y0091800D03*
X0188208Y0076800D03*
X0228208Y0084800D03*
X0230708Y0040300D03*
M02*
