G75*
%MOIN*%
%OFA0B0*%
%FSLAX25Y25*%
%IPPOS*%
%LPD*%
%AMOC8*
5,1,8,0,0,1.08239X$1,22.5*
%
%ADD10R,0.04737X0.06706*%
%ADD11OC8,0.07600*%
%ADD12C,0.05800*%
%ADD13C,0.06737*%
%ADD14R,0.06737X0.06737*%
%ADD15R,0.08400X0.08400*%
%ADD16C,0.08400*%
%ADD17C,0.04343*%
%ADD18R,0.06902X0.05918*%
%ADD19C,0.06343*%
%ADD20C,0.07800*%
%ADD21C,0.04762*%
D10*
X0245909Y0364154D03*
X0258507Y0364154D03*
X0258507Y0383446D03*
X0245909Y0383446D03*
X0285909Y0383446D03*
X0298507Y0383446D03*
X0298507Y0364154D03*
X0285909Y0364154D03*
X0325909Y0364154D03*
X0338507Y0364154D03*
X0338507Y0383446D03*
X0325909Y0383446D03*
X0365909Y0383446D03*
X0378507Y0383446D03*
X0378507Y0364154D03*
X0365909Y0364154D03*
X0405909Y0364154D03*
X0418507Y0364154D03*
X0418507Y0383446D03*
X0405909Y0383446D03*
D11*
X0119208Y0053800D03*
X0129208Y0053800D03*
X0139208Y0053800D03*
X0149208Y0053800D03*
X0149208Y0083800D03*
X0139208Y0083800D03*
X0129208Y0083800D03*
X0119208Y0083800D03*
X0451594Y0073954D03*
X0461594Y0073954D03*
X0471594Y0073954D03*
X0481594Y0073954D03*
X0481594Y0103954D03*
X0471594Y0103954D03*
X0461594Y0103954D03*
X0451594Y0103954D03*
D12*
X0427208Y0116300D02*
X0427208Y0121300D01*
X0417208Y0121300D02*
X0417208Y0116300D01*
X0407208Y0116300D02*
X0407208Y0121300D01*
X0397208Y0121300D02*
X0397208Y0116300D01*
X0387208Y0116300D02*
X0387208Y0121300D01*
X0377208Y0121300D02*
X0377208Y0116300D01*
X0367208Y0116300D02*
X0367208Y0121300D01*
X0357208Y0121300D02*
X0357208Y0116300D01*
X0347208Y0116300D02*
X0347208Y0121300D01*
X0337208Y0121300D02*
X0337208Y0116300D01*
X0327208Y0116300D02*
X0327208Y0121300D01*
X0317208Y0121300D02*
X0317208Y0116300D01*
X0307208Y0116300D02*
X0307208Y0121300D01*
X0297208Y0121300D02*
X0297208Y0116300D01*
X0287208Y0116300D02*
X0287208Y0121300D01*
X0277208Y0121300D02*
X0277208Y0116300D01*
X0267208Y0116300D02*
X0267208Y0121300D01*
X0257208Y0121300D02*
X0257208Y0116300D01*
X0247208Y0116300D02*
X0247208Y0121300D01*
X0237208Y0121300D02*
X0237208Y0116300D01*
X0237208Y0061300D02*
X0237208Y0056300D01*
X0247208Y0056300D02*
X0247208Y0061300D01*
X0257208Y0061300D02*
X0257208Y0056300D01*
X0267208Y0056300D02*
X0267208Y0061300D01*
X0277208Y0061300D02*
X0277208Y0056300D01*
X0287208Y0056300D02*
X0287208Y0061300D01*
X0297208Y0061300D02*
X0297208Y0056300D01*
X0307208Y0056300D02*
X0307208Y0061300D01*
X0317208Y0061300D02*
X0317208Y0056300D01*
X0327208Y0056300D02*
X0327208Y0061300D01*
X0337208Y0061300D02*
X0337208Y0056300D01*
X0347208Y0056300D02*
X0347208Y0061300D01*
X0357208Y0061300D02*
X0357208Y0056300D01*
X0367208Y0056300D02*
X0367208Y0061300D01*
X0377208Y0061300D02*
X0377208Y0056300D01*
X0387208Y0056300D02*
X0387208Y0061300D01*
X0397208Y0061300D02*
X0397208Y0056300D01*
X0407208Y0056300D02*
X0407208Y0061300D01*
X0417208Y0061300D02*
X0417208Y0056300D01*
X0427208Y0056300D02*
X0427208Y0061300D01*
D13*
X0541269Y0150368D03*
X0532617Y0155383D03*
X0491708Y0203800D03*
X0491708Y0213800D03*
X0491708Y0223800D03*
X0491708Y0233800D03*
X0491708Y0243800D03*
X0491708Y0253800D03*
X0454508Y0214800D03*
X0454508Y0204800D03*
X0454508Y0194800D03*
X0541153Y0332681D03*
X0547884Y0340078D03*
X0207808Y0239800D03*
X0207808Y0229800D03*
X0207808Y0219800D03*
X0207799Y0209800D03*
X0207808Y0199800D03*
X0207808Y0189800D03*
X0207808Y0179800D03*
X0207808Y0169800D03*
X0173708Y0203800D03*
X0173708Y0213800D03*
X0173708Y0223800D03*
X0173708Y0233800D03*
X0173708Y0243800D03*
X0173708Y0253800D03*
X0124263Y0332681D03*
X0117533Y0340078D03*
X0132799Y0155383D03*
X0124148Y0150368D03*
D14*
X0207808Y0249800D03*
X0454508Y0224800D03*
D15*
X0435208Y0147300D03*
D16*
X0435208Y0132300D03*
D17*
X0445822Y0040894D03*
X0472594Y0040894D03*
X0211594Y0040894D03*
X0184822Y0040894D03*
D18*
X0174444Y0059548D03*
X0174444Y0077265D03*
X0205783Y0077265D03*
X0205783Y0059548D03*
D19*
X0186653Y0140501D03*
X0179763Y0146800D03*
D20*
X0258429Y0011792D03*
X0268429Y0011792D03*
X0278429Y0011792D03*
X0288429Y0011792D03*
X0298429Y0011792D03*
X0308429Y0011792D03*
X0318429Y0011792D03*
X0328429Y0011792D03*
X0338429Y0011792D03*
X0348429Y0011792D03*
X0358429Y0011792D03*
X0368429Y0011792D03*
X0378429Y0011792D03*
X0388429Y0011792D03*
D21*
X0407208Y0022800D03*
X0406208Y0027800D03*
X0368208Y0069800D03*
X0499208Y0111800D03*
X0522208Y0076800D03*
X0435208Y0235800D03*
X0452208Y0243800D03*
X0457208Y0249800D03*
X0419208Y0370800D03*
X0419208Y0376800D03*
X0405208Y0370800D03*
X0379208Y0376800D03*
X0365208Y0371800D03*
X0339208Y0376800D03*
X0325208Y0371800D03*
X0299208Y0376800D03*
X0285208Y0371800D03*
X0259208Y0376800D03*
X0245208Y0376800D03*
X0245208Y0370800D03*
X0202208Y0363800D03*
X0246508Y0218500D03*
X0196208Y0156800D03*
X0212208Y0140800D03*
X0224208Y0132800D03*
X0201208Y0125800D03*
X0194208Y0091800D03*
X0188208Y0076800D03*
X0228208Y0084800D03*
X0230708Y0040300D03*
M02*
