%
M48
M72
T01C0.02362
T02C0.02756
T03C0.03200
T04C0.03543
T05C0.03937
%
T01
X188208Y76800
X194208Y91800
X228208Y84800
X230708Y40300
X201208Y125800
X212208Y140800
X224208Y132800
X196208Y156800
X246508Y218500
X435208Y235800
X452208Y243800
X457208Y249800
X419208Y370800
X419208Y376800
X405208Y370800
X379208Y376800
X365208Y371800
X339208Y376800
X325208Y371800
X299208Y376800
X285208Y371800
X259208Y376800
X245208Y376800
X245208Y370800
X202208Y363800
X499208Y111800
X522208Y76800
X406208Y27800
X407208Y22800
X368208Y69800
T02
X367208Y58800
X377208Y58800
X387208Y58800
X397208Y58800
X407208Y58800
X417208Y58800
X427208Y58800
X357208Y58800
X347208Y58800
X337208Y58800
X327208Y58800
X317208Y58800
X307208Y58800
X297208Y58800
X287208Y58800
X277208Y58800
X267208Y58800
X257208Y58800
X247208Y58800
X237208Y58800
X237208Y118800
X247208Y118800
X257208Y118800
X267208Y118800
X277208Y118800
X287208Y118800
X297208Y118800
X307208Y118800
X317208Y118800
X327208Y118800
X337208Y118800
X347208Y118800
X357208Y118800
X367208Y118800
X377208Y118800
X387208Y118800
X397208Y118800
X407208Y118800
X417208Y118800
X427208Y118800
T03
X119208Y53800
X129208Y53800
X139208Y53800
X149208Y53800
X149208Y83800
X139208Y83800
X129208Y83800
X119208Y83800
X451594Y73954
X461594Y73954
X471594Y73954
X481594Y73954
X481594Y103954
X471594Y103954
X461594Y103954
X451594Y103954
T04
X445822Y40894
X472594Y40894
X211594Y40894
X184822Y40894
X186653Y140501
X179763Y146800
T05
X207808Y169800
X207808Y179800
X207808Y189800
X207808Y199800
X207799Y209800
X207808Y219800
X207808Y229800
X207808Y239800
X207808Y249800
X173708Y253800
X173708Y243800
X173708Y233800
X173708Y223800
X173708Y213800
X173708Y203800
X132799Y155383
X124148Y150368
X258429Y11792
X268429Y11792
X278429Y11792
X288429Y11792
X298429Y11792
X308429Y11792
X318429Y11792
X328429Y11792
X338429Y11792
X348429Y11792
X358429Y11792
X368429Y11792
X378429Y11792
X388429Y11792
X435208Y132300
X435208Y147300
X454508Y194800
X454508Y204800
X454508Y214800
X454508Y224800
X491708Y223800
X491708Y213800
X491708Y203800
X491708Y233800
X491708Y243800
X491708Y253800
X541153Y332681
X547884Y340078
X532617Y155383
X541269Y150368
X124263Y332681
X117533Y340078
M30
