G75*
%MOIN*%
%OFA0B0*%
%FSLAX25Y25*%
%IPPOS*%
%LPD*%
%AMOC8*
5,1,8,0,0,1.08239X$1,22.5*
%
%ADD10C,0.01600*%
%ADD11C,0.01000*%
D10*
X0256208Y0374800D02*
X0252208Y0378800D01*
X0256208Y0378800D01*
X0256208Y0374800D01*
X0256208Y0376068D02*
X0254941Y0376068D01*
X0256208Y0377666D02*
X0253342Y0377666D01*
X0292208Y0378800D02*
X0296208Y0374800D01*
X0296208Y0378800D01*
X0292208Y0378800D01*
X0293342Y0377666D02*
X0296208Y0377666D01*
X0296208Y0376068D02*
X0294941Y0376068D01*
X0332208Y0378800D02*
X0336208Y0374800D01*
X0336208Y0378800D01*
X0332208Y0378800D01*
X0333342Y0377666D02*
X0336208Y0377666D01*
X0336208Y0376068D02*
X0334941Y0376068D01*
X0372208Y0378800D02*
X0376208Y0374800D01*
X0376208Y0378800D01*
X0372208Y0378800D01*
X0373342Y0377666D02*
X0376208Y0377666D01*
X0376208Y0376068D02*
X0374941Y0376068D01*
X0412208Y0378800D02*
X0416208Y0374800D01*
X0416208Y0378800D01*
X0412208Y0378800D01*
X0413342Y0377666D02*
X0416208Y0377666D01*
X0416208Y0376068D02*
X0414941Y0376068D01*
D11*
X0106588Y0094431D02*
X0098371Y0059925D01*
X0124148Y0035557D01*
X0158134Y0045694D01*
X0166352Y0080199D01*
X0140577Y0104567D01*
X0106588Y0094431D01*
X0106488Y0094008D02*
X0151745Y0094008D01*
X0152801Y0093010D02*
X0106250Y0093010D01*
X0106012Y0092011D02*
X0153857Y0092011D01*
X0154913Y0091013D02*
X0105774Y0091013D01*
X0105537Y0090014D02*
X0155970Y0090014D01*
X0157026Y0089016D02*
X0105299Y0089016D01*
X0105061Y0088017D02*
X0158082Y0088017D01*
X0159138Y0087019D02*
X0151505Y0087019D01*
X0151417Y0087106D02*
X0149984Y0087700D01*
X0148433Y0087700D01*
X0146999Y0087106D01*
X0145902Y0086009D01*
X0145308Y0084576D01*
X0145308Y0083024D01*
X0145902Y0081591D01*
X0146999Y0080494D01*
X0148433Y0079900D01*
X0149984Y0079900D01*
X0151417Y0080494D01*
X0152515Y0081591D01*
X0153108Y0083024D01*
X0153108Y0084576D01*
X0152515Y0086009D01*
X0151417Y0087106D01*
X0152503Y0086020D02*
X0160194Y0086020D01*
X0161250Y0085022D02*
X0152923Y0085022D01*
X0153108Y0084023D02*
X0162307Y0084023D01*
X0163363Y0083025D02*
X0153108Y0083025D01*
X0152695Y0082026D02*
X0164419Y0082026D01*
X0165475Y0081028D02*
X0151951Y0081028D01*
X0150794Y0079800D02*
X0153794Y0079800D01*
X0154622Y0079800D01*
X0155208Y0079214D01*
X0155208Y0075386D01*
X0154622Y0074800D01*
X0153794Y0074800D01*
X0153208Y0075386D01*
X0153208Y0077800D01*
X0150794Y0077800D01*
X0150208Y0078386D01*
X0150208Y0079214D01*
X0150794Y0079800D01*
X0150296Y0080029D02*
X0166312Y0080029D01*
X0166074Y0079031D02*
X0155208Y0079031D01*
X0155208Y0078032D02*
X0165836Y0078032D01*
X0165598Y0077034D02*
X0155208Y0077034D01*
X0155208Y0076035D02*
X0165360Y0076035D01*
X0165122Y0075037D02*
X0154859Y0075037D01*
X0153557Y0075037D02*
X0114859Y0075037D01*
X0114622Y0074800D02*
X0115208Y0075386D01*
X0115208Y0077800D01*
X0117622Y0077800D01*
X0118208Y0078386D01*
X0118208Y0079214D01*
X0117622Y0079800D01*
X0113794Y0079800D01*
X0113208Y0079214D01*
X0113208Y0075386D01*
X0113794Y0074800D01*
X0114622Y0074800D01*
X0114272Y0073782D02*
X0114092Y0073700D01*
X0113894Y0073700D01*
X0113729Y0073535D01*
X0113517Y0073439D01*
X0113448Y0073254D01*
X0113308Y0073114D01*
X0113308Y0072881D01*
X0113227Y0072663D01*
X0113308Y0072483D01*
X0113308Y0065403D01*
X0113246Y0065310D01*
X0113308Y0065001D01*
X0113308Y0064686D01*
X0113387Y0064607D01*
X0113409Y0064498D01*
X0113671Y0064323D01*
X0113894Y0064100D01*
X0114005Y0064100D01*
X0114098Y0064038D01*
X0114407Y0064100D01*
X0114722Y0064100D01*
X0114801Y0064179D01*
X0115284Y0064275D01*
X0115468Y0064229D01*
X0115674Y0064353D01*
X0115911Y0064401D01*
X0116016Y0064558D01*
X0116561Y0064885D01*
X0116669Y0064880D01*
X0116905Y0065092D01*
X0117178Y0065256D01*
X0117204Y0065361D01*
X0117792Y0065890D01*
X0117953Y0065930D01*
X0118089Y0066157D01*
X0118285Y0066334D01*
X0118294Y0066499D01*
X0118702Y0067180D01*
X0118908Y0067386D01*
X0118908Y0067523D01*
X0118979Y0067641D01*
X0118908Y0067923D01*
X0118908Y0068588D01*
X0118966Y0068671D01*
X0118908Y0068990D01*
X0118908Y0069314D01*
X0118836Y0069386D01*
X0118734Y0069949D01*
X0118784Y0070124D01*
X0118663Y0070341D01*
X0118618Y0070586D01*
X0118469Y0070689D01*
X0118228Y0071123D01*
X0118237Y0071236D01*
X0118033Y0071474D01*
X0117881Y0071748D01*
X0117772Y0071779D01*
X0117538Y0072052D01*
X0117508Y0072202D01*
X0117278Y0072356D01*
X0117098Y0072565D01*
X0116946Y0072577D01*
X0116827Y0072656D01*
X0116793Y0072746D01*
X0116492Y0072879D01*
X0116218Y0073062D01*
X0116124Y0073043D01*
X0115861Y0073160D01*
X0115847Y0073191D01*
X0115487Y0073326D01*
X0115136Y0073482D01*
X0115104Y0073470D01*
X0114862Y0073560D01*
X0114722Y0073700D01*
X0114490Y0073700D01*
X0114272Y0073782D01*
X0113308Y0073040D02*
X0101494Y0073040D01*
X0101732Y0074038D02*
X0164885Y0074038D01*
X0164647Y0073040D02*
X0116252Y0073040D01*
X0117547Y0072041D02*
X0164409Y0072041D01*
X0164171Y0071043D02*
X0118273Y0071043D01*
X0118761Y0070044D02*
X0163933Y0070044D01*
X0163696Y0069046D02*
X0118908Y0069046D01*
X0118908Y0068047D02*
X0163458Y0068047D01*
X0163220Y0067049D02*
X0118624Y0067049D01*
X0118025Y0066050D02*
X0162982Y0066050D01*
X0162744Y0065052D02*
X0116860Y0065052D01*
X0114173Y0064053D02*
X0162506Y0064053D01*
X0162269Y0063055D02*
X0099116Y0063055D01*
X0099354Y0064053D02*
X0114076Y0064053D01*
X0113298Y0065052D02*
X0099592Y0065052D01*
X0099830Y0066050D02*
X0113308Y0066050D01*
X0113308Y0067049D02*
X0100068Y0067049D01*
X0100305Y0068047D02*
X0113308Y0068047D01*
X0113308Y0069046D02*
X0100543Y0069046D01*
X0100781Y0070044D02*
X0113308Y0070044D01*
X0113308Y0071043D02*
X0101019Y0071043D01*
X0101256Y0072041D02*
X0113308Y0072041D01*
X0113557Y0075037D02*
X0101970Y0075037D01*
X0102208Y0076035D02*
X0113208Y0076035D01*
X0113208Y0077034D02*
X0102445Y0077034D01*
X0102683Y0078032D02*
X0113208Y0078032D01*
X0113208Y0079031D02*
X0102921Y0079031D01*
X0103159Y0080029D02*
X0118120Y0080029D01*
X0118433Y0079900D02*
X0119984Y0079900D01*
X0121417Y0080494D01*
X0122515Y0081591D01*
X0123108Y0083024D01*
X0123108Y0084576D01*
X0122515Y0086009D01*
X0121417Y0087106D01*
X0119984Y0087700D01*
X0118433Y0087700D01*
X0116999Y0087106D01*
X0115902Y0086009D01*
X0115308Y0084576D01*
X0115308Y0083024D01*
X0115902Y0081591D01*
X0116999Y0080494D01*
X0118433Y0079900D01*
X0118208Y0079031D02*
X0150208Y0079031D01*
X0150562Y0078032D02*
X0117855Y0078032D01*
X0115208Y0077034D02*
X0153208Y0077034D01*
X0153208Y0076035D02*
X0115208Y0076035D01*
X0116465Y0081028D02*
X0103396Y0081028D01*
X0103634Y0082026D02*
X0115722Y0082026D01*
X0115308Y0083025D02*
X0103872Y0083025D01*
X0104110Y0084023D02*
X0115308Y0084023D01*
X0115493Y0085022D02*
X0104348Y0085022D01*
X0104585Y0086020D02*
X0115913Y0086020D01*
X0116912Y0087019D02*
X0104823Y0087019D01*
X0108520Y0095007D02*
X0150689Y0095007D01*
X0149633Y0096005D02*
X0111869Y0096005D01*
X0115217Y0097004D02*
X0148576Y0097004D01*
X0147520Y0098002D02*
X0118565Y0098002D01*
X0121913Y0099001D02*
X0146464Y0099001D01*
X0145408Y0099999D02*
X0125261Y0099999D01*
X0128609Y0100998D02*
X0144352Y0100998D01*
X0143296Y0101997D02*
X0131958Y0101997D01*
X0135306Y0102995D02*
X0142239Y0102995D01*
X0141183Y0103994D02*
X0138654Y0103994D01*
X0149407Y0119730D02*
X0148931Y0120068D01*
X0148519Y0120530D01*
X0148166Y0121125D01*
X0139977Y0137854D01*
X0139723Y0138498D01*
X0139611Y0139107D01*
X0139636Y0139690D01*
X0139791Y0140261D01*
X0140073Y0140830D01*
X0140475Y0141409D01*
X0140993Y0142010D01*
X0141621Y0142644D01*
X0149469Y0151291D01*
X0148828Y0153379D01*
X0148226Y0155481D01*
X0147663Y0157596D01*
X0147140Y0159724D01*
X0146656Y0161865D01*
X0146213Y0164018D01*
X0145811Y0166182D01*
X0145449Y0168358D01*
X0134584Y0172602D01*
X0133739Y0172890D01*
X0133007Y0173197D01*
X0132389Y0173536D01*
X0131884Y0173920D01*
X0131491Y0174362D01*
X0131209Y0174873D01*
X0131038Y0175467D01*
X0130978Y0176157D01*
X0130860Y0194782D01*
X0130911Y0195473D01*
X0131074Y0196070D01*
X0131349Y0196586D01*
X0131737Y0197033D01*
X0132237Y0197425D01*
X0132851Y0197773D01*
X0133579Y0198091D01*
X0134420Y0198391D01*
X0145259Y0202779D01*
X0145587Y0204933D01*
X0145947Y0207089D01*
X0146349Y0209246D01*
X0146800Y0211403D01*
X0147302Y0213544D01*
X0147847Y0215663D01*
X0148430Y0217763D01*
X0149042Y0219847D01*
X0141070Y0228403D01*
X0140435Y0229031D01*
X0139910Y0229626D01*
X0139500Y0230201D01*
X0139212Y0230767D01*
X0139049Y0231336D01*
X0139018Y0231919D01*
X0139122Y0232530D01*
X0139367Y0233178D01*
X0147341Y0250011D01*
X0147687Y0250611D01*
X0148093Y0251077D01*
X0148565Y0251422D01*
X0149107Y0251656D01*
X0149728Y0251791D01*
X0150431Y0251838D01*
X0151224Y0251809D01*
X0152112Y0251714D01*
X0163750Y0250970D01*
X0164998Y0252788D01*
X0166277Y0254580D01*
X0167588Y0256343D01*
X0168930Y0258079D01*
X0170303Y0259787D01*
X0171706Y0261467D01*
X0173139Y0263117D01*
X0174602Y0264739D01*
X0171142Y0275892D01*
X0170842Y0276731D01*
X0170627Y0277495D01*
X0170507Y0278190D01*
X0170493Y0278824D01*
X0170593Y0279407D01*
X0170817Y0279947D01*
X0171175Y0280451D01*
X0171677Y0280928D01*
X0186167Y0292633D01*
X0186739Y0293024D01*
X0187307Y0293268D01*
X0187881Y0293374D01*
X0188472Y0293349D01*
X0189089Y0293201D01*
X0189744Y0292938D01*
X0190446Y0292567D01*
X0191205Y0292097D01*
X0201388Y0286364D01*
X0203285Y0287455D01*
X0205202Y0288511D01*
X0207139Y0289531D01*
X0209095Y0290515D01*
X0211070Y0291463D01*
X0213064Y0292373D01*
X0215076Y0293246D01*
X0217106Y0294081D01*
X0218820Y0305611D01*
X0218914Y0306499D01*
X0219052Y0307281D01*
X0219246Y0307959D01*
X0219508Y0308538D01*
X0219851Y0309020D01*
X0220287Y0309409D01*
X0220829Y0309707D01*
X0221488Y0309920D01*
X0239621Y0314181D01*
X0240306Y0314284D01*
X0240923Y0314257D01*
X0241487Y0314103D01*
X0242008Y0313824D01*
X0242501Y0313424D01*
X0242976Y0312903D01*
X0243448Y0312264D01*
X0243927Y0311511D01*
X0250581Y0301976D01*
X0252754Y0302133D01*
X0254934Y0302249D01*
X0257121Y0302323D01*
X0259315Y0302355D01*
X0261515Y0302346D01*
X0263720Y0302294D01*
X0265931Y0302201D01*
X0268146Y0302065D01*
X0274695Y0311706D01*
X0275165Y0312465D01*
X0275628Y0313109D01*
X0276096Y0313637D01*
X0276584Y0314044D01*
X0277102Y0314329D01*
X0277664Y0314490D01*
X0278281Y0314524D01*
X0278967Y0314428D01*
X0297152Y0310397D01*
X0297813Y0310194D01*
X0298358Y0309902D01*
X0298799Y0309520D01*
X0299148Y0309043D01*
X0299418Y0308468D01*
X0299620Y0307792D01*
X0299769Y0307012D01*
X0299874Y0306125D01*
X0301734Y0294620D01*
X0303797Y0293808D01*
X0305838Y0292960D01*
X0307857Y0292076D01*
X0309852Y0291156D01*
X0311825Y0290200D01*
X0313774Y0289210D01*
X0315698Y0288185D01*
X0317599Y0287126D01*
X0327656Y0292958D01*
X0328410Y0293439D01*
X0329107Y0293818D01*
X0329758Y0294089D01*
X0330374Y0294245D01*
X0330965Y0294277D01*
X0331541Y0294178D01*
X0332111Y0293941D01*
X0332688Y0293558D01*
X0347321Y0282037D01*
X0347830Y0281567D01*
X0348194Y0281067D01*
X0348426Y0280530D01*
X0348534Y0279949D01*
X0348528Y0279314D01*
X0348417Y0278618D01*
X0348212Y0277851D01*
X0347921Y0277007D01*
X0344606Y0265831D01*
X0346094Y0264217D01*
X0347549Y0262577D01*
X0348971Y0260909D01*
X0350362Y0259216D01*
X0351719Y0257497D01*
X0353044Y0255754D01*
X0354337Y0253987D01*
X0355596Y0252196D01*
X0367245Y0253092D01*
X0368131Y0253198D01*
X0368924Y0253237D01*
X0369628Y0253199D01*
X0370250Y0253072D01*
X0370796Y0252845D01*
X0371272Y0252506D01*
X0371683Y0252044D01*
X0372035Y0251449D01*
X0380227Y0234721D01*
X0380481Y0234076D01*
X0380593Y0233468D01*
X0380569Y0232885D01*
X0380414Y0232314D01*
X0380133Y0231745D01*
X0379731Y0231165D01*
X0379215Y0230563D01*
X0378588Y0229928D01*
X0370738Y0221283D01*
X0371379Y0219195D01*
X0371980Y0217093D01*
X0372543Y0214977D01*
X0373066Y0212849D01*
X0373549Y0210709D01*
X0373993Y0208556D01*
X0374395Y0206392D01*
X0374757Y0204217D01*
X0385623Y0199976D01*
X0386467Y0199687D01*
X0387198Y0199379D01*
X0387815Y0199039D01*
X0388321Y0198654D01*
X0388714Y0198213D01*
X0388996Y0197701D01*
X0389167Y0197106D01*
X0389227Y0196415D01*
X0389344Y0177791D01*
X0389293Y0177099D01*
X0389130Y0176502D01*
X0388855Y0175986D01*
X0388468Y0175539D01*
X0387967Y0175148D01*
X0387354Y0174801D01*
X0386626Y0174484D01*
X0385785Y0174185D01*
X0374945Y0169796D01*
X0374617Y0167641D01*
X0374257Y0165486D01*
X0373856Y0163330D01*
X0373405Y0161172D01*
X0372903Y0159031D01*
X0372357Y0156911D01*
X0371776Y0154811D01*
X0371165Y0152725D01*
X0379134Y0144167D01*
X0379770Y0143540D01*
X0380295Y0142945D01*
X0380704Y0142370D01*
X0380993Y0141805D01*
X0381155Y0141236D01*
X0381187Y0140653D01*
X0381082Y0140043D01*
X0380837Y0139396D01*
X0372865Y0122563D01*
X0372519Y0121963D01*
X0372113Y0121496D01*
X0371641Y0121151D01*
X0371099Y0120917D01*
X0370479Y0120781D01*
X0370371Y0120774D01*
X0370326Y0120883D01*
X0369292Y0121918D01*
X0367940Y0122478D01*
X0366477Y0122478D01*
X0365125Y0121918D01*
X0364306Y0121100D01*
X0359823Y0121387D01*
X0359292Y0121918D01*
X0357940Y0122478D01*
X0356477Y0122478D01*
X0355125Y0121918D01*
X0354090Y0120883D01*
X0353530Y0119532D01*
X0353530Y0118068D01*
X0353692Y0117678D01*
X0352615Y0116230D01*
X0351273Y0114494D01*
X0349900Y0112787D01*
X0348496Y0111108D01*
X0347063Y0109458D01*
X0345599Y0107836D01*
X0349063Y0096682D01*
X0349363Y0095842D01*
X0349578Y0095078D01*
X0349697Y0094383D01*
X0349712Y0093748D01*
X0349611Y0093166D01*
X0349387Y0092626D01*
X0349028Y0092122D01*
X0348527Y0091644D01*
X0334038Y0079942D01*
X0333466Y0079551D01*
X0332898Y0079306D01*
X0332323Y0079200D01*
X0331732Y0079225D01*
X0331115Y0079372D01*
X0330461Y0079636D01*
X0329759Y0080007D01*
X0329000Y0080479D01*
X0318816Y0086211D01*
X0316920Y0085120D01*
X0315003Y0084065D01*
X0313067Y0083044D01*
X0311111Y0082060D01*
X0309137Y0081112D01*
X0307143Y0080201D01*
X0305132Y0079328D01*
X0303103Y0078493D01*
X0301384Y0066964D01*
X0301291Y0066076D01*
X0301153Y0065294D01*
X0300959Y0064615D01*
X0300696Y0064036D01*
X0300353Y0063554D01*
X0299917Y0063165D01*
X0299376Y0062867D01*
X0298717Y0062654D01*
X0297949Y0062474D01*
X0297940Y0062478D01*
X0296477Y0062478D01*
X0295125Y0061918D01*
X0294984Y0061777D01*
X0290402Y0060701D01*
X0290326Y0060883D01*
X0289292Y0061918D01*
X0287940Y0062478D01*
X0286477Y0062478D01*
X0285125Y0061918D01*
X0284090Y0060883D01*
X0283530Y0059532D01*
X0283530Y0059086D01*
X0280886Y0058465D01*
X0280886Y0059532D01*
X0280326Y0060883D01*
X0279292Y0061918D01*
X0277940Y0062478D01*
X0276477Y0062478D01*
X0275556Y0062096D01*
X0269620Y0070599D01*
X0267448Y0070442D01*
X0265269Y0070326D01*
X0263082Y0070252D01*
X0260888Y0070219D01*
X0258689Y0070228D01*
X0256483Y0070278D01*
X0254272Y0070372D01*
X0252057Y0070507D01*
X0246605Y0062478D01*
X0246477Y0062478D01*
X0245125Y0061918D01*
X0244090Y0060883D01*
X0243530Y0059532D01*
X0243530Y0058480D01*
X0243103Y0058244D01*
X0242541Y0058084D01*
X0241924Y0058050D01*
X0241239Y0058146D01*
X0240886Y0058224D01*
X0240886Y0059532D01*
X0240326Y0060883D01*
X0239292Y0061918D01*
X0237940Y0062478D01*
X0236477Y0062478D01*
X0235208Y0061953D01*
X0235208Y0062214D01*
X0234622Y0062800D01*
X0231208Y0062800D01*
X0231208Y0066214D01*
X0230622Y0066800D01*
X0229794Y0066800D01*
X0229208Y0066214D01*
X0229208Y0061386D01*
X0229794Y0060800D01*
X0234056Y0060800D01*
X0233653Y0059827D01*
X0223053Y0062176D01*
X0222391Y0062380D01*
X0221846Y0062671D01*
X0221405Y0063054D01*
X0221056Y0063531D01*
X0220787Y0064106D01*
X0220584Y0064781D01*
X0220437Y0065561D01*
X0220333Y0066449D01*
X0218469Y0077953D01*
X0216406Y0078766D01*
X0214366Y0079615D01*
X0212348Y0080499D01*
X0210354Y0081419D01*
X0208382Y0082374D01*
X0206433Y0083365D01*
X0204509Y0084389D01*
X0202610Y0085449D01*
X0192546Y0079617D01*
X0191794Y0079137D01*
X0191097Y0078757D01*
X0190952Y0078696D01*
X0190067Y0079582D01*
X0188861Y0080081D01*
X0187556Y0080081D01*
X0186645Y0079704D01*
X0172880Y0090535D01*
X0172372Y0091006D01*
X0172007Y0091506D01*
X0171776Y0092042D01*
X0171669Y0092623D01*
X0171675Y0093258D01*
X0171786Y0093954D01*
X0171991Y0094720D01*
X0172281Y0095564D01*
X0175596Y0106746D01*
X0174110Y0108360D01*
X0172656Y0110000D01*
X0171233Y0111667D01*
X0169844Y0113360D01*
X0168487Y0115078D01*
X0167162Y0116820D01*
X0165870Y0118587D01*
X0164612Y0120376D01*
X0152959Y0119482D01*
X0152072Y0119376D01*
X0151280Y0119337D01*
X0150576Y0119375D01*
X0149954Y0119502D01*
X0149407Y0119730D01*
X0149070Y0119970D02*
X0159314Y0119970D01*
X0164898Y0119970D02*
X0233712Y0119970D01*
X0233530Y0119532D02*
X0233530Y0118068D01*
X0234056Y0116800D01*
X0229794Y0116800D01*
X0229208Y0116214D01*
X0229208Y0111386D01*
X0229794Y0110800D01*
X0230622Y0110800D01*
X0231208Y0111386D01*
X0231208Y0114800D01*
X0234622Y0114800D01*
X0235208Y0115386D01*
X0235208Y0115647D01*
X0236477Y0115122D01*
X0237940Y0115122D01*
X0239292Y0115682D01*
X0240326Y0116717D01*
X0240886Y0118068D01*
X0240886Y0119532D01*
X0240326Y0120883D01*
X0239292Y0121918D01*
X0237940Y0122478D01*
X0236477Y0122478D01*
X0235125Y0121918D01*
X0234090Y0120883D01*
X0233530Y0119532D01*
X0233530Y0118971D02*
X0165600Y0118971D01*
X0166319Y0117973D02*
X0233570Y0117973D01*
X0233984Y0116974D02*
X0167049Y0116974D01*
X0167804Y0115976D02*
X0229208Y0115976D01*
X0229208Y0114977D02*
X0168566Y0114977D01*
X0169355Y0113979D02*
X0229208Y0113979D01*
X0229208Y0112980D02*
X0170155Y0112980D01*
X0170975Y0111982D02*
X0229208Y0111982D01*
X0229611Y0110983D02*
X0171817Y0110983D01*
X0172669Y0109985D02*
X0347520Y0109985D01*
X0348388Y0110983D02*
X0230806Y0110983D01*
X0231208Y0111982D02*
X0349226Y0111982D01*
X0350055Y0112980D02*
X0231208Y0112980D01*
X0231208Y0113979D02*
X0350858Y0113979D01*
X0351647Y0114977D02*
X0234800Y0114977D01*
X0239585Y0115976D02*
X0244831Y0115976D01*
X0245125Y0115682D02*
X0246477Y0115122D01*
X0247940Y0115122D01*
X0249292Y0115682D01*
X0250326Y0116717D01*
X0250886Y0118068D01*
X0250886Y0119532D01*
X0250326Y0120883D01*
X0249292Y0121918D01*
X0247940Y0122478D01*
X0246477Y0122478D01*
X0245125Y0121918D01*
X0244090Y0120883D01*
X0243530Y0119532D01*
X0243530Y0118068D01*
X0244090Y0116717D01*
X0245125Y0115682D01*
X0243984Y0116974D02*
X0240433Y0116974D01*
X0240847Y0117973D02*
X0243570Y0117973D01*
X0243530Y0118971D02*
X0240886Y0118971D01*
X0240705Y0119970D02*
X0243712Y0119970D01*
X0244175Y0120968D02*
X0240241Y0120968D01*
X0239174Y0121967D02*
X0245242Y0121967D01*
X0249174Y0121967D02*
X0255242Y0121967D01*
X0255125Y0121918D02*
X0254090Y0120883D01*
X0253530Y0119532D01*
X0253530Y0118068D01*
X0254090Y0116717D01*
X0255125Y0115682D01*
X0256477Y0115122D01*
X0257940Y0115122D01*
X0259292Y0115682D01*
X0260326Y0116717D01*
X0260886Y0118068D01*
X0260886Y0119532D01*
X0260326Y0120883D01*
X0259292Y0121918D01*
X0257940Y0122478D01*
X0256477Y0122478D01*
X0255125Y0121918D01*
X0254175Y0120968D02*
X0250241Y0120968D01*
X0250705Y0119970D02*
X0253712Y0119970D01*
X0253530Y0118971D02*
X0250886Y0118971D01*
X0250847Y0117973D02*
X0253570Y0117973D01*
X0253984Y0116974D02*
X0250433Y0116974D01*
X0249585Y0115976D02*
X0254831Y0115976D01*
X0259585Y0115976D02*
X0264831Y0115976D01*
X0265125Y0115682D02*
X0266477Y0115122D01*
X0267940Y0115122D01*
X0269292Y0115682D01*
X0270326Y0116717D01*
X0270886Y0118068D01*
X0270886Y0119532D01*
X0270326Y0120883D01*
X0269292Y0121918D01*
X0267940Y0122478D01*
X0266477Y0122478D01*
X0265125Y0121918D01*
X0264090Y0120883D01*
X0263530Y0119532D01*
X0263530Y0118068D01*
X0264090Y0116717D01*
X0265125Y0115682D01*
X0263984Y0116974D02*
X0260433Y0116974D01*
X0260847Y0117973D02*
X0263570Y0117973D01*
X0263530Y0118971D02*
X0260886Y0118971D01*
X0260705Y0119970D02*
X0263712Y0119970D01*
X0264175Y0120968D02*
X0260241Y0120968D01*
X0259174Y0121967D02*
X0265242Y0121967D01*
X0269174Y0121967D02*
X0275242Y0121967D01*
X0275125Y0121918D02*
X0274090Y0120883D01*
X0273530Y0119532D01*
X0273530Y0118068D01*
X0274090Y0116717D01*
X0275125Y0115682D01*
X0276477Y0115122D01*
X0277940Y0115122D01*
X0279292Y0115682D01*
X0280326Y0116717D01*
X0280886Y0118068D01*
X0280886Y0119532D01*
X0280326Y0120883D01*
X0279292Y0121918D01*
X0277940Y0122478D01*
X0276477Y0122478D01*
X0275125Y0121918D01*
X0274175Y0120968D02*
X0270241Y0120968D01*
X0270705Y0119970D02*
X0273712Y0119970D01*
X0273530Y0118971D02*
X0270886Y0118971D01*
X0270847Y0117973D02*
X0273570Y0117973D01*
X0273984Y0116974D02*
X0270433Y0116974D01*
X0269585Y0115976D02*
X0274831Y0115976D01*
X0279585Y0115976D02*
X0284831Y0115976D01*
X0285125Y0115682D02*
X0286477Y0115122D01*
X0287940Y0115122D01*
X0289292Y0115682D01*
X0290326Y0116717D01*
X0290886Y0118068D01*
X0290886Y0119532D01*
X0290326Y0120883D01*
X0289292Y0121918D01*
X0287940Y0122478D01*
X0286477Y0122478D01*
X0285125Y0121918D01*
X0284090Y0120883D01*
X0283530Y0119532D01*
X0283530Y0118068D01*
X0284090Y0116717D01*
X0285125Y0115682D01*
X0283984Y0116974D02*
X0280433Y0116974D01*
X0280847Y0117973D02*
X0283570Y0117973D01*
X0283530Y0118971D02*
X0280886Y0118971D01*
X0280705Y0119970D02*
X0283712Y0119970D01*
X0284175Y0120968D02*
X0280241Y0120968D01*
X0279174Y0121967D02*
X0285242Y0121967D01*
X0289174Y0121967D02*
X0295242Y0121967D01*
X0295125Y0121918D02*
X0294090Y0120883D01*
X0293530Y0119532D01*
X0293530Y0118068D01*
X0294090Y0116717D01*
X0295125Y0115682D01*
X0296477Y0115122D01*
X0297940Y0115122D01*
X0299292Y0115682D01*
X0300326Y0116717D01*
X0300886Y0118068D01*
X0300886Y0119532D01*
X0300326Y0120883D01*
X0299292Y0121918D01*
X0297940Y0122478D01*
X0296477Y0122478D01*
X0295125Y0121918D01*
X0294175Y0120968D02*
X0290241Y0120968D01*
X0290705Y0119970D02*
X0293712Y0119970D01*
X0293530Y0118971D02*
X0290886Y0118971D01*
X0290847Y0117973D02*
X0293570Y0117973D01*
X0293984Y0116974D02*
X0290433Y0116974D01*
X0289585Y0115976D02*
X0294831Y0115976D01*
X0299585Y0115976D02*
X0304831Y0115976D01*
X0305125Y0115682D02*
X0306477Y0115122D01*
X0307940Y0115122D01*
X0309292Y0115682D01*
X0310326Y0116717D01*
X0310886Y0118068D01*
X0310886Y0119532D01*
X0310326Y0120883D01*
X0309292Y0121918D01*
X0307940Y0122478D01*
X0306477Y0122478D01*
X0305125Y0121918D01*
X0304090Y0120883D01*
X0303530Y0119532D01*
X0303530Y0118068D01*
X0304090Y0116717D01*
X0305125Y0115682D01*
X0303984Y0116974D02*
X0300433Y0116974D01*
X0300847Y0117973D02*
X0303570Y0117973D01*
X0303530Y0118971D02*
X0300886Y0118971D01*
X0300705Y0119970D02*
X0303712Y0119970D01*
X0304175Y0120968D02*
X0300241Y0120968D01*
X0299174Y0121967D02*
X0305242Y0121967D01*
X0309174Y0121967D02*
X0315242Y0121967D01*
X0315125Y0121918D02*
X0314090Y0120883D01*
X0313530Y0119532D01*
X0313530Y0118068D01*
X0314090Y0116717D01*
X0315125Y0115682D01*
X0316477Y0115122D01*
X0317940Y0115122D01*
X0319292Y0115682D01*
X0320326Y0116717D01*
X0320886Y0118068D01*
X0320886Y0119532D01*
X0320326Y0120883D01*
X0319292Y0121918D01*
X0317940Y0122478D01*
X0316477Y0122478D01*
X0315125Y0121918D01*
X0314175Y0120968D02*
X0310241Y0120968D01*
X0310705Y0119970D02*
X0313712Y0119970D01*
X0313530Y0118971D02*
X0310886Y0118971D01*
X0310847Y0117973D02*
X0313570Y0117973D01*
X0313984Y0116974D02*
X0310433Y0116974D01*
X0309585Y0115976D02*
X0314831Y0115976D01*
X0319585Y0115976D02*
X0324831Y0115976D01*
X0325125Y0115682D02*
X0326477Y0115122D01*
X0327940Y0115122D01*
X0329292Y0115682D01*
X0330326Y0116717D01*
X0330886Y0118068D01*
X0330886Y0119532D01*
X0330326Y0120883D01*
X0329292Y0121918D01*
X0327940Y0122478D01*
X0326477Y0122478D01*
X0325125Y0121918D01*
X0324090Y0120883D01*
X0323530Y0119532D01*
X0323530Y0118068D01*
X0324090Y0116717D01*
X0325125Y0115682D01*
X0323984Y0116974D02*
X0320433Y0116974D01*
X0320847Y0117973D02*
X0323570Y0117973D01*
X0323530Y0118971D02*
X0320886Y0118971D01*
X0320705Y0119970D02*
X0323712Y0119970D01*
X0324175Y0120968D02*
X0320241Y0120968D01*
X0319174Y0121967D02*
X0325242Y0121967D01*
X0329174Y0121967D02*
X0335242Y0121967D01*
X0335125Y0121918D02*
X0334090Y0120883D01*
X0333530Y0119532D01*
X0333530Y0118068D01*
X0334090Y0116717D01*
X0335125Y0115682D01*
X0336477Y0115122D01*
X0337940Y0115122D01*
X0339292Y0115682D01*
X0340326Y0116717D01*
X0340886Y0118068D01*
X0340886Y0119532D01*
X0340326Y0120883D01*
X0339292Y0121918D01*
X0337940Y0122478D01*
X0336477Y0122478D01*
X0335125Y0121918D01*
X0334175Y0120968D02*
X0330241Y0120968D01*
X0330705Y0119970D02*
X0333712Y0119970D01*
X0333530Y0118971D02*
X0330886Y0118971D01*
X0330847Y0117973D02*
X0333570Y0117973D01*
X0333984Y0116974D02*
X0330433Y0116974D01*
X0329585Y0115976D02*
X0334831Y0115976D01*
X0339585Y0115976D02*
X0344831Y0115976D01*
X0345125Y0115682D02*
X0346477Y0115122D01*
X0347940Y0115122D01*
X0349292Y0115682D01*
X0350326Y0116717D01*
X0350886Y0118068D01*
X0350886Y0119532D01*
X0350326Y0120883D01*
X0349292Y0121918D01*
X0347940Y0122478D01*
X0346477Y0122478D01*
X0345125Y0121918D01*
X0344090Y0120883D01*
X0343530Y0119532D01*
X0343530Y0118068D01*
X0344090Y0116717D01*
X0345125Y0115682D01*
X0343984Y0116974D02*
X0340433Y0116974D01*
X0340847Y0117973D02*
X0343570Y0117973D01*
X0343530Y0118971D02*
X0340886Y0118971D01*
X0340705Y0119970D02*
X0343712Y0119970D01*
X0344175Y0120968D02*
X0340241Y0120968D01*
X0339174Y0121967D02*
X0345242Y0121967D01*
X0349174Y0121967D02*
X0355242Y0121967D01*
X0354175Y0120968D02*
X0350241Y0120968D01*
X0350705Y0119970D02*
X0353712Y0119970D01*
X0353530Y0118971D02*
X0350886Y0118971D01*
X0350847Y0117973D02*
X0353570Y0117973D01*
X0353169Y0116974D02*
X0350433Y0116974D01*
X0349585Y0115976D02*
X0352419Y0115976D01*
X0359174Y0121967D02*
X0365242Y0121967D01*
X0369174Y0121967D02*
X0372521Y0121967D01*
X0373055Y0122965D02*
X0202938Y0122965D01*
X0203067Y0123018D02*
X0203990Y0123941D01*
X0204489Y0125147D01*
X0204489Y0126453D01*
X0203990Y0127659D01*
X0203067Y0128582D01*
X0201861Y0129081D01*
X0200556Y0129081D01*
X0199350Y0128582D01*
X0198427Y0127659D01*
X0197927Y0126453D01*
X0197927Y0125147D01*
X0198427Y0123941D01*
X0199350Y0123018D01*
X0200556Y0122519D01*
X0201861Y0122519D01*
X0203067Y0123018D01*
X0203999Y0123964D02*
X0373528Y0123964D01*
X0374001Y0124962D02*
X0204413Y0124962D01*
X0204489Y0125961D02*
X0374474Y0125961D01*
X0374947Y0126959D02*
X0204280Y0126959D01*
X0203691Y0127958D02*
X0375420Y0127958D01*
X0375893Y0128956D02*
X0202162Y0128956D01*
X0200254Y0128956D02*
X0144332Y0128956D01*
X0144821Y0127958D02*
X0198726Y0127958D01*
X0198137Y0126959D02*
X0145310Y0126959D01*
X0145799Y0125961D02*
X0197927Y0125961D01*
X0198004Y0124962D02*
X0146287Y0124962D01*
X0146776Y0123964D02*
X0198417Y0123964D01*
X0199478Y0122965D02*
X0147265Y0122965D01*
X0147754Y0121967D02*
X0235242Y0121967D01*
X0234175Y0120968D02*
X0148259Y0120968D01*
X0143844Y0129955D02*
X0222503Y0129955D01*
X0222350Y0130018D02*
X0223556Y0129519D01*
X0224861Y0129519D01*
X0226067Y0130018D01*
X0226990Y0130941D01*
X0227489Y0132147D01*
X0227489Y0133453D01*
X0226990Y0134659D01*
X0226067Y0135582D01*
X0224861Y0136081D01*
X0223556Y0136081D01*
X0222350Y0135582D01*
X0221427Y0134659D01*
X0220927Y0133453D01*
X0220927Y0132147D01*
X0221427Y0130941D01*
X0222350Y0130018D01*
X0221422Y0130953D02*
X0143355Y0130953D01*
X0142866Y0131952D02*
X0221008Y0131952D01*
X0220927Y0132950D02*
X0142377Y0132950D01*
X0141889Y0133949D02*
X0176645Y0133949D01*
X0176794Y0133800D02*
X0179622Y0133800D01*
X0180208Y0134386D01*
X0180208Y0135214D01*
X0179622Y0135800D01*
X0178208Y0135800D01*
X0178208Y0137214D01*
X0177622Y0137800D01*
X0176794Y0137800D01*
X0176208Y0137214D01*
X0176208Y0134386D01*
X0176794Y0133800D01*
X0176208Y0134947D02*
X0141400Y0134947D01*
X0140911Y0135946D02*
X0176208Y0135946D01*
X0176208Y0136944D02*
X0140422Y0136944D01*
X0139942Y0137943D02*
X0183453Y0137943D01*
X0183201Y0138194D02*
X0184347Y0137049D01*
X0185843Y0136429D01*
X0187463Y0136429D01*
X0188208Y0136738D01*
X0188208Y0135800D01*
X0186794Y0135800D01*
X0186208Y0135214D01*
X0186208Y0134386D01*
X0186794Y0133800D01*
X0189622Y0133800D01*
X0190208Y0134386D01*
X0190208Y0135214D01*
X0190208Y0137214D01*
X0189666Y0137756D01*
X0190105Y0138194D01*
X0190725Y0139691D01*
X0190725Y0141311D01*
X0190105Y0142807D01*
X0188960Y0143953D01*
X0187463Y0144572D01*
X0185843Y0144572D01*
X0184347Y0143953D01*
X0183201Y0142807D01*
X0182581Y0141311D01*
X0182581Y0139691D01*
X0183201Y0138194D01*
X0182892Y0138941D02*
X0139642Y0138941D01*
X0139704Y0139940D02*
X0182581Y0139940D01*
X0182581Y0140938D02*
X0140148Y0140938D01*
X0140930Y0141937D02*
X0182841Y0141937D01*
X0183330Y0142935D02*
X0181073Y0142935D01*
X0180573Y0142728D02*
X0182070Y0143348D01*
X0183215Y0144494D01*
X0183835Y0145990D01*
X0183835Y0147610D01*
X0183215Y0149106D01*
X0182070Y0150252D01*
X0180573Y0150872D01*
X0178953Y0150872D01*
X0177457Y0150252D01*
X0176312Y0149106D01*
X0175692Y0147610D01*
X0175692Y0145990D01*
X0176312Y0144494D01*
X0177457Y0143348D01*
X0178953Y0142728D01*
X0180573Y0142728D01*
X0178453Y0142935D02*
X0141885Y0142935D01*
X0142792Y0143934D02*
X0176871Y0143934D01*
X0176130Y0144932D02*
X0143698Y0144932D01*
X0144604Y0145931D02*
X0175716Y0145931D01*
X0175692Y0146930D02*
X0145510Y0146930D01*
X0146417Y0147928D02*
X0175824Y0147928D01*
X0176237Y0148927D02*
X0147323Y0148927D01*
X0148229Y0149925D02*
X0177130Y0149925D01*
X0182397Y0149925D02*
X0373772Y0149925D01*
X0374702Y0148927D02*
X0183290Y0148927D01*
X0183703Y0147928D02*
X0375632Y0147928D01*
X0376561Y0146930D02*
X0183835Y0146930D01*
X0183811Y0145931D02*
X0377491Y0145931D01*
X0378421Y0144932D02*
X0183397Y0144932D01*
X0182656Y0143934D02*
X0184328Y0143934D01*
X0188978Y0143934D02*
X0211200Y0143934D01*
X0211556Y0144081D02*
X0210350Y0143582D01*
X0209427Y0142659D01*
X0208927Y0141453D01*
X0208927Y0140147D01*
X0209427Y0138941D01*
X0210350Y0138018D01*
X0211556Y0137519D01*
X0212861Y0137519D01*
X0214067Y0138018D01*
X0214990Y0138941D01*
X0215489Y0140147D01*
X0215489Y0141453D01*
X0214990Y0142659D01*
X0214067Y0143582D01*
X0212861Y0144081D01*
X0211556Y0144081D01*
X0213216Y0143934D02*
X0379370Y0143934D01*
X0380302Y0142935D02*
X0214713Y0142935D01*
X0215289Y0141937D02*
X0380925Y0141937D01*
X0381171Y0140938D02*
X0215489Y0140938D01*
X0215403Y0139940D02*
X0381043Y0139940D01*
X0380621Y0138941D02*
X0214990Y0138941D01*
X0213885Y0137943D02*
X0380148Y0137943D01*
X0379676Y0136944D02*
X0190208Y0136944D01*
X0190208Y0135946D02*
X0223229Y0135946D01*
X0221715Y0134947D02*
X0190208Y0134947D01*
X0189771Y0133949D02*
X0221133Y0133949D01*
X0225187Y0135946D02*
X0379203Y0135946D01*
X0378730Y0134947D02*
X0226701Y0134947D01*
X0227284Y0133949D02*
X0378257Y0133949D01*
X0377784Y0132950D02*
X0227489Y0132950D01*
X0227408Y0131952D02*
X0377311Y0131952D01*
X0376838Y0130953D02*
X0226995Y0130953D01*
X0225913Y0129955D02*
X0376365Y0129955D01*
X0381975Y0124101D02*
X0382457Y0124467D01*
X0383026Y0124839D01*
X0390271Y0130031D01*
X0390128Y0131686D01*
X0390008Y0133348D01*
X0389920Y0135018D01*
X0389867Y0136696D01*
X0389856Y0138373D01*
X0389881Y0140041D01*
X0389937Y0141702D01*
X0390017Y0143358D01*
X0382576Y0148268D01*
X0381992Y0148619D01*
X0381496Y0148966D01*
X0381090Y0149319D01*
X0380775Y0149687D01*
X0380553Y0150080D01*
X0380425Y0150506D01*
X0380394Y0150977D01*
X0380460Y0151502D01*
X0383352Y0165404D01*
X0383501Y0165910D01*
X0383718Y0166328D01*
X0384006Y0166668D01*
X0384366Y0166939D01*
X0384801Y0167150D01*
X0385314Y0167311D01*
X0385907Y0167432D01*
X0386583Y0167521D01*
X0395339Y0169053D01*
X0395937Y0170623D01*
X0396564Y0172180D01*
X0397219Y0173722D01*
X0397902Y0175248D01*
X0398613Y0176760D01*
X0399352Y0178256D01*
X0400119Y0179736D01*
X0400913Y0181200D01*
X0396350Y0188844D01*
X0395977Y0189413D01*
X0395681Y0189941D01*
X0395468Y0190434D01*
X0395344Y0190902D01*
X0395313Y0191352D01*
X0395383Y0191792D01*
X0395559Y0192229D01*
X0395846Y0192672D01*
X0404484Y0203941D01*
X0404837Y0204332D01*
X0405214Y0204615D01*
X0405620Y0204796D01*
X0406063Y0204884D01*
X0406546Y0204885D01*
X0407078Y0204807D01*
X0407664Y0204659D01*
X0408310Y0204446D01*
X0416885Y0202022D01*
X0419327Y0204297D01*
X0421852Y0206480D01*
X0424459Y0208568D01*
X0427148Y0210557D01*
X0426353Y0219408D01*
X0426264Y0220083D01*
X0426226Y0220686D01*
X0426248Y0221224D01*
X0426339Y0221699D01*
X0426506Y0222118D01*
X0426759Y0222483D01*
X0427107Y0222802D01*
X0427557Y0223076D01*
X0440231Y0229483D01*
X0440720Y0229683D01*
X0441182Y0229774D01*
X0441627Y0229761D01*
X0442064Y0229648D01*
X0442500Y0229439D01*
X0442946Y0229138D01*
X0443409Y0228750D01*
X0443898Y0228278D01*
X0450539Y0222406D01*
X0450840Y0222502D01*
X0450890Y0222382D01*
X0452090Y0221181D01*
X0453659Y0220531D01*
X0455357Y0220531D01*
X0456926Y0221181D01*
X0458127Y0222382D01*
X0458777Y0223951D01*
X0458777Y0224682D01*
X0460217Y0224995D01*
X0461872Y0225322D01*
X0463537Y0225618D01*
X0466665Y0233933D01*
X0466876Y0234581D01*
X0467103Y0235141D01*
X0467356Y0235616D01*
X0467643Y0236005D01*
X0467976Y0236309D01*
X0468364Y0236528D01*
X0468815Y0236663D01*
X0469341Y0236715D01*
X0483539Y0236987D01*
X0484065Y0236956D01*
X0484521Y0236837D01*
X0484917Y0236633D01*
X0485261Y0236341D01*
X0485563Y0235963D01*
X0485834Y0235499D01*
X0486083Y0234947D01*
X0486320Y0234308D01*
X0489237Y0227365D01*
X0488090Y0226218D01*
X0487440Y0224649D01*
X0487440Y0222951D01*
X0488090Y0221382D01*
X0489290Y0220181D01*
X0490859Y0219531D01*
X0492557Y0219531D01*
X0494126Y0220181D01*
X0495327Y0221382D01*
X0495977Y0222951D01*
X0495977Y0224649D01*
X0495778Y0225128D01*
X0496395Y0225006D01*
X0498027Y0224652D01*
X0499649Y0224268D01*
X0501259Y0223854D01*
X0502856Y0223410D01*
X0509263Y0229532D01*
X0509736Y0230022D01*
X0510185Y0230429D01*
X0510619Y0230746D01*
X0511048Y0230972D01*
X0511480Y0231102D01*
X0511924Y0231132D01*
X0512390Y0231058D01*
X0512885Y0230878D01*
X0525795Y0224963D01*
X0526255Y0224705D01*
X0526615Y0224400D01*
X0526882Y0224044D01*
X0527065Y0223633D01*
X0527174Y0223161D01*
X0527217Y0222625D01*
X0527202Y0222020D01*
X0527138Y0221342D01*
X0526684Y0212468D01*
X0529448Y0210584D01*
X0531607Y0208987D01*
X0531607Y0208764D01*
X0531584Y0208734D01*
X0531607Y0208537D01*
X0531607Y0208339D01*
X0531634Y0208312D01*
X0531639Y0208274D01*
X0531795Y0208151D01*
X0531935Y0208011D01*
X0531974Y0208011D01*
X0533122Y0207109D01*
X0534400Y0206068D01*
X0535659Y0205003D01*
X0536785Y0204014D01*
X0536809Y0203940D01*
X0536953Y0203866D01*
X0537075Y0203760D01*
X0537153Y0203765D01*
X0537222Y0203729D01*
X0537376Y0203779D01*
X0537538Y0203790D01*
X0537589Y0203848D01*
X0545706Y0206485D01*
X0545719Y0206479D01*
X0545925Y0206556D01*
X0546135Y0206624D01*
X0546141Y0206636D01*
X0546555Y0206790D01*
X0547088Y0206948D01*
X0547548Y0207033D01*
X0547936Y0207047D01*
X0548265Y0206995D01*
X0548562Y0206876D01*
X0548854Y0206674D01*
X0549169Y0206351D01*
X0558205Y0195457D01*
X0558465Y0195088D01*
X0558609Y0194765D01*
X0558671Y0194452D01*
X0558662Y0194119D01*
X0558577Y0193740D01*
X0558408Y0193304D01*
X0558156Y0192808D01*
X0557928Y0192429D01*
X0557915Y0192425D01*
X0557809Y0192231D01*
X0557695Y0192043D01*
X0557699Y0192029D01*
X0553611Y0184544D01*
X0553543Y0184504D01*
X0553503Y0184347D01*
X0553426Y0184205D01*
X0553448Y0184130D01*
X0553428Y0184055D01*
X0553511Y0183915D01*
X0553556Y0183760D01*
X0553625Y0183723D01*
X0554393Y0182427D01*
X0555211Y0180986D01*
X0556002Y0179529D01*
X0556766Y0178055D01*
X0557503Y0176566D01*
X0558212Y0175060D01*
X0558894Y0173539D01*
X0559489Y0172138D01*
X0559478Y0172061D01*
X0559577Y0171932D01*
X0559640Y0171783D01*
X0559712Y0171754D01*
X0559759Y0171692D01*
X0559920Y0171670D01*
X0560070Y0171609D01*
X0560142Y0171640D01*
X0568580Y0170494D01*
X0568588Y0170484D01*
X0568808Y0170463D01*
X0569026Y0170434D01*
X0569037Y0170442D01*
X0569478Y0170401D01*
X0570028Y0170311D01*
X0570479Y0170188D01*
X0570836Y0170032D01*
X0571111Y0169842D01*
X0571326Y0169606D01*
X0571502Y0169298D01*
X0571646Y0168871D01*
X0575059Y0155133D01*
X0575132Y0154688D01*
X0575121Y0154334D01*
X0575041Y0154025D01*
X0574887Y0153728D01*
X0574645Y0153423D01*
X0574304Y0153104D01*
X0573861Y0152769D01*
X0573491Y0152527D01*
X0573477Y0152529D01*
X0573298Y0152401D01*
X0573114Y0152281D01*
X0573111Y0152267D01*
X0566167Y0147290D01*
X0566088Y0147284D01*
X0565985Y0147160D01*
X0565854Y0147066D01*
X0565841Y0146988D01*
X0565790Y0146928D01*
X0565804Y0146767D01*
X0565778Y0146608D01*
X0565824Y0146544D01*
X0565956Y0145047D01*
X0566074Y0143396D01*
X0566162Y0141736D01*
X0566213Y0140069D01*
X0566225Y0138405D01*
X0566201Y0136748D01*
X0566147Y0135097D01*
X0566074Y0133600D01*
X0566030Y0133535D01*
X0566063Y0133377D01*
X0566055Y0133215D01*
X0566108Y0133157D01*
X0566123Y0133080D01*
X0566258Y0132991D01*
X0566367Y0132872D01*
X0566445Y0132868D01*
X0573574Y0128157D01*
X0573577Y0128144D01*
X0573766Y0128030D01*
X0573949Y0127909D01*
X0573963Y0127912D01*
X0574343Y0127684D01*
X0574798Y0127366D01*
X0575151Y0127060D01*
X0575404Y0126765D01*
X0575569Y0126474D01*
X0575661Y0126169D01*
X0575685Y0125815D01*
X0575630Y0125368D01*
X0572747Y0111510D01*
X0572620Y0111077D01*
X0572456Y0110762D01*
X0572250Y0110517D01*
X0571983Y0110317D01*
X0571634Y0110147D01*
X0571188Y0110007D01*
X0570643Y0109896D01*
X0570203Y0109838D01*
X0570192Y0109846D01*
X0569976Y0109808D01*
X0569757Y0109779D01*
X0569749Y0109768D01*
X0561356Y0108301D01*
X0561283Y0108328D01*
X0561135Y0108262D01*
X0560975Y0108234D01*
X0560931Y0108170D01*
X0560859Y0108138D01*
X0560802Y0107987D01*
X0560709Y0107854D01*
X0560722Y0107778D01*
X0560182Y0106356D01*
X0559559Y0104810D01*
X0558908Y0103279D01*
X0558229Y0101762D01*
X0557522Y0100261D01*
X0556788Y0098774D01*
X0556026Y0097304D01*
X0555308Y0095980D01*
X0555240Y0095940D01*
X0555201Y0095783D01*
X0555124Y0095641D01*
X0555146Y0095566D01*
X0555127Y0095490D01*
X0555210Y0095351D01*
X0555256Y0095196D01*
X0555325Y0095159D01*
X0559699Y0087834D01*
X0559697Y0087821D01*
X0559817Y0087636D01*
X0559930Y0087447D01*
X0559943Y0087444D01*
X0560185Y0087074D01*
X0560457Y0086589D01*
X0560642Y0086160D01*
X0560742Y0085784D01*
X0560764Y0085451D01*
X0560715Y0085136D01*
X0560583Y0084807D01*
X0560338Y0084428D01*
X0551726Y0073196D01*
X0551423Y0072861D01*
X0551140Y0072648D01*
X0550848Y0072518D01*
X0550521Y0072453D01*
X0550133Y0072452D01*
X0549671Y0072520D01*
X0549132Y0072656D01*
X0548711Y0072795D01*
X0548704Y0072808D01*
X0548492Y0072867D01*
X0548284Y0072936D01*
X0548271Y0072930D01*
X0540058Y0075252D01*
X0540006Y0075307D01*
X0539842Y0075313D01*
X0539684Y0075357D01*
X0539618Y0075321D01*
X0539543Y0075323D01*
X0539422Y0075211D01*
X0539279Y0075131D01*
X0539258Y0075059D01*
X0536940Y0072899D01*
X0534432Y0070729D01*
X0531841Y0068654D01*
X0529288Y0066765D01*
X0529214Y0066758D01*
X0529108Y0066631D01*
X0528975Y0066533D01*
X0528964Y0066459D01*
X0528916Y0066402D01*
X0528931Y0066237D01*
X0528907Y0066074D01*
X0528951Y0066014D01*
X0529712Y0057537D01*
X0529704Y0057526D01*
X0529733Y0057308D01*
X0529752Y0057089D01*
X0529763Y0057080D01*
X0529821Y0056641D01*
X0529855Y0056085D01*
X0529836Y0055618D01*
X0529763Y0055237D01*
X0529639Y0054927D01*
X0529457Y0054665D01*
X0529195Y0054426D01*
X0528810Y0054191D01*
X0516176Y0047804D01*
X0515759Y0047634D01*
X0515413Y0047565D01*
X0515094Y0047575D01*
X0514771Y0047659D01*
X0514420Y0047827D01*
X0514033Y0048088D01*
X0513606Y0048446D01*
X0513287Y0048754D01*
X0513286Y0048767D01*
X0513121Y0048913D01*
X0512962Y0049066D01*
X0512949Y0049066D01*
X0510033Y0051645D01*
X0509882Y0051797D01*
X0509862Y0051797D01*
X0509847Y0051810D01*
X0509632Y0051797D01*
X0509418Y0051798D01*
X0509404Y0051783D01*
X0509384Y0051782D01*
X0509241Y0051621D01*
X0509228Y0051608D01*
X0506098Y0054375D01*
X0504517Y0053869D01*
X0502924Y0053392D01*
X0501317Y0052945D01*
X0499698Y0052527D01*
X0498067Y0052140D01*
X0496424Y0051783D01*
X0494770Y0051456D01*
X0493105Y0051160D01*
X0489980Y0042843D01*
X0489767Y0042196D01*
X0489539Y0041636D01*
X0489286Y0041161D01*
X0488998Y0040773D01*
X0488665Y0040469D01*
X0488278Y0040250D01*
X0487826Y0040115D01*
X0487302Y0040063D01*
X0474747Y0039821D01*
X0474876Y0039949D01*
X0474876Y0041840D01*
X0473539Y0043176D01*
X0471649Y0043176D01*
X0470490Y0042017D01*
X0470323Y0042468D01*
X0466881Y0050658D01*
X0465207Y0050891D01*
X0463543Y0051154D01*
X0461890Y0051447D01*
X0460246Y0051771D01*
X0458614Y0052126D01*
X0456993Y0052511D01*
X0455384Y0052926D01*
X0453787Y0053371D01*
X0447376Y0047246D01*
X0446904Y0046755D01*
X0446456Y0046348D01*
X0446022Y0046030D01*
X0445594Y0045805D01*
X0445162Y0045675D01*
X0444718Y0045645D01*
X0444253Y0045719D01*
X0443757Y0045900D01*
X0430848Y0051814D01*
X0430387Y0052072D01*
X0430026Y0052376D01*
X0429759Y0052732D01*
X0429575Y0053143D01*
X0429466Y0053614D01*
X0429423Y0054150D01*
X0429438Y0054754D01*
X0429502Y0055432D01*
X0429527Y0055917D01*
X0430326Y0056717D01*
X0430886Y0058068D01*
X0430886Y0059532D01*
X0430361Y0060800D01*
X0434622Y0060800D01*
X0435208Y0061386D01*
X0435208Y0066214D01*
X0434622Y0066800D01*
X0433794Y0066800D01*
X0433208Y0066214D01*
X0433208Y0062800D01*
X0429878Y0062800D01*
X0429955Y0064311D01*
X0427193Y0066196D01*
X0424507Y0068182D01*
X0421900Y0070266D01*
X0419373Y0072443D01*
X0410902Y0069693D01*
X0410264Y0069455D01*
X0409683Y0069283D01*
X0409155Y0069185D01*
X0408670Y0069168D01*
X0408225Y0069239D01*
X0407811Y0069405D01*
X0407424Y0069674D01*
X0407055Y0070052D01*
X0397989Y0080981D01*
X0397685Y0081413D01*
X0397493Y0081843D01*
X0397407Y0082280D01*
X0397419Y0082730D01*
X0397526Y0083203D01*
X0397721Y0083704D01*
X0397998Y0084242D01*
X0398350Y0084825D01*
X0402615Y0092635D01*
X0401765Y0094067D01*
X0400943Y0095517D01*
X0400147Y0096983D01*
X0399378Y0098467D01*
X0398637Y0099966D01*
X0397923Y0101482D01*
X0397237Y0103014D01*
X0396578Y0104561D01*
X0387767Y0105758D01*
X0387090Y0105821D01*
X0386493Y0105919D01*
X0385974Y0106060D01*
X0385530Y0106254D01*
X0385159Y0106511D01*
X0384859Y0106839D01*
X0384627Y0107247D01*
X0384459Y0107746D01*
X0381035Y0121526D01*
X0380950Y0122048D01*
X0380963Y0122520D01*
X0381075Y0122952D01*
X0381282Y0123353D01*
X0381583Y0123733D01*
X0381975Y0124101D01*
X0381829Y0123964D02*
X0461441Y0123964D01*
X0462265Y0122965D02*
X0381082Y0122965D01*
X0380963Y0121967D02*
X0385242Y0121967D01*
X0385125Y0121918D02*
X0384090Y0120883D01*
X0383530Y0119532D01*
X0383530Y0118068D01*
X0384090Y0116717D01*
X0385125Y0115682D01*
X0386477Y0115122D01*
X0387940Y0115122D01*
X0389292Y0115682D01*
X0390326Y0116717D01*
X0390886Y0118068D01*
X0390886Y0119532D01*
X0390326Y0120883D01*
X0389292Y0121918D01*
X0387940Y0122478D01*
X0386477Y0122478D01*
X0385125Y0121918D01*
X0384175Y0120968D02*
X0381174Y0120968D01*
X0381422Y0119970D02*
X0383712Y0119970D01*
X0383530Y0118971D02*
X0381670Y0118971D01*
X0381918Y0117973D02*
X0383570Y0117973D01*
X0383984Y0116974D02*
X0382166Y0116974D01*
X0382414Y0115976D02*
X0384831Y0115976D01*
X0382663Y0114977D02*
X0429617Y0114977D01*
X0429794Y0114800D02*
X0433208Y0114800D01*
X0433208Y0111386D01*
X0433794Y0110800D01*
X0434622Y0110800D01*
X0435208Y0111386D01*
X0435208Y0116214D01*
X0434622Y0116800D01*
X0430361Y0116800D01*
X0430886Y0118068D01*
X0430886Y0119532D01*
X0430326Y0120883D01*
X0429292Y0121918D01*
X0427940Y0122478D01*
X0426477Y0122478D01*
X0425125Y0121918D01*
X0424090Y0120883D01*
X0423530Y0119532D01*
X0423530Y0118068D01*
X0424090Y0116717D01*
X0425125Y0115682D01*
X0426477Y0115122D01*
X0427940Y0115122D01*
X0429208Y0115647D01*
X0429208Y0115386D01*
X0429794Y0114800D01*
X0430433Y0116974D02*
X0472427Y0116974D01*
X0473444Y0116659D02*
X0470023Y0117720D01*
X0469917Y0117689D01*
X0469639Y0117839D01*
X0469338Y0117933D01*
X0469286Y0118031D01*
X0466204Y0119704D01*
X0466095Y0119694D01*
X0465850Y0119896D01*
X0465571Y0120047D01*
X0465540Y0120152D01*
X0462860Y0122363D01*
X0462753Y0122374D01*
X0462550Y0122619D01*
X0462305Y0122822D01*
X0462294Y0122929D01*
X0460083Y0125609D01*
X0459979Y0125640D01*
X0459827Y0125919D01*
X0459625Y0126164D01*
X0459635Y0126272D01*
X0457962Y0129355D01*
X0457864Y0129407D01*
X0457771Y0129708D01*
X0457620Y0129986D01*
X0457651Y0130092D01*
X0456590Y0133513D01*
X0456502Y0133584D01*
X0456471Y0133896D01*
X0456378Y0134196D01*
X0456430Y0134296D01*
X0456058Y0137989D01*
X0455986Y0138077D01*
X0456018Y0138389D01*
X0455986Y0138701D01*
X0456058Y0138789D01*
X0456430Y0142481D01*
X0456378Y0142581D01*
X0456471Y0142881D01*
X0456502Y0143193D01*
X0456590Y0143264D01*
X0457651Y0146684D01*
X0457620Y0146791D01*
X0457771Y0147068D01*
X0457864Y0147370D01*
X0457962Y0147421D01*
X0459635Y0150503D01*
X0459625Y0150612D01*
X0459827Y0150856D01*
X0459979Y0151136D01*
X0460083Y0151166D01*
X0462294Y0153846D01*
X0462305Y0153954D01*
X0462550Y0154156D01*
X0462753Y0154402D01*
X0462860Y0154412D01*
X0465540Y0156623D01*
X0465571Y0156728D01*
X0465850Y0156879D01*
X0466095Y0157081D01*
X0466204Y0157071D01*
X0469286Y0158744D01*
X0469338Y0158842D01*
X0469639Y0158936D01*
X0469917Y0159086D01*
X0470023Y0159055D01*
X0473444Y0160117D01*
X0473516Y0160204D01*
X0473828Y0160236D01*
X0474127Y0160329D01*
X0474227Y0160276D01*
X0477920Y0160648D01*
X0478008Y0160720D01*
X0478320Y0160689D01*
X0478632Y0160720D01*
X0478720Y0160648D01*
X0482413Y0160276D01*
X0482513Y0160329D01*
X0482813Y0160236D01*
X0483125Y0160204D01*
X0483196Y0160117D01*
X0486617Y0159055D01*
X0486723Y0159086D01*
X0487001Y0158936D01*
X0487302Y0158842D01*
X0487354Y0158744D01*
X0490437Y0157071D01*
X0490545Y0157081D01*
X0490790Y0156879D01*
X0491069Y0156728D01*
X0491100Y0156623D01*
X0493780Y0154412D01*
X0493887Y0154402D01*
X0494090Y0154156D01*
X0494335Y0153954D01*
X0494346Y0153846D01*
X0496557Y0151166D01*
X0496662Y0151136D01*
X0496813Y0150856D01*
X0497015Y0150612D01*
X0497005Y0150503D01*
X0498678Y0147421D01*
X0498776Y0147370D01*
X0498870Y0147068D01*
X0499020Y0146791D01*
X0498989Y0146684D01*
X0500050Y0143264D01*
X0500138Y0143193D01*
X0500170Y0142881D01*
X0500262Y0142581D01*
X0500210Y0142481D01*
X0500582Y0138789D01*
X0500654Y0138701D01*
X0500622Y0138389D01*
X0500654Y0138077D01*
X0500582Y0137989D01*
X0500210Y0134296D01*
X0500262Y0134196D01*
X0500169Y0133896D01*
X0500138Y0133584D01*
X0500050Y0133513D01*
X0498989Y0130092D01*
X0499020Y0129986D01*
X0498870Y0129708D01*
X0498776Y0129407D01*
X0498678Y0129355D01*
X0497005Y0126272D01*
X0497015Y0126164D01*
X0496813Y0125919D01*
X0496662Y0125640D01*
X0496557Y0125609D01*
X0494346Y0122929D01*
X0494335Y0122822D01*
X0494090Y0122619D01*
X0493887Y0122374D01*
X0493780Y0122363D01*
X0491100Y0120152D01*
X0491069Y0120047D01*
X0490790Y0119896D01*
X0490545Y0119694D01*
X0490437Y0119704D01*
X0487354Y0118031D01*
X0487302Y0117933D01*
X0487001Y0117839D01*
X0486723Y0117689D01*
X0486617Y0117720D01*
X0483196Y0116659D01*
X0483125Y0116571D01*
X0482813Y0116540D01*
X0482513Y0116447D01*
X0482413Y0116499D01*
X0478720Y0116127D01*
X0478632Y0116055D01*
X0478320Y0116087D01*
X0478008Y0116055D01*
X0477920Y0116127D01*
X0474227Y0116499D01*
X0474127Y0116447D01*
X0473828Y0116540D01*
X0473516Y0116571D01*
X0473444Y0116659D01*
X0469317Y0117973D02*
X0430847Y0117973D01*
X0430886Y0118971D02*
X0467554Y0118971D01*
X0465714Y0119970D02*
X0430705Y0119970D01*
X0430241Y0120968D02*
X0464551Y0120968D01*
X0463341Y0121967D02*
X0429174Y0121967D01*
X0425242Y0121967D02*
X0419174Y0121967D01*
X0419292Y0121918D02*
X0417940Y0122478D01*
X0416477Y0122478D01*
X0415125Y0121918D01*
X0414090Y0120883D01*
X0413530Y0119532D01*
X0413530Y0118068D01*
X0414090Y0116717D01*
X0415125Y0115682D01*
X0416477Y0115122D01*
X0417940Y0115122D01*
X0419292Y0115682D01*
X0420326Y0116717D01*
X0420886Y0118068D01*
X0420886Y0119532D01*
X0420326Y0120883D01*
X0419292Y0121918D01*
X0420241Y0120968D02*
X0424175Y0120968D01*
X0423712Y0119970D02*
X0420705Y0119970D01*
X0420886Y0118971D02*
X0423530Y0118971D01*
X0423570Y0117973D02*
X0420847Y0117973D01*
X0420433Y0116974D02*
X0423984Y0116974D01*
X0424831Y0115976D02*
X0419585Y0115976D01*
X0414831Y0115976D02*
X0409585Y0115976D01*
X0409292Y0115682D02*
X0410326Y0116717D01*
X0410886Y0118068D01*
X0410886Y0119532D01*
X0410326Y0120883D01*
X0409292Y0121918D01*
X0407940Y0122478D01*
X0406477Y0122478D01*
X0405125Y0121918D01*
X0404090Y0120883D01*
X0403530Y0119532D01*
X0403530Y0118068D01*
X0404090Y0116717D01*
X0405125Y0115682D01*
X0406477Y0115122D01*
X0407940Y0115122D01*
X0409292Y0115682D01*
X0410433Y0116974D02*
X0413984Y0116974D01*
X0413570Y0117973D02*
X0410847Y0117973D01*
X0410886Y0118971D02*
X0413530Y0118971D01*
X0413712Y0119970D02*
X0410705Y0119970D01*
X0410241Y0120968D02*
X0414175Y0120968D01*
X0415242Y0121967D02*
X0409174Y0121967D01*
X0405242Y0121967D02*
X0399174Y0121967D01*
X0399292Y0121918D02*
X0397940Y0122478D01*
X0396477Y0122478D01*
X0395125Y0121918D01*
X0394090Y0120883D01*
X0393530Y0119532D01*
X0393530Y0118068D01*
X0394090Y0116717D01*
X0395125Y0115682D01*
X0396477Y0115122D01*
X0397940Y0115122D01*
X0399292Y0115682D01*
X0400326Y0116717D01*
X0400886Y0118068D01*
X0400886Y0119532D01*
X0400326Y0120883D01*
X0399292Y0121918D01*
X0400241Y0120968D02*
X0404175Y0120968D01*
X0403712Y0119970D02*
X0400705Y0119970D01*
X0400886Y0118971D02*
X0403530Y0118971D01*
X0403570Y0117973D02*
X0400847Y0117973D01*
X0400433Y0116974D02*
X0403984Y0116974D01*
X0404831Y0115976D02*
X0399585Y0115976D01*
X0394831Y0115976D02*
X0389585Y0115976D01*
X0390433Y0116974D02*
X0393984Y0116974D01*
X0393570Y0117973D02*
X0390847Y0117973D01*
X0390886Y0118971D02*
X0393530Y0118971D01*
X0393712Y0119970D02*
X0390705Y0119970D01*
X0390241Y0120968D02*
X0394175Y0120968D01*
X0395242Y0121967D02*
X0389174Y0121967D01*
X0385985Y0126959D02*
X0459263Y0126959D01*
X0459793Y0125961D02*
X0384591Y0125961D01*
X0383198Y0124962D02*
X0460617Y0124962D01*
X0458721Y0127958D02*
X0387378Y0127958D01*
X0388772Y0128956D02*
X0432515Y0128956D01*
X0432790Y0128681D02*
X0431590Y0129882D01*
X0430940Y0131451D01*
X0430940Y0133149D01*
X0431590Y0134718D01*
X0432790Y0135919D01*
X0434359Y0136568D01*
X0436057Y0136568D01*
X0437626Y0135919D01*
X0438827Y0134718D01*
X0439477Y0133149D01*
X0439477Y0131451D01*
X0438827Y0129882D01*
X0437626Y0128681D01*
X0436057Y0128031D01*
X0434359Y0128031D01*
X0432790Y0128681D01*
X0431559Y0129955D02*
X0390165Y0129955D01*
X0390191Y0130953D02*
X0431146Y0130953D01*
X0430940Y0131952D02*
X0390108Y0131952D01*
X0390037Y0132950D02*
X0430940Y0132950D01*
X0431271Y0133949D02*
X0389976Y0133949D01*
X0389923Y0134947D02*
X0431819Y0134947D01*
X0432856Y0135946D02*
X0389891Y0135946D01*
X0389866Y0136944D02*
X0456163Y0136944D01*
X0456264Y0135946D02*
X0437560Y0135946D01*
X0438597Y0134947D02*
X0456365Y0134947D01*
X0456454Y0133949D02*
X0439145Y0133949D01*
X0439477Y0132950D02*
X0456764Y0132950D01*
X0457074Y0131952D02*
X0439477Y0131952D01*
X0439271Y0130953D02*
X0457384Y0130953D01*
X0457637Y0129955D02*
X0438857Y0129955D01*
X0437901Y0128956D02*
X0458179Y0128956D01*
X0456063Y0137943D02*
X0389859Y0137943D01*
X0389865Y0138941D02*
X0456073Y0138941D01*
X0456174Y0139940D02*
X0389880Y0139940D01*
X0389911Y0140938D02*
X0456275Y0140938D01*
X0456375Y0141937D02*
X0389948Y0141937D01*
X0389997Y0142935D02*
X0456476Y0142935D01*
X0456798Y0143934D02*
X0437879Y0143934D01*
X0437626Y0143681D02*
X0438827Y0144882D01*
X0439477Y0146451D01*
X0439477Y0148149D01*
X0438827Y0149718D01*
X0437626Y0150919D01*
X0436057Y0151568D01*
X0434359Y0151568D01*
X0432790Y0150919D01*
X0431590Y0149718D01*
X0430940Y0148149D01*
X0430940Y0146451D01*
X0431590Y0144882D01*
X0432790Y0143681D01*
X0434359Y0143031D01*
X0436057Y0143031D01*
X0437626Y0143681D01*
X0438848Y0144932D02*
X0457108Y0144932D01*
X0457418Y0145931D02*
X0439261Y0145931D01*
X0439477Y0146930D02*
X0457695Y0146930D01*
X0458237Y0147928D02*
X0439477Y0147928D01*
X0439155Y0148927D02*
X0458779Y0148927D01*
X0459321Y0149925D02*
X0438620Y0149925D01*
X0437614Y0150924D02*
X0459864Y0150924D01*
X0460706Y0151922D02*
X0380548Y0151922D01*
X0380397Y0150924D02*
X0432802Y0150924D01*
X0431797Y0149925D02*
X0380640Y0149925D01*
X0381553Y0148927D02*
X0431262Y0148927D01*
X0430940Y0147928D02*
X0383091Y0147928D01*
X0384604Y0146930D02*
X0430940Y0146930D01*
X0431155Y0145931D02*
X0386118Y0145931D01*
X0387631Y0144932D02*
X0431569Y0144932D01*
X0432538Y0143934D02*
X0389145Y0143934D01*
X0380755Y0152921D02*
X0461530Y0152921D01*
X0462301Y0153919D02*
X0380963Y0153919D01*
X0381171Y0154918D02*
X0463473Y0154918D01*
X0464683Y0155916D02*
X0381378Y0155916D01*
X0381586Y0156915D02*
X0465893Y0156915D01*
X0467755Y0157913D02*
X0381794Y0157913D01*
X0382002Y0158912D02*
X0469562Y0158912D01*
X0472779Y0159910D02*
X0382209Y0159910D01*
X0382417Y0160909D02*
X0573624Y0160909D01*
X0573376Y0161907D02*
X0382625Y0161907D01*
X0382832Y0162906D02*
X0573128Y0162906D01*
X0572880Y0163904D02*
X0383040Y0163904D01*
X0383248Y0164903D02*
X0572632Y0164903D01*
X0572384Y0165901D02*
X0383498Y0165901D01*
X0384314Y0166900D02*
X0572136Y0166900D01*
X0571887Y0167898D02*
X0388740Y0167898D01*
X0394448Y0168897D02*
X0571637Y0168897D01*
X0571033Y0169895D02*
X0395660Y0169895D01*
X0396046Y0170894D02*
X0565636Y0170894D01*
X0559593Y0171892D02*
X0396448Y0171892D01*
X0396866Y0172891D02*
X0559169Y0172891D01*
X0558737Y0173889D02*
X0397294Y0173889D01*
X0397741Y0174888D02*
X0558289Y0174888D01*
X0557823Y0175886D02*
X0398202Y0175886D01*
X0398675Y0176885D02*
X0557345Y0176885D01*
X0556851Y0177883D02*
X0399168Y0177883D01*
X0399677Y0178882D02*
X0556338Y0178882D01*
X0555812Y0179880D02*
X0400197Y0179880D01*
X0400739Y0180879D02*
X0555270Y0180879D01*
X0554705Y0181877D02*
X0400509Y0181877D01*
X0399913Y0182876D02*
X0554127Y0182876D01*
X0553523Y0183874D02*
X0399317Y0183874D01*
X0398721Y0184873D02*
X0553790Y0184873D01*
X0554336Y0185871D02*
X0398125Y0185871D01*
X0397529Y0186870D02*
X0554881Y0186870D01*
X0555426Y0187868D02*
X0396933Y0187868D01*
X0396336Y0188867D02*
X0555972Y0188867D01*
X0556517Y0189866D02*
X0395723Y0189866D01*
X0395354Y0190864D02*
X0452856Y0190864D01*
X0452090Y0191181D02*
X0453659Y0190531D01*
X0455357Y0190531D01*
X0456926Y0191181D01*
X0458127Y0192382D01*
X0458777Y0193951D01*
X0458777Y0195649D01*
X0458127Y0197218D01*
X0456926Y0198419D01*
X0455357Y0199068D01*
X0453659Y0199068D01*
X0452090Y0198419D01*
X0450890Y0197218D01*
X0450240Y0195649D01*
X0450240Y0193951D01*
X0450890Y0192382D01*
X0452090Y0191181D01*
X0451409Y0191863D02*
X0395412Y0191863D01*
X0395991Y0192861D02*
X0450691Y0192861D01*
X0450278Y0193860D02*
X0396756Y0193860D01*
X0397522Y0194858D02*
X0450240Y0194858D01*
X0450326Y0195857D02*
X0398287Y0195857D01*
X0399053Y0196855D02*
X0450739Y0196855D01*
X0451525Y0197854D02*
X0399818Y0197854D01*
X0400583Y0198852D02*
X0453137Y0198852D01*
X0453659Y0200531D02*
X0455357Y0200531D01*
X0456926Y0201181D01*
X0458127Y0202382D01*
X0458777Y0203951D01*
X0458777Y0205649D01*
X0458127Y0207218D01*
X0456926Y0208419D01*
X0455357Y0209068D01*
X0453659Y0209068D01*
X0452090Y0208419D01*
X0450890Y0207218D01*
X0450240Y0205649D01*
X0450240Y0203951D01*
X0450890Y0202382D01*
X0452090Y0201181D01*
X0453659Y0200531D01*
X0452892Y0200849D02*
X0402114Y0200849D01*
X0401349Y0199851D02*
X0490089Y0199851D01*
X0490859Y0199531D02*
X0492557Y0199531D01*
X0494126Y0200181D01*
X0495327Y0201382D01*
X0495977Y0202951D01*
X0495977Y0204649D01*
X0495327Y0206218D01*
X0494126Y0207419D01*
X0492557Y0208068D01*
X0490859Y0208068D01*
X0489290Y0207419D01*
X0488090Y0206218D01*
X0487440Y0204649D01*
X0487440Y0202951D01*
X0488090Y0201382D01*
X0489290Y0200181D01*
X0490859Y0199531D01*
X0493328Y0199851D02*
X0554561Y0199851D01*
X0553733Y0200849D02*
X0494794Y0200849D01*
X0495520Y0201848D02*
X0552904Y0201848D01*
X0552076Y0202846D02*
X0495933Y0202846D01*
X0495977Y0203845D02*
X0536978Y0203845D01*
X0537586Y0203845D02*
X0551248Y0203845D01*
X0550420Y0204843D02*
X0540652Y0204843D01*
X0543727Y0205842D02*
X0549592Y0205842D01*
X0548613Y0206840D02*
X0546724Y0206840D01*
X0555389Y0198852D02*
X0455880Y0198852D01*
X0457491Y0197854D02*
X0556217Y0197854D01*
X0557045Y0196855D02*
X0458277Y0196855D01*
X0458691Y0195857D02*
X0557874Y0195857D01*
X0558568Y0194858D02*
X0458777Y0194858D01*
X0458739Y0193860D02*
X0558604Y0193860D01*
X0558183Y0192861D02*
X0458325Y0192861D01*
X0457607Y0191863D02*
X0557608Y0191863D01*
X0557062Y0190864D02*
X0456160Y0190864D01*
X0456124Y0200849D02*
X0488623Y0200849D01*
X0487897Y0201848D02*
X0457592Y0201848D01*
X0458319Y0202846D02*
X0487483Y0202846D01*
X0487440Y0203845D02*
X0458733Y0203845D01*
X0458777Y0204843D02*
X0487520Y0204843D01*
X0487934Y0205842D02*
X0458697Y0205842D01*
X0458283Y0206840D02*
X0488712Y0206840D01*
X0490304Y0207839D02*
X0457506Y0207839D01*
X0455916Y0208837D02*
X0531607Y0208837D01*
X0532193Y0207839D02*
X0493112Y0207839D01*
X0492557Y0209531D02*
X0490859Y0209531D01*
X0489290Y0210181D01*
X0488090Y0211382D01*
X0487440Y0212951D01*
X0487440Y0214649D01*
X0488090Y0216218D01*
X0489290Y0217419D01*
X0490859Y0218068D01*
X0492557Y0218068D01*
X0494126Y0217419D01*
X0495327Y0216218D01*
X0495977Y0214649D01*
X0495977Y0212951D01*
X0495327Y0211382D01*
X0494126Y0210181D01*
X0492557Y0209531D01*
X0493292Y0209836D02*
X0530459Y0209836D01*
X0529080Y0210834D02*
X0494779Y0210834D01*
X0495514Y0211833D02*
X0527616Y0211833D01*
X0526702Y0212831D02*
X0495927Y0212831D01*
X0495977Y0213830D02*
X0526754Y0213830D01*
X0526805Y0214828D02*
X0495903Y0214828D01*
X0495489Y0215827D02*
X0526856Y0215827D01*
X0526907Y0216825D02*
X0494720Y0216825D01*
X0493148Y0217824D02*
X0526958Y0217824D01*
X0527009Y0218822D02*
X0455952Y0218822D01*
X0455357Y0219068D02*
X0453659Y0219068D01*
X0452090Y0218419D01*
X0450890Y0217218D01*
X0450240Y0215649D01*
X0450240Y0213951D01*
X0450890Y0212382D01*
X0452090Y0211181D01*
X0453659Y0210531D01*
X0455357Y0210531D01*
X0456926Y0211181D01*
X0458127Y0212382D01*
X0458777Y0213951D01*
X0458777Y0215649D01*
X0458127Y0217218D01*
X0456926Y0218419D01*
X0455357Y0219068D01*
X0456052Y0220819D02*
X0488652Y0220819D01*
X0487909Y0221818D02*
X0457563Y0221818D01*
X0458307Y0222816D02*
X0487495Y0222816D01*
X0487440Y0223815D02*
X0458720Y0223815D01*
X0459381Y0224813D02*
X0487508Y0224813D01*
X0487921Y0225812D02*
X0463610Y0225812D01*
X0463985Y0226810D02*
X0488682Y0226810D01*
X0489051Y0227809D02*
X0464361Y0227809D01*
X0464736Y0228807D02*
X0488631Y0228807D01*
X0488212Y0229806D02*
X0465112Y0229806D01*
X0465488Y0230804D02*
X0487792Y0230804D01*
X0487373Y0231803D02*
X0465863Y0231803D01*
X0466239Y0232801D02*
X0486953Y0232801D01*
X0486534Y0233800D02*
X0466614Y0233800D01*
X0466964Y0234799D02*
X0486138Y0234799D01*
X0485660Y0235797D02*
X0467490Y0235797D01*
X0473526Y0236796D02*
X0484601Y0236796D01*
X0495909Y0224813D02*
X0497284Y0224813D01*
X0495977Y0223815D02*
X0501398Y0223815D01*
X0503280Y0223815D02*
X0526984Y0223815D01*
X0527202Y0222816D02*
X0495921Y0222816D01*
X0495507Y0221818D02*
X0527183Y0221818D01*
X0527111Y0220819D02*
X0494764Y0220819D01*
X0493256Y0219821D02*
X0527060Y0219821D01*
X0526062Y0224813D02*
X0504325Y0224813D01*
X0505370Y0225812D02*
X0523941Y0225812D01*
X0521762Y0226810D02*
X0506415Y0226810D01*
X0507460Y0227809D02*
X0519583Y0227809D01*
X0517404Y0228807D02*
X0508505Y0228807D01*
X0509527Y0229806D02*
X0515225Y0229806D01*
X0513046Y0230804D02*
X0510730Y0230804D01*
X0490161Y0219821D02*
X0426299Y0219821D01*
X0426232Y0220819D02*
X0452964Y0220819D01*
X0451454Y0221818D02*
X0426386Y0221818D01*
X0427131Y0222816D02*
X0450075Y0222816D01*
X0448945Y0223815D02*
X0429018Y0223815D01*
X0430993Y0224813D02*
X0447816Y0224813D01*
X0446687Y0225812D02*
X0432969Y0225812D01*
X0434944Y0226810D02*
X0445557Y0226810D01*
X0444428Y0227809D02*
X0436919Y0227809D01*
X0438894Y0228807D02*
X0443340Y0228807D01*
X0451496Y0217824D02*
X0426495Y0217824D01*
X0426406Y0218822D02*
X0453065Y0218822D01*
X0450727Y0216825D02*
X0426585Y0216825D01*
X0426675Y0215827D02*
X0450313Y0215827D01*
X0450240Y0214828D02*
X0426764Y0214828D01*
X0426854Y0213830D02*
X0450290Y0213830D01*
X0450704Y0212831D02*
X0426944Y0212831D01*
X0427033Y0211833D02*
X0451439Y0211833D01*
X0452928Y0210834D02*
X0427123Y0210834D01*
X0426173Y0209836D02*
X0490125Y0209836D01*
X0488637Y0210834D02*
X0456088Y0210834D01*
X0457578Y0211833D02*
X0487903Y0211833D01*
X0487489Y0212831D02*
X0458313Y0212831D01*
X0458727Y0213830D02*
X0487440Y0213830D01*
X0487514Y0214828D02*
X0458777Y0214828D01*
X0458703Y0215827D02*
X0487928Y0215827D01*
X0488697Y0216825D02*
X0458290Y0216825D01*
X0457521Y0217824D02*
X0490269Y0217824D01*
X0494705Y0206840D02*
X0533452Y0206840D01*
X0534668Y0205842D02*
X0495483Y0205842D01*
X0495896Y0204843D02*
X0535841Y0204843D01*
X0533466Y0159652D02*
X0531768Y0159652D01*
X0530199Y0159002D01*
X0528999Y0157801D01*
X0528349Y0156232D01*
X0528349Y0154534D01*
X0528999Y0152965D01*
X0530199Y0151765D01*
X0531768Y0151115D01*
X0533466Y0151115D01*
X0535035Y0151765D01*
X0536236Y0152965D01*
X0536886Y0154534D01*
X0536886Y0156232D01*
X0536236Y0157801D01*
X0535035Y0159002D01*
X0533466Y0159652D01*
X0535126Y0158912D02*
X0574120Y0158912D01*
X0573872Y0159910D02*
X0483861Y0159910D01*
X0487078Y0158912D02*
X0530109Y0158912D01*
X0529111Y0157913D02*
X0488885Y0157913D01*
X0490747Y0156915D02*
X0528631Y0156915D01*
X0528349Y0155916D02*
X0491957Y0155916D01*
X0493167Y0154918D02*
X0528349Y0154918D01*
X0528604Y0153919D02*
X0494339Y0153919D01*
X0495110Y0152921D02*
X0529044Y0152921D01*
X0530042Y0151922D02*
X0495934Y0151922D01*
X0496777Y0150924D02*
X0537000Y0150924D01*
X0537000Y0151217D02*
X0537000Y0149519D01*
X0537650Y0147950D01*
X0538851Y0146750D01*
X0540420Y0146100D01*
X0542118Y0146100D01*
X0543687Y0146750D01*
X0544888Y0147950D01*
X0545537Y0149519D01*
X0545537Y0151217D01*
X0544888Y0152786D01*
X0543687Y0153987D01*
X0542118Y0154637D01*
X0540420Y0154637D01*
X0538851Y0153987D01*
X0537650Y0152786D01*
X0537000Y0151217D01*
X0537292Y0151922D02*
X0535193Y0151922D01*
X0536191Y0152921D02*
X0537785Y0152921D01*
X0538783Y0153919D02*
X0536631Y0153919D01*
X0536886Y0154918D02*
X0575094Y0154918D01*
X0574986Y0153919D02*
X0543755Y0153919D01*
X0544753Y0152921D02*
X0574062Y0152921D01*
X0572630Y0151922D02*
X0545245Y0151922D01*
X0545537Y0150924D02*
X0571236Y0150924D01*
X0569843Y0149925D02*
X0545537Y0149925D01*
X0545292Y0148927D02*
X0568450Y0148927D01*
X0567056Y0147928D02*
X0544865Y0147928D01*
X0543867Y0146930D02*
X0565792Y0146930D01*
X0565878Y0145931D02*
X0499223Y0145931D01*
X0498945Y0146930D02*
X0538671Y0146930D01*
X0537673Y0147928D02*
X0498403Y0147928D01*
X0497861Y0148927D02*
X0537246Y0148927D01*
X0537000Y0149925D02*
X0497319Y0149925D01*
X0499533Y0144932D02*
X0565964Y0144932D01*
X0566035Y0143934D02*
X0499843Y0143934D01*
X0500164Y0142935D02*
X0566098Y0142935D01*
X0566151Y0141937D02*
X0500265Y0141937D01*
X0500365Y0140938D02*
X0566186Y0140938D01*
X0566214Y0139940D02*
X0500466Y0139940D01*
X0500567Y0138941D02*
X0566221Y0138941D01*
X0566218Y0137943D02*
X0500577Y0137943D01*
X0500477Y0136944D02*
X0566204Y0136944D01*
X0566175Y0135946D02*
X0500376Y0135946D01*
X0500275Y0134947D02*
X0566139Y0134947D01*
X0566091Y0133949D02*
X0500186Y0133949D01*
X0499876Y0132950D02*
X0566295Y0132950D01*
X0567831Y0131952D02*
X0499566Y0131952D01*
X0499256Y0130953D02*
X0569342Y0130953D01*
X0570854Y0129955D02*
X0499003Y0129955D01*
X0498461Y0128956D02*
X0572365Y0128956D01*
X0573876Y0127958D02*
X0497920Y0127958D01*
X0497378Y0126959D02*
X0575237Y0126959D01*
X0575675Y0125961D02*
X0496847Y0125961D01*
X0496023Y0124962D02*
X0575545Y0124962D01*
X0575338Y0123964D02*
X0495199Y0123964D01*
X0494375Y0122965D02*
X0575130Y0122965D01*
X0574922Y0121967D02*
X0493299Y0121967D01*
X0492089Y0120968D02*
X0574715Y0120968D01*
X0574507Y0119970D02*
X0490926Y0119970D01*
X0489086Y0118971D02*
X0574299Y0118971D01*
X0574092Y0117973D02*
X0487323Y0117973D01*
X0484213Y0116974D02*
X0573884Y0116974D01*
X0573676Y0115976D02*
X0435208Y0115976D01*
X0435208Y0114977D02*
X0498305Y0114977D01*
X0498556Y0115081D02*
X0497350Y0114582D01*
X0496427Y0113659D01*
X0495927Y0112453D01*
X0495927Y0111147D01*
X0496427Y0109941D01*
X0497350Y0109018D01*
X0498556Y0108519D01*
X0499861Y0108519D01*
X0501067Y0109018D01*
X0501990Y0109941D01*
X0502489Y0111147D01*
X0502489Y0112453D01*
X0501990Y0113659D01*
X0501067Y0114582D01*
X0499861Y0115081D01*
X0498556Y0115081D01*
X0500112Y0114977D02*
X0573468Y0114977D01*
X0573261Y0113979D02*
X0501670Y0113979D01*
X0502271Y0112980D02*
X0573053Y0112980D01*
X0572845Y0111982D02*
X0502489Y0111982D01*
X0502421Y0110983D02*
X0572571Y0110983D01*
X0571079Y0109985D02*
X0502008Y0109985D01*
X0500989Y0108986D02*
X0565276Y0108986D01*
X0560802Y0107988D02*
X0384399Y0107988D01*
X0384151Y0108986D02*
X0497428Y0108986D01*
X0496409Y0109985D02*
X0383903Y0109985D01*
X0383655Y0110983D02*
X0433611Y0110983D01*
X0433208Y0111982D02*
X0383407Y0111982D01*
X0383159Y0112980D02*
X0433208Y0112980D01*
X0433208Y0113979D02*
X0382911Y0113979D01*
X0384774Y0106989D02*
X0449114Y0106989D01*
X0449385Y0107260D02*
X0448288Y0106163D01*
X0447694Y0104729D01*
X0447694Y0103178D01*
X0448288Y0101744D01*
X0449385Y0100647D01*
X0450818Y0100054D01*
X0452370Y0100054D01*
X0453803Y0100647D01*
X0454900Y0101744D01*
X0455494Y0103178D01*
X0455494Y0104729D01*
X0454900Y0106163D01*
X0453803Y0107260D01*
X0452370Y0107854D01*
X0450818Y0107854D01*
X0449385Y0107260D01*
X0448217Y0105991D02*
X0386229Y0105991D01*
X0393406Y0104992D02*
X0447803Y0104992D01*
X0447694Y0103994D02*
X0396820Y0103994D01*
X0397245Y0102995D02*
X0447770Y0102995D01*
X0448183Y0101997D02*
X0397692Y0101997D01*
X0398151Y0100998D02*
X0449034Y0100998D01*
X0450622Y0099800D02*
X0446794Y0099800D01*
X0446208Y0099214D01*
X0446208Y0095386D01*
X0446794Y0094800D01*
X0447622Y0094800D01*
X0448208Y0095386D01*
X0448208Y0097800D01*
X0450622Y0097800D01*
X0451208Y0098386D01*
X0451208Y0099214D01*
X0450622Y0099800D01*
X0451208Y0099001D02*
X0482208Y0099001D01*
X0482208Y0099214D02*
X0482208Y0098386D01*
X0482794Y0097800D01*
X0485208Y0097800D01*
X0485208Y0095386D01*
X0485794Y0094800D01*
X0486622Y0094800D01*
X0487208Y0095386D01*
X0487208Y0099214D01*
X0486622Y0099800D01*
X0485794Y0099800D01*
X0482794Y0099800D01*
X0482208Y0099214D01*
X0482370Y0100054D02*
X0483803Y0100647D01*
X0484900Y0101744D01*
X0485494Y0103178D01*
X0485494Y0104729D01*
X0484900Y0106163D01*
X0483803Y0107260D01*
X0482370Y0107854D01*
X0480818Y0107854D01*
X0479385Y0107260D01*
X0478288Y0106163D01*
X0477694Y0104729D01*
X0477694Y0103178D01*
X0478288Y0101744D01*
X0479385Y0100647D01*
X0480818Y0100054D01*
X0482370Y0100054D01*
X0484154Y0100998D02*
X0557870Y0100998D01*
X0558334Y0101997D02*
X0485005Y0101997D01*
X0485418Y0102995D02*
X0558781Y0102995D01*
X0559212Y0103994D02*
X0485494Y0103994D01*
X0485385Y0104992D02*
X0559633Y0104992D01*
X0560034Y0105991D02*
X0484972Y0105991D01*
X0484074Y0106989D02*
X0560422Y0106989D01*
X0557393Y0099999D02*
X0398621Y0099999D01*
X0399114Y0099001D02*
X0446208Y0099001D01*
X0446208Y0098002D02*
X0399619Y0098002D01*
X0400136Y0097004D02*
X0446208Y0097004D01*
X0446208Y0096005D02*
X0400677Y0096005D01*
X0401232Y0095007D02*
X0446587Y0095007D01*
X0447829Y0095007D02*
X0485587Y0095007D01*
X0485208Y0096005D02*
X0448208Y0096005D01*
X0448208Y0097004D02*
X0485208Y0097004D01*
X0487208Y0097004D02*
X0555863Y0097004D01*
X0556388Y0098002D02*
X0487208Y0098002D01*
X0487208Y0099001D02*
X0556900Y0099001D01*
X0555322Y0096005D02*
X0487208Y0096005D01*
X0486829Y0095007D02*
X0555416Y0095007D01*
X0556012Y0094008D02*
X0401800Y0094008D01*
X0402392Y0093010D02*
X0432792Y0093010D01*
X0432901Y0093064D02*
X0432372Y0092800D01*
X0432194Y0092800D01*
X0432016Y0092622D01*
X0431791Y0092509D01*
X0431734Y0092340D01*
X0431315Y0091921D01*
X0431206Y0091899D01*
X0431031Y0091637D01*
X0430808Y0091414D01*
X0430808Y0091303D01*
X0430482Y0090814D01*
X0430298Y0090686D01*
X0430261Y0090483D01*
X0430146Y0090310D01*
X0430190Y0090091D01*
X0430080Y0089486D01*
X0430008Y0089414D01*
X0430008Y0089090D01*
X0429950Y0088771D01*
X0430008Y0088688D01*
X0430008Y0088029D01*
X0429936Y0087754D01*
X0430008Y0087630D01*
X0430008Y0087486D01*
X0430210Y0087284D01*
X0430674Y0086488D01*
X0430665Y0086413D01*
X0430878Y0086139D01*
X0431053Y0085838D01*
X0431127Y0085819D01*
X0431514Y0085321D01*
X0431591Y0085091D01*
X0431758Y0085007D01*
X0431873Y0084859D01*
X0432114Y0084829D01*
X0433177Y0084297D01*
X0433312Y0084138D01*
X0433533Y0084119D01*
X0433732Y0084020D01*
X0433930Y0084086D01*
X0434560Y0084034D01*
X0434594Y0084000D01*
X0434967Y0084000D01*
X0435338Y0083969D01*
X0435375Y0084000D01*
X0435422Y0084000D01*
X0435686Y0084264D01*
X0435970Y0084504D01*
X0435974Y0084552D01*
X0436008Y0084586D01*
X0436008Y0084958D01*
X0436039Y0085330D01*
X0436008Y0085366D01*
X0436008Y0093014D01*
X0435422Y0093600D01*
X0435085Y0093600D01*
X0434968Y0093671D01*
X0434685Y0093600D01*
X0434394Y0093600D01*
X0434297Y0093503D01*
X0433648Y0093341D01*
X0433532Y0093380D01*
X0433259Y0093244D01*
X0432964Y0093170D01*
X0432901Y0093064D01*
X0431405Y0092011D02*
X0402274Y0092011D01*
X0401729Y0091013D02*
X0430615Y0091013D01*
X0430176Y0090014D02*
X0401184Y0090014D01*
X0400639Y0089016D02*
X0429995Y0089016D01*
X0430005Y0088017D02*
X0400093Y0088017D01*
X0399548Y0087019D02*
X0430365Y0087019D01*
X0430947Y0086020D02*
X0399003Y0086020D01*
X0398458Y0085022D02*
X0431729Y0085022D01*
X0433726Y0084023D02*
X0397885Y0084023D01*
X0397486Y0083025D02*
X0559262Y0083025D01*
X0560028Y0084023D02*
X0435446Y0084023D01*
X0434571Y0084023D02*
X0433740Y0084023D01*
X0436014Y0085022D02*
X0483329Y0085022D01*
X0483314Y0085029D02*
X0484377Y0084497D01*
X0484512Y0084338D01*
X0484733Y0084319D01*
X0484932Y0084220D01*
X0485130Y0084286D01*
X0485760Y0084234D01*
X0485794Y0084200D01*
X0486167Y0084200D01*
X0486538Y0084169D01*
X0486575Y0084200D01*
X0486622Y0084200D01*
X0486886Y0084464D01*
X0487170Y0084704D01*
X0487174Y0084752D01*
X0487208Y0084786D01*
X0487208Y0085158D01*
X0487239Y0085530D01*
X0487208Y0085566D01*
X0487208Y0093214D01*
X0486622Y0093800D01*
X0486285Y0093800D01*
X0486168Y0093871D01*
X0485885Y0093800D01*
X0485594Y0093800D01*
X0485497Y0093703D01*
X0484848Y0093541D01*
X0484732Y0093580D01*
X0484459Y0093444D01*
X0484164Y0093370D01*
X0484101Y0093264D01*
X0483572Y0093000D01*
X0483394Y0093000D01*
X0483216Y0092822D01*
X0482991Y0092709D01*
X0482934Y0092540D01*
X0482515Y0092121D01*
X0482406Y0092099D01*
X0482231Y0091837D01*
X0482008Y0091614D01*
X0482008Y0091503D01*
X0481682Y0091014D01*
X0481498Y0090886D01*
X0481461Y0090683D01*
X0481346Y0090510D01*
X0481390Y0090291D01*
X0481280Y0089686D01*
X0481208Y0089614D01*
X0481208Y0089290D01*
X0481150Y0088971D01*
X0481208Y0088888D01*
X0481208Y0088229D01*
X0481136Y0087954D01*
X0481208Y0087830D01*
X0481208Y0087686D01*
X0481410Y0087484D01*
X0481874Y0086688D01*
X0481865Y0086613D01*
X0482078Y0086339D01*
X0482253Y0086038D01*
X0482327Y0086019D01*
X0482714Y0085521D01*
X0482791Y0085291D01*
X0482958Y0085207D01*
X0483073Y0085059D01*
X0483314Y0085029D01*
X0482322Y0086020D02*
X0436008Y0086020D01*
X0436008Y0087019D02*
X0481681Y0087019D01*
X0481152Y0088017D02*
X0436008Y0088017D01*
X0436008Y0089016D02*
X0481158Y0089016D01*
X0481340Y0090014D02*
X0436008Y0090014D01*
X0436008Y0091013D02*
X0481681Y0091013D01*
X0482347Y0092011D02*
X0436008Y0092011D01*
X0436008Y0093010D02*
X0483592Y0093010D01*
X0487208Y0093010D02*
X0556608Y0093010D01*
X0557204Y0092011D02*
X0487208Y0092011D01*
X0487208Y0091013D02*
X0557801Y0091013D01*
X0558397Y0090014D02*
X0487208Y0090014D01*
X0487208Y0089016D02*
X0558993Y0089016D01*
X0559590Y0088017D02*
X0487208Y0088017D01*
X0487208Y0087019D02*
X0560216Y0087019D01*
X0560679Y0086020D02*
X0487208Y0086020D01*
X0487208Y0085022D02*
X0560669Y0085022D01*
X0558496Y0082026D02*
X0487208Y0082026D01*
X0487208Y0082214D02*
X0486622Y0082800D01*
X0485794Y0082800D01*
X0485208Y0082214D01*
X0485208Y0079800D01*
X0482794Y0079800D01*
X0482208Y0079214D01*
X0482208Y0078386D01*
X0482794Y0077800D01*
X0486622Y0077800D01*
X0487208Y0078386D01*
X0487208Y0082214D01*
X0487208Y0081028D02*
X0557731Y0081028D01*
X0556965Y0080029D02*
X0522986Y0080029D01*
X0522861Y0080081D02*
X0521556Y0080081D01*
X0520350Y0079582D01*
X0519427Y0078659D01*
X0518927Y0077453D01*
X0518927Y0076147D01*
X0519427Y0074941D01*
X0520350Y0074018D01*
X0521556Y0073519D01*
X0522861Y0073519D01*
X0524067Y0074018D01*
X0524990Y0074941D01*
X0525489Y0076147D01*
X0525489Y0077453D01*
X0524990Y0078659D01*
X0524067Y0079582D01*
X0522861Y0080081D01*
X0521430Y0080029D02*
X0487208Y0080029D01*
X0487208Y0079031D02*
X0519799Y0079031D01*
X0519167Y0078032D02*
X0486855Y0078032D01*
X0485208Y0080029D02*
X0448208Y0080029D01*
X0448208Y0079800D02*
X0448208Y0082214D01*
X0447622Y0082800D01*
X0446794Y0082800D01*
X0446208Y0082214D01*
X0446208Y0078386D01*
X0446794Y0077800D01*
X0447622Y0077800D01*
X0450622Y0077800D01*
X0451208Y0078386D01*
X0451208Y0079214D01*
X0450622Y0079800D01*
X0448208Y0079800D01*
X0448208Y0081028D02*
X0485208Y0081028D01*
X0485208Y0082026D02*
X0448208Y0082026D01*
X0446208Y0082026D02*
X0397457Y0082026D01*
X0397956Y0081028D02*
X0446208Y0081028D01*
X0446208Y0080029D02*
X0398779Y0080029D01*
X0399607Y0079031D02*
X0446208Y0079031D01*
X0446562Y0078032D02*
X0400435Y0078032D01*
X0401263Y0077034D02*
X0449159Y0077034D01*
X0449385Y0077260D02*
X0448288Y0076163D01*
X0447694Y0074729D01*
X0447694Y0073178D01*
X0448288Y0071744D01*
X0449385Y0070647D01*
X0450818Y0070054D01*
X0452370Y0070054D01*
X0453803Y0070647D01*
X0454900Y0071744D01*
X0455494Y0073178D01*
X0455494Y0074729D01*
X0454900Y0076163D01*
X0453803Y0077260D01*
X0452370Y0077854D01*
X0450818Y0077854D01*
X0449385Y0077260D01*
X0450855Y0078032D02*
X0482562Y0078032D01*
X0482370Y0077854D02*
X0480818Y0077854D01*
X0479385Y0077260D01*
X0478288Y0076163D01*
X0477694Y0074729D01*
X0477694Y0073178D01*
X0478288Y0071744D01*
X0479385Y0070647D01*
X0480818Y0070054D01*
X0482370Y0070054D01*
X0483803Y0070647D01*
X0484900Y0071744D01*
X0485494Y0073178D01*
X0485494Y0074729D01*
X0484900Y0076163D01*
X0483803Y0077260D01*
X0482370Y0077854D01*
X0482208Y0079031D02*
X0451208Y0079031D01*
X0454029Y0077034D02*
X0459159Y0077034D01*
X0459385Y0077260D02*
X0458288Y0076163D01*
X0457694Y0074729D01*
X0457694Y0073178D01*
X0458288Y0071744D01*
X0459385Y0070647D01*
X0460818Y0070054D01*
X0462370Y0070054D01*
X0463803Y0070647D01*
X0464900Y0071744D01*
X0465494Y0073178D01*
X0465494Y0074729D01*
X0464900Y0076163D01*
X0463803Y0077260D01*
X0462370Y0077854D01*
X0460818Y0077854D01*
X0459385Y0077260D01*
X0458235Y0076035D02*
X0454953Y0076035D01*
X0455367Y0075037D02*
X0457821Y0075037D01*
X0457694Y0074038D02*
X0455494Y0074038D01*
X0455437Y0073040D02*
X0457751Y0073040D01*
X0458165Y0072041D02*
X0455023Y0072041D01*
X0454199Y0071043D02*
X0458990Y0071043D01*
X0464199Y0071043D02*
X0468990Y0071043D01*
X0469385Y0070647D02*
X0468288Y0071744D01*
X0467694Y0073178D01*
X0467694Y0074729D01*
X0468288Y0076163D01*
X0469385Y0077260D01*
X0470818Y0077854D01*
X0472370Y0077854D01*
X0473803Y0077260D01*
X0474900Y0076163D01*
X0475494Y0074729D01*
X0475494Y0073178D01*
X0474900Y0071744D01*
X0473803Y0070647D01*
X0472370Y0070054D01*
X0470818Y0070054D01*
X0469385Y0070647D01*
X0468165Y0072041D02*
X0465023Y0072041D01*
X0465437Y0073040D02*
X0467751Y0073040D01*
X0467694Y0074038D02*
X0465494Y0074038D01*
X0465367Y0075037D02*
X0467821Y0075037D01*
X0468235Y0076035D02*
X0464953Y0076035D01*
X0464029Y0077034D02*
X0469159Y0077034D01*
X0474029Y0077034D02*
X0479159Y0077034D01*
X0478235Y0076035D02*
X0474953Y0076035D01*
X0475367Y0075037D02*
X0477821Y0075037D01*
X0477694Y0074038D02*
X0475494Y0074038D01*
X0475437Y0073040D02*
X0477751Y0073040D01*
X0478165Y0072041D02*
X0475023Y0072041D01*
X0474199Y0071043D02*
X0478990Y0071043D01*
X0484199Y0071043D02*
X0534794Y0071043D01*
X0535948Y0072041D02*
X0485023Y0072041D01*
X0485437Y0073040D02*
X0537091Y0073040D01*
X0538163Y0074038D02*
X0524087Y0074038D01*
X0525029Y0075037D02*
X0539235Y0075037D01*
X0540819Y0075037D02*
X0553137Y0075037D01*
X0553903Y0076035D02*
X0525443Y0076035D01*
X0525489Y0077034D02*
X0554668Y0077034D01*
X0555434Y0078032D02*
X0525249Y0078032D01*
X0524618Y0079031D02*
X0556200Y0079031D01*
X0552371Y0074038D02*
X0544351Y0074038D01*
X0547883Y0073040D02*
X0551585Y0073040D01*
X0533577Y0070044D02*
X0422177Y0070044D01*
X0420998Y0071043D02*
X0448990Y0071043D01*
X0448165Y0072041D02*
X0419840Y0072041D01*
X0418134Y0072041D02*
X0405404Y0072041D01*
X0404576Y0073040D02*
X0447751Y0073040D01*
X0447694Y0074038D02*
X0403748Y0074038D01*
X0402920Y0075037D02*
X0447821Y0075037D01*
X0448235Y0076035D02*
X0402091Y0076035D01*
X0406233Y0071043D02*
X0415058Y0071043D01*
X0411983Y0070044D02*
X0407062Y0070044D01*
X0423427Y0069046D02*
X0532330Y0069046D01*
X0531021Y0068047D02*
X0424690Y0068047D01*
X0426040Y0067049D02*
X0529672Y0067049D01*
X0528925Y0066050D02*
X0435208Y0066050D01*
X0435208Y0065052D02*
X0529038Y0065052D01*
X0529127Y0064053D02*
X0435208Y0064053D01*
X0435208Y0063055D02*
X0529217Y0063055D01*
X0529306Y0062056D02*
X0435208Y0062056D01*
X0434880Y0061058D02*
X0529396Y0061058D01*
X0529486Y0060059D02*
X0430668Y0060059D01*
X0430886Y0059061D02*
X0529575Y0059061D01*
X0529665Y0058062D02*
X0430884Y0058062D01*
X0430470Y0057063D02*
X0529765Y0057063D01*
X0529855Y0056065D02*
X0429675Y0056065D01*
X0429468Y0055066D02*
X0529695Y0055066D01*
X0528566Y0054068D02*
X0506445Y0054068D01*
X0505139Y0054068D02*
X0429430Y0054068D01*
X0429608Y0053069D02*
X0453471Y0053069D01*
X0454869Y0053069D02*
X0501765Y0053069D01*
X0497750Y0052071D02*
X0458867Y0052071D01*
X0464056Y0051072D02*
X0493072Y0051072D01*
X0492697Y0050074D02*
X0467127Y0050074D01*
X0467546Y0049075D02*
X0492322Y0049075D01*
X0491946Y0048077D02*
X0467966Y0048077D01*
X0468385Y0047078D02*
X0491571Y0047078D01*
X0491196Y0046080D02*
X0468805Y0046080D01*
X0469225Y0045081D02*
X0490821Y0045081D01*
X0490446Y0044083D02*
X0469644Y0044083D01*
X0470064Y0043084D02*
X0471557Y0043084D01*
X0470559Y0042086D02*
X0470464Y0042086D01*
X0473631Y0043084D02*
X0490070Y0043084D01*
X0489722Y0042086D02*
X0474629Y0042086D01*
X0474876Y0041087D02*
X0489231Y0041087D01*
X0487566Y0040089D02*
X0474876Y0040089D01*
X0452426Y0052071D02*
X0430388Y0052071D01*
X0432466Y0051072D02*
X0451381Y0051072D01*
X0450336Y0050074D02*
X0434646Y0050074D01*
X0436826Y0049075D02*
X0449290Y0049075D01*
X0448245Y0048077D02*
X0439005Y0048077D01*
X0441185Y0047078D02*
X0447215Y0047078D01*
X0446090Y0046080D02*
X0443365Y0046080D01*
X0433208Y0063055D02*
X0429891Y0063055D01*
X0429942Y0064053D02*
X0433208Y0064053D01*
X0433208Y0065052D02*
X0428870Y0065052D01*
X0427407Y0066050D02*
X0433208Y0066050D01*
X0401940Y0047607D02*
X0402064Y0047379D01*
X0402143Y0047126D01*
X0402170Y0046854D01*
X0402170Y0020479D01*
X0402143Y0020208D01*
X0402064Y0019956D01*
X0401940Y0019727D01*
X0401776Y0019528D01*
X0401576Y0019363D01*
X0401348Y0019239D01*
X0401095Y0019161D01*
X0400824Y0019133D01*
X0393826Y0019133D01*
X0393554Y0019161D01*
X0393302Y0019239D01*
X0393073Y0019363D01*
X0392874Y0019528D01*
X0392710Y0019727D01*
X0392586Y0019956D01*
X0392507Y0020208D01*
X0392480Y0020479D01*
X0392480Y0046854D01*
X0392507Y0047126D01*
X0392586Y0047379D01*
X0392710Y0047607D01*
X0392874Y0047806D01*
X0393073Y0047970D01*
X0393302Y0048094D01*
X0393554Y0048173D01*
X0393826Y0048200D01*
X0400824Y0048200D01*
X0401095Y0048173D01*
X0401348Y0048094D01*
X0401576Y0047970D01*
X0401776Y0047806D01*
X0401940Y0047607D01*
X0402148Y0047078D02*
X0392502Y0047078D01*
X0392480Y0046080D02*
X0402170Y0046080D01*
X0402170Y0045081D02*
X0392480Y0045081D01*
X0392480Y0044083D02*
X0402170Y0044083D01*
X0402170Y0043084D02*
X0392480Y0043084D01*
X0392480Y0042086D02*
X0402170Y0042086D01*
X0402170Y0041087D02*
X0392480Y0041087D01*
X0392480Y0040089D02*
X0402170Y0040089D01*
X0402170Y0039090D02*
X0392480Y0039090D01*
X0392480Y0038092D02*
X0402170Y0038092D01*
X0402170Y0037093D02*
X0392480Y0037093D01*
X0392480Y0036095D02*
X0402170Y0036095D01*
X0402170Y0035096D02*
X0392480Y0035096D01*
X0392480Y0034098D02*
X0402170Y0034098D01*
X0402170Y0033099D02*
X0392480Y0033099D01*
X0392480Y0032101D02*
X0402170Y0032101D01*
X0402170Y0031102D02*
X0392480Y0031102D01*
X0392480Y0030104D02*
X0402170Y0030104D01*
X0402170Y0029105D02*
X0392480Y0029105D01*
X0392480Y0028107D02*
X0402170Y0028107D01*
X0402170Y0027108D02*
X0392480Y0027108D01*
X0392480Y0026110D02*
X0402170Y0026110D01*
X0402170Y0025111D02*
X0392480Y0025111D01*
X0392480Y0024113D02*
X0402170Y0024113D01*
X0402170Y0023114D02*
X0392480Y0023114D01*
X0392480Y0022116D02*
X0402170Y0022116D01*
X0402170Y0021117D02*
X0392480Y0021117D01*
X0392535Y0020119D02*
X0402115Y0020119D01*
X0387635Y0020479D02*
X0387608Y0020208D01*
X0387530Y0019956D01*
X0387406Y0019727D01*
X0387241Y0019528D01*
X0387042Y0019363D01*
X0386813Y0019239D01*
X0386561Y0019161D01*
X0386289Y0019133D01*
X0379294Y0019133D01*
X0379022Y0019161D01*
X0378769Y0019239D01*
X0378540Y0019363D01*
X0378341Y0019528D01*
X0378177Y0019727D01*
X0378053Y0019956D01*
X0377975Y0020208D01*
X0377948Y0020479D01*
X0377948Y0046854D01*
X0377975Y0047126D01*
X0378053Y0047379D01*
X0378177Y0047607D01*
X0378341Y0047806D01*
X0378540Y0047970D01*
X0378769Y0048094D01*
X0379022Y0048173D01*
X0379294Y0048200D01*
X0386289Y0048200D01*
X0386561Y0048173D01*
X0386813Y0048094D01*
X0387042Y0047970D01*
X0387241Y0047806D01*
X0387406Y0047607D01*
X0387530Y0047379D01*
X0387608Y0047126D01*
X0387635Y0046854D01*
X0387635Y0020479D01*
X0387580Y0020119D02*
X0378003Y0020119D01*
X0377948Y0021117D02*
X0387635Y0021117D01*
X0387635Y0022116D02*
X0377948Y0022116D01*
X0377948Y0023114D02*
X0387635Y0023114D01*
X0387635Y0024113D02*
X0377948Y0024113D01*
X0377948Y0025111D02*
X0387635Y0025111D01*
X0387635Y0026110D02*
X0377948Y0026110D01*
X0377948Y0027108D02*
X0387635Y0027108D01*
X0387635Y0028107D02*
X0377948Y0028107D01*
X0377948Y0029105D02*
X0387635Y0029105D01*
X0387635Y0030104D02*
X0377948Y0030104D01*
X0377948Y0031102D02*
X0387635Y0031102D01*
X0387635Y0032101D02*
X0377948Y0032101D01*
X0377948Y0033099D02*
X0387635Y0033099D01*
X0387635Y0034098D02*
X0377948Y0034098D01*
X0377948Y0035096D02*
X0387635Y0035096D01*
X0387635Y0036095D02*
X0377948Y0036095D01*
X0377948Y0037093D02*
X0387635Y0037093D01*
X0387635Y0038092D02*
X0377948Y0038092D01*
X0377948Y0039090D02*
X0387635Y0039090D01*
X0387635Y0040089D02*
X0377948Y0040089D01*
X0377948Y0041087D02*
X0387635Y0041087D01*
X0387635Y0042086D02*
X0377948Y0042086D01*
X0377948Y0043084D02*
X0387635Y0043084D01*
X0387635Y0044083D02*
X0377948Y0044083D01*
X0377948Y0045081D02*
X0387635Y0045081D01*
X0387635Y0046080D02*
X0377948Y0046080D01*
X0377970Y0047078D02*
X0387613Y0047078D01*
X0386846Y0048077D02*
X0378736Y0048077D01*
X0373076Y0047126D02*
X0372997Y0047379D01*
X0372872Y0047607D01*
X0372708Y0047806D01*
X0372509Y0047970D01*
X0372281Y0048094D01*
X0372029Y0048173D01*
X0371759Y0048200D01*
X0364760Y0048200D01*
X0364488Y0048173D01*
X0364235Y0048094D01*
X0364006Y0047970D01*
X0363807Y0047806D01*
X0363643Y0047607D01*
X0363520Y0047379D01*
X0363442Y0047126D01*
X0363415Y0046854D01*
X0363415Y0020479D01*
X0363442Y0020208D01*
X0363520Y0019956D01*
X0363643Y0019727D01*
X0363807Y0019528D01*
X0364006Y0019363D01*
X0364235Y0019239D01*
X0364488Y0019161D01*
X0364760Y0019133D01*
X0371759Y0019133D01*
X0372029Y0019161D01*
X0372281Y0019239D01*
X0372509Y0019363D01*
X0372708Y0019528D01*
X0372872Y0019727D01*
X0372997Y0019956D01*
X0373076Y0020208D01*
X0373103Y0020479D01*
X0373103Y0046854D01*
X0373076Y0047126D01*
X0373080Y0047078D02*
X0363437Y0047078D01*
X0363415Y0046080D02*
X0373103Y0046080D01*
X0373103Y0045081D02*
X0363415Y0045081D01*
X0363415Y0044083D02*
X0373103Y0044083D01*
X0373103Y0043084D02*
X0363415Y0043084D01*
X0363415Y0042086D02*
X0373103Y0042086D01*
X0373103Y0041087D02*
X0363415Y0041087D01*
X0363415Y0040089D02*
X0373103Y0040089D01*
X0373103Y0039090D02*
X0363415Y0039090D01*
X0363415Y0038092D02*
X0373103Y0038092D01*
X0373103Y0037093D02*
X0363415Y0037093D01*
X0363415Y0036095D02*
X0373103Y0036095D01*
X0373103Y0035096D02*
X0363415Y0035096D01*
X0363415Y0034098D02*
X0373103Y0034098D01*
X0373103Y0033099D02*
X0363415Y0033099D01*
X0363415Y0032101D02*
X0373103Y0032101D01*
X0373103Y0031102D02*
X0363415Y0031102D01*
X0363415Y0030104D02*
X0373103Y0030104D01*
X0373103Y0029105D02*
X0363415Y0029105D01*
X0363415Y0028107D02*
X0373103Y0028107D01*
X0373103Y0027108D02*
X0363415Y0027108D01*
X0363415Y0026110D02*
X0373103Y0026110D01*
X0373103Y0025111D02*
X0363415Y0025111D01*
X0363415Y0024113D02*
X0373103Y0024113D01*
X0373103Y0023114D02*
X0363415Y0023114D01*
X0363415Y0022116D02*
X0373103Y0022116D01*
X0373103Y0021117D02*
X0363415Y0021117D01*
X0363469Y0020119D02*
X0373048Y0020119D01*
X0358571Y0020479D02*
X0358544Y0020208D01*
X0358465Y0019956D01*
X0358341Y0019727D01*
X0358177Y0019528D01*
X0357978Y0019363D01*
X0357749Y0019239D01*
X0357497Y0019161D01*
X0357227Y0019133D01*
X0350224Y0019133D01*
X0349953Y0019161D01*
X0349700Y0019239D01*
X0349472Y0019363D01*
X0349272Y0019528D01*
X0349108Y0019727D01*
X0348984Y0019956D01*
X0348906Y0020208D01*
X0348878Y0020479D01*
X0348878Y0046854D01*
X0348906Y0047126D01*
X0348984Y0047379D01*
X0349108Y0047607D01*
X0349272Y0047806D01*
X0349472Y0047970D01*
X0349700Y0048094D01*
X0349953Y0048173D01*
X0350224Y0048200D01*
X0357227Y0048200D01*
X0357497Y0048173D01*
X0357749Y0048094D01*
X0357978Y0047970D01*
X0358177Y0047806D01*
X0358341Y0047607D01*
X0358465Y0047379D01*
X0358544Y0047126D01*
X0358571Y0046854D01*
X0358571Y0020479D01*
X0358516Y0020119D02*
X0348933Y0020119D01*
X0348878Y0021117D02*
X0358571Y0021117D01*
X0358571Y0022116D02*
X0348878Y0022116D01*
X0348878Y0023114D02*
X0358571Y0023114D01*
X0358571Y0024113D02*
X0348878Y0024113D01*
X0348878Y0025111D02*
X0358571Y0025111D01*
X0358571Y0026110D02*
X0348878Y0026110D01*
X0348878Y0027108D02*
X0358571Y0027108D01*
X0358571Y0028107D02*
X0348878Y0028107D01*
X0348878Y0029105D02*
X0358571Y0029105D01*
X0358571Y0030104D02*
X0348878Y0030104D01*
X0348878Y0031102D02*
X0358571Y0031102D01*
X0358571Y0032101D02*
X0348878Y0032101D01*
X0348878Y0033099D02*
X0358571Y0033099D01*
X0358571Y0034098D02*
X0348878Y0034098D01*
X0348878Y0035096D02*
X0358571Y0035096D01*
X0358571Y0036095D02*
X0348878Y0036095D01*
X0348878Y0037093D02*
X0358571Y0037093D01*
X0358571Y0038092D02*
X0348878Y0038092D01*
X0348878Y0039090D02*
X0358571Y0039090D01*
X0358571Y0040089D02*
X0348878Y0040089D01*
X0348878Y0041087D02*
X0358571Y0041087D01*
X0358571Y0042086D02*
X0348878Y0042086D01*
X0348878Y0043084D02*
X0358571Y0043084D01*
X0358571Y0044083D02*
X0348878Y0044083D01*
X0348878Y0045081D02*
X0358571Y0045081D01*
X0358571Y0046080D02*
X0348878Y0046080D01*
X0348901Y0047078D02*
X0358549Y0047078D01*
X0357782Y0048077D02*
X0349668Y0048077D01*
X0344007Y0047126D02*
X0344034Y0046854D01*
X0344034Y0020479D01*
X0344007Y0020208D01*
X0343929Y0019956D01*
X0343805Y0019727D01*
X0343641Y0019528D01*
X0343443Y0019363D01*
X0343214Y0019239D01*
X0342961Y0019161D01*
X0342688Y0019133D01*
X0335692Y0019133D01*
X0335421Y0019161D01*
X0335169Y0019239D01*
X0334940Y0019363D01*
X0334741Y0019528D01*
X0334576Y0019727D01*
X0334452Y0019956D01*
X0334374Y0020208D01*
X0334346Y0020479D01*
X0334346Y0046854D01*
X0334374Y0047126D01*
X0334452Y0047379D01*
X0334576Y0047607D01*
X0334741Y0047806D01*
X0334940Y0047970D01*
X0335169Y0048094D01*
X0335421Y0048173D01*
X0335692Y0048200D01*
X0342688Y0048200D01*
X0342961Y0048173D01*
X0343214Y0048094D01*
X0343443Y0047970D01*
X0343641Y0047806D01*
X0343805Y0047607D01*
X0343929Y0047379D01*
X0344007Y0047126D01*
X0344011Y0047078D02*
X0334369Y0047078D01*
X0334346Y0046080D02*
X0344034Y0046080D01*
X0344034Y0045081D02*
X0334346Y0045081D01*
X0334346Y0044083D02*
X0344034Y0044083D01*
X0344034Y0043084D02*
X0334346Y0043084D01*
X0334346Y0042086D02*
X0344034Y0042086D01*
X0344034Y0041087D02*
X0334346Y0041087D01*
X0334346Y0040089D02*
X0344034Y0040089D01*
X0344034Y0039090D02*
X0334346Y0039090D01*
X0334346Y0038092D02*
X0344034Y0038092D01*
X0344034Y0037093D02*
X0334346Y0037093D01*
X0334346Y0036095D02*
X0344034Y0036095D01*
X0344034Y0035096D02*
X0334346Y0035096D01*
X0334346Y0034098D02*
X0344034Y0034098D01*
X0344034Y0033099D02*
X0334346Y0033099D01*
X0334346Y0032101D02*
X0344034Y0032101D01*
X0344034Y0031102D02*
X0334346Y0031102D01*
X0334346Y0030104D02*
X0344034Y0030104D01*
X0344034Y0029105D02*
X0334346Y0029105D01*
X0334346Y0028107D02*
X0344034Y0028107D01*
X0344034Y0027108D02*
X0334346Y0027108D01*
X0334346Y0026110D02*
X0344034Y0026110D01*
X0344034Y0025111D02*
X0334346Y0025111D01*
X0334346Y0024113D02*
X0344034Y0024113D01*
X0344034Y0023114D02*
X0334346Y0023114D01*
X0334346Y0022116D02*
X0344034Y0022116D01*
X0344034Y0021117D02*
X0334346Y0021117D01*
X0334401Y0020119D02*
X0343979Y0020119D01*
X0329500Y0020479D02*
X0329473Y0020208D01*
X0329395Y0019956D01*
X0329271Y0019727D01*
X0329107Y0019528D01*
X0328908Y0019363D01*
X0328680Y0019239D01*
X0328427Y0019161D01*
X0328156Y0019133D01*
X0316313Y0019133D01*
X0316042Y0019161D01*
X0315789Y0019239D01*
X0315560Y0019363D01*
X0315361Y0019528D01*
X0315196Y0019727D01*
X0315072Y0019956D01*
X0314993Y0020208D01*
X0314966Y0020479D01*
X0314966Y0046854D01*
X0314993Y0047126D01*
X0315072Y0047379D01*
X0315196Y0047607D01*
X0315361Y0047806D01*
X0315560Y0047970D01*
X0315789Y0048094D01*
X0316042Y0048173D01*
X0316313Y0048200D01*
X0328156Y0048200D01*
X0328427Y0048173D01*
X0328680Y0048094D01*
X0328908Y0047970D01*
X0329107Y0047806D01*
X0329271Y0047607D01*
X0329395Y0047379D01*
X0329473Y0047126D01*
X0329500Y0046854D01*
X0329500Y0020479D01*
X0329446Y0020119D02*
X0315021Y0020119D01*
X0314966Y0021117D02*
X0329500Y0021117D01*
X0329500Y0022116D02*
X0314966Y0022116D01*
X0314966Y0023114D02*
X0320324Y0023114D01*
X0320323Y0023116D02*
X0320374Y0023053D01*
X0320454Y0023045D01*
X0320521Y0023008D01*
X0320596Y0023030D01*
X0320686Y0023021D01*
X0320708Y0023015D01*
X0320743Y0022979D01*
X0320822Y0022979D01*
X0320985Y0022928D01*
X0321082Y0022979D01*
X0321108Y0022979D01*
X0321470Y0022943D01*
X0321514Y0022979D01*
X0322953Y0022979D01*
X0322998Y0022943D01*
X0323360Y0022979D01*
X0323386Y0022979D01*
X0323482Y0022928D01*
X0323646Y0022979D01*
X0323724Y0022979D01*
X0323760Y0023015D01*
X0323782Y0023021D01*
X0323872Y0023030D01*
X0323946Y0023008D01*
X0324014Y0023045D01*
X0324093Y0023053D01*
X0324145Y0023116D01*
X0324224Y0023159D01*
X0324297Y0023181D01*
X0324379Y0023174D01*
X0324444Y0023227D01*
X0324526Y0023252D01*
X0324565Y0023327D01*
X0324624Y0023376D01*
X0324684Y0023408D01*
X0324768Y0023416D01*
X0324824Y0023484D01*
X0324903Y0023527D01*
X0324928Y0023609D01*
X0324971Y0023662D01*
X0325025Y0023706D01*
X0325107Y0023730D01*
X0325150Y0023809D01*
X0325217Y0023865D01*
X0325225Y0023948D01*
X0325259Y0024009D01*
X0325308Y0024069D01*
X0325383Y0024108D01*
X0325408Y0024189D01*
X0325461Y0024253D01*
X0325453Y0024335D01*
X0325476Y0024409D01*
X0325519Y0024488D01*
X0325582Y0024539D01*
X0325590Y0024619D01*
X0325627Y0024687D01*
X0325604Y0024762D01*
X0325613Y0024852D01*
X0325620Y0024873D01*
X0325656Y0024909D01*
X0325656Y0024989D01*
X0325707Y0025151D01*
X0325656Y0025247D01*
X0325656Y0025273D01*
X0325693Y0025635D01*
X0325656Y0025680D01*
X0325656Y0041655D01*
X0325693Y0041700D01*
X0325656Y0042062D01*
X0325656Y0042088D01*
X0325707Y0042183D01*
X0325656Y0042345D01*
X0325656Y0042425D01*
X0325620Y0042461D01*
X0325613Y0042483D01*
X0325604Y0042572D01*
X0325627Y0042648D01*
X0325590Y0042716D01*
X0325582Y0042795D01*
X0325519Y0042847D01*
X0325476Y0042925D01*
X0325453Y0043000D01*
X0325461Y0043082D01*
X0325408Y0043146D01*
X0325383Y0043227D01*
X0325308Y0043266D01*
X0325259Y0043326D01*
X0325225Y0043387D01*
X0325217Y0043470D01*
X0325150Y0043525D01*
X0325107Y0043604D01*
X0325025Y0043629D01*
X0324971Y0043673D01*
X0324928Y0043726D01*
X0324903Y0043808D01*
X0324824Y0043850D01*
X0324768Y0043919D01*
X0324684Y0043926D01*
X0324624Y0043959D01*
X0324565Y0044008D01*
X0324526Y0044082D01*
X0324444Y0044108D01*
X0324379Y0044161D01*
X0324297Y0044153D01*
X0324224Y0044176D01*
X0324145Y0044219D01*
X0324093Y0044282D01*
X0324014Y0044290D01*
X0323946Y0044327D01*
X0323871Y0044304D01*
X0323782Y0044313D01*
X0323760Y0044320D01*
X0323724Y0044355D01*
X0323646Y0044355D01*
X0323482Y0044406D01*
X0323386Y0044355D01*
X0323360Y0044355D01*
X0322998Y0044392D01*
X0322953Y0044355D01*
X0321514Y0044355D01*
X0321470Y0044392D01*
X0321108Y0044355D01*
X0321082Y0044355D01*
X0320985Y0044406D01*
X0320822Y0044355D01*
X0320743Y0044355D01*
X0320708Y0044320D01*
X0320686Y0044313D01*
X0320596Y0044304D01*
X0320521Y0044327D01*
X0320454Y0044290D01*
X0320374Y0044282D01*
X0320323Y0044219D01*
X0320244Y0044176D01*
X0320171Y0044153D01*
X0320089Y0044161D01*
X0320024Y0044108D01*
X0319942Y0044082D01*
X0319903Y0044008D01*
X0319844Y0043959D01*
X0319783Y0043926D01*
X0319699Y0043918D01*
X0319642Y0043850D01*
X0319564Y0043808D01*
X0319540Y0043726D01*
X0319496Y0043672D01*
X0319442Y0043628D01*
X0319361Y0043604D01*
X0319318Y0043526D01*
X0319250Y0043470D01*
X0319242Y0043386D01*
X0319209Y0043325D01*
X0319161Y0043267D01*
X0319086Y0043228D01*
X0319061Y0043146D01*
X0319007Y0043080D01*
X0319015Y0042998D01*
X0318992Y0042926D01*
X0318949Y0042846D01*
X0318885Y0042794D01*
X0318877Y0042714D01*
X0318841Y0042648D01*
X0318863Y0042574D01*
X0318854Y0042483D01*
X0318847Y0042460D01*
X0318812Y0042425D01*
X0318812Y0042348D01*
X0318761Y0042185D01*
X0318812Y0042088D01*
X0318812Y0042061D01*
X0318776Y0041699D01*
X0318812Y0041654D01*
X0318812Y0025680D01*
X0318776Y0025636D01*
X0318812Y0025274D01*
X0318812Y0025247D01*
X0318761Y0025150D01*
X0318812Y0024987D01*
X0318812Y0024909D01*
X0318847Y0024874D01*
X0318854Y0024852D01*
X0318863Y0024761D01*
X0318841Y0024687D01*
X0318877Y0024621D01*
X0318885Y0024541D01*
X0318949Y0024488D01*
X0318992Y0024409D01*
X0319015Y0024337D01*
X0319007Y0024254D01*
X0319061Y0024189D01*
X0319086Y0024107D01*
X0319161Y0024068D01*
X0319209Y0024009D01*
X0319242Y0023949D01*
X0319250Y0023865D01*
X0319318Y0023809D01*
X0319361Y0023730D01*
X0319442Y0023706D01*
X0319496Y0023662D01*
X0319540Y0023609D01*
X0319564Y0023527D01*
X0319642Y0023485D01*
X0319699Y0023417D01*
X0319783Y0023409D01*
X0319844Y0023376D01*
X0319903Y0023327D01*
X0319942Y0023252D01*
X0320024Y0023227D01*
X0320089Y0023174D01*
X0320171Y0023181D01*
X0320244Y0023159D01*
X0320323Y0023116D01*
X0319085Y0024113D02*
X0314966Y0024113D01*
X0314966Y0025111D02*
X0318773Y0025111D01*
X0318812Y0026110D02*
X0314966Y0026110D01*
X0314966Y0027108D02*
X0318812Y0027108D01*
X0318812Y0028107D02*
X0314966Y0028107D01*
X0314966Y0029105D02*
X0318812Y0029105D01*
X0318812Y0030104D02*
X0314966Y0030104D01*
X0314966Y0031102D02*
X0318812Y0031102D01*
X0318812Y0032101D02*
X0314966Y0032101D01*
X0314966Y0033099D02*
X0318812Y0033099D01*
X0318812Y0034098D02*
X0314966Y0034098D01*
X0314966Y0035096D02*
X0318812Y0035096D01*
X0318812Y0036095D02*
X0314966Y0036095D01*
X0314966Y0037093D02*
X0318812Y0037093D01*
X0318812Y0038092D02*
X0314966Y0038092D01*
X0314966Y0039090D02*
X0318812Y0039090D01*
X0318812Y0040089D02*
X0314966Y0040089D01*
X0314966Y0041087D02*
X0318812Y0041087D01*
X0318812Y0042086D02*
X0314966Y0042086D01*
X0314966Y0043084D02*
X0319010Y0043084D01*
X0319944Y0044083D02*
X0314966Y0044083D01*
X0314966Y0045081D02*
X0329500Y0045081D01*
X0329500Y0044083D02*
X0324524Y0044083D01*
X0325459Y0043084D02*
X0329500Y0043084D01*
X0329500Y0042086D02*
X0325656Y0042086D01*
X0325656Y0041087D02*
X0329500Y0041087D01*
X0329500Y0040089D02*
X0325656Y0040089D01*
X0325656Y0039090D02*
X0329500Y0039090D01*
X0329500Y0038092D02*
X0325656Y0038092D01*
X0325656Y0037093D02*
X0329500Y0037093D01*
X0329500Y0036095D02*
X0325656Y0036095D01*
X0325656Y0035096D02*
X0329500Y0035096D01*
X0329500Y0034098D02*
X0325656Y0034098D01*
X0325656Y0033099D02*
X0329500Y0033099D01*
X0329500Y0032101D02*
X0325656Y0032101D01*
X0325656Y0031102D02*
X0329500Y0031102D01*
X0329500Y0030104D02*
X0325656Y0030104D01*
X0325656Y0029105D02*
X0329500Y0029105D01*
X0329500Y0028107D02*
X0325656Y0028107D01*
X0325656Y0027108D02*
X0329500Y0027108D01*
X0329500Y0026110D02*
X0325656Y0026110D01*
X0325694Y0025111D02*
X0329500Y0025111D01*
X0329500Y0024113D02*
X0325384Y0024113D01*
X0324144Y0023114D02*
X0329500Y0023114D01*
X0310123Y0023114D02*
X0300433Y0023114D01*
X0300433Y0022116D02*
X0310123Y0022116D01*
X0310123Y0021117D02*
X0300433Y0021117D01*
X0300433Y0020479D02*
X0300433Y0046854D01*
X0300460Y0047126D01*
X0300539Y0047379D01*
X0300663Y0047607D01*
X0300827Y0047806D01*
X0301026Y0047970D01*
X0301255Y0048094D01*
X0301507Y0048173D01*
X0301778Y0048200D01*
X0308777Y0048200D01*
X0309048Y0048173D01*
X0309301Y0048094D01*
X0309529Y0047970D01*
X0309728Y0047806D01*
X0309893Y0047607D01*
X0310017Y0047379D01*
X0310096Y0047126D01*
X0310123Y0046854D01*
X0310123Y0020479D01*
X0310096Y0020208D01*
X0310017Y0019956D01*
X0309893Y0019727D01*
X0309728Y0019528D01*
X0309529Y0019363D01*
X0309301Y0019239D01*
X0309048Y0019161D01*
X0308777Y0019133D01*
X0301778Y0019133D01*
X0301507Y0019161D01*
X0301255Y0019239D01*
X0301026Y0019363D01*
X0300827Y0019528D01*
X0300663Y0019727D01*
X0300539Y0019956D01*
X0300460Y0020208D01*
X0300433Y0020479D01*
X0300488Y0020119D02*
X0310068Y0020119D01*
X0310123Y0024113D02*
X0300433Y0024113D01*
X0300433Y0025111D02*
X0310123Y0025111D01*
X0310123Y0026110D02*
X0300433Y0026110D01*
X0300433Y0027108D02*
X0310123Y0027108D01*
X0310123Y0028107D02*
X0300433Y0028107D01*
X0300433Y0029105D02*
X0310123Y0029105D01*
X0310123Y0030104D02*
X0300433Y0030104D01*
X0300433Y0031102D02*
X0310123Y0031102D01*
X0310123Y0032101D02*
X0300433Y0032101D01*
X0300433Y0033099D02*
X0310123Y0033099D01*
X0310123Y0034098D02*
X0300433Y0034098D01*
X0300433Y0035096D02*
X0310123Y0035096D01*
X0310123Y0036095D02*
X0300433Y0036095D01*
X0300433Y0037093D02*
X0310123Y0037093D01*
X0310123Y0038092D02*
X0300433Y0038092D01*
X0300433Y0039090D02*
X0310123Y0039090D01*
X0310123Y0040089D02*
X0300433Y0040089D01*
X0300433Y0041087D02*
X0310123Y0041087D01*
X0310123Y0042086D02*
X0300433Y0042086D01*
X0300433Y0043084D02*
X0310123Y0043084D01*
X0310123Y0044083D02*
X0300433Y0044083D01*
X0300433Y0045081D02*
X0310123Y0045081D01*
X0310123Y0046080D02*
X0300433Y0046080D01*
X0300455Y0047078D02*
X0310100Y0047078D01*
X0309333Y0048077D02*
X0301222Y0048077D01*
X0295561Y0047126D02*
X0295588Y0046854D01*
X0295588Y0020479D01*
X0295561Y0020208D01*
X0295482Y0019956D01*
X0295358Y0019727D01*
X0295194Y0019528D01*
X0294994Y0019363D01*
X0294766Y0019239D01*
X0294513Y0019161D01*
X0294242Y0019133D01*
X0287245Y0019133D01*
X0286974Y0019161D01*
X0286721Y0019239D01*
X0286493Y0019363D01*
X0286293Y0019528D01*
X0286129Y0019727D01*
X0286005Y0019956D01*
X0285926Y0020208D01*
X0285899Y0020479D01*
X0285899Y0046854D01*
X0285926Y0047126D01*
X0286005Y0047379D01*
X0286129Y0047607D01*
X0286293Y0047806D01*
X0286493Y0047970D01*
X0286721Y0048094D01*
X0286974Y0048173D01*
X0287245Y0048200D01*
X0294242Y0048200D01*
X0294513Y0048173D01*
X0294766Y0048094D01*
X0294994Y0047970D01*
X0295194Y0047806D01*
X0295358Y0047607D01*
X0295482Y0047379D01*
X0295561Y0047126D01*
X0295566Y0047078D02*
X0285922Y0047078D01*
X0285899Y0046080D02*
X0295588Y0046080D01*
X0295588Y0045081D02*
X0285899Y0045081D01*
X0285899Y0044083D02*
X0295588Y0044083D01*
X0295588Y0043084D02*
X0285899Y0043084D01*
X0285899Y0042086D02*
X0295588Y0042086D01*
X0295588Y0041087D02*
X0285899Y0041087D01*
X0285899Y0040089D02*
X0295588Y0040089D01*
X0295588Y0039090D02*
X0285899Y0039090D01*
X0285899Y0038092D02*
X0295588Y0038092D01*
X0295588Y0037093D02*
X0285899Y0037093D01*
X0285899Y0036095D02*
X0295588Y0036095D01*
X0295588Y0035096D02*
X0285899Y0035096D01*
X0285899Y0034098D02*
X0295588Y0034098D01*
X0295588Y0033099D02*
X0285899Y0033099D01*
X0285899Y0032101D02*
X0295588Y0032101D01*
X0295588Y0031102D02*
X0285899Y0031102D01*
X0285899Y0030104D02*
X0295588Y0030104D01*
X0295588Y0029105D02*
X0285899Y0029105D01*
X0285899Y0028107D02*
X0295588Y0028107D01*
X0295588Y0027108D02*
X0285899Y0027108D01*
X0285899Y0026110D02*
X0295588Y0026110D01*
X0295588Y0025111D02*
X0285899Y0025111D01*
X0285899Y0024113D02*
X0295588Y0024113D01*
X0295588Y0023114D02*
X0285899Y0023114D01*
X0285899Y0022116D02*
X0295588Y0022116D01*
X0295588Y0021117D02*
X0285899Y0021117D01*
X0285954Y0020119D02*
X0295533Y0020119D01*
X0281053Y0020479D02*
X0281026Y0020208D01*
X0280948Y0019956D01*
X0280824Y0019727D01*
X0280660Y0019528D01*
X0280461Y0019363D01*
X0280233Y0019239D01*
X0279980Y0019161D01*
X0279709Y0019133D01*
X0272712Y0019133D01*
X0272441Y0019161D01*
X0272188Y0019239D01*
X0271959Y0019363D01*
X0271760Y0019528D01*
X0271596Y0019727D01*
X0271472Y0019956D01*
X0271393Y0020208D01*
X0271366Y0020479D01*
X0271366Y0046854D01*
X0271393Y0047126D01*
X0271472Y0047379D01*
X0271596Y0047607D01*
X0271760Y0047806D01*
X0271959Y0047970D01*
X0272188Y0048094D01*
X0272441Y0048173D01*
X0272712Y0048200D01*
X0279709Y0048200D01*
X0279980Y0048173D01*
X0280233Y0048094D01*
X0280461Y0047970D01*
X0280660Y0047806D01*
X0280824Y0047607D01*
X0280948Y0047379D01*
X0281026Y0047126D01*
X0281053Y0046854D01*
X0281053Y0020479D01*
X0280998Y0020119D02*
X0271421Y0020119D01*
X0271366Y0021117D02*
X0281053Y0021117D01*
X0281053Y0022116D02*
X0271366Y0022116D01*
X0271366Y0023114D02*
X0281053Y0023114D01*
X0281053Y0024113D02*
X0271366Y0024113D01*
X0271366Y0025111D02*
X0281053Y0025111D01*
X0281053Y0026110D02*
X0271366Y0026110D01*
X0271366Y0027108D02*
X0281053Y0027108D01*
X0281053Y0028107D02*
X0271366Y0028107D01*
X0271366Y0029105D02*
X0281053Y0029105D01*
X0281053Y0030104D02*
X0271366Y0030104D01*
X0271366Y0031102D02*
X0281053Y0031102D01*
X0281053Y0032101D02*
X0271366Y0032101D01*
X0271366Y0033099D02*
X0281053Y0033099D01*
X0281053Y0034098D02*
X0271366Y0034098D01*
X0271366Y0035096D02*
X0281053Y0035096D01*
X0281053Y0036095D02*
X0271366Y0036095D01*
X0271366Y0037093D02*
X0281053Y0037093D01*
X0281053Y0038092D02*
X0271366Y0038092D01*
X0271366Y0039090D02*
X0281053Y0039090D01*
X0281053Y0040089D02*
X0271366Y0040089D01*
X0271366Y0041087D02*
X0281053Y0041087D01*
X0281053Y0042086D02*
X0271366Y0042086D01*
X0271366Y0043084D02*
X0281053Y0043084D01*
X0281053Y0044083D02*
X0271366Y0044083D01*
X0271366Y0045081D02*
X0281053Y0045081D01*
X0281053Y0046080D02*
X0271366Y0046080D01*
X0271388Y0047078D02*
X0281031Y0047078D01*
X0280265Y0048077D02*
X0272155Y0048077D01*
X0266494Y0047126D02*
X0266415Y0047379D01*
X0266291Y0047607D01*
X0266127Y0047806D01*
X0265928Y0047970D01*
X0265698Y0048094D01*
X0265446Y0048173D01*
X0265174Y0048200D01*
X0258177Y0048200D01*
X0257906Y0048173D01*
X0257654Y0048094D01*
X0257425Y0047970D01*
X0257226Y0047806D01*
X0257061Y0047607D01*
X0256937Y0047379D01*
X0256859Y0047126D01*
X0256831Y0046854D01*
X0256831Y0020479D01*
X0256859Y0020208D01*
X0256937Y0019956D01*
X0257061Y0019727D01*
X0257226Y0019528D01*
X0257425Y0019363D01*
X0257654Y0019239D01*
X0257906Y0019161D01*
X0258177Y0019133D01*
X0265174Y0019133D01*
X0265446Y0019161D01*
X0265698Y0019239D01*
X0265928Y0019363D01*
X0266127Y0019528D01*
X0266291Y0019727D01*
X0266415Y0019956D01*
X0266494Y0020208D01*
X0266521Y0020479D01*
X0266521Y0046854D01*
X0266494Y0047126D01*
X0266499Y0047078D02*
X0256854Y0047078D01*
X0256831Y0046080D02*
X0266521Y0046080D01*
X0266521Y0045081D02*
X0256831Y0045081D01*
X0256831Y0044083D02*
X0266521Y0044083D01*
X0266521Y0043084D02*
X0256831Y0043084D01*
X0256831Y0042086D02*
X0266521Y0042086D01*
X0266521Y0041087D02*
X0256831Y0041087D01*
X0256831Y0040089D02*
X0266521Y0040089D01*
X0266521Y0039090D02*
X0256831Y0039090D01*
X0256831Y0038092D02*
X0266521Y0038092D01*
X0266521Y0037093D02*
X0256831Y0037093D01*
X0256831Y0036095D02*
X0266521Y0036095D01*
X0266521Y0035096D02*
X0256831Y0035096D01*
X0256831Y0034098D02*
X0266521Y0034098D01*
X0266521Y0033099D02*
X0256831Y0033099D01*
X0256831Y0032101D02*
X0266521Y0032101D01*
X0266521Y0031102D02*
X0256831Y0031102D01*
X0256831Y0030104D02*
X0266521Y0030104D01*
X0266521Y0029105D02*
X0256831Y0029105D01*
X0256831Y0028107D02*
X0266521Y0028107D01*
X0266521Y0027108D02*
X0256831Y0027108D01*
X0256831Y0026110D02*
X0266521Y0026110D01*
X0266521Y0025111D02*
X0256831Y0025111D01*
X0256831Y0024113D02*
X0266521Y0024113D01*
X0266521Y0023114D02*
X0256831Y0023114D01*
X0256831Y0022116D02*
X0266521Y0022116D01*
X0266521Y0021117D02*
X0256831Y0021117D01*
X0256886Y0020119D02*
X0266466Y0020119D01*
X0251988Y0020479D02*
X0251961Y0020208D01*
X0251883Y0019956D01*
X0251759Y0019727D01*
X0251594Y0019528D01*
X0251395Y0019363D01*
X0251167Y0019239D01*
X0250914Y0019161D01*
X0250642Y0019133D01*
X0243644Y0019133D01*
X0243373Y0019161D01*
X0243121Y0019239D01*
X0242893Y0019363D01*
X0242693Y0019528D01*
X0242529Y0019727D01*
X0242405Y0019956D01*
X0242326Y0020208D01*
X0242299Y0020479D01*
X0242299Y0046854D01*
X0242326Y0047126D01*
X0242405Y0047379D01*
X0242529Y0047607D01*
X0242693Y0047806D01*
X0242893Y0047970D01*
X0243121Y0048094D01*
X0243373Y0048173D01*
X0243644Y0048200D01*
X0250642Y0048200D01*
X0250914Y0048173D01*
X0251167Y0048094D01*
X0251395Y0047970D01*
X0251594Y0047806D01*
X0251759Y0047607D01*
X0251883Y0047379D01*
X0251961Y0047126D01*
X0251988Y0046854D01*
X0251988Y0020479D01*
X0251933Y0020119D02*
X0242354Y0020119D01*
X0242299Y0021117D02*
X0251988Y0021117D01*
X0251988Y0022116D02*
X0242299Y0022116D01*
X0242299Y0023114D02*
X0251988Y0023114D01*
X0251988Y0024113D02*
X0242299Y0024113D01*
X0242299Y0025111D02*
X0251988Y0025111D01*
X0251988Y0026110D02*
X0242299Y0026110D01*
X0242299Y0027108D02*
X0251988Y0027108D01*
X0251988Y0028107D02*
X0242299Y0028107D01*
X0242299Y0029105D02*
X0251988Y0029105D01*
X0251988Y0030104D02*
X0242299Y0030104D01*
X0242299Y0031102D02*
X0251988Y0031102D01*
X0251988Y0032101D02*
X0242299Y0032101D01*
X0242299Y0033099D02*
X0251988Y0033099D01*
X0251988Y0034098D02*
X0242299Y0034098D01*
X0242299Y0035096D02*
X0251988Y0035096D01*
X0251988Y0036095D02*
X0242299Y0036095D01*
X0242299Y0037093D02*
X0251988Y0037093D01*
X0251988Y0038092D02*
X0242299Y0038092D01*
X0242299Y0039090D02*
X0251988Y0039090D01*
X0251988Y0040089D02*
X0242299Y0040089D01*
X0242299Y0041087D02*
X0251988Y0041087D01*
X0251988Y0042086D02*
X0242299Y0042086D01*
X0242299Y0043084D02*
X0251988Y0043084D01*
X0251988Y0044083D02*
X0242299Y0044083D01*
X0242299Y0045081D02*
X0251988Y0045081D01*
X0251988Y0046080D02*
X0242299Y0046080D01*
X0242322Y0047078D02*
X0251966Y0047078D01*
X0251199Y0048077D02*
X0243088Y0048077D01*
X0242136Y0058062D02*
X0241841Y0058062D01*
X0240886Y0059061D02*
X0243530Y0059061D01*
X0243749Y0060059D02*
X0240668Y0060059D01*
X0240152Y0061058D02*
X0244264Y0061058D01*
X0245458Y0062056D02*
X0238958Y0062056D01*
X0235458Y0062056D02*
X0235208Y0062056D01*
X0233749Y0060059D02*
X0232607Y0060059D01*
X0229537Y0061058D02*
X0228102Y0061058D01*
X0229208Y0062056D02*
X0223596Y0062056D01*
X0221404Y0063055D02*
X0229208Y0063055D01*
X0229208Y0064053D02*
X0220811Y0064053D01*
X0220533Y0065052D02*
X0229208Y0065052D01*
X0229208Y0066050D02*
X0220380Y0066050D01*
X0220235Y0067049D02*
X0249709Y0067049D01*
X0250387Y0068047D02*
X0220074Y0068047D01*
X0219912Y0069046D02*
X0251065Y0069046D01*
X0251743Y0070044D02*
X0219750Y0070044D01*
X0219588Y0071043D02*
X0301992Y0071043D01*
X0302141Y0072041D02*
X0219426Y0072041D01*
X0219265Y0073040D02*
X0302290Y0073040D01*
X0302439Y0074038D02*
X0219103Y0074038D01*
X0218941Y0075037D02*
X0302588Y0075037D01*
X0302737Y0076035D02*
X0218779Y0076035D01*
X0218617Y0077034D02*
X0302886Y0077034D01*
X0303034Y0078032D02*
X0218267Y0078032D01*
X0215769Y0079031D02*
X0304409Y0079031D01*
X0306747Y0080029D02*
X0213420Y0080029D01*
X0211202Y0081028D02*
X0308952Y0081028D01*
X0311041Y0082026D02*
X0230075Y0082026D01*
X0230067Y0082018D02*
X0230990Y0082941D01*
X0231489Y0084147D01*
X0231489Y0085453D01*
X0230990Y0086659D01*
X0230067Y0087582D01*
X0228861Y0088081D01*
X0227556Y0088081D01*
X0226350Y0087582D01*
X0225427Y0086659D01*
X0224927Y0085453D01*
X0224927Y0084147D01*
X0225427Y0082941D01*
X0226350Y0082018D01*
X0227556Y0081519D01*
X0228861Y0081519D01*
X0230067Y0082018D01*
X0231024Y0083025D02*
X0313028Y0083025D01*
X0314924Y0084023D02*
X0231438Y0084023D01*
X0231489Y0085022D02*
X0316741Y0085022D01*
X0318484Y0086020D02*
X0231254Y0086020D01*
X0230630Y0087019D02*
X0342800Y0087019D01*
X0344036Y0088017D02*
X0229015Y0088017D01*
X0227402Y0088017D02*
X0176079Y0088017D01*
X0177348Y0087019D02*
X0225787Y0087019D01*
X0225162Y0086020D02*
X0178617Y0086020D01*
X0179886Y0085022D02*
X0201873Y0085022D01*
X0203376Y0085022D02*
X0224927Y0085022D01*
X0224979Y0084023D02*
X0205197Y0084023D01*
X0207102Y0083025D02*
X0225392Y0083025D01*
X0226342Y0082026D02*
X0209100Y0082026D01*
X0200150Y0084023D02*
X0181155Y0084023D01*
X0182424Y0083025D02*
X0198427Y0083025D01*
X0196704Y0082026D02*
X0183693Y0082026D01*
X0184962Y0081028D02*
X0194981Y0081028D01*
X0193258Y0080029D02*
X0188986Y0080029D01*
X0187430Y0080029D02*
X0186231Y0080029D01*
X0190618Y0079031D02*
X0191600Y0079031D01*
X0193556Y0088519D02*
X0192350Y0089018D01*
X0191427Y0089941D01*
X0190927Y0091147D01*
X0190927Y0092453D01*
X0191427Y0093659D01*
X0192350Y0094582D01*
X0193556Y0095081D01*
X0194861Y0095081D01*
X0196067Y0094582D01*
X0196990Y0093659D01*
X0197489Y0092453D01*
X0197489Y0091147D01*
X0196990Y0089941D01*
X0196067Y0089018D01*
X0194861Y0088519D01*
X0193556Y0088519D01*
X0192356Y0089016D02*
X0174810Y0089016D01*
X0173541Y0090014D02*
X0191396Y0090014D01*
X0190983Y0091013D02*
X0172367Y0091013D01*
X0171790Y0092011D02*
X0190927Y0092011D01*
X0191158Y0093010D02*
X0171673Y0093010D01*
X0171800Y0094008D02*
X0191777Y0094008D01*
X0193377Y0095007D02*
X0172090Y0095007D01*
X0172412Y0096005D02*
X0349305Y0096005D01*
X0349590Y0095007D02*
X0195040Y0095007D01*
X0196640Y0094008D02*
X0349706Y0094008D01*
X0349547Y0093010D02*
X0197259Y0093010D01*
X0197489Y0092011D02*
X0348912Y0092011D01*
X0347745Y0091013D02*
X0197434Y0091013D01*
X0197020Y0090014D02*
X0346509Y0090014D01*
X0345272Y0089016D02*
X0196061Y0089016D01*
X0173300Y0099001D02*
X0348343Y0099001D01*
X0348653Y0098002D02*
X0173004Y0098002D01*
X0172708Y0097004D02*
X0348963Y0097004D01*
X0348033Y0099999D02*
X0173596Y0099999D01*
X0173892Y0100998D02*
X0347723Y0100998D01*
X0347413Y0101997D02*
X0174188Y0101997D01*
X0174484Y0102995D02*
X0347103Y0102995D01*
X0346792Y0103994D02*
X0174780Y0103994D01*
X0175076Y0104992D02*
X0346482Y0104992D01*
X0346172Y0105991D02*
X0175372Y0105991D01*
X0175373Y0106989D02*
X0345862Y0106989D01*
X0345736Y0107988D02*
X0174453Y0107988D01*
X0173555Y0108986D02*
X0346637Y0108986D01*
X0370241Y0120968D02*
X0371218Y0120968D01*
X0372842Y0150924D02*
X0149135Y0150924D01*
X0149275Y0151922D02*
X0371912Y0151922D01*
X0371222Y0152921D02*
X0148968Y0152921D01*
X0148673Y0153919D02*
X0194589Y0153919D01*
X0194350Y0154018D02*
X0195556Y0153519D01*
X0196861Y0153519D01*
X0198067Y0154018D01*
X0198990Y0154941D01*
X0199489Y0156147D01*
X0199489Y0157453D01*
X0198990Y0158659D01*
X0198067Y0159582D01*
X0196861Y0160081D01*
X0195556Y0160081D01*
X0194350Y0159582D01*
X0193427Y0158659D01*
X0192927Y0157453D01*
X0192927Y0156147D01*
X0193427Y0154941D01*
X0194350Y0154018D01*
X0193450Y0154918D02*
X0148387Y0154918D01*
X0148110Y0155916D02*
X0176678Y0155916D01*
X0176794Y0155800D02*
X0177622Y0155800D01*
X0178208Y0156386D01*
X0178208Y0157800D01*
X0179622Y0157800D01*
X0180208Y0158386D01*
X0180208Y0159214D01*
X0179622Y0159800D01*
X0176794Y0159800D01*
X0176208Y0159214D01*
X0176208Y0156386D01*
X0176794Y0155800D01*
X0177739Y0155916D02*
X0188678Y0155916D01*
X0188794Y0155800D02*
X0189622Y0155800D01*
X0190208Y0156386D01*
X0190208Y0159214D01*
X0189622Y0159800D01*
X0186794Y0159800D01*
X0186208Y0159214D01*
X0186208Y0158386D01*
X0186794Y0157800D01*
X0188208Y0157800D01*
X0188208Y0156386D01*
X0188794Y0155800D01*
X0189739Y0155916D02*
X0193023Y0155916D01*
X0192927Y0156915D02*
X0190208Y0156915D01*
X0190208Y0157913D02*
X0193118Y0157913D01*
X0193680Y0158912D02*
X0190208Y0158912D01*
X0188208Y0156915D02*
X0178208Y0156915D01*
X0179736Y0157913D02*
X0186681Y0157913D01*
X0186208Y0158912D02*
X0180208Y0158912D01*
X0176208Y0158912D02*
X0147339Y0158912D01*
X0147098Y0159910D02*
X0195143Y0159910D01*
X0197274Y0159910D02*
X0240173Y0159910D01*
X0241241Y0159029D02*
X0241272Y0158925D01*
X0241551Y0158773D01*
X0241796Y0158571D01*
X0241904Y0158581D01*
X0246835Y0155905D01*
X0246886Y0155807D01*
X0247188Y0155713D01*
X0247465Y0155563D01*
X0247572Y0155594D01*
X0253035Y0153899D01*
X0253106Y0153811D01*
X0253418Y0153780D01*
X0253718Y0153687D01*
X0253818Y0153739D01*
X0259704Y0153146D01*
X0259791Y0153075D01*
X0260103Y0153106D01*
X0260415Y0153075D01*
X0260503Y0153146D01*
X0266388Y0153739D01*
X0266488Y0153687D01*
X0266788Y0153780D01*
X0267100Y0153811D01*
X0267171Y0153899D01*
X0272634Y0155594D01*
X0272740Y0155563D01*
X0273018Y0155714D01*
X0273319Y0155807D01*
X0273371Y0155905D01*
X0278301Y0158581D01*
X0278409Y0158571D01*
X0278654Y0158773D01*
X0278934Y0158925D01*
X0278965Y0159029D01*
X0283255Y0162569D01*
X0283362Y0162579D01*
X0283565Y0162825D01*
X0283810Y0163027D01*
X0283821Y0163135D01*
X0287360Y0167425D01*
X0287465Y0167456D01*
X0287616Y0167735D01*
X0287818Y0167980D01*
X0287808Y0168088D01*
X0290484Y0173019D01*
X0290582Y0173071D01*
X0290676Y0173373D01*
X0290826Y0173650D01*
X0290795Y0173756D01*
X0292491Y0179220D01*
X0292578Y0179291D01*
X0292610Y0179603D01*
X0292703Y0179903D01*
X0292650Y0180003D01*
X0293243Y0185889D01*
X0293315Y0185977D01*
X0293283Y0186289D01*
X0293315Y0186601D01*
X0293243Y0186689D01*
X0292650Y0192574D01*
X0292703Y0192674D01*
X0292610Y0192973D01*
X0292578Y0193285D01*
X0292491Y0193357D01*
X0290795Y0198819D01*
X0290826Y0198925D01*
X0290676Y0199203D01*
X0290582Y0199504D01*
X0290484Y0199556D01*
X0287808Y0204486D01*
X0287818Y0204595D01*
X0287616Y0204839D01*
X0287465Y0205119D01*
X0287360Y0205150D01*
X0283821Y0209440D01*
X0283810Y0209547D01*
X0283565Y0209750D01*
X0283362Y0209995D01*
X0283255Y0210006D01*
X0278965Y0213545D01*
X0278934Y0213650D01*
X0278654Y0213801D01*
X0278409Y0214003D01*
X0278301Y0213993D01*
X0273371Y0216669D01*
X0273319Y0216767D01*
X0273018Y0216861D01*
X0272740Y0217012D01*
X0272634Y0216980D01*
X0267171Y0218676D01*
X0267100Y0218763D01*
X0266788Y0218795D01*
X0266488Y0218888D01*
X0266388Y0218835D01*
X0260503Y0219429D01*
X0260415Y0219500D01*
X0260103Y0219469D01*
X0259791Y0219500D01*
X0259704Y0219429D01*
X0253818Y0218835D01*
X0253718Y0218888D01*
X0253418Y0218795D01*
X0253106Y0218763D01*
X0253034Y0218676D01*
X0249704Y0217642D01*
X0249789Y0217847D01*
X0249789Y0219153D01*
X0249290Y0220359D01*
X0248367Y0221282D01*
X0247161Y0221781D01*
X0245856Y0221781D01*
X0244650Y0221282D01*
X0243727Y0220359D01*
X0243227Y0219153D01*
X0243227Y0217847D01*
X0243727Y0216641D01*
X0244650Y0215718D01*
X0244895Y0215617D01*
X0241904Y0213993D01*
X0241796Y0214003D01*
X0241551Y0213801D01*
X0241272Y0213650D01*
X0241241Y0213545D01*
X0236950Y0210006D01*
X0236843Y0209995D01*
X0236640Y0209750D01*
X0236394Y0209547D01*
X0236384Y0209440D01*
X0232844Y0205150D01*
X0232740Y0205119D01*
X0232588Y0204840D01*
X0232386Y0204595D01*
X0232397Y0204486D01*
X0229720Y0199556D01*
X0229622Y0199504D01*
X0229529Y0199203D01*
X0229378Y0198925D01*
X0229409Y0198819D01*
X0227714Y0193357D01*
X0227626Y0193285D01*
X0227595Y0192973D01*
X0227502Y0192674D01*
X0227554Y0192574D01*
X0226961Y0186689D01*
X0226889Y0186601D01*
X0226921Y0186289D01*
X0226889Y0185977D01*
X0226961Y0185889D01*
X0227554Y0180003D01*
X0227502Y0179903D01*
X0227595Y0179603D01*
X0227626Y0179291D01*
X0227714Y0179220D01*
X0229409Y0173756D01*
X0229378Y0173650D01*
X0229528Y0173373D01*
X0229622Y0173071D01*
X0229720Y0173019D01*
X0232397Y0168088D01*
X0232386Y0167980D01*
X0232588Y0167735D01*
X0232740Y0167456D01*
X0232844Y0167425D01*
X0236384Y0163135D01*
X0236394Y0163027D01*
X0236640Y0162825D01*
X0236843Y0162579D01*
X0236950Y0162569D01*
X0241241Y0159029D01*
X0241295Y0158912D02*
X0198737Y0158912D01*
X0199299Y0157913D02*
X0243135Y0157913D01*
X0244975Y0156915D02*
X0199489Y0156915D01*
X0199394Y0155916D02*
X0246815Y0155916D01*
X0249752Y0154918D02*
X0198966Y0154918D01*
X0197827Y0153919D02*
X0252969Y0153919D01*
X0267237Y0153919D02*
X0371515Y0153919D01*
X0371806Y0154918D02*
X0270454Y0154918D01*
X0273391Y0155916D02*
X0372082Y0155916D01*
X0372358Y0156915D02*
X0275230Y0156915D01*
X0277070Y0157913D02*
X0372615Y0157913D01*
X0372872Y0158912D02*
X0278910Y0158912D01*
X0280032Y0159910D02*
X0373109Y0159910D01*
X0373343Y0160909D02*
X0281243Y0160909D01*
X0282453Y0161907D02*
X0373558Y0161907D01*
X0373767Y0162906D02*
X0283663Y0162906D01*
X0284455Y0163904D02*
X0373962Y0163904D01*
X0374148Y0164903D02*
X0285279Y0164903D01*
X0286103Y0165901D02*
X0374326Y0165901D01*
X0374493Y0166900D02*
X0286927Y0166900D01*
X0287751Y0167898D02*
X0374656Y0167898D01*
X0374808Y0168897D02*
X0288247Y0168897D01*
X0288789Y0169895D02*
X0375190Y0169895D01*
X0377656Y0170894D02*
X0289331Y0170894D01*
X0289873Y0171892D02*
X0380123Y0171892D01*
X0382589Y0172891D02*
X0290414Y0172891D01*
X0290836Y0173889D02*
X0385056Y0173889D01*
X0387507Y0174888D02*
X0291146Y0174888D01*
X0291456Y0175886D02*
X0388769Y0175886D01*
X0389235Y0176885D02*
X0291766Y0176885D01*
X0292076Y0177883D02*
X0389343Y0177883D01*
X0389337Y0178882D02*
X0292386Y0178882D01*
X0292696Y0179880D02*
X0389331Y0179880D01*
X0389324Y0180879D02*
X0292738Y0180879D01*
X0292839Y0181877D02*
X0389318Y0181877D01*
X0389312Y0182876D02*
X0292939Y0182876D01*
X0293040Y0183874D02*
X0389305Y0183874D01*
X0389299Y0184873D02*
X0293141Y0184873D01*
X0293241Y0185871D02*
X0389293Y0185871D01*
X0389287Y0186870D02*
X0293225Y0186870D01*
X0293124Y0187868D02*
X0389280Y0187868D01*
X0389274Y0188867D02*
X0293024Y0188867D01*
X0292923Y0189866D02*
X0389268Y0189866D01*
X0389262Y0190864D02*
X0292822Y0190864D01*
X0292722Y0191863D02*
X0389255Y0191863D01*
X0389249Y0192861D02*
X0292644Y0192861D01*
X0292335Y0193860D02*
X0389243Y0193860D01*
X0389237Y0194858D02*
X0292025Y0194858D01*
X0291715Y0195857D02*
X0389230Y0195857D01*
X0389188Y0196855D02*
X0291405Y0196855D01*
X0291095Y0197854D02*
X0388912Y0197854D01*
X0388061Y0198852D02*
X0290805Y0198852D01*
X0290324Y0199851D02*
X0385990Y0199851D01*
X0383387Y0200849D02*
X0289782Y0200849D01*
X0289240Y0201848D02*
X0380828Y0201848D01*
X0378270Y0202846D02*
X0288698Y0202846D01*
X0288156Y0203845D02*
X0375711Y0203845D01*
X0374653Y0204843D02*
X0287614Y0204843D01*
X0286789Y0205842D02*
X0374487Y0205842D01*
X0374312Y0206840D02*
X0285965Y0206840D01*
X0285141Y0207839D02*
X0374126Y0207839D01*
X0373935Y0208837D02*
X0284318Y0208837D01*
X0283494Y0209836D02*
X0373729Y0209836D01*
X0373521Y0210834D02*
X0282250Y0210834D01*
X0281040Y0211833D02*
X0373295Y0211833D01*
X0373070Y0212831D02*
X0279830Y0212831D01*
X0278620Y0213830D02*
X0372825Y0213830D01*
X0372580Y0214828D02*
X0276762Y0214828D01*
X0274923Y0215827D02*
X0372317Y0215827D01*
X0372051Y0216825D02*
X0273132Y0216825D01*
X0269915Y0217824D02*
X0371771Y0217824D01*
X0371485Y0218822D02*
X0266699Y0218822D01*
X0253507Y0218822D02*
X0249789Y0218822D01*
X0249780Y0217824D02*
X0250290Y0217824D01*
X0249513Y0219821D02*
X0371187Y0219821D01*
X0370881Y0220819D02*
X0248829Y0220819D01*
X0244187Y0220819D02*
X0212006Y0220819D01*
X0212077Y0220649D02*
X0211427Y0222218D01*
X0210226Y0223419D01*
X0208657Y0224068D01*
X0206959Y0224068D01*
X0205390Y0223419D01*
X0204190Y0222218D01*
X0203540Y0220649D01*
X0203540Y0218951D01*
X0204190Y0217382D01*
X0205390Y0216181D01*
X0206959Y0215531D01*
X0208657Y0215531D01*
X0210226Y0216181D01*
X0211427Y0217382D01*
X0212077Y0218951D01*
X0212077Y0220649D01*
X0212077Y0219821D02*
X0243504Y0219821D01*
X0243227Y0218822D02*
X0212023Y0218822D01*
X0211610Y0217824D02*
X0243237Y0217824D01*
X0243651Y0216825D02*
X0210870Y0216825D01*
X0209370Y0215827D02*
X0244541Y0215827D01*
X0243443Y0214828D02*
X0177903Y0214828D01*
X0177977Y0214649D02*
X0177327Y0216218D01*
X0176126Y0217419D01*
X0174557Y0218068D01*
X0172859Y0218068D01*
X0171290Y0217419D01*
X0170090Y0216218D01*
X0169440Y0214649D01*
X0169440Y0212951D01*
X0170090Y0211382D01*
X0171290Y0210181D01*
X0172859Y0209531D01*
X0174557Y0209531D01*
X0176126Y0210181D01*
X0177327Y0211382D01*
X0177977Y0212951D01*
X0177977Y0214649D01*
X0177977Y0213830D02*
X0206373Y0213830D01*
X0206950Y0214068D02*
X0205381Y0213419D01*
X0204180Y0212218D01*
X0203530Y0210649D01*
X0203530Y0208951D01*
X0204180Y0207382D01*
X0205381Y0206181D01*
X0206950Y0205531D01*
X0208648Y0205531D01*
X0210217Y0206181D01*
X0211417Y0207382D01*
X0212067Y0208951D01*
X0212067Y0210649D01*
X0211417Y0212218D01*
X0210217Y0213419D01*
X0208648Y0214068D01*
X0206950Y0214068D01*
X0206246Y0215827D02*
X0177489Y0215827D01*
X0176720Y0216825D02*
X0204746Y0216825D01*
X0204007Y0217824D02*
X0175148Y0217824D01*
X0174557Y0219531D02*
X0176126Y0220181D01*
X0177327Y0221382D01*
X0177977Y0222951D01*
X0177977Y0224649D01*
X0177327Y0226218D01*
X0176126Y0227419D01*
X0174557Y0228068D01*
X0172859Y0228068D01*
X0171290Y0227419D01*
X0170090Y0226218D01*
X0169440Y0224649D01*
X0169440Y0222951D01*
X0170090Y0221382D01*
X0171290Y0220181D01*
X0172859Y0219531D01*
X0174557Y0219531D01*
X0175256Y0219821D02*
X0203540Y0219821D01*
X0203593Y0218822D02*
X0148741Y0218822D01*
X0148448Y0217824D02*
X0172269Y0217824D01*
X0170697Y0216825D02*
X0148170Y0216825D01*
X0147893Y0215827D02*
X0169928Y0215827D01*
X0169514Y0214828D02*
X0147633Y0214828D01*
X0147376Y0213830D02*
X0169440Y0213830D01*
X0169489Y0212831D02*
X0147135Y0212831D01*
X0146901Y0211833D02*
X0169903Y0211833D01*
X0170637Y0210834D02*
X0146681Y0210834D01*
X0146473Y0209836D02*
X0172125Y0209836D01*
X0172859Y0208068D02*
X0171290Y0207419D01*
X0170090Y0206218D01*
X0169440Y0204649D01*
X0169440Y0202951D01*
X0170090Y0201382D01*
X0171290Y0200181D01*
X0172859Y0199531D01*
X0174557Y0199531D01*
X0176126Y0200181D01*
X0177327Y0201382D01*
X0177977Y0202951D01*
X0177977Y0204649D01*
X0177327Y0206218D01*
X0176126Y0207419D01*
X0174557Y0208068D01*
X0172859Y0208068D01*
X0172304Y0207839D02*
X0146087Y0207839D01*
X0145906Y0206840D02*
X0170712Y0206840D01*
X0169934Y0205842D02*
X0145739Y0205842D01*
X0145573Y0204843D02*
X0169520Y0204843D01*
X0169440Y0203845D02*
X0145421Y0203845D01*
X0145269Y0202846D02*
X0169483Y0202846D01*
X0169897Y0201848D02*
X0142958Y0201848D01*
X0140492Y0200849D02*
X0170623Y0200849D01*
X0172089Y0199851D02*
X0138026Y0199851D01*
X0135560Y0198852D02*
X0203581Y0198852D01*
X0203540Y0198951D02*
X0204190Y0197382D01*
X0205390Y0196181D01*
X0206959Y0195531D01*
X0208657Y0195531D01*
X0210226Y0196181D01*
X0211427Y0197382D01*
X0212077Y0198951D01*
X0212077Y0200649D01*
X0211427Y0202218D01*
X0210226Y0203419D01*
X0208657Y0204068D01*
X0206959Y0204068D01*
X0205390Y0203419D01*
X0204190Y0202218D01*
X0203540Y0200649D01*
X0203540Y0198951D01*
X0203540Y0199851D02*
X0175328Y0199851D01*
X0176794Y0200849D02*
X0203623Y0200849D01*
X0204036Y0201848D02*
X0177520Y0201848D01*
X0177933Y0202846D02*
X0204818Y0202846D01*
X0206419Y0203845D02*
X0177977Y0203845D01*
X0177896Y0204843D02*
X0232590Y0204843D01*
X0232048Y0203845D02*
X0209198Y0203845D01*
X0210799Y0202846D02*
X0231506Y0202846D01*
X0230964Y0201848D02*
X0211580Y0201848D01*
X0211994Y0200849D02*
X0230422Y0200849D01*
X0229880Y0199851D02*
X0212077Y0199851D01*
X0212036Y0198852D02*
X0229400Y0198852D01*
X0229110Y0197854D02*
X0211622Y0197854D01*
X0210900Y0196855D02*
X0228800Y0196855D01*
X0228490Y0195857D02*
X0209442Y0195857D01*
X0208657Y0194068D02*
X0206959Y0194068D01*
X0205390Y0193419D01*
X0204190Y0192218D01*
X0203540Y0190649D01*
X0203540Y0188951D01*
X0204190Y0187382D01*
X0205390Y0186181D01*
X0206959Y0185531D01*
X0208657Y0185531D01*
X0210226Y0186181D01*
X0211427Y0187382D01*
X0212077Y0188951D01*
X0212077Y0190649D01*
X0211427Y0192218D01*
X0210226Y0193419D01*
X0208657Y0194068D01*
X0209162Y0193860D02*
X0227870Y0193860D01*
X0228180Y0194858D02*
X0130866Y0194858D01*
X0130866Y0193860D02*
X0206455Y0193860D01*
X0204833Y0192861D02*
X0130872Y0192861D01*
X0130879Y0191863D02*
X0204042Y0191863D01*
X0203629Y0190864D02*
X0130885Y0190864D01*
X0130891Y0189866D02*
X0203540Y0189866D01*
X0203575Y0188867D02*
X0130898Y0188867D01*
X0130904Y0187868D02*
X0203988Y0187868D01*
X0204702Y0186870D02*
X0130910Y0186870D01*
X0130917Y0185871D02*
X0206138Y0185871D01*
X0206959Y0184068D02*
X0205390Y0183419D01*
X0204190Y0182218D01*
X0203540Y0180649D01*
X0203540Y0178951D01*
X0204190Y0177382D01*
X0205390Y0176181D01*
X0206959Y0175531D01*
X0208657Y0175531D01*
X0210226Y0176181D01*
X0211427Y0177382D01*
X0212077Y0178951D01*
X0212077Y0180649D01*
X0211427Y0182218D01*
X0210226Y0183419D01*
X0208657Y0184068D01*
X0206959Y0184068D01*
X0206491Y0183874D02*
X0130929Y0183874D01*
X0130936Y0182876D02*
X0204848Y0182876D01*
X0204049Y0181877D02*
X0130942Y0181877D01*
X0130948Y0180879D02*
X0203635Y0180879D01*
X0203540Y0179880D02*
X0130955Y0179880D01*
X0130961Y0178882D02*
X0203568Y0178882D01*
X0203982Y0177883D02*
X0130967Y0177883D01*
X0130974Y0176885D02*
X0204687Y0176885D01*
X0206103Y0175886D02*
X0131002Y0175886D01*
X0131204Y0174888D02*
X0229058Y0174888D01*
X0228748Y0175886D02*
X0209514Y0175886D01*
X0210930Y0176885D02*
X0228438Y0176885D01*
X0228128Y0177883D02*
X0211635Y0177883D01*
X0212048Y0178882D02*
X0227819Y0178882D01*
X0227509Y0179880D02*
X0212077Y0179880D01*
X0211982Y0180879D02*
X0227466Y0180879D01*
X0227365Y0181877D02*
X0211568Y0181877D01*
X0210769Y0182876D02*
X0227265Y0182876D01*
X0227164Y0183874D02*
X0209126Y0183874D01*
X0209478Y0185871D02*
X0226963Y0185871D01*
X0226979Y0186870D02*
X0210915Y0186870D01*
X0211628Y0187868D02*
X0227080Y0187868D01*
X0227181Y0188867D02*
X0212042Y0188867D01*
X0212077Y0189866D02*
X0227281Y0189866D01*
X0227382Y0190864D02*
X0211988Y0190864D01*
X0211574Y0191863D02*
X0227483Y0191863D01*
X0227560Y0192861D02*
X0210784Y0192861D01*
X0206174Y0195857D02*
X0131016Y0195857D01*
X0131582Y0196855D02*
X0204717Y0196855D01*
X0203994Y0197854D02*
X0133036Y0197854D01*
X0130923Y0184873D02*
X0227063Y0184873D01*
X0229368Y0173889D02*
X0209090Y0173889D01*
X0208657Y0174068D02*
X0206959Y0174068D01*
X0205390Y0173419D01*
X0204190Y0172218D01*
X0203540Y0170649D01*
X0203540Y0168951D01*
X0204190Y0167382D01*
X0205390Y0166181D01*
X0206959Y0165531D01*
X0208657Y0165531D01*
X0210226Y0166181D01*
X0211427Y0167382D01*
X0212077Y0168951D01*
X0212077Y0170649D01*
X0211427Y0172218D01*
X0210226Y0173419D01*
X0208657Y0174068D01*
X0206527Y0173889D02*
X0131925Y0173889D01*
X0133736Y0172891D02*
X0204863Y0172891D01*
X0204055Y0171892D02*
X0136400Y0171892D01*
X0138957Y0170894D02*
X0203641Y0170894D01*
X0203540Y0169895D02*
X0141514Y0169895D01*
X0144070Y0168897D02*
X0203562Y0168897D01*
X0203976Y0167898D02*
X0145526Y0167898D01*
X0145692Y0166900D02*
X0204672Y0166900D01*
X0206067Y0165901D02*
X0145863Y0165901D01*
X0146049Y0164903D02*
X0234925Y0164903D01*
X0234101Y0165901D02*
X0209550Y0165901D01*
X0210945Y0166900D02*
X0233278Y0166900D01*
X0232454Y0167898D02*
X0211641Y0167898D01*
X0212054Y0168897D02*
X0231958Y0168897D01*
X0231416Y0169895D02*
X0212077Y0169895D01*
X0211975Y0170894D02*
X0230874Y0170894D01*
X0230332Y0171892D02*
X0211562Y0171892D01*
X0210754Y0172891D02*
X0229790Y0172891D01*
X0235749Y0163904D02*
X0146237Y0163904D01*
X0146442Y0162906D02*
X0236542Y0162906D01*
X0237752Y0161907D02*
X0146648Y0161907D01*
X0146872Y0160909D02*
X0238962Y0160909D01*
X0209704Y0142935D02*
X0189977Y0142935D01*
X0190465Y0141937D02*
X0209128Y0141937D01*
X0208927Y0140938D02*
X0190725Y0140938D01*
X0190725Y0139940D02*
X0209013Y0139940D01*
X0209427Y0138941D02*
X0190414Y0138941D01*
X0189853Y0137943D02*
X0210532Y0137943D01*
X0188208Y0135946D02*
X0178208Y0135946D01*
X0178208Y0136944D02*
X0184599Y0136944D01*
X0186208Y0134947D02*
X0180208Y0134947D01*
X0179771Y0133949D02*
X0186645Y0133949D01*
X0176208Y0156915D02*
X0147844Y0156915D01*
X0147585Y0157913D02*
X0176208Y0157913D01*
X0177483Y0205842D02*
X0206201Y0205842D01*
X0204722Y0206840D02*
X0176705Y0206840D01*
X0175112Y0207839D02*
X0203991Y0207839D01*
X0203577Y0208837D02*
X0146273Y0208837D01*
X0149034Y0219821D02*
X0172161Y0219821D01*
X0170652Y0220819D02*
X0148136Y0220819D01*
X0147206Y0221818D02*
X0169909Y0221818D01*
X0169495Y0222816D02*
X0146275Y0222816D01*
X0145345Y0223815D02*
X0169440Y0223815D01*
X0169508Y0224813D02*
X0144415Y0224813D01*
X0143484Y0225812D02*
X0169921Y0225812D01*
X0170682Y0226810D02*
X0142554Y0226810D01*
X0141623Y0227809D02*
X0172233Y0227809D01*
X0172859Y0229531D02*
X0174557Y0229531D01*
X0176126Y0230181D01*
X0177327Y0231382D01*
X0177977Y0232951D01*
X0177977Y0234649D01*
X0177327Y0236218D01*
X0176126Y0237419D01*
X0174557Y0238068D01*
X0172859Y0238068D01*
X0171290Y0237419D01*
X0170090Y0236218D01*
X0169440Y0234649D01*
X0169440Y0232951D01*
X0170090Y0231382D01*
X0171290Y0230181D01*
X0172859Y0229531D01*
X0172197Y0229806D02*
X0139782Y0229806D01*
X0139201Y0230804D02*
X0170667Y0230804D01*
X0169915Y0231803D02*
X0139024Y0231803D01*
X0139225Y0232801D02*
X0169502Y0232801D01*
X0169440Y0233800D02*
X0139662Y0233800D01*
X0140135Y0234799D02*
X0169502Y0234799D01*
X0169915Y0235797D02*
X0140608Y0235797D01*
X0141081Y0236796D02*
X0170667Y0236796D01*
X0172197Y0237794D02*
X0141554Y0237794D01*
X0142027Y0238793D02*
X0203605Y0238793D01*
X0203540Y0238951D02*
X0204190Y0237382D01*
X0205390Y0236181D01*
X0206959Y0235531D01*
X0208657Y0235531D01*
X0210226Y0236181D01*
X0211427Y0237382D01*
X0212077Y0238951D01*
X0212077Y0240649D01*
X0211427Y0242218D01*
X0210226Y0243419D01*
X0208657Y0244068D01*
X0206959Y0244068D01*
X0205390Y0243419D01*
X0204190Y0242218D01*
X0203540Y0240649D01*
X0203540Y0238951D01*
X0203540Y0239791D02*
X0175184Y0239791D01*
X0174557Y0239531D02*
X0176126Y0240181D01*
X0177327Y0241382D01*
X0177977Y0242951D01*
X0177977Y0244649D01*
X0177327Y0246218D01*
X0176126Y0247419D01*
X0174557Y0248068D01*
X0172859Y0248068D01*
X0171290Y0247419D01*
X0170090Y0246218D01*
X0169440Y0244649D01*
X0169440Y0242951D01*
X0170090Y0241382D01*
X0171290Y0240181D01*
X0172859Y0239531D01*
X0174557Y0239531D01*
X0175220Y0237794D02*
X0204019Y0237794D01*
X0204776Y0236796D02*
X0176749Y0236796D01*
X0177501Y0235797D02*
X0206318Y0235797D01*
X0206959Y0234068D02*
X0205390Y0233419D01*
X0204190Y0232218D01*
X0203540Y0230649D01*
X0203540Y0228951D01*
X0204190Y0227382D01*
X0205390Y0226181D01*
X0206959Y0225531D01*
X0208657Y0225531D01*
X0210226Y0226181D01*
X0211427Y0227382D01*
X0212077Y0228951D01*
X0212077Y0230649D01*
X0211427Y0232218D01*
X0210226Y0233419D01*
X0208657Y0234068D01*
X0206959Y0234068D01*
X0206311Y0233800D02*
X0177977Y0233800D01*
X0177915Y0234799D02*
X0380189Y0234799D01*
X0380532Y0233800D02*
X0209306Y0233800D01*
X0210843Y0232801D02*
X0380546Y0232801D01*
X0380161Y0231803D02*
X0211599Y0231803D01*
X0212012Y0230804D02*
X0379422Y0230804D01*
X0378477Y0229806D02*
X0212077Y0229806D01*
X0212017Y0228807D02*
X0377571Y0228807D01*
X0376664Y0227809D02*
X0211604Y0227809D01*
X0210855Y0226810D02*
X0375757Y0226810D01*
X0374850Y0225812D02*
X0209334Y0225812D01*
X0209270Y0223815D02*
X0373037Y0223815D01*
X0373944Y0224813D02*
X0177909Y0224813D01*
X0177977Y0223815D02*
X0206347Y0223815D01*
X0204788Y0222816D02*
X0177921Y0222816D01*
X0177507Y0221818D02*
X0204024Y0221818D01*
X0203610Y0220819D02*
X0176764Y0220819D01*
X0177495Y0225812D02*
X0206282Y0225812D01*
X0204761Y0226810D02*
X0176734Y0226810D01*
X0175184Y0227809D02*
X0204013Y0227809D01*
X0203599Y0228807D02*
X0140661Y0228807D01*
X0142500Y0239791D02*
X0172233Y0239791D01*
X0170682Y0240790D02*
X0142973Y0240790D01*
X0143446Y0241788D02*
X0169921Y0241788D01*
X0169508Y0242787D02*
X0143919Y0242787D01*
X0144392Y0243785D02*
X0169440Y0243785D01*
X0169496Y0244784D02*
X0144865Y0244784D01*
X0145338Y0245782D02*
X0169909Y0245782D01*
X0170652Y0246781D02*
X0145811Y0246781D01*
X0146284Y0247779D02*
X0172161Y0247779D01*
X0172859Y0249531D02*
X0174557Y0249531D01*
X0176126Y0250181D01*
X0177327Y0251382D01*
X0177977Y0252951D01*
X0177977Y0254649D01*
X0177327Y0256218D01*
X0176126Y0257419D01*
X0174557Y0258068D01*
X0172859Y0258068D01*
X0171290Y0257419D01*
X0170090Y0256218D01*
X0169440Y0254649D01*
X0169440Y0252951D01*
X0170090Y0251382D01*
X0171290Y0250181D01*
X0172859Y0249531D01*
X0172268Y0249776D02*
X0147230Y0249776D01*
X0146757Y0248778D02*
X0203612Y0248778D01*
X0203540Y0248951D02*
X0204190Y0247382D01*
X0205390Y0246181D01*
X0206959Y0245531D01*
X0208657Y0245531D01*
X0210226Y0246181D01*
X0211427Y0247382D01*
X0212077Y0248951D01*
X0212077Y0250649D01*
X0211427Y0252218D01*
X0210226Y0253419D01*
X0208657Y0254068D01*
X0206959Y0254068D01*
X0205390Y0253419D01*
X0204190Y0252218D01*
X0203540Y0250649D01*
X0203540Y0248951D01*
X0203540Y0249776D02*
X0175148Y0249776D01*
X0176720Y0250775D02*
X0203592Y0250775D01*
X0204005Y0251773D02*
X0177489Y0251773D01*
X0177903Y0252772D02*
X0204743Y0252772D01*
X0206239Y0253770D02*
X0177977Y0253770D01*
X0177927Y0254769D02*
X0353765Y0254769D01*
X0354489Y0253770D02*
X0209377Y0253770D01*
X0210873Y0252772D02*
X0355191Y0252772D01*
X0353034Y0255767D02*
X0177514Y0255767D01*
X0176779Y0256766D02*
X0352275Y0256766D01*
X0351508Y0257764D02*
X0175292Y0257764D01*
X0172125Y0257764D02*
X0168686Y0257764D01*
X0167914Y0256766D02*
X0170637Y0256766D01*
X0169903Y0255767D02*
X0167160Y0255767D01*
X0166417Y0254769D02*
X0169489Y0254769D01*
X0169440Y0253770D02*
X0165699Y0253770D01*
X0164986Y0252772D02*
X0169514Y0252772D01*
X0169928Y0251773D02*
X0164301Y0251773D01*
X0170697Y0250775D02*
X0147830Y0250775D01*
X0149646Y0251773D02*
X0151557Y0251773D01*
X0169479Y0258763D02*
X0350720Y0258763D01*
X0349914Y0259761D02*
X0170282Y0259761D01*
X0171116Y0260760D02*
X0349094Y0260760D01*
X0348247Y0261758D02*
X0171960Y0261758D01*
X0172827Y0262757D02*
X0347389Y0262757D01*
X0346503Y0263755D02*
X0173715Y0263755D01*
X0174597Y0264754D02*
X0345599Y0264754D01*
X0344679Y0265752D02*
X0174288Y0265752D01*
X0173978Y0266751D02*
X0344879Y0266751D01*
X0345175Y0267749D02*
X0173668Y0267749D01*
X0173358Y0268748D02*
X0345472Y0268748D01*
X0345768Y0269746D02*
X0173049Y0269746D01*
X0172739Y0270745D02*
X0346064Y0270745D01*
X0346360Y0271743D02*
X0172429Y0271743D01*
X0172119Y0272742D02*
X0346656Y0272742D01*
X0346952Y0273740D02*
X0171810Y0273740D01*
X0171500Y0274739D02*
X0347249Y0274739D01*
X0347545Y0275737D02*
X0171190Y0275737D01*
X0170840Y0276736D02*
X0347841Y0276736D01*
X0348172Y0277734D02*
X0170586Y0277734D01*
X0170495Y0278733D02*
X0348435Y0278733D01*
X0348532Y0279732D02*
X0170728Y0279732D01*
X0171469Y0280730D02*
X0348340Y0280730D01*
X0347655Y0281729D02*
X0172668Y0281729D01*
X0173904Y0282727D02*
X0346445Y0282727D01*
X0345177Y0283726D02*
X0175140Y0283726D01*
X0176376Y0284724D02*
X0343909Y0284724D01*
X0342641Y0285723D02*
X0177612Y0285723D01*
X0178848Y0286721D02*
X0200754Y0286721D01*
X0202009Y0286721D02*
X0341372Y0286721D01*
X0340104Y0287720D02*
X0318622Y0287720D01*
X0320344Y0288718D02*
X0338836Y0288718D01*
X0337568Y0289717D02*
X0322066Y0289717D01*
X0323788Y0290715D02*
X0336299Y0290715D01*
X0335031Y0291714D02*
X0325510Y0291714D01*
X0327232Y0292712D02*
X0333763Y0292712D01*
X0332459Y0293711D02*
X0328910Y0293711D01*
X0316534Y0287720D02*
X0203766Y0287720D01*
X0205596Y0288718D02*
X0314697Y0288718D01*
X0312776Y0289717D02*
X0207508Y0289717D01*
X0209512Y0290715D02*
X0310761Y0290715D01*
X0308642Y0291714D02*
X0211620Y0291714D01*
X0213846Y0292712D02*
X0306404Y0292712D01*
X0304031Y0293711D02*
X0216207Y0293711D01*
X0217200Y0294709D02*
X0301719Y0294709D01*
X0301558Y0295708D02*
X0217348Y0295708D01*
X0217497Y0296706D02*
X0301397Y0296706D01*
X0301235Y0297705D02*
X0217645Y0297705D01*
X0217793Y0298703D02*
X0301074Y0298703D01*
X0300912Y0299702D02*
X0217942Y0299702D01*
X0218090Y0300700D02*
X0300751Y0300700D01*
X0300590Y0301699D02*
X0218239Y0301699D01*
X0218387Y0302697D02*
X0250078Y0302697D01*
X0249381Y0303696D02*
X0218535Y0303696D01*
X0218684Y0304694D02*
X0248684Y0304694D01*
X0247987Y0305693D02*
X0218829Y0305693D01*
X0218948Y0306691D02*
X0247290Y0306691D01*
X0246594Y0307690D02*
X0219169Y0307690D01*
X0219615Y0308688D02*
X0245897Y0308688D01*
X0245200Y0309687D02*
X0220791Y0309687D01*
X0224747Y0310685D02*
X0244503Y0310685D01*
X0243817Y0311684D02*
X0228996Y0311684D01*
X0233245Y0312682D02*
X0243139Y0312682D01*
X0242185Y0313681D02*
X0237494Y0313681D01*
X0237639Y0318326D02*
X0235607Y0318158D01*
X0233548Y0318226D01*
X0231543Y0318519D01*
X0229669Y0319026D01*
X0228006Y0319732D01*
X0226633Y0320628D01*
X0225067Y0322359D01*
X0223896Y0324554D01*
X0223108Y0327070D01*
X0222689Y0329767D01*
X0222624Y0332502D01*
X0222901Y0335134D01*
X0223504Y0337522D01*
X0224421Y0339524D01*
X0225145Y0340544D01*
X0225994Y0341439D01*
X0226961Y0342211D01*
X0228037Y0342864D01*
X0229213Y0343401D01*
X0230483Y0343825D01*
X0231836Y0344139D01*
X0233266Y0344347D01*
X0236362Y0344417D01*
X0239125Y0343950D01*
X0241529Y0342974D01*
X0243552Y0341519D01*
X0245168Y0339613D01*
X0246354Y0337285D01*
X0247084Y0334566D01*
X0247337Y0331483D01*
X0247239Y0329470D01*
X0246945Y0327558D01*
X0246459Y0325770D01*
X0245784Y0324126D01*
X0244927Y0322649D01*
X0243892Y0321358D01*
X0242683Y0320276D01*
X0241306Y0319422D01*
X0239565Y0318744D01*
X0237639Y0318326D01*
X0239240Y0318673D02*
X0230972Y0318673D01*
X0228147Y0319672D02*
X0241709Y0319672D01*
X0243124Y0320670D02*
X0226594Y0320670D01*
X0225691Y0321669D02*
X0244142Y0321669D01*
X0244938Y0322668D02*
X0238602Y0322668D01*
X0238462Y0322567D02*
X0239617Y0323400D01*
X0239817Y0323442D01*
X0239940Y0323632D01*
X0240123Y0323765D01*
X0240156Y0323966D01*
X0241024Y0325306D01*
X0241149Y0325368D01*
X0241241Y0325642D01*
X0241398Y0325884D01*
X0241369Y0326021D01*
X0241923Y0327666D01*
X0242007Y0327729D01*
X0242052Y0328047D01*
X0242154Y0328352D01*
X0242108Y0328446D01*
X0242364Y0330268D01*
X0242428Y0330335D01*
X0242420Y0330667D01*
X0242466Y0330996D01*
X0242411Y0331070D01*
X0242366Y0332925D01*
X0242421Y0333007D01*
X0242357Y0333328D01*
X0242349Y0333654D01*
X0242277Y0333722D01*
X0241927Y0335463D01*
X0241972Y0335581D01*
X0241848Y0335856D01*
X0241788Y0336151D01*
X0241683Y0336221D01*
X0241011Y0337715D01*
X0241017Y0337897D01*
X0240848Y0338079D01*
X0240745Y0338305D01*
X0240576Y0338370D01*
X0239605Y0339411D01*
X0239569Y0339557D01*
X0239332Y0339702D01*
X0239142Y0339906D01*
X0239066Y0339909D01*
X0238763Y0340051D01*
X0238584Y0340161D01*
X0238573Y0340184D01*
X0238513Y0340205D01*
X0238456Y0340239D01*
X0238430Y0340233D01*
X0238232Y0340301D01*
X0238037Y0340393D01*
X0238025Y0340411D01*
X0237971Y0340424D01*
X0237907Y0340454D01*
X0237881Y0340445D01*
X0237672Y0340494D01*
X0237431Y0340577D01*
X0237411Y0340601D01*
X0237340Y0340608D01*
X0237328Y0340612D01*
X0237324Y0340610D01*
X0237063Y0340636D01*
X0236723Y0340716D01*
X0236660Y0340677D01*
X0236223Y0340721D01*
X0236170Y0340771D01*
X0235820Y0340761D01*
X0235471Y0340796D01*
X0235415Y0340750D01*
X0234813Y0340733D01*
X0234779Y0340761D01*
X0234405Y0340722D01*
X0234030Y0340712D01*
X0233999Y0340680D01*
X0233470Y0340624D01*
X0233418Y0340658D01*
X0233066Y0340582D01*
X0232707Y0340544D01*
X0232668Y0340496D01*
X0232330Y0340424D01*
X0232264Y0340455D01*
X0231933Y0340338D01*
X0231728Y0340294D01*
X0231710Y0340301D01*
X0231671Y0340282D01*
X0231590Y0340265D01*
X0231570Y0340234D01*
X0231385Y0340145D01*
X0231221Y0340088D01*
X0231185Y0340096D01*
X0231110Y0340048D01*
X0231044Y0340025D01*
X0231032Y0340000D01*
X0230883Y0339906D01*
X0230725Y0339831D01*
X0230690Y0339834D01*
X0230629Y0339785D01*
X0230562Y0339753D01*
X0230551Y0339722D01*
X0230414Y0339611D01*
X0230176Y0339461D01*
X0230105Y0339452D01*
X0229929Y0339219D01*
X0229702Y0339035D01*
X0229688Y0338899D01*
X0229067Y0338078D01*
X0228930Y0338019D01*
X0228826Y0337759D01*
X0228657Y0337536D01*
X0228677Y0337388D01*
X0228209Y0336219D01*
X0228125Y0336164D01*
X0228060Y0335845D01*
X0227939Y0335543D01*
X0227979Y0335451D01*
X0227696Y0334079D01*
X0227637Y0334028D01*
X0227614Y0333683D01*
X0227544Y0333344D01*
X0227587Y0333279D01*
X0227489Y0331796D01*
X0227441Y0331742D01*
X0227462Y0331392D01*
X0227439Y0331042D01*
X0227487Y0330987D01*
X0227576Y0329503D01*
X0227533Y0329436D01*
X0227601Y0329099D01*
X0227622Y0328755D01*
X0227681Y0328702D01*
X0227960Y0327325D01*
X0227919Y0327231D01*
X0228039Y0326931D01*
X0228104Y0326614D01*
X0228189Y0326557D01*
X0228661Y0325379D01*
X0228641Y0325227D01*
X0228809Y0325008D01*
X0228912Y0324751D01*
X0229052Y0324691D01*
X0229707Y0323837D01*
X0229733Y0323676D01*
X0229949Y0323520D01*
X0230111Y0323309D01*
X0230273Y0323288D01*
X0230410Y0323189D01*
X0230440Y0323101D01*
X0230738Y0322954D01*
X0231008Y0322760D01*
X0231099Y0322775D01*
X0231258Y0322696D01*
X0231290Y0322630D01*
X0231621Y0322517D01*
X0231935Y0322361D01*
X0232004Y0322385D01*
X0232218Y0322311D01*
X0232252Y0322257D01*
X0232602Y0322179D01*
X0232941Y0322063D01*
X0232998Y0322091D01*
X0233259Y0322033D01*
X0233298Y0321984D01*
X0233656Y0321945D01*
X0234007Y0321867D01*
X0234060Y0321900D01*
X0234355Y0321867D01*
X0234402Y0321821D01*
X0234758Y0321823D01*
X0235112Y0321784D01*
X0235164Y0321825D01*
X0235476Y0321827D01*
X0235536Y0321782D01*
X0235881Y0321830D01*
X0236229Y0321832D01*
X0236282Y0321885D01*
X0236597Y0321929D01*
X0236676Y0321887D01*
X0236996Y0321985D01*
X0237328Y0322031D01*
X0237382Y0322103D01*
X0237758Y0322217D01*
X0237937Y0322188D01*
X0238139Y0322334D01*
X0238377Y0322406D01*
X0238462Y0322567D01*
X0239986Y0323666D02*
X0245517Y0323666D01*
X0246005Y0324665D02*
X0240608Y0324665D01*
X0241255Y0325663D02*
X0246415Y0325663D01*
X0246701Y0326662D02*
X0241585Y0326662D01*
X0241921Y0327660D02*
X0246961Y0327660D01*
X0247115Y0328659D02*
X0242138Y0328659D01*
X0242278Y0329657D02*
X0247248Y0329657D01*
X0247297Y0330656D02*
X0242420Y0330656D01*
X0242397Y0331654D02*
X0247323Y0331654D01*
X0247241Y0332653D02*
X0242373Y0332653D01*
X0242349Y0333651D02*
X0247159Y0333651D01*
X0247062Y0334650D02*
X0242091Y0334650D01*
X0241941Y0335648D02*
X0246793Y0335648D01*
X0246525Y0336647D02*
X0241492Y0336647D01*
X0241043Y0337645D02*
X0246170Y0337645D01*
X0245661Y0338644D02*
X0240320Y0338644D01*
X0239430Y0339642D02*
X0245143Y0339642D01*
X0244296Y0340641D02*
X0237044Y0340641D01*
X0233628Y0340641D02*
X0233444Y0340641D01*
X0233339Y0340641D02*
X0225237Y0340641D01*
X0224505Y0339642D02*
X0230453Y0339642D01*
X0229495Y0338644D02*
X0224018Y0338644D01*
X0223561Y0337645D02*
X0228740Y0337645D01*
X0228381Y0336647D02*
X0223283Y0336647D01*
X0223031Y0335648D02*
X0227981Y0335648D01*
X0227813Y0334650D02*
X0222850Y0334650D01*
X0222745Y0333651D02*
X0227608Y0333651D01*
X0227546Y0332653D02*
X0222640Y0332653D01*
X0222644Y0331654D02*
X0227446Y0331654D01*
X0227507Y0330656D02*
X0222668Y0330656D01*
X0222706Y0329657D02*
X0227567Y0329657D01*
X0227690Y0328659D02*
X0222861Y0328659D01*
X0223016Y0327660D02*
X0227892Y0327660D01*
X0228094Y0326662D02*
X0223236Y0326662D01*
X0223549Y0325663D02*
X0228547Y0325663D01*
X0229072Y0324665D02*
X0223861Y0324665D01*
X0224369Y0323666D02*
X0229747Y0323666D01*
X0231272Y0322668D02*
X0224902Y0322668D01*
X0206532Y0329657D02*
X0141792Y0329657D01*
X0142703Y0328659D02*
X0206215Y0328659D01*
X0205998Y0327974D02*
X0153794Y0316507D01*
X0117765Y0355982D01*
X0123241Y0373240D01*
X0132399Y0373240D01*
X0132727Y0373568D01*
X0132727Y0393568D01*
X0152400Y0413240D01*
X0190838Y0413240D01*
X0204267Y0398527D01*
X0156885Y0398527D01*
X0156860Y0398547D01*
X0156657Y0398527D01*
X0156453Y0398527D01*
X0156431Y0398504D01*
X0155606Y0398421D01*
X0155550Y0398450D01*
X0155383Y0398398D01*
X0155208Y0398381D01*
X0155168Y0398332D01*
X0154382Y0398088D01*
X0154323Y0398106D01*
X0154168Y0398021D01*
X0153999Y0397969D01*
X0153970Y0397914D01*
X0153266Y0397532D01*
X0153206Y0397538D01*
X0153068Y0397425D01*
X0152912Y0397340D01*
X0152895Y0397281D01*
X0152285Y0396778D01*
X0152225Y0396772D01*
X0152111Y0396635D01*
X0151974Y0396521D01*
X0151968Y0396461D01*
X0151465Y0395851D01*
X0151407Y0395834D01*
X0151322Y0395678D01*
X0151209Y0395540D01*
X0151214Y0395480D01*
X0150833Y0394776D01*
X0150777Y0394747D01*
X0150725Y0394578D01*
X0150641Y0394423D01*
X0150659Y0394363D01*
X0150415Y0393578D01*
X0150366Y0393538D01*
X0150348Y0393363D01*
X0150296Y0393195D01*
X0150326Y0393140D01*
X0150243Y0392316D01*
X0150220Y0392293D01*
X0150220Y0392089D01*
X0150199Y0391886D01*
X0150220Y0391861D01*
X0150220Y0390291D01*
X0150199Y0390266D01*
X0150220Y0390064D01*
X0150220Y0389860D01*
X0150243Y0389837D01*
X0150326Y0389013D01*
X0150296Y0388957D01*
X0150348Y0388789D01*
X0150366Y0388615D01*
X0150415Y0388575D01*
X0150659Y0387790D01*
X0150641Y0387730D01*
X0150725Y0387575D01*
X0150778Y0387406D01*
X0150833Y0387377D01*
X0151214Y0386673D01*
X0151209Y0386613D01*
X0151322Y0386476D01*
X0151407Y0386319D01*
X0151465Y0386302D01*
X0151968Y0385692D01*
X0151974Y0385632D01*
X0152111Y0385518D01*
X0152225Y0385381D01*
X0152285Y0385375D01*
X0152895Y0384872D01*
X0152912Y0384813D01*
X0153068Y0384729D01*
X0153206Y0384615D01*
X0153266Y0384621D01*
X0153970Y0384239D01*
X0153999Y0384184D01*
X0154168Y0384132D01*
X0154323Y0384048D01*
X0154382Y0384065D01*
X0155168Y0383821D01*
X0155208Y0383772D01*
X0155383Y0383755D01*
X0155550Y0383703D01*
X0155606Y0383732D01*
X0156431Y0383649D01*
X0156453Y0383626D01*
X0156657Y0383626D01*
X0156860Y0383606D01*
X0156885Y0383626D01*
X0207665Y0383626D01*
X0207690Y0383606D01*
X0207893Y0383626D01*
X0208097Y0383626D01*
X0208119Y0383649D01*
X0208944Y0383732D01*
X0209000Y0383703D01*
X0209167Y0383755D01*
X0209342Y0383772D01*
X0209382Y0383821D01*
X0210167Y0384065D01*
X0210227Y0384048D01*
X0210382Y0384132D01*
X0210551Y0384184D01*
X0210580Y0384239D01*
X0211283Y0384621D01*
X0211344Y0384615D01*
X0211481Y0384729D01*
X0211638Y0384813D01*
X0211655Y0384872D01*
X0212265Y0385375D01*
X0212325Y0385381D01*
X0212438Y0385518D01*
X0212576Y0385632D01*
X0212582Y0385692D01*
X0213085Y0386302D01*
X0213143Y0386319D01*
X0213228Y0386476D01*
X0213341Y0386613D01*
X0213336Y0386673D01*
X0213717Y0387377D01*
X0213772Y0387406D01*
X0213824Y0387575D01*
X0213909Y0387730D01*
X0213891Y0387790D01*
X0213936Y0387935D01*
X0222167Y0378917D01*
X0205998Y0327974D01*
X0204570Y0327660D02*
X0143614Y0327660D01*
X0144526Y0326662D02*
X0200024Y0326662D01*
X0195478Y0325663D02*
X0145437Y0325663D01*
X0146348Y0324665D02*
X0190932Y0324665D01*
X0186386Y0323666D02*
X0147260Y0323666D01*
X0148171Y0322668D02*
X0181840Y0322668D01*
X0177294Y0321669D02*
X0149082Y0321669D01*
X0149994Y0320670D02*
X0172748Y0320670D01*
X0168203Y0319672D02*
X0150905Y0319672D01*
X0151816Y0318673D02*
X0163657Y0318673D01*
X0159111Y0317675D02*
X0152728Y0317675D01*
X0153639Y0316676D02*
X0154565Y0316676D01*
X0140880Y0330656D02*
X0206849Y0330656D01*
X0207166Y0331654D02*
X0139969Y0331654D01*
X0139057Y0332653D02*
X0207483Y0332653D01*
X0207800Y0333651D02*
X0138146Y0333651D01*
X0137235Y0334650D02*
X0208117Y0334650D01*
X0208434Y0335648D02*
X0136323Y0335648D01*
X0135412Y0336647D02*
X0208751Y0336647D01*
X0209067Y0337645D02*
X0134501Y0337645D01*
X0133589Y0338644D02*
X0209384Y0338644D01*
X0209701Y0339642D02*
X0132678Y0339642D01*
X0131767Y0340641D02*
X0210018Y0340641D01*
X0210335Y0341639D02*
X0130855Y0341639D01*
X0129944Y0342638D02*
X0210652Y0342638D01*
X0210969Y0343636D02*
X0129033Y0343636D01*
X0128121Y0344635D02*
X0211286Y0344635D01*
X0211603Y0345633D02*
X0127210Y0345633D01*
X0126299Y0346632D02*
X0211920Y0346632D01*
X0212237Y0347630D02*
X0125387Y0347630D01*
X0124476Y0348629D02*
X0212554Y0348629D01*
X0212871Y0349627D02*
X0123564Y0349627D01*
X0122653Y0350626D02*
X0213188Y0350626D01*
X0213505Y0351624D02*
X0121742Y0351624D01*
X0120830Y0352623D02*
X0213821Y0352623D01*
X0214138Y0353621D02*
X0119919Y0353621D01*
X0119008Y0354620D02*
X0214455Y0354620D01*
X0214772Y0355618D02*
X0118096Y0355618D01*
X0117966Y0356617D02*
X0215089Y0356617D01*
X0215406Y0357615D02*
X0118283Y0357615D01*
X0118600Y0358614D02*
X0215723Y0358614D01*
X0216040Y0359612D02*
X0118917Y0359612D01*
X0119233Y0360611D02*
X0201333Y0360611D01*
X0201556Y0360519D02*
X0202861Y0360519D01*
X0204067Y0361018D01*
X0204990Y0361941D01*
X0205489Y0363147D01*
X0205489Y0364453D01*
X0204990Y0365659D01*
X0204067Y0366582D01*
X0202861Y0367081D01*
X0201556Y0367081D01*
X0200350Y0366582D01*
X0199427Y0365659D01*
X0198927Y0364453D01*
X0198927Y0363147D01*
X0199427Y0361941D01*
X0200350Y0361018D01*
X0201556Y0360519D01*
X0203083Y0360611D02*
X0216357Y0360611D01*
X0216674Y0361609D02*
X0204658Y0361609D01*
X0205266Y0362608D02*
X0216991Y0362608D01*
X0217308Y0363606D02*
X0205489Y0363606D01*
X0205426Y0364605D02*
X0217625Y0364605D01*
X0217942Y0365603D02*
X0205013Y0365603D01*
X0204018Y0366602D02*
X0218259Y0366602D01*
X0218575Y0367601D02*
X0121451Y0367601D01*
X0121768Y0368599D02*
X0218892Y0368599D01*
X0219209Y0369598D02*
X0122085Y0369598D01*
X0122402Y0370596D02*
X0219526Y0370596D01*
X0219843Y0371595D02*
X0122719Y0371595D01*
X0123036Y0372593D02*
X0220160Y0372593D01*
X0220477Y0373592D02*
X0132727Y0373592D01*
X0132727Y0374590D02*
X0220794Y0374590D01*
X0221111Y0375589D02*
X0132727Y0375589D01*
X0132727Y0376587D02*
X0221428Y0376587D01*
X0221745Y0377586D02*
X0132727Y0377586D01*
X0132727Y0378584D02*
X0222062Y0378584D01*
X0221560Y0379583D02*
X0132727Y0379583D01*
X0132727Y0380581D02*
X0220648Y0380581D01*
X0219737Y0381580D02*
X0132727Y0381580D01*
X0132727Y0382578D02*
X0218826Y0382578D01*
X0217914Y0383577D02*
X0132727Y0383577D01*
X0132727Y0384575D02*
X0153351Y0384575D01*
X0152044Y0385574D02*
X0132727Y0385574D01*
X0132727Y0386572D02*
X0151242Y0386572D01*
X0150726Y0387571D02*
X0132727Y0387571D01*
X0132727Y0388569D02*
X0150417Y0388569D01*
X0150270Y0389568D02*
X0132727Y0389568D01*
X0132727Y0390566D02*
X0150220Y0390566D01*
X0150220Y0391565D02*
X0132727Y0391565D01*
X0132727Y0392563D02*
X0150268Y0392563D01*
X0150395Y0393562D02*
X0132727Y0393562D01*
X0133720Y0394560D02*
X0150715Y0394560D01*
X0151224Y0395559D02*
X0134718Y0395559D01*
X0135717Y0396557D02*
X0152017Y0396557D01*
X0153310Y0397556D02*
X0136715Y0397556D01*
X0137714Y0398554D02*
X0204242Y0398554D01*
X0203331Y0399553D02*
X0138713Y0399553D01*
X0139711Y0400551D02*
X0202419Y0400551D01*
X0201508Y0401550D02*
X0140710Y0401550D01*
X0141708Y0402548D02*
X0200597Y0402548D01*
X0199685Y0403547D02*
X0142707Y0403547D01*
X0143705Y0404545D02*
X0198774Y0404545D01*
X0197862Y0405544D02*
X0144704Y0405544D01*
X0145702Y0406542D02*
X0196951Y0406542D01*
X0196040Y0407541D02*
X0146701Y0407541D01*
X0147700Y0408539D02*
X0195128Y0408539D01*
X0194217Y0409538D02*
X0148698Y0409538D01*
X0149697Y0410537D02*
X0193305Y0410537D01*
X0192394Y0411535D02*
X0150695Y0411535D01*
X0151694Y0412534D02*
X0191483Y0412534D01*
X0213823Y0387571D02*
X0214269Y0387571D01*
X0215180Y0386572D02*
X0213308Y0386572D01*
X0212505Y0385574D02*
X0216092Y0385574D01*
X0217003Y0384575D02*
X0211199Y0384575D01*
X0200399Y0366602D02*
X0121134Y0366602D01*
X0120818Y0365603D02*
X0199404Y0365603D01*
X0198990Y0364605D02*
X0120501Y0364605D01*
X0120184Y0363606D02*
X0198927Y0363606D01*
X0199151Y0362608D02*
X0119867Y0362608D01*
X0119550Y0361609D02*
X0199759Y0361609D01*
X0229806Y0349156D02*
X0242358Y0369107D01*
X0242427Y0368941D01*
X0243208Y0368160D01*
X0243208Y0365386D01*
X0243794Y0364800D01*
X0260622Y0364800D01*
X0261208Y0365386D01*
X0261208Y0374160D01*
X0261990Y0374941D01*
X0262489Y0376147D01*
X0262489Y0377453D01*
X0261990Y0378659D01*
X0261208Y0379440D01*
X0261208Y0382214D01*
X0260622Y0382800D01*
X0250973Y0382800D01*
X0257541Y0393240D01*
X0257732Y0393240D01*
X0257792Y0393202D01*
X0257957Y0393240D01*
X0258126Y0393240D01*
X0258175Y0393290D01*
X0258244Y0393305D01*
X0258334Y0393449D01*
X0258454Y0393568D01*
X0258454Y0393638D01*
X0278828Y0426023D01*
X0289182Y0408360D01*
X0280335Y0394151D01*
X0280217Y0394032D01*
X0280217Y0393960D01*
X0280179Y0393899D01*
X0280217Y0393736D01*
X0280217Y0393568D01*
X0280268Y0393517D01*
X0280284Y0393447D01*
X0280426Y0393359D01*
X0280473Y0393312D01*
X0252981Y0349156D01*
X0229806Y0349156D01*
X0230103Y0349627D02*
X0253275Y0349627D01*
X0253897Y0350626D02*
X0230731Y0350626D01*
X0231360Y0351624D02*
X0254518Y0351624D01*
X0255140Y0352623D02*
X0231988Y0352623D01*
X0232616Y0353621D02*
X0255762Y0353621D01*
X0256383Y0354620D02*
X0233244Y0354620D01*
X0233872Y0355618D02*
X0257005Y0355618D01*
X0257627Y0356617D02*
X0234501Y0356617D01*
X0235129Y0357615D02*
X0258248Y0357615D01*
X0258870Y0358614D02*
X0235757Y0358614D01*
X0236385Y0359612D02*
X0259492Y0359612D01*
X0260113Y0360611D02*
X0237013Y0360611D01*
X0237641Y0361609D02*
X0260735Y0361609D01*
X0261357Y0362608D02*
X0238270Y0362608D01*
X0238898Y0363606D02*
X0261978Y0363606D01*
X0262600Y0364605D02*
X0239526Y0364605D01*
X0240154Y0365603D02*
X0243208Y0365603D01*
X0243208Y0366602D02*
X0240782Y0366602D01*
X0241411Y0367601D02*
X0243208Y0367601D01*
X0242769Y0368599D02*
X0242039Y0368599D01*
X0261208Y0368599D02*
X0265087Y0368599D01*
X0265708Y0369598D02*
X0261208Y0369598D01*
X0261208Y0370596D02*
X0266330Y0370596D01*
X0266952Y0371595D02*
X0261208Y0371595D01*
X0261208Y0372593D02*
X0267573Y0372593D01*
X0268195Y0373592D02*
X0261208Y0373592D01*
X0261639Y0374590D02*
X0268817Y0374590D01*
X0269438Y0375589D02*
X0262258Y0375589D01*
X0262489Y0376587D02*
X0270060Y0376587D01*
X0270682Y0377586D02*
X0262434Y0377586D01*
X0262021Y0378584D02*
X0271303Y0378584D01*
X0271925Y0379583D02*
X0261208Y0379583D01*
X0261208Y0380581D02*
X0272547Y0380581D01*
X0273168Y0381580D02*
X0261208Y0381580D01*
X0260844Y0382578D02*
X0273790Y0382578D01*
X0274412Y0383577D02*
X0251462Y0383577D01*
X0252090Y0384575D02*
X0275033Y0384575D01*
X0275655Y0385574D02*
X0252718Y0385574D01*
X0253346Y0386572D02*
X0276277Y0386572D01*
X0276898Y0387571D02*
X0253975Y0387571D01*
X0254603Y0388569D02*
X0277520Y0388569D01*
X0278142Y0389568D02*
X0255231Y0389568D01*
X0255859Y0390566D02*
X0278763Y0390566D01*
X0279385Y0391565D02*
X0256487Y0391565D01*
X0257116Y0392563D02*
X0280007Y0392563D01*
X0280223Y0393562D02*
X0258447Y0393562D01*
X0259034Y0394560D02*
X0280590Y0394560D01*
X0281212Y0395559D02*
X0259662Y0395559D01*
X0260290Y0396557D02*
X0281834Y0396557D01*
X0282456Y0397556D02*
X0260918Y0397556D01*
X0261546Y0398554D02*
X0283077Y0398554D01*
X0283699Y0399553D02*
X0262175Y0399553D01*
X0262803Y0400551D02*
X0284321Y0400551D01*
X0284942Y0401550D02*
X0263431Y0401550D01*
X0264059Y0402548D02*
X0285564Y0402548D01*
X0286186Y0403547D02*
X0264687Y0403547D01*
X0265316Y0404545D02*
X0286807Y0404545D01*
X0287429Y0405544D02*
X0265944Y0405544D01*
X0266572Y0406542D02*
X0288051Y0406542D01*
X0288672Y0407541D02*
X0267200Y0407541D01*
X0267828Y0408539D02*
X0289077Y0408539D01*
X0288492Y0409538D02*
X0268457Y0409538D01*
X0269085Y0410537D02*
X0287907Y0410537D01*
X0287321Y0411535D02*
X0269713Y0411535D01*
X0270341Y0412534D02*
X0286736Y0412534D01*
X0286151Y0413532D02*
X0270969Y0413532D01*
X0271598Y0414531D02*
X0285565Y0414531D01*
X0284980Y0415529D02*
X0272226Y0415529D01*
X0272854Y0416528D02*
X0284395Y0416528D01*
X0283809Y0417526D02*
X0273482Y0417526D01*
X0274110Y0418525D02*
X0283224Y0418525D01*
X0282638Y0419523D02*
X0274739Y0419523D01*
X0275367Y0420522D02*
X0282053Y0420522D01*
X0281468Y0421520D02*
X0275995Y0421520D01*
X0276623Y0422519D02*
X0280882Y0422519D01*
X0280297Y0423517D02*
X0277251Y0423517D01*
X0277880Y0424516D02*
X0279712Y0424516D01*
X0279126Y0425514D02*
X0278508Y0425514D01*
X0302574Y0411535D02*
X0361579Y0411535D01*
X0361000Y0412534D02*
X0303153Y0412534D01*
X0303732Y0413532D02*
X0360422Y0413532D01*
X0359843Y0414531D02*
X0304311Y0414531D01*
X0304889Y0415529D02*
X0359264Y0415529D01*
X0358685Y0416528D02*
X0305468Y0416528D01*
X0306047Y0417526D02*
X0358107Y0417526D01*
X0357528Y0418525D02*
X0306626Y0418525D01*
X0307205Y0419523D02*
X0356949Y0419523D01*
X0356370Y0420522D02*
X0307784Y0420522D01*
X0308362Y0421520D02*
X0355791Y0421520D01*
X0355213Y0422519D02*
X0308941Y0422519D01*
X0309520Y0423517D02*
X0354634Y0423517D01*
X0354055Y0424516D02*
X0310099Y0424516D01*
X0310678Y0425514D02*
X0353476Y0425514D01*
X0352898Y0426513D02*
X0311256Y0426513D01*
X0311835Y0427511D02*
X0352319Y0427511D01*
X0351740Y0428510D02*
X0312414Y0428510D01*
X0312993Y0429508D02*
X0351161Y0429508D01*
X0350583Y0430507D02*
X0313572Y0430507D01*
X0314150Y0431505D02*
X0350004Y0431505D01*
X0349425Y0432504D02*
X0314729Y0432504D01*
X0315308Y0433502D02*
X0348846Y0433502D01*
X0348267Y0434501D02*
X0315887Y0434501D01*
X0316466Y0435499D02*
X0347689Y0435499D01*
X0347110Y0436498D02*
X0317045Y0436498D01*
X0317623Y0437496D02*
X0346531Y0437496D01*
X0345952Y0438495D02*
X0318202Y0438495D01*
X0318781Y0439493D02*
X0345374Y0439493D01*
X0344795Y0440492D02*
X0319360Y0440492D01*
X0319939Y0441490D02*
X0344216Y0441490D01*
X0343637Y0442489D02*
X0320517Y0442489D01*
X0321096Y0443487D02*
X0343059Y0443487D01*
X0342480Y0444486D02*
X0321675Y0444486D01*
X0322254Y0445484D02*
X0341901Y0445484D01*
X0341322Y0446483D02*
X0322833Y0446483D01*
X0323411Y0447481D02*
X0340743Y0447481D01*
X0340165Y0448480D02*
X0323990Y0448480D01*
X0324569Y0449478D02*
X0339586Y0449478D01*
X0339007Y0450477D02*
X0325148Y0450477D01*
X0325727Y0451475D02*
X0338428Y0451475D01*
X0337850Y0452474D02*
X0326305Y0452474D01*
X0326884Y0453472D02*
X0337271Y0453472D01*
X0336692Y0454471D02*
X0327463Y0454471D01*
X0328042Y0455470D02*
X0336113Y0455470D01*
X0335534Y0456468D02*
X0328621Y0456468D01*
X0329200Y0457467D02*
X0334956Y0457467D01*
X0334377Y0458465D02*
X0329778Y0458465D01*
X0330357Y0459464D02*
X0333798Y0459464D01*
X0333219Y0460462D02*
X0330936Y0460462D01*
X0331515Y0461461D02*
X0332641Y0461461D01*
X0332078Y0462432D02*
X0371946Y0393649D01*
X0371946Y0393568D01*
X0372059Y0393456D01*
X0372138Y0393318D01*
X0372217Y0393298D01*
X0372274Y0393240D01*
X0372433Y0393240D01*
X0372586Y0393199D01*
X0372657Y0393240D01*
X0372832Y0393240D01*
X0378883Y0382800D01*
X0363794Y0382800D01*
X0363208Y0382214D01*
X0363208Y0374440D01*
X0362427Y0373659D01*
X0361927Y0372453D01*
X0361927Y0371147D01*
X0362427Y0369941D01*
X0363208Y0369160D01*
X0363208Y0365386D01*
X0363794Y0364800D01*
X0364622Y0364800D01*
X0380622Y0364800D01*
X0381208Y0365386D01*
X0381208Y0374160D01*
X0381990Y0374941D01*
X0382489Y0376147D01*
X0382489Y0376579D01*
X0398385Y0349156D01*
X0265767Y0349156D01*
X0283208Y0379243D01*
X0283208Y0374440D01*
X0282427Y0373659D01*
X0281927Y0372453D01*
X0281927Y0371147D01*
X0282427Y0369941D01*
X0283208Y0369160D01*
X0283208Y0365386D01*
X0283794Y0364800D01*
X0300622Y0364800D01*
X0301208Y0365386D01*
X0301208Y0374160D01*
X0301990Y0374941D01*
X0302489Y0376147D01*
X0302489Y0377453D01*
X0301990Y0378659D01*
X0301208Y0379440D01*
X0301208Y0382214D01*
X0300622Y0382800D01*
X0285270Y0382800D01*
X0291322Y0393240D01*
X0291496Y0393240D01*
X0291566Y0393199D01*
X0291720Y0393240D01*
X0291878Y0393240D01*
X0291936Y0393298D01*
X0292015Y0393318D01*
X0292094Y0393456D01*
X0292206Y0393568D01*
X0292206Y0393649D01*
X0332078Y0462432D01*
X0385324Y0426023D02*
X0405700Y0393638D01*
X0405700Y0393568D01*
X0405820Y0393449D01*
X0405910Y0393305D01*
X0405978Y0393290D01*
X0406028Y0393240D01*
X0406197Y0393240D01*
X0406362Y0393202D01*
X0406422Y0393240D01*
X0406612Y0393240D01*
X0413180Y0382800D01*
X0403794Y0382800D01*
X0403208Y0382214D01*
X0403208Y0373440D01*
X0402427Y0372659D01*
X0401927Y0371453D01*
X0401927Y0370147D01*
X0402427Y0368941D01*
X0403208Y0368160D01*
X0403208Y0365386D01*
X0403794Y0364800D01*
X0404622Y0364800D01*
X0420622Y0364800D01*
X0421208Y0365386D01*
X0421208Y0368160D01*
X0421934Y0368886D01*
X0434348Y0349156D01*
X0411173Y0349156D01*
X0383682Y0393312D01*
X0383729Y0393359D01*
X0383871Y0393447D01*
X0383888Y0393517D01*
X0383938Y0393568D01*
X0383938Y0393736D01*
X0383976Y0393899D01*
X0383938Y0393960D01*
X0383938Y0394032D01*
X0383820Y0394151D01*
X0374973Y0408360D01*
X0385324Y0426023D01*
X0385026Y0425514D02*
X0385645Y0425514D01*
X0386273Y0424516D02*
X0384441Y0424516D01*
X0383856Y0423517D02*
X0386901Y0423517D01*
X0387529Y0422519D02*
X0383271Y0422519D01*
X0382685Y0421520D02*
X0388158Y0421520D01*
X0388786Y0420522D02*
X0382100Y0420522D01*
X0381515Y0419523D02*
X0389414Y0419523D01*
X0390042Y0418525D02*
X0380930Y0418525D01*
X0380345Y0417526D02*
X0390671Y0417526D01*
X0391299Y0416528D02*
X0379759Y0416528D01*
X0379174Y0415529D02*
X0391927Y0415529D01*
X0392555Y0414531D02*
X0378589Y0414531D01*
X0378004Y0413532D02*
X0393184Y0413532D01*
X0393812Y0412534D02*
X0377419Y0412534D01*
X0376833Y0411535D02*
X0394440Y0411535D01*
X0395068Y0410537D02*
X0376248Y0410537D01*
X0375663Y0409538D02*
X0395697Y0409538D01*
X0396325Y0408539D02*
X0375078Y0408539D01*
X0375483Y0407541D02*
X0396953Y0407541D01*
X0397581Y0406542D02*
X0376105Y0406542D01*
X0376726Y0405544D02*
X0398210Y0405544D01*
X0398838Y0404545D02*
X0377348Y0404545D01*
X0377970Y0403547D02*
X0399466Y0403547D01*
X0400094Y0402548D02*
X0378591Y0402548D01*
X0379213Y0401550D02*
X0400723Y0401550D01*
X0401351Y0400551D02*
X0379835Y0400551D01*
X0380456Y0399553D02*
X0401979Y0399553D01*
X0402607Y0398554D02*
X0381078Y0398554D01*
X0381700Y0397556D02*
X0403235Y0397556D01*
X0403864Y0396557D02*
X0382321Y0396557D01*
X0382943Y0395559D02*
X0404492Y0395559D01*
X0405120Y0394560D02*
X0383565Y0394560D01*
X0383932Y0393562D02*
X0405706Y0393562D01*
X0407037Y0392563D02*
X0384148Y0392563D01*
X0384770Y0391565D02*
X0407666Y0391565D01*
X0408294Y0390566D02*
X0385391Y0390566D01*
X0386013Y0389568D02*
X0408922Y0389568D01*
X0409550Y0388569D02*
X0386635Y0388569D01*
X0387256Y0387571D02*
X0410178Y0387571D01*
X0410807Y0386572D02*
X0387878Y0386572D01*
X0388500Y0385574D02*
X0411435Y0385574D01*
X0412063Y0384575D02*
X0389121Y0384575D01*
X0389743Y0383577D02*
X0412691Y0383577D01*
X0403572Y0382578D02*
X0390365Y0382578D01*
X0390986Y0381580D02*
X0403208Y0381580D01*
X0403208Y0380581D02*
X0391608Y0380581D01*
X0392229Y0379583D02*
X0403208Y0379583D01*
X0403208Y0378584D02*
X0392851Y0378584D01*
X0393473Y0377586D02*
X0403208Y0377586D01*
X0403208Y0376587D02*
X0394094Y0376587D01*
X0394716Y0375589D02*
X0403208Y0375589D01*
X0403208Y0374590D02*
X0395338Y0374590D01*
X0395959Y0373592D02*
X0403208Y0373592D01*
X0402400Y0372593D02*
X0396581Y0372593D01*
X0397203Y0371595D02*
X0401986Y0371595D01*
X0401927Y0370596D02*
X0397824Y0370596D01*
X0398446Y0369598D02*
X0402155Y0369598D01*
X0402769Y0368599D02*
X0399068Y0368599D01*
X0399689Y0367601D02*
X0403208Y0367601D01*
X0403208Y0366602D02*
X0400311Y0366602D01*
X0400933Y0365603D02*
X0403208Y0365603D01*
X0401554Y0364605D02*
X0424628Y0364605D01*
X0425256Y0363606D02*
X0402176Y0363606D01*
X0402798Y0362608D02*
X0425884Y0362608D01*
X0426512Y0361609D02*
X0403419Y0361609D01*
X0404041Y0360611D02*
X0427140Y0360611D01*
X0427769Y0359612D02*
X0404663Y0359612D01*
X0405284Y0358614D02*
X0428397Y0358614D01*
X0429025Y0357615D02*
X0405906Y0357615D01*
X0406528Y0356617D02*
X0429653Y0356617D01*
X0430281Y0355618D02*
X0407149Y0355618D01*
X0407771Y0354620D02*
X0430910Y0354620D01*
X0431538Y0353621D02*
X0408392Y0353621D01*
X0409014Y0352623D02*
X0432166Y0352623D01*
X0432794Y0351624D02*
X0409636Y0351624D01*
X0410257Y0350626D02*
X0433423Y0350626D01*
X0434051Y0349627D02*
X0410879Y0349627D01*
X0410984Y0344326D02*
X0413850Y0343756D01*
X0416589Y0342739D01*
X0416452Y0342124D01*
X0416263Y0341560D01*
X0416039Y0341030D01*
X0415798Y0340518D01*
X0415556Y0340007D01*
X0415328Y0339481D01*
X0415132Y0338924D01*
X0414984Y0338318D01*
X0414051Y0338686D01*
X0412701Y0339122D01*
X0411111Y0339515D01*
X0409458Y0339752D01*
X0407918Y0339723D01*
X0406666Y0339314D01*
X0405880Y0338413D01*
X0405737Y0336910D01*
X0405956Y0336194D01*
X0406389Y0335594D01*
X0406993Y0335087D01*
X0407729Y0334648D01*
X0409430Y0333878D01*
X0411165Y0333092D01*
X0412417Y0332361D01*
X0413674Y0331450D01*
X0414844Y0330363D01*
X0415836Y0329105D01*
X0416558Y0327680D01*
X0416918Y0326090D01*
X0416826Y0324341D01*
X0416188Y0322437D01*
X0415096Y0320878D01*
X0413538Y0319678D01*
X0411612Y0318832D01*
X0409418Y0318330D01*
X0407052Y0318166D01*
X0404613Y0318332D01*
X0402198Y0318820D01*
X0399907Y0319624D01*
X0399907Y0324850D01*
X0401074Y0324370D01*
X0402461Y0323849D01*
X0403993Y0323366D01*
X0405593Y0322999D01*
X0407186Y0322826D01*
X0408696Y0322924D01*
X0410048Y0323371D01*
X0411165Y0324246D01*
X0411241Y0325273D01*
X0411078Y0326125D01*
X0410709Y0326833D01*
X0410168Y0327427D01*
X0409487Y0327937D01*
X0408700Y0328395D01*
X0407840Y0328830D01*
X0406941Y0329272D01*
X0405726Y0329875D01*
X0404543Y0330481D01*
X0403428Y0331134D01*
X0402417Y0331873D01*
X0401543Y0332739D01*
X0400844Y0333773D01*
X0400354Y0335016D01*
X0400107Y0336508D01*
X0400363Y0339311D01*
X0401456Y0341471D01*
X0403226Y0343020D01*
X0405511Y0343990D01*
X0408150Y0344415D01*
X0410984Y0344326D01*
X0414174Y0343636D02*
X0404678Y0343636D01*
X0402789Y0342638D02*
X0416567Y0342638D01*
X0416289Y0341639D02*
X0401649Y0341639D01*
X0401036Y0340641D02*
X0415856Y0340641D01*
X0415397Y0339642D02*
X0410225Y0339642D01*
X0407671Y0339642D02*
X0400530Y0339642D01*
X0400302Y0338644D02*
X0406081Y0338644D01*
X0405807Y0337645D02*
X0400211Y0337645D01*
X0400120Y0336647D02*
X0405817Y0336647D01*
X0406350Y0335648D02*
X0400249Y0335648D01*
X0400498Y0334650D02*
X0407726Y0334650D01*
X0409931Y0333651D02*
X0400926Y0333651D01*
X0401631Y0332653D02*
X0411917Y0332653D01*
X0413393Y0331654D02*
X0402717Y0331654D01*
X0404246Y0330656D02*
X0414530Y0330656D01*
X0415401Y0329657D02*
X0406165Y0329657D01*
X0408179Y0328659D02*
X0416062Y0328659D01*
X0416562Y0327660D02*
X0409857Y0327660D01*
X0410799Y0326662D02*
X0416789Y0326662D01*
X0416896Y0325663D02*
X0411167Y0325663D01*
X0411196Y0324665D02*
X0416843Y0324665D01*
X0416600Y0323666D02*
X0410424Y0323666D01*
X0410920Y0318673D02*
X0402923Y0318673D01*
X0399907Y0319672D02*
X0413523Y0319672D01*
X0414826Y0320670D02*
X0399907Y0320670D01*
X0399907Y0321669D02*
X0415650Y0321669D01*
X0416265Y0322668D02*
X0399907Y0322668D01*
X0399907Y0323666D02*
X0403041Y0323666D01*
X0400358Y0324665D02*
X0399907Y0324665D01*
X0391796Y0322769D02*
X0391867Y0322237D01*
X0391893Y0321660D01*
X0391888Y0321053D01*
X0391849Y0319807D01*
X0391867Y0318618D01*
X0376991Y0318618D01*
X0376991Y0344147D01*
X0391867Y0344147D01*
X0391867Y0339524D01*
X0382820Y0339524D01*
X0382683Y0338957D01*
X0382610Y0338326D01*
X0382586Y0337647D01*
X0382594Y0336935D01*
X0382641Y0335482D01*
X0382619Y0334097D01*
X0391262Y0334097D01*
X0391262Y0329472D01*
X0382619Y0329472D01*
X0382619Y0323442D01*
X0383637Y0323304D01*
X0384720Y0323232D01*
X0385852Y0323208D01*
X0387016Y0323216D01*
X0389375Y0323263D01*
X0391666Y0323242D01*
X0391796Y0322769D01*
X0391809Y0322668D02*
X0376991Y0322668D01*
X0376991Y0323666D02*
X0382619Y0323666D01*
X0382619Y0324665D02*
X0376991Y0324665D01*
X0376991Y0325663D02*
X0382619Y0325663D01*
X0382619Y0326662D02*
X0376991Y0326662D01*
X0376991Y0327660D02*
X0382619Y0327660D01*
X0382619Y0328659D02*
X0376991Y0328659D01*
X0376991Y0329657D02*
X0391262Y0329657D01*
X0391262Y0330656D02*
X0376991Y0330656D01*
X0376991Y0331654D02*
X0391262Y0331654D01*
X0391262Y0332653D02*
X0376991Y0332653D01*
X0376991Y0333651D02*
X0391262Y0333651D01*
X0391867Y0339642D02*
X0376991Y0339642D01*
X0376991Y0338644D02*
X0382647Y0338644D01*
X0382586Y0337645D02*
X0376991Y0337645D01*
X0376991Y0336647D02*
X0382603Y0336647D01*
X0382635Y0335648D02*
X0376991Y0335648D01*
X0376991Y0334650D02*
X0382627Y0334650D01*
X0376991Y0340641D02*
X0391867Y0340641D01*
X0391867Y0341639D02*
X0376991Y0341639D01*
X0376991Y0342638D02*
X0391867Y0342638D01*
X0391867Y0343636D02*
X0376991Y0343636D01*
X0369553Y0344147D02*
X0368807Y0340898D01*
X0368028Y0337683D01*
X0367222Y0334493D01*
X0366400Y0331320D01*
X0365570Y0328154D01*
X0364741Y0324988D01*
X0363922Y0321812D01*
X0363121Y0318618D01*
X0356689Y0318618D01*
X0356151Y0320944D01*
X0355565Y0323224D01*
X0354954Y0325477D01*
X0354339Y0327726D01*
X0353741Y0329993D01*
X0353182Y0332298D01*
X0352684Y0334663D01*
X0352267Y0337111D01*
X0351727Y0334761D01*
X0351164Y0332434D01*
X0350585Y0330124D01*
X0349994Y0327824D01*
X0349399Y0325530D01*
X0348805Y0323235D01*
X0348217Y0320933D01*
X0347642Y0318618D01*
X0341210Y0318618D01*
X0340422Y0321825D01*
X0339609Y0325007D01*
X0338781Y0328174D01*
X0337949Y0331337D01*
X0337123Y0334506D01*
X0336313Y0337691D01*
X0335528Y0340901D01*
X0334780Y0344147D01*
X0340207Y0344147D01*
X0340763Y0341713D01*
X0341337Y0339297D01*
X0341918Y0336888D01*
X0342498Y0334478D01*
X0343069Y0332059D01*
X0343620Y0329619D01*
X0344143Y0327152D01*
X0344628Y0324647D01*
X0345161Y0327154D01*
X0345744Y0329613D01*
X0346361Y0332036D01*
X0346997Y0334440D01*
X0347639Y0336838D01*
X0348272Y0339246D01*
X0348881Y0341678D01*
X0349452Y0344147D01*
X0354880Y0344147D01*
X0355441Y0341693D01*
X0356058Y0339295D01*
X0356707Y0336928D01*
X0357360Y0334566D01*
X0357992Y0332183D01*
X0358577Y0329752D01*
X0359089Y0327249D01*
X0359502Y0324647D01*
X0360113Y0327052D01*
X0360707Y0329474D01*
X0361286Y0331911D01*
X0361856Y0334356D01*
X0362421Y0336807D01*
X0362984Y0339258D01*
X0363550Y0341707D01*
X0364124Y0344147D01*
X0369553Y0344147D01*
X0369436Y0343636D02*
X0364004Y0343636D01*
X0363769Y0342638D02*
X0369207Y0342638D01*
X0368978Y0341639D02*
X0363535Y0341639D01*
X0363304Y0340641D02*
X0368745Y0340641D01*
X0368503Y0339642D02*
X0363073Y0339642D01*
X0362843Y0338644D02*
X0368261Y0338644D01*
X0368018Y0337645D02*
X0362614Y0337645D01*
X0362384Y0336647D02*
X0367766Y0336647D01*
X0367514Y0335648D02*
X0362154Y0335648D01*
X0361924Y0334650D02*
X0367262Y0334650D01*
X0367004Y0333651D02*
X0361692Y0333651D01*
X0361459Y0332653D02*
X0366745Y0332653D01*
X0366487Y0331654D02*
X0361225Y0331654D01*
X0360988Y0330656D02*
X0366226Y0330656D01*
X0365964Y0329657D02*
X0360750Y0329657D01*
X0360507Y0328659D02*
X0365702Y0328659D01*
X0365440Y0327660D02*
X0360262Y0327660D01*
X0360014Y0326662D02*
X0365179Y0326662D01*
X0364918Y0325663D02*
X0359760Y0325663D01*
X0359341Y0325663D02*
X0354903Y0325663D01*
X0355174Y0324665D02*
X0359499Y0324665D01*
X0359506Y0324665D02*
X0364657Y0324665D01*
X0364400Y0323666D02*
X0355445Y0323666D01*
X0355708Y0322668D02*
X0364142Y0322668D01*
X0363886Y0321669D02*
X0355965Y0321669D01*
X0356214Y0320670D02*
X0363636Y0320670D01*
X0363385Y0319672D02*
X0356445Y0319672D01*
X0356677Y0318673D02*
X0363135Y0318673D01*
X0359182Y0326662D02*
X0354630Y0326662D01*
X0354357Y0327660D02*
X0359005Y0327660D01*
X0358801Y0328659D02*
X0354093Y0328659D01*
X0353829Y0329657D02*
X0358597Y0329657D01*
X0358360Y0330656D02*
X0353580Y0330656D01*
X0353338Y0331654D02*
X0358119Y0331654D01*
X0357868Y0332653D02*
X0353108Y0332653D01*
X0352897Y0333651D02*
X0357603Y0333651D01*
X0357337Y0334650D02*
X0352687Y0334650D01*
X0351700Y0334650D02*
X0347053Y0334650D01*
X0346788Y0333651D02*
X0351459Y0333651D01*
X0351217Y0332653D02*
X0346524Y0332653D01*
X0346263Y0331654D02*
X0350968Y0331654D01*
X0350718Y0330656D02*
X0346009Y0330656D01*
X0345755Y0329657D02*
X0350465Y0329657D01*
X0350209Y0328659D02*
X0345518Y0328659D01*
X0345281Y0327660D02*
X0349952Y0327660D01*
X0349693Y0326662D02*
X0345057Y0326662D01*
X0344238Y0326662D02*
X0339176Y0326662D01*
X0338915Y0327660D02*
X0344035Y0327660D01*
X0343823Y0328659D02*
X0338654Y0328659D01*
X0338391Y0329657D02*
X0343611Y0329657D01*
X0343386Y0330656D02*
X0338129Y0330656D01*
X0337867Y0331654D02*
X0343160Y0331654D01*
X0342929Y0332653D02*
X0337606Y0332653D01*
X0337346Y0333651D02*
X0342693Y0333651D01*
X0342457Y0334650D02*
X0337086Y0334650D01*
X0336832Y0335648D02*
X0342217Y0335648D01*
X0341976Y0336647D02*
X0336578Y0336647D01*
X0336324Y0337645D02*
X0341735Y0337645D01*
X0341494Y0338644D02*
X0336080Y0338644D01*
X0335836Y0339642D02*
X0341255Y0339642D01*
X0341018Y0340641D02*
X0335592Y0340641D01*
X0335358Y0341639D02*
X0340781Y0341639D01*
X0340552Y0342638D02*
X0335128Y0342638D01*
X0334898Y0343636D02*
X0340324Y0343636D01*
X0348872Y0341639D02*
X0355455Y0341639D01*
X0355225Y0342638D02*
X0349103Y0342638D01*
X0349334Y0343636D02*
X0354997Y0343636D01*
X0355712Y0340641D02*
X0348622Y0340641D01*
X0348372Y0339642D02*
X0355969Y0339642D01*
X0356237Y0338644D02*
X0348114Y0338644D01*
X0347852Y0337645D02*
X0356510Y0337645D01*
X0356785Y0336647D02*
X0352346Y0336647D01*
X0352161Y0336647D02*
X0347588Y0336647D01*
X0347321Y0335648D02*
X0351931Y0335648D01*
X0352516Y0335648D02*
X0357061Y0335648D01*
X0349433Y0325663D02*
X0344844Y0325663D01*
X0344431Y0325663D02*
X0339437Y0325663D01*
X0339696Y0324665D02*
X0344625Y0324665D01*
X0344632Y0324665D02*
X0349175Y0324665D01*
X0348916Y0323666D02*
X0339951Y0323666D01*
X0340206Y0322668D02*
X0348660Y0322668D01*
X0348405Y0321669D02*
X0340460Y0321669D01*
X0340706Y0320670D02*
X0348152Y0320670D01*
X0347904Y0319672D02*
X0340951Y0319672D01*
X0341197Y0318673D02*
X0347656Y0318673D01*
X0327946Y0318673D02*
X0321059Y0318673D01*
X0321109Y0318618D02*
X0320648Y0319124D01*
X0320224Y0319665D01*
X0319831Y0320233D01*
X0319461Y0320822D01*
X0318769Y0322033D01*
X0318092Y0323242D01*
X0317073Y0325012D01*
X0316040Y0326807D01*
X0314996Y0328620D01*
X0313941Y0330444D01*
X0312877Y0332273D01*
X0311806Y0334098D01*
X0310730Y0335914D01*
X0309650Y0337714D01*
X0309837Y0335463D01*
X0309958Y0333147D01*
X0310028Y0330780D01*
X0310058Y0328373D01*
X0310063Y0325940D01*
X0310055Y0323495D01*
X0310047Y0321050D01*
X0310052Y0318618D01*
X0305028Y0318618D01*
X0305028Y0344147D01*
X0311662Y0344147D01*
X0312533Y0343089D01*
X0313291Y0341932D01*
X0313987Y0340727D01*
X0314676Y0339524D01*
X0315701Y0337778D01*
X0316731Y0336004D01*
X0317768Y0334209D01*
X0318813Y0332403D01*
X0319869Y0330595D01*
X0320937Y0328795D01*
X0322020Y0327011D01*
X0323120Y0325252D01*
X0322991Y0327509D01*
X0322920Y0329826D01*
X0322893Y0332187D01*
X0322897Y0334577D01*
X0322915Y0336983D01*
X0322935Y0339389D01*
X0322940Y0341783D01*
X0322917Y0344147D01*
X0327946Y0344147D01*
X0327946Y0318618D01*
X0321109Y0318618D01*
X0320219Y0319672D02*
X0327946Y0319672D01*
X0327946Y0320670D02*
X0319556Y0320670D01*
X0318977Y0321669D02*
X0327946Y0321669D01*
X0327946Y0322668D02*
X0318414Y0322668D01*
X0317848Y0323666D02*
X0327946Y0323666D01*
X0327946Y0324665D02*
X0317273Y0324665D01*
X0316698Y0325663D02*
X0322863Y0325663D01*
X0323096Y0325663D02*
X0327946Y0325663D01*
X0327946Y0326662D02*
X0323039Y0326662D01*
X0322238Y0326662D02*
X0316124Y0326662D01*
X0315549Y0327660D02*
X0321626Y0327660D01*
X0321020Y0328659D02*
X0314974Y0328659D01*
X0314396Y0329657D02*
X0320425Y0329657D01*
X0319833Y0330656D02*
X0313818Y0330656D01*
X0313237Y0331654D02*
X0319250Y0331654D01*
X0318669Y0332653D02*
X0312654Y0332653D01*
X0312069Y0333651D02*
X0318091Y0333651D01*
X0317513Y0334650D02*
X0311480Y0334650D01*
X0310888Y0335648D02*
X0316937Y0335648D01*
X0316358Y0336647D02*
X0310291Y0336647D01*
X0309739Y0336647D02*
X0305028Y0336647D01*
X0305028Y0337645D02*
X0309656Y0337645D01*
X0309692Y0337645D02*
X0315778Y0337645D01*
X0315193Y0338644D02*
X0305028Y0338644D01*
X0305028Y0339642D02*
X0314608Y0339642D01*
X0314037Y0340641D02*
X0305028Y0340641D01*
X0305028Y0341639D02*
X0313460Y0341639D01*
X0312829Y0342638D02*
X0305028Y0342638D01*
X0305028Y0343636D02*
X0312083Y0343636D01*
X0309821Y0335648D02*
X0305028Y0335648D01*
X0305028Y0334650D02*
X0309879Y0334650D01*
X0309931Y0333651D02*
X0305028Y0333651D01*
X0305028Y0332653D02*
X0309972Y0332653D01*
X0310002Y0331654D02*
X0305028Y0331654D01*
X0305028Y0330656D02*
X0310029Y0330656D01*
X0310042Y0329657D02*
X0305028Y0329657D01*
X0305028Y0328659D02*
X0310054Y0328659D01*
X0310059Y0327660D02*
X0305028Y0327660D01*
X0305028Y0326662D02*
X0310061Y0326662D01*
X0310062Y0325663D02*
X0305028Y0325663D01*
X0305028Y0324665D02*
X0310059Y0324665D01*
X0310055Y0323666D02*
X0305028Y0323666D01*
X0305028Y0322668D02*
X0310052Y0322668D01*
X0310049Y0321669D02*
X0305028Y0321669D01*
X0305028Y0320670D02*
X0310048Y0320670D01*
X0310050Y0319672D02*
X0305028Y0319672D01*
X0305028Y0318673D02*
X0310052Y0318673D01*
X0298606Y0309687D02*
X0273324Y0309687D01*
X0274002Y0310685D02*
X0295852Y0310685D01*
X0299314Y0308688D02*
X0272645Y0308688D01*
X0271967Y0307690D02*
X0299640Y0307690D01*
X0299807Y0306691D02*
X0271289Y0306691D01*
X0270611Y0305693D02*
X0299944Y0305693D01*
X0300105Y0304694D02*
X0269932Y0304694D01*
X0269254Y0303696D02*
X0300267Y0303696D01*
X0300428Y0302697D02*
X0268576Y0302697D01*
X0274680Y0311684D02*
X0291347Y0311684D01*
X0286842Y0312682D02*
X0275321Y0312682D01*
X0276149Y0313681D02*
X0282338Y0313681D01*
X0279900Y0318618D02*
X0279900Y0344147D01*
X0294777Y0344147D01*
X0294777Y0339524D01*
X0285731Y0339524D01*
X0285594Y0338957D01*
X0285522Y0338326D01*
X0285498Y0337647D01*
X0285506Y0336935D01*
X0285552Y0335482D01*
X0285530Y0334097D01*
X0294174Y0334097D01*
X0294174Y0329472D01*
X0285530Y0329472D01*
X0285530Y0323442D01*
X0286548Y0323304D01*
X0287631Y0323232D01*
X0288763Y0323208D01*
X0289927Y0323216D01*
X0292285Y0323263D01*
X0294574Y0323242D01*
X0294705Y0322769D01*
X0294776Y0322237D01*
X0294803Y0321660D01*
X0294798Y0321053D01*
X0294759Y0319807D01*
X0294777Y0318618D01*
X0279900Y0318618D01*
X0279900Y0318673D02*
X0294776Y0318673D01*
X0294761Y0319672D02*
X0279900Y0319672D01*
X0279900Y0320670D02*
X0294786Y0320670D01*
X0294802Y0321669D02*
X0279900Y0321669D01*
X0279900Y0322668D02*
X0294719Y0322668D01*
X0294174Y0329657D02*
X0279900Y0329657D01*
X0279900Y0328659D02*
X0285530Y0328659D01*
X0285530Y0327660D02*
X0279900Y0327660D01*
X0279900Y0326662D02*
X0285530Y0326662D01*
X0285530Y0325663D02*
X0279900Y0325663D01*
X0279900Y0324665D02*
X0285530Y0324665D01*
X0285530Y0323666D02*
X0279900Y0323666D01*
X0279900Y0330656D02*
X0294174Y0330656D01*
X0294174Y0331654D02*
X0279900Y0331654D01*
X0279900Y0332653D02*
X0294174Y0332653D01*
X0294174Y0333651D02*
X0279900Y0333651D01*
X0279900Y0334650D02*
X0285539Y0334650D01*
X0285547Y0335648D02*
X0279900Y0335648D01*
X0279900Y0336647D02*
X0285515Y0336647D01*
X0285498Y0337645D02*
X0279900Y0337645D01*
X0279900Y0338644D02*
X0285558Y0338644D01*
X0279900Y0339642D02*
X0294777Y0339642D01*
X0294777Y0340641D02*
X0279900Y0340641D01*
X0279900Y0341639D02*
X0294777Y0341639D01*
X0294777Y0342638D02*
X0279900Y0342638D01*
X0279900Y0343636D02*
X0294777Y0343636D01*
X0271940Y0339352D02*
X0272465Y0336710D01*
X0272348Y0334465D01*
X0271754Y0332501D01*
X0270718Y0330832D01*
X0269278Y0329474D01*
X0267470Y0328443D01*
X0265330Y0327754D01*
X0262895Y0327422D01*
X0260202Y0327464D01*
X0260202Y0318618D01*
X0254574Y0318618D01*
X0254602Y0321807D01*
X0254596Y0325029D01*
X0254572Y0328268D01*
X0254549Y0331508D01*
X0254541Y0334733D01*
X0254564Y0337925D01*
X0254637Y0341069D01*
X0254774Y0344147D01*
X0258085Y0344236D01*
X0261249Y0344232D01*
X0264183Y0344036D01*
X0266804Y0343550D01*
X0269026Y0342673D01*
X0270766Y0341307D01*
X0271940Y0339352D01*
X0271766Y0339642D02*
X0265813Y0339642D01*
X0265618Y0339783D02*
X0265552Y0339924D01*
X0265295Y0340016D01*
X0265073Y0340176D01*
X0264919Y0340152D01*
X0264102Y0340446D01*
X0264014Y0340554D01*
X0263726Y0340581D01*
X0263454Y0340679D01*
X0263328Y0340620D01*
X0262333Y0340716D01*
X0262233Y0340793D01*
X0261934Y0340755D01*
X0261634Y0340784D01*
X0261536Y0340703D01*
X0260138Y0340524D01*
X0259788Y0340524D01*
X0259736Y0340472D01*
X0259664Y0340463D01*
X0259450Y0340185D01*
X0259202Y0339938D01*
X0259202Y0339865D01*
X0259157Y0339807D01*
X0259202Y0339460D01*
X0259202Y0332478D01*
X0259187Y0332462D01*
X0259202Y0332067D01*
X0259202Y0331672D01*
X0259217Y0331656D01*
X0259218Y0331635D01*
X0259508Y0331366D01*
X0259788Y0331086D01*
X0259810Y0331086D01*
X0259826Y0331071D01*
X0260221Y0331086D01*
X0260616Y0331086D01*
X0260632Y0331102D01*
X0261804Y0331146D01*
X0261834Y0331122D01*
X0262213Y0331161D01*
X0262594Y0331176D01*
X0262620Y0331204D01*
X0263634Y0331309D01*
X0263700Y0331269D01*
X0264037Y0331351D01*
X0264381Y0331387D01*
X0264430Y0331447D01*
X0264534Y0331473D01*
X0264616Y0331439D01*
X0264926Y0331568D01*
X0265252Y0331648D01*
X0265298Y0331724D01*
X0265382Y0331759D01*
X0265503Y0331738D01*
X0265752Y0331913D01*
X0266033Y0332031D01*
X0266079Y0332144D01*
X0266171Y0332209D01*
X0266320Y0332224D01*
X0266497Y0332439D01*
X0266724Y0332600D01*
X0266750Y0332748D01*
X0266844Y0332863D01*
X0266991Y0332922D01*
X0267097Y0333171D01*
X0267269Y0333381D01*
X0267253Y0333539D01*
X0267624Y0334410D01*
X0267761Y0334528D01*
X0267780Y0334777D01*
X0267877Y0335006D01*
X0267810Y0335174D01*
X0267870Y0335979D01*
X0267965Y0336150D01*
X0267900Y0336376D01*
X0267918Y0336609D01*
X0267790Y0336758D01*
X0267584Y0337472D01*
X0267614Y0337662D01*
X0267473Y0337854D01*
X0267407Y0338083D01*
X0267239Y0338176D01*
X0266806Y0338771D01*
X0266778Y0338944D01*
X0266572Y0339094D01*
X0266422Y0339300D01*
X0266249Y0339327D01*
X0265618Y0339783D01*
X0266899Y0338644D02*
X0272081Y0338644D01*
X0272279Y0337645D02*
X0267611Y0337645D01*
X0267885Y0336647D02*
X0272461Y0336647D01*
X0272409Y0335648D02*
X0267845Y0335648D01*
X0267770Y0334650D02*
X0272358Y0334650D01*
X0272102Y0333651D02*
X0267301Y0333651D01*
X0266734Y0332653D02*
X0271800Y0332653D01*
X0271228Y0331654D02*
X0265256Y0331654D01*
X0267847Y0328659D02*
X0254570Y0328659D01*
X0254562Y0329657D02*
X0269472Y0329657D01*
X0270531Y0330656D02*
X0254555Y0330656D01*
X0254548Y0331654D02*
X0259218Y0331654D01*
X0259202Y0332653D02*
X0254546Y0332653D01*
X0254543Y0333651D02*
X0259202Y0333651D01*
X0259202Y0334650D02*
X0254541Y0334650D01*
X0254547Y0335648D02*
X0259202Y0335648D01*
X0259202Y0336647D02*
X0254555Y0336647D01*
X0254562Y0337645D02*
X0259202Y0337645D01*
X0259202Y0338644D02*
X0254581Y0338644D01*
X0254604Y0339642D02*
X0259178Y0339642D01*
X0261048Y0340641D02*
X0254627Y0340641D01*
X0254662Y0341639D02*
X0270343Y0341639D01*
X0271167Y0340641D02*
X0263561Y0340641D01*
X0263372Y0340641D02*
X0263112Y0340641D01*
X0266339Y0343636D02*
X0254751Y0343636D01*
X0254707Y0342638D02*
X0269071Y0342638D01*
X0266041Y0349627D02*
X0398112Y0349627D01*
X0397533Y0350626D02*
X0266620Y0350626D01*
X0267198Y0351624D02*
X0396954Y0351624D01*
X0396376Y0352623D02*
X0267777Y0352623D01*
X0268356Y0353621D02*
X0395797Y0353621D01*
X0395218Y0354620D02*
X0268935Y0354620D01*
X0269514Y0355618D02*
X0394639Y0355618D01*
X0394060Y0356617D02*
X0270092Y0356617D01*
X0270671Y0357615D02*
X0393482Y0357615D01*
X0392903Y0358614D02*
X0271250Y0358614D01*
X0271829Y0359612D02*
X0392324Y0359612D01*
X0391745Y0360611D02*
X0272408Y0360611D01*
X0272987Y0361609D02*
X0391167Y0361609D01*
X0390588Y0362608D02*
X0273565Y0362608D01*
X0274144Y0363606D02*
X0390009Y0363606D01*
X0389430Y0364605D02*
X0274723Y0364605D01*
X0275302Y0365603D02*
X0283208Y0365603D01*
X0283208Y0366602D02*
X0275881Y0366602D01*
X0276459Y0367601D02*
X0283208Y0367601D01*
X0283208Y0368599D02*
X0277038Y0368599D01*
X0277617Y0369598D02*
X0282771Y0369598D01*
X0282156Y0370596D02*
X0278196Y0370596D01*
X0278775Y0371595D02*
X0281927Y0371595D01*
X0281985Y0372593D02*
X0279353Y0372593D01*
X0279932Y0373592D02*
X0282399Y0373592D01*
X0283208Y0374590D02*
X0280511Y0374590D01*
X0281090Y0375589D02*
X0283208Y0375589D01*
X0283208Y0376587D02*
X0281669Y0376587D01*
X0282247Y0377586D02*
X0283208Y0377586D01*
X0283208Y0378584D02*
X0282826Y0378584D01*
X0285720Y0383577D02*
X0378433Y0383577D01*
X0377854Y0384575D02*
X0286299Y0384575D01*
X0286878Y0385574D02*
X0377276Y0385574D01*
X0376697Y0386572D02*
X0287457Y0386572D01*
X0288036Y0387571D02*
X0376118Y0387571D01*
X0375539Y0388569D02*
X0288614Y0388569D01*
X0289193Y0389568D02*
X0374961Y0389568D01*
X0374382Y0390566D02*
X0289772Y0390566D01*
X0290351Y0391565D02*
X0373803Y0391565D01*
X0373224Y0392563D02*
X0290930Y0392563D01*
X0292200Y0393562D02*
X0371953Y0393562D01*
X0371418Y0394560D02*
X0292734Y0394560D01*
X0293313Y0395559D02*
X0370840Y0395559D01*
X0370261Y0396557D02*
X0293892Y0396557D01*
X0294471Y0397556D02*
X0369682Y0397556D01*
X0369103Y0398554D02*
X0295050Y0398554D01*
X0295629Y0399553D02*
X0368524Y0399553D01*
X0367946Y0400551D02*
X0296207Y0400551D01*
X0296786Y0401550D02*
X0367367Y0401550D01*
X0366788Y0402548D02*
X0297365Y0402548D01*
X0297944Y0403547D02*
X0366209Y0403547D01*
X0365631Y0404545D02*
X0298523Y0404545D01*
X0299101Y0405544D02*
X0365052Y0405544D01*
X0364473Y0406542D02*
X0299680Y0406542D01*
X0300259Y0407541D02*
X0363894Y0407541D01*
X0363316Y0408539D02*
X0300838Y0408539D01*
X0301417Y0409538D02*
X0362737Y0409538D01*
X0362158Y0410537D02*
X0301995Y0410537D01*
X0300844Y0382578D02*
X0323572Y0382578D01*
X0323794Y0382800D02*
X0323208Y0382214D01*
X0323208Y0374440D01*
X0322427Y0373659D01*
X0321927Y0372453D01*
X0321927Y0371147D01*
X0322427Y0369941D01*
X0323208Y0369160D01*
X0323208Y0365386D01*
X0323794Y0364800D01*
X0324622Y0364800D01*
X0340622Y0364800D01*
X0341208Y0365386D01*
X0341208Y0374160D01*
X0341990Y0374941D01*
X0342489Y0376147D01*
X0342489Y0377453D01*
X0341990Y0378659D01*
X0341208Y0379440D01*
X0341208Y0382214D01*
X0340622Y0382800D01*
X0323794Y0382800D01*
X0323208Y0381580D02*
X0301208Y0381580D01*
X0301208Y0380581D02*
X0323208Y0380581D01*
X0323208Y0379583D02*
X0301208Y0379583D01*
X0302021Y0378584D02*
X0323208Y0378584D01*
X0323208Y0377586D02*
X0302434Y0377586D01*
X0302489Y0376587D02*
X0323208Y0376587D01*
X0323208Y0375589D02*
X0302258Y0375589D01*
X0301639Y0374590D02*
X0323208Y0374590D01*
X0322399Y0373592D02*
X0301208Y0373592D01*
X0301208Y0372593D02*
X0321985Y0372593D01*
X0321927Y0371595D02*
X0301208Y0371595D01*
X0301208Y0370596D02*
X0322156Y0370596D01*
X0322771Y0369598D02*
X0301208Y0369598D01*
X0301208Y0368599D02*
X0323208Y0368599D01*
X0323208Y0367601D02*
X0301208Y0367601D01*
X0301208Y0366602D02*
X0323208Y0366602D01*
X0323208Y0365603D02*
X0301208Y0365603D01*
X0322922Y0343636D02*
X0327946Y0343636D01*
X0327946Y0342638D02*
X0322932Y0342638D01*
X0322940Y0341639D02*
X0327946Y0341639D01*
X0327946Y0340641D02*
X0322938Y0340641D01*
X0322935Y0339642D02*
X0327946Y0339642D01*
X0327946Y0338644D02*
X0322929Y0338644D01*
X0322921Y0337645D02*
X0327946Y0337645D01*
X0327946Y0336647D02*
X0322913Y0336647D01*
X0322905Y0335648D02*
X0327946Y0335648D01*
X0327946Y0334650D02*
X0322897Y0334650D01*
X0322895Y0333651D02*
X0327946Y0333651D01*
X0327946Y0332653D02*
X0322894Y0332653D01*
X0322899Y0331654D02*
X0327946Y0331654D01*
X0327946Y0330656D02*
X0322911Y0330656D01*
X0322925Y0329657D02*
X0327946Y0329657D01*
X0327946Y0328659D02*
X0322956Y0328659D01*
X0322986Y0327660D02*
X0327946Y0327660D01*
X0376991Y0321669D02*
X0391892Y0321669D01*
X0391876Y0320670D02*
X0376991Y0320670D01*
X0376991Y0319672D02*
X0391851Y0319672D01*
X0391866Y0318673D02*
X0376991Y0318673D01*
X0414158Y0338644D02*
X0415063Y0338644D01*
X0421817Y0339524D02*
X0421817Y0344147D01*
X0441316Y0344147D01*
X0441446Y0343675D01*
X0441518Y0343143D01*
X0441544Y0342565D01*
X0441539Y0341958D01*
X0441500Y0340712D01*
X0441517Y0339524D01*
X0434684Y0339524D01*
X0434546Y0337023D01*
X0434473Y0334457D01*
X0434449Y0331843D01*
X0434457Y0329196D01*
X0434481Y0326534D01*
X0434504Y0323873D01*
X0434510Y0321229D01*
X0434483Y0318618D01*
X0428852Y0318618D01*
X0428852Y0339524D01*
X0421817Y0339524D01*
X0421817Y0339642D02*
X0441516Y0339642D01*
X0441501Y0340641D02*
X0421817Y0340641D01*
X0421817Y0341639D02*
X0441529Y0341639D01*
X0441540Y0342638D02*
X0421817Y0342638D01*
X0421817Y0343636D02*
X0441452Y0343636D01*
X0434635Y0338644D02*
X0428852Y0338644D01*
X0428852Y0337645D02*
X0434580Y0337645D01*
X0434535Y0336647D02*
X0428852Y0336647D01*
X0428852Y0335648D02*
X0434507Y0335648D01*
X0434479Y0334650D02*
X0428852Y0334650D01*
X0428852Y0333651D02*
X0434466Y0333651D01*
X0434457Y0332653D02*
X0428852Y0332653D01*
X0428852Y0331654D02*
X0434450Y0331654D01*
X0434453Y0330656D02*
X0428852Y0330656D01*
X0428852Y0329657D02*
X0434456Y0329657D01*
X0434462Y0328659D02*
X0428852Y0328659D01*
X0428852Y0327660D02*
X0434471Y0327660D01*
X0434480Y0326662D02*
X0428852Y0326662D01*
X0428852Y0325663D02*
X0434489Y0325663D01*
X0434497Y0324665D02*
X0428852Y0324665D01*
X0428852Y0323666D02*
X0434505Y0323666D01*
X0434507Y0322668D02*
X0428852Y0322668D01*
X0428852Y0321669D02*
X0434509Y0321669D01*
X0434504Y0320670D02*
X0428852Y0320670D01*
X0428852Y0319672D02*
X0434494Y0319672D01*
X0434483Y0318673D02*
X0428852Y0318673D01*
X0423999Y0365603D02*
X0421208Y0365603D01*
X0421208Y0366602D02*
X0423371Y0366602D01*
X0422743Y0367601D02*
X0421208Y0367601D01*
X0421647Y0368599D02*
X0422115Y0368599D01*
X0388851Y0365603D02*
X0381208Y0365603D01*
X0381208Y0366602D02*
X0388273Y0366602D01*
X0387694Y0367601D02*
X0381208Y0367601D01*
X0381208Y0368599D02*
X0387115Y0368599D01*
X0386536Y0369598D02*
X0381208Y0369598D01*
X0381208Y0370596D02*
X0385957Y0370596D01*
X0385379Y0371595D02*
X0381208Y0371595D01*
X0381208Y0372593D02*
X0384800Y0372593D01*
X0384221Y0373592D02*
X0381208Y0373592D01*
X0381639Y0374590D02*
X0383642Y0374590D01*
X0383064Y0375589D02*
X0382258Y0375589D01*
X0363208Y0375589D02*
X0342258Y0375589D01*
X0342489Y0376587D02*
X0363208Y0376587D01*
X0363208Y0377586D02*
X0342434Y0377586D01*
X0342021Y0378584D02*
X0363208Y0378584D01*
X0363208Y0379583D02*
X0341208Y0379583D01*
X0341208Y0380581D02*
X0363208Y0380581D01*
X0363208Y0381580D02*
X0341208Y0381580D01*
X0340844Y0382578D02*
X0363572Y0382578D01*
X0363208Y0374590D02*
X0341639Y0374590D01*
X0341208Y0373592D02*
X0362399Y0373592D01*
X0361985Y0372593D02*
X0341208Y0372593D01*
X0341208Y0371595D02*
X0361927Y0371595D01*
X0362156Y0370596D02*
X0341208Y0370596D01*
X0341208Y0369598D02*
X0362771Y0369598D01*
X0363208Y0368599D02*
X0341208Y0368599D01*
X0341208Y0367601D02*
X0363208Y0367601D01*
X0363208Y0366602D02*
X0341208Y0366602D01*
X0341208Y0365603D02*
X0363208Y0365603D01*
X0264465Y0367601D02*
X0261208Y0367601D01*
X0261208Y0366602D02*
X0263843Y0366602D01*
X0263222Y0365603D02*
X0261208Y0365603D01*
X0243384Y0341639D02*
X0226245Y0341639D01*
X0227663Y0342638D02*
X0241996Y0342638D01*
X0239897Y0343636D02*
X0229918Y0343636D01*
X0254577Y0327660D02*
X0264640Y0327660D01*
X0260202Y0326662D02*
X0254584Y0326662D01*
X0254591Y0325663D02*
X0260202Y0325663D01*
X0260202Y0324665D02*
X0254596Y0324665D01*
X0254598Y0323666D02*
X0260202Y0323666D01*
X0260202Y0322668D02*
X0254600Y0322668D01*
X0254600Y0321669D02*
X0260202Y0321669D01*
X0260202Y0320670D02*
X0254592Y0320670D01*
X0254583Y0319672D02*
X0260202Y0319672D01*
X0260202Y0318673D02*
X0254574Y0318673D01*
X0198981Y0287720D02*
X0180084Y0287720D01*
X0181320Y0288718D02*
X0197207Y0288718D01*
X0195433Y0289717D02*
X0182556Y0289717D01*
X0183793Y0290715D02*
X0193660Y0290715D01*
X0191886Y0291714D02*
X0185029Y0291714D01*
X0186283Y0292712D02*
X0190171Y0292712D01*
X0211611Y0251773D02*
X0371843Y0251773D01*
X0372366Y0250775D02*
X0212025Y0250775D01*
X0212077Y0249776D02*
X0372854Y0249776D01*
X0373343Y0248778D02*
X0212005Y0248778D01*
X0211591Y0247779D02*
X0373832Y0247779D01*
X0374321Y0246781D02*
X0210825Y0246781D01*
X0209262Y0245782D02*
X0374810Y0245782D01*
X0375299Y0244784D02*
X0177921Y0244784D01*
X0177977Y0243785D02*
X0206275Y0243785D01*
X0204758Y0242787D02*
X0177909Y0242787D01*
X0177495Y0241788D02*
X0204012Y0241788D01*
X0203598Y0240790D02*
X0176734Y0240790D01*
X0177915Y0232801D02*
X0204773Y0232801D01*
X0204018Y0231803D02*
X0177501Y0231803D01*
X0176749Y0230804D02*
X0203604Y0230804D01*
X0203540Y0229806D02*
X0175220Y0229806D01*
X0177927Y0212831D02*
X0204794Y0212831D01*
X0204021Y0211833D02*
X0177514Y0211833D01*
X0176779Y0210834D02*
X0203607Y0210834D01*
X0203530Y0209836D02*
X0175292Y0209836D01*
X0209224Y0213830D02*
X0241585Y0213830D01*
X0240375Y0212831D02*
X0210804Y0212831D01*
X0211577Y0211833D02*
X0239165Y0211833D01*
X0237955Y0210834D02*
X0211991Y0210834D01*
X0212067Y0209836D02*
X0236711Y0209836D01*
X0235887Y0208837D02*
X0212020Y0208837D01*
X0211607Y0207839D02*
X0235063Y0207839D01*
X0234239Y0206840D02*
X0210876Y0206840D01*
X0209397Y0205842D02*
X0233415Y0205842D01*
X0211593Y0221818D02*
X0371223Y0221818D01*
X0372130Y0222816D02*
X0210828Y0222816D01*
X0209298Y0235797D02*
X0379700Y0235797D01*
X0379211Y0236796D02*
X0210840Y0236796D01*
X0211598Y0237794D02*
X0378722Y0237794D01*
X0378233Y0238793D02*
X0212011Y0238793D01*
X0212077Y0239791D02*
X0377744Y0239791D01*
X0377255Y0240790D02*
X0212019Y0240790D01*
X0211605Y0241788D02*
X0376766Y0241788D01*
X0376277Y0242787D02*
X0210858Y0242787D01*
X0209341Y0243785D02*
X0375788Y0243785D01*
X0370899Y0252772D02*
X0363083Y0252772D01*
X0424824Y0208837D02*
X0453101Y0208837D01*
X0451510Y0207839D02*
X0423549Y0207839D01*
X0422302Y0206840D02*
X0450733Y0206840D01*
X0450320Y0205842D02*
X0421114Y0205842D01*
X0419959Y0204843D02*
X0450240Y0204843D01*
X0450284Y0203845D02*
X0418841Y0203845D01*
X0417770Y0202846D02*
X0450697Y0202846D01*
X0451424Y0201848D02*
X0402880Y0201848D01*
X0403645Y0202846D02*
X0413971Y0202846D01*
X0410438Y0203845D02*
X0404410Y0203845D01*
X0405857Y0204843D02*
X0406832Y0204843D01*
X0435208Y0113979D02*
X0496747Y0113979D01*
X0496146Y0112980D02*
X0435208Y0112980D01*
X0435208Y0111982D02*
X0495927Y0111982D01*
X0495995Y0110983D02*
X0434806Y0110983D01*
X0454074Y0106989D02*
X0459114Y0106989D01*
X0459385Y0107260D02*
X0458288Y0106163D01*
X0457694Y0104729D01*
X0457694Y0103178D01*
X0458288Y0101744D01*
X0459385Y0100647D01*
X0460818Y0100054D01*
X0462370Y0100054D01*
X0463803Y0100647D01*
X0464900Y0101744D01*
X0465494Y0103178D01*
X0465494Y0104729D01*
X0464900Y0106163D01*
X0463803Y0107260D01*
X0462370Y0107854D01*
X0460818Y0107854D01*
X0459385Y0107260D01*
X0458217Y0105991D02*
X0454972Y0105991D01*
X0455385Y0104992D02*
X0457803Y0104992D01*
X0457694Y0103994D02*
X0455494Y0103994D01*
X0455418Y0102995D02*
X0457770Y0102995D01*
X0458183Y0101997D02*
X0455005Y0101997D01*
X0454154Y0100998D02*
X0459034Y0100998D01*
X0464154Y0100998D02*
X0469034Y0100998D01*
X0469385Y0100647D02*
X0470818Y0100054D01*
X0472370Y0100054D01*
X0473803Y0100647D01*
X0474900Y0101744D01*
X0475494Y0103178D01*
X0475494Y0104729D01*
X0474900Y0106163D01*
X0473803Y0107260D01*
X0472370Y0107854D01*
X0470818Y0107854D01*
X0469385Y0107260D01*
X0468288Y0106163D01*
X0467694Y0104729D01*
X0467694Y0103178D01*
X0468288Y0101744D01*
X0469385Y0100647D01*
X0468183Y0101997D02*
X0465005Y0101997D01*
X0465418Y0102995D02*
X0467770Y0102995D01*
X0467694Y0103994D02*
X0465494Y0103994D01*
X0465385Y0104992D02*
X0467803Y0104992D01*
X0468217Y0105991D02*
X0464972Y0105991D01*
X0464074Y0106989D02*
X0469114Y0106989D01*
X0474074Y0106989D02*
X0479114Y0106989D01*
X0478217Y0105991D02*
X0474972Y0105991D01*
X0475385Y0104992D02*
X0477803Y0104992D01*
X0477694Y0103994D02*
X0475494Y0103994D01*
X0475418Y0102995D02*
X0477770Y0102995D01*
X0478183Y0101997D02*
X0475005Y0101997D01*
X0474154Y0100998D02*
X0479034Y0100998D01*
X0482592Y0098002D02*
X0450825Y0098002D01*
X0484029Y0077034D02*
X0518927Y0077034D01*
X0518974Y0076035D02*
X0484953Y0076035D01*
X0485367Y0075037D02*
X0519387Y0075037D01*
X0520330Y0074038D02*
X0485494Y0074038D01*
X0507574Y0053069D02*
X0526591Y0053069D01*
X0524616Y0052071D02*
X0508704Y0052071D01*
X0510681Y0051072D02*
X0522641Y0051072D01*
X0520666Y0050074D02*
X0511809Y0050074D01*
X0512937Y0049075D02*
X0518691Y0049075D01*
X0516716Y0048077D02*
X0514050Y0048077D01*
X0401380Y0048077D02*
X0393270Y0048077D01*
X0372313Y0048077D02*
X0364202Y0048077D01*
X0343246Y0048077D02*
X0335136Y0048077D01*
X0329478Y0047078D02*
X0314988Y0047078D01*
X0314966Y0046080D02*
X0329500Y0046080D01*
X0328712Y0048077D02*
X0315757Y0048077D01*
X0294799Y0048077D02*
X0286689Y0048077D01*
X0283420Y0059061D02*
X0280886Y0059061D01*
X0280668Y0060059D02*
X0283749Y0060059D01*
X0284264Y0061058D02*
X0280152Y0061058D01*
X0278958Y0062056D02*
X0285458Y0062056D01*
X0288958Y0062056D02*
X0295458Y0062056D01*
X0291921Y0061058D02*
X0290152Y0061058D01*
X0299717Y0063055D02*
X0274887Y0063055D01*
X0274190Y0064053D02*
X0300704Y0064053D01*
X0301084Y0065052D02*
X0273493Y0065052D01*
X0272796Y0066050D02*
X0301286Y0066050D01*
X0301397Y0067049D02*
X0272098Y0067049D01*
X0271401Y0068047D02*
X0301545Y0068047D01*
X0301694Y0069046D02*
X0270704Y0069046D01*
X0270007Y0070044D02*
X0301843Y0070044D01*
X0320929Y0085022D02*
X0340328Y0085022D01*
X0341564Y0086020D02*
X0319155Y0086020D01*
X0322703Y0084023D02*
X0339091Y0084023D01*
X0337855Y0083025D02*
X0324477Y0083025D01*
X0326251Y0082026D02*
X0336619Y0082026D01*
X0335383Y0081028D02*
X0328026Y0081028D01*
X0329723Y0080029D02*
X0334147Y0080029D01*
X0265731Y0048077D02*
X0257621Y0048077D01*
X0246997Y0063055D02*
X0231208Y0063055D01*
X0231208Y0064053D02*
X0247675Y0064053D01*
X0248353Y0065052D02*
X0231208Y0065052D01*
X0231208Y0066050D02*
X0249031Y0066050D01*
X0162031Y0062056D02*
X0155208Y0062056D01*
X0155208Y0062214D02*
X0154622Y0062800D01*
X0153794Y0062800D01*
X0153208Y0062214D01*
X0153208Y0059800D01*
X0150794Y0059800D01*
X0150208Y0059214D01*
X0150208Y0058386D01*
X0150794Y0057800D01*
X0154622Y0057800D01*
X0155208Y0058386D01*
X0155208Y0062214D01*
X0155208Y0061058D02*
X0161793Y0061058D01*
X0161555Y0060059D02*
X0155208Y0060059D01*
X0155208Y0059061D02*
X0161317Y0059061D01*
X0161080Y0058062D02*
X0154884Y0058062D01*
X0153208Y0060059D02*
X0115208Y0060059D01*
X0115208Y0059800D02*
X0115208Y0062214D01*
X0114622Y0062800D01*
X0113794Y0062800D01*
X0113208Y0062214D01*
X0113208Y0058386D01*
X0113794Y0057800D01*
X0114622Y0057800D01*
X0117622Y0057800D01*
X0118208Y0058386D01*
X0118208Y0059214D01*
X0117622Y0059800D01*
X0115208Y0059800D01*
X0115208Y0061058D02*
X0153208Y0061058D01*
X0153208Y0062056D02*
X0115208Y0062056D01*
X0113208Y0062056D02*
X0098879Y0062056D01*
X0098641Y0061058D02*
X0113208Y0061058D01*
X0113208Y0060059D02*
X0098403Y0060059D01*
X0099286Y0059061D02*
X0113208Y0059061D01*
X0113532Y0058062D02*
X0100342Y0058062D01*
X0101398Y0057063D02*
X0116956Y0057063D01*
X0116999Y0057106D02*
X0115902Y0056009D01*
X0115308Y0054576D01*
X0115308Y0053024D01*
X0115902Y0051591D01*
X0116999Y0050494D01*
X0118433Y0049900D01*
X0119984Y0049900D01*
X0121417Y0050494D01*
X0122515Y0051591D01*
X0123108Y0053024D01*
X0123108Y0054576D01*
X0122515Y0056009D01*
X0121417Y0057106D01*
X0119984Y0057700D01*
X0118433Y0057700D01*
X0116999Y0057106D01*
X0117884Y0058062D02*
X0150532Y0058062D01*
X0149984Y0057700D02*
X0148433Y0057700D01*
X0146999Y0057106D01*
X0145902Y0056009D01*
X0145308Y0054576D01*
X0145308Y0053024D01*
X0145902Y0051591D01*
X0146999Y0050494D01*
X0148433Y0049900D01*
X0149984Y0049900D01*
X0151417Y0050494D01*
X0152515Y0051591D01*
X0153108Y0053024D01*
X0153108Y0054576D01*
X0152515Y0056009D01*
X0151417Y0057106D01*
X0149984Y0057700D01*
X0150208Y0059061D02*
X0118208Y0059061D01*
X0115958Y0056065D02*
X0102455Y0056065D01*
X0103511Y0055066D02*
X0115512Y0055066D01*
X0115308Y0054068D02*
X0104567Y0054068D01*
X0105623Y0053069D02*
X0115308Y0053069D01*
X0115703Y0052071D02*
X0106679Y0052071D01*
X0107736Y0051072D02*
X0116420Y0051072D01*
X0118013Y0050074D02*
X0108792Y0050074D01*
X0109848Y0049075D02*
X0158939Y0049075D01*
X0158701Y0048077D02*
X0110904Y0048077D01*
X0111961Y0047078D02*
X0158463Y0047078D01*
X0158226Y0046080D02*
X0113017Y0046080D01*
X0114073Y0045081D02*
X0156078Y0045081D01*
X0152731Y0044083D02*
X0115129Y0044083D01*
X0116185Y0043084D02*
X0149383Y0043084D01*
X0146036Y0042086D02*
X0117242Y0042086D01*
X0118298Y0041087D02*
X0142688Y0041087D01*
X0139340Y0040089D02*
X0119354Y0040089D01*
X0120410Y0039090D02*
X0135993Y0039090D01*
X0132645Y0038092D02*
X0121466Y0038092D01*
X0122523Y0037093D02*
X0129298Y0037093D01*
X0125950Y0036095D02*
X0123579Y0036095D01*
X0120404Y0050074D02*
X0128013Y0050074D01*
X0128433Y0049900D02*
X0129984Y0049900D01*
X0131417Y0050494D01*
X0132515Y0051591D01*
X0133108Y0053024D01*
X0133108Y0054576D01*
X0132515Y0056009D01*
X0131417Y0057106D01*
X0129984Y0057700D01*
X0128433Y0057700D01*
X0126999Y0057106D01*
X0125902Y0056009D01*
X0125308Y0054576D01*
X0125308Y0053024D01*
X0125902Y0051591D01*
X0126999Y0050494D01*
X0128433Y0049900D01*
X0130404Y0050074D02*
X0138013Y0050074D01*
X0138433Y0049900D02*
X0139984Y0049900D01*
X0141417Y0050494D01*
X0142515Y0051591D01*
X0143108Y0053024D01*
X0143108Y0054576D01*
X0142515Y0056009D01*
X0141417Y0057106D01*
X0139984Y0057700D01*
X0138433Y0057700D01*
X0136999Y0057106D01*
X0135902Y0056009D01*
X0135308Y0054576D01*
X0135308Y0053024D01*
X0135902Y0051591D01*
X0136999Y0050494D01*
X0138433Y0049900D01*
X0140404Y0050074D02*
X0148013Y0050074D01*
X0146420Y0051072D02*
X0141996Y0051072D01*
X0142713Y0052071D02*
X0145703Y0052071D01*
X0145308Y0053069D02*
X0143108Y0053069D01*
X0143108Y0054068D02*
X0145308Y0054068D01*
X0145512Y0055066D02*
X0142905Y0055066D01*
X0142459Y0056065D02*
X0145958Y0056065D01*
X0146956Y0057063D02*
X0141460Y0057063D01*
X0136956Y0057063D02*
X0131460Y0057063D01*
X0132459Y0056065D02*
X0135958Y0056065D01*
X0135512Y0055066D02*
X0132905Y0055066D01*
X0133108Y0054068D02*
X0135308Y0054068D01*
X0135308Y0053069D02*
X0133108Y0053069D01*
X0132713Y0052071D02*
X0135703Y0052071D01*
X0136420Y0051072D02*
X0131996Y0051072D01*
X0126420Y0051072D02*
X0121996Y0051072D01*
X0122713Y0052071D02*
X0125703Y0052071D01*
X0125308Y0053069D02*
X0123108Y0053069D01*
X0123108Y0054068D02*
X0125308Y0054068D01*
X0125512Y0055066D02*
X0122905Y0055066D01*
X0122459Y0056065D02*
X0125958Y0056065D01*
X0126956Y0057063D02*
X0121460Y0057063D01*
X0120296Y0080029D02*
X0128120Y0080029D01*
X0128433Y0079900D02*
X0129984Y0079900D01*
X0131417Y0080494D01*
X0132515Y0081591D01*
X0133108Y0083024D01*
X0133108Y0084576D01*
X0132515Y0086009D01*
X0131417Y0087106D01*
X0129984Y0087700D01*
X0128433Y0087700D01*
X0126999Y0087106D01*
X0125902Y0086009D01*
X0125308Y0084576D01*
X0125308Y0083024D01*
X0125902Y0081591D01*
X0126999Y0080494D01*
X0128433Y0079900D01*
X0130296Y0080029D02*
X0138120Y0080029D01*
X0138433Y0079900D02*
X0139984Y0079900D01*
X0141417Y0080494D01*
X0142515Y0081591D01*
X0143108Y0083024D01*
X0143108Y0084576D01*
X0142515Y0086009D01*
X0141417Y0087106D01*
X0139984Y0087700D01*
X0138433Y0087700D01*
X0136999Y0087106D01*
X0135902Y0086009D01*
X0135308Y0084576D01*
X0135308Y0083024D01*
X0135902Y0081591D01*
X0136999Y0080494D01*
X0138433Y0079900D01*
X0140296Y0080029D02*
X0148120Y0080029D01*
X0146465Y0081028D02*
X0141951Y0081028D01*
X0142695Y0082026D02*
X0145722Y0082026D01*
X0145308Y0083025D02*
X0143108Y0083025D01*
X0143108Y0084023D02*
X0145308Y0084023D01*
X0145493Y0085022D02*
X0142923Y0085022D01*
X0142503Y0086020D02*
X0145913Y0086020D01*
X0146912Y0087019D02*
X0141505Y0087019D01*
X0136912Y0087019D02*
X0131505Y0087019D01*
X0132503Y0086020D02*
X0135913Y0086020D01*
X0135493Y0085022D02*
X0132923Y0085022D01*
X0133108Y0084023D02*
X0135308Y0084023D01*
X0135308Y0083025D02*
X0133108Y0083025D01*
X0132695Y0082026D02*
X0135722Y0082026D01*
X0136465Y0081028D02*
X0131951Y0081028D01*
X0126465Y0081028D02*
X0121951Y0081028D01*
X0122695Y0082026D02*
X0125722Y0082026D01*
X0125308Y0083025D02*
X0123108Y0083025D01*
X0123108Y0084023D02*
X0125308Y0084023D01*
X0125493Y0085022D02*
X0122923Y0085022D01*
X0122503Y0086020D02*
X0125913Y0086020D01*
X0126912Y0087019D02*
X0121505Y0087019D01*
X0151460Y0057063D02*
X0160842Y0057063D01*
X0160604Y0056065D02*
X0152459Y0056065D01*
X0152905Y0055066D02*
X0160366Y0055066D01*
X0160128Y0054068D02*
X0153108Y0054068D01*
X0153108Y0053069D02*
X0159890Y0053069D01*
X0159653Y0052071D02*
X0152713Y0052071D01*
X0151996Y0051072D02*
X0159415Y0051072D01*
X0159177Y0050074D02*
X0150404Y0050074D01*
X0177507Y0245782D02*
X0206354Y0245782D01*
X0204791Y0246781D02*
X0176764Y0246781D01*
X0175256Y0247779D02*
X0204025Y0247779D01*
X0536124Y0157913D02*
X0574368Y0157913D01*
X0574616Y0156915D02*
X0536603Y0156915D01*
X0536886Y0155916D02*
X0574864Y0155916D01*
M02*
